<svg width="24" height="21" viewBox="0 0 24 21" fill="none" xmlns="http://www.w3.org/2000/svg">
<path d="M12.2666 1.67871C12.683 1.2627 13.3581 1.26255 13.7744 1.67871L22.7744 10.6797C22.8091 10.7144 22.8091 10.771 22.7744 10.8057L13.7744 19.8057C13.3841 20.196 12.7665 20.2202 12.3477 19.8789L12.2666 19.8057C11.8502 19.3892 11.8502 18.7143 12.2666 18.2979L18.0723 12.4912L18.7549 11.8086H2.26758C1.67866 11.8086 1.20117 11.3311 1.20117 10.7422C1.20128 10.1534 1.67872 9.67578 2.26758 9.67578H18.7549L12.2666 3.1875C11.8502 2.77107 11.8502 2.09514 12.2666 1.67871Z" fill="#335FFF" stroke="white" stroke-width="0.8"/>
</svg>
