<svg width="24" height="24" viewBox="0 0 24 24" fill="none" xmlns="http://www.w3.org/2000/svg">
<path d="M19.999 12.0204C19.9987 12.038 19.9983 12.0556 19.9971 12.0732C19.9935 12.1221 19.9859 12.17 19.9756 12.2167C19.9731 12.2278 19.9706 12.2389 19.9678 12.2499C19.9504 12.3172 19.9257 12.3813 19.8955 12.4423C19.8484 12.5376 19.7864 12.6276 19.707 12.707L12.707 19.707C12.3165 20.0974 11.6835 20.0974 11.293 19.707C10.9025 19.3164 10.9025 18.6834 11.293 18.2929L16.5859 12.9999H5C4.44774 12.9999 4.00004 12.5522 4 11.9999C4 11.4476 4.44772 10.9999 5 10.9999H16.5859L11.293 5.70696C10.9025 5.31644 10.9025 4.68342 11.293 4.29289C11.6835 3.90237 12.3165 3.90237 12.707 4.29289L19.707 11.2929C19.7642 11.3501 19.8134 11.4147 19.8555 11.4843C19.8675 11.5042 19.8791 11.5243 19.8896 11.5448C19.9216 11.6072 19.9474 11.673 19.9658 11.7421C19.9702 11.7587 19.975 11.7752 19.9785 11.7919C19.9808 11.8029 19.9824 11.814 19.9844 11.8251C19.9875 11.8426 19.99 11.8602 19.9922 11.8779C19.9943 11.8956 19.9959 11.9135 19.9971 11.9316C19.9982 11.9475 19.9987 11.9635 19.999 11.9794C19.9992 11.9862 20 11.9931 20 11.9999C20 12.0068 19.9992 12.0136 19.999 12.0204Z" fill="#24262B"/>
</svg>
