<svg width="34" height="35" viewBox="0 0 34 35" fill="none" xmlns="http://www.w3.org/2000/svg">
<path d="M22.6718 11.6078C22.684 11.6205 22.6962 11.6331 22.7077 11.6465C22.7398 11.6836 22.7683 11.7228 22.794 11.7632C22.8002 11.7727 22.8062 11.7824 22.812 11.7922C22.8473 11.852 22.8751 11.9148 22.8969 11.9793C22.931 12.08 22.9508 12.1875 22.9508 12.2997V22.1992C22.9508 22.7514 22.5031 23.1991 21.9509 23.1991C21.3986 23.1991 20.951 22.7515 20.951 22.1992V14.7138L12.7585 22.9063C12.368 23.2968 11.7348 23.2968 11.3443 22.9063C10.9538 22.5158 10.9538 21.8826 11.3443 21.4921L19.5368 13.2996L12.0514 13.2996C11.4991 13.2996 11.0515 12.852 11.0515 12.2997C11.0515 11.7474 11.4991 11.2998 12.0514 11.2998L21.9509 11.2998C22.0317 11.2998 22.1123 11.3107 22.1912 11.3302C22.2138 11.3358 22.2362 11.3418 22.2582 11.3488C22.3249 11.3703 22.3897 11.3986 22.4515 11.4345C22.4664 11.4431 22.4814 11.4514 22.4957 11.4607C22.5051 11.4668 22.5141 11.4736 22.5234 11.48C22.5379 11.4902 22.5522 11.5009 22.5662 11.5118C22.5803 11.5228 22.594 11.5344 22.6076 11.5463C22.6196 11.5568 22.6313 11.5677 22.6428 11.5788C22.6477 11.5835 22.6532 11.5878 22.658 11.5926C22.6629 11.5975 22.6671 11.6029 22.6718 11.6078Z" fill="#335FFF" stroke="white" stroke-width="0.5" stroke-linecap="round" stroke-linejoin="round"/>
</svg>
