<svg width="20" height="21" viewBox="0 0 20 21" fill="none" xmlns="http://www.w3.org/2000/svg">
<path d="M16.6655 10.7589C16.6652 10.7735 16.665 10.7882 16.6639 10.8028C16.6609 10.8436 16.6546 10.8835 16.646 10.9225C16.644 10.9317 16.6418 10.9409 16.6395 10.9501C16.625 11.0062 16.6044 11.0596 16.5793 11.1105C16.54 11.1899 16.4883 11.2649 16.4222 11.331L10.5889 17.1643C10.2634 17.4897 9.73591 17.4897 9.41048 17.1643C9.08505 16.8389 9.08508 16.3114 9.41048 15.9859L13.8213 11.5751H4.16634C3.70612 11.5751 3.33304 11.202 3.33301 10.7418C3.33301 10.2816 3.7061 9.90847 4.16634 9.90847H13.8213L9.41048 5.49766C9.08505 5.17223 9.08508 4.64471 9.41048 4.31927C9.73592 3.99384 10.2634 3.99384 10.5889 4.31927L16.4222 10.1526C16.4698 10.2002 16.5109 10.2541 16.5459 10.3121C16.5559 10.3287 16.5656 10.3454 16.5744 10.3626C16.601 10.4145 16.6225 10.4694 16.6379 10.527C16.6415 10.5408 16.6455 10.5545 16.6484 10.5685C16.6504 10.5776 16.6517 10.5869 16.6533 10.5961C16.6559 10.6107 16.658 10.6254 16.6598 10.6401C16.6616 10.6549 16.6629 10.6698 16.6639 10.6848C16.6648 10.6981 16.6653 10.7114 16.6655 10.7247C16.6656 10.7304 16.6663 10.7361 16.6663 10.7418C16.6663 10.7475 16.6656 10.7532 16.6655 10.7589Z" fill="#335FFF"/>
</svg>
