<svg width="24" height="25" viewBox="0 0 24 25" fill="none" xmlns="http://www.w3.org/2000/svg">
<path d="M19.999 12.2699C19.9987 12.2875 19.9983 12.3051 19.9971 12.3227C19.9935 12.3716 19.9859 12.4195 19.9756 12.4662C19.9731 12.4773 19.9706 12.4884 19.9678 12.4994C19.9504 12.5667 19.9257 12.6308 19.8955 12.6918C19.8484 12.7871 19.7864 12.8771 19.707 12.9565L12.707 19.9565C12.3165 20.3469 11.6835 20.3469 11.293 19.9565C10.9025 19.566 10.9025 18.9329 11.293 18.5424L16.5859 13.2494H5C4.44774 13.2494 4.00004 12.8017 4 12.2494C4 11.6972 4.44772 11.2494 5 11.2494H16.5859L11.293 5.95647C10.9025 5.56596 10.9025 4.93293 11.293 4.5424C11.6835 4.15188 12.3165 4.15188 12.707 4.5424L19.707 11.5424C19.7642 11.5996 19.8134 11.6642 19.8555 11.7338C19.8675 11.7538 19.8791 11.7738 19.8896 11.7944C19.9216 11.8567 19.9474 11.9226 19.9658 11.9916C19.9702 12.0082 19.975 12.0247 19.9785 12.0414C19.9808 12.0524 19.9824 12.0635 19.9844 12.0746C19.9875 12.0921 19.99 12.1097 19.9922 12.1274C19.9943 12.1451 19.9959 12.163 19.9971 12.1811C19.9982 12.197 19.9987 12.213 19.999 12.2289C19.9992 12.2357 20 12.2426 20 12.2494C20 12.2563 19.9992 12.2631 19.999 12.2699Z" fill="#3D4048" stroke="white" stroke-width="0.5" stroke-linecap="round" stroke-linejoin="round"/>
</svg>
