<svg width="24" height="21" viewBox="0 0 24 21" fill="none" xmlns="http://www.w3.org/2000/svg">
<path d="M11.7334 1.67871C11.317 1.2627 10.6419 1.26255 10.2256 1.67871L1.22559 10.6797C1.19092 10.7144 1.19092 10.771 1.22559 10.8057L10.2256 19.8057C10.6159 20.196 11.2335 20.2202 11.6523 19.8789L11.7334 19.8057C12.1498 19.3892 12.1498 18.7143 11.7334 18.2979L5.92773 12.4912L5.24512 11.8086H21.7324C22.3213 11.8086 22.7988 11.3311 22.7988 10.7422C22.7987 10.1534 22.3213 9.67578 21.7324 9.67578H5.24512L11.7334 3.1875C12.1498 2.77107 12.1498 2.09514 11.7334 1.67871Z" fill="#335FFF" stroke="white" stroke-width="0.8"/>
</svg>
