<svg width="48" height="48" viewBox="0 0 48 48" fill="none" xmlns="http://www.w3.org/2000/svg">
<g clip-path="url(#clip0_5252_246)">
<path d="M46.6875 19.4482L41.91 19.129C41.5407 17.8097 41.0226 16.543 40.3616 15.3439L43.5334 11.6734C44.0127 11.1187 43.9854 10.2887 43.4708 9.76669L39.08 5.31281C38.5546 4.77994 37.7039 4.75163 37.1445 5.24878L33.5456 8.44622C32.6907 7.96406 31.7994 7.55634 30.8802 7.227L30.5415 2.02697C30.4933 1.28737 29.8793 0.712125 29.1383 0.712125H24C23.2339 0.712125 22.612 1.32516 22.5953 2.08725C21.1378 0.788812 19.2267 0 17.1366 0C12.3683 0 8.55441 4.09734 8.88787 8.95153C7.31428 9.28809 5.87138 10.0837 4.71891 11.2692C3.18844 12.8435 2.34562 14.9267 2.34562 17.1352C2.34562 18.5985 2.72381 20.0249 3.42994 21.2784C1.30631 22.8323 0 25.3493 0 28.0629C0 30.106 0.749344 32.0863 2.07759 33.6069C2.02884 33.9756 2.00437 34.3484 2.00437 34.7219C2.00437 39.1032 5.35022 42.7088 9.59278 43.0604C10.8879 45.9631 13.7556 48 17.1366 48C19.2267 48 21.1378 47.2111 22.5953 45.9126C22.6119 46.6748 23.2338 47.288 24 47.288H29.1381C29.8792 47.288 30.4932 46.7127 30.5413 45.9731L30.88 40.7727C31.8003 40.4427 32.6917 40.0351 33.5455 39.5537L37.1444 42.7504C37.7037 43.2471 38.5542 43.2191 39.0796 42.6863L43.4705 38.2335C43.9852 37.7115 44.0125 36.8815 43.5333 36.3268L40.3614 32.6553C41.0223 31.4564 41.5404 30.1898 41.9098 28.871L46.6875 28.5518C47.4261 28.5023 48 27.8888 48 27.1486V20.8513C48 20.1112 47.4261 19.4977 46.6875 19.4482ZM25.4062 15.2181C29.9948 15.4259 33.665 19.2852 33.665 24C33.665 28.7142 29.9948 32.5731 25.4062 32.7809V15.2181ZM17.1366 45.1875C14.7241 45.1875 12.6278 43.6125 11.9203 41.2683C11.7332 40.6482 11.1454 40.2335 10.4932 40.2707C7.89488 40.4199 5.39681 38.4951 4.90434 35.7064C7.07981 36.6874 9.58247 36.7128 11.9918 35.4959C12.7641 36.0978 13.7308 36.4571 14.7796 36.4571C14.8468 36.4571 14.9141 36.4558 14.98 36.4532C15.7561 36.4227 16.3606 35.769 16.33 34.9929C16.2996 34.2169 15.6455 33.6131 14.8698 33.6429C14.8401 33.6441 14.8098 33.6447 14.7796 33.6447C13.2203 33.6447 12.4375 31.7089 13.5243 30.5772C14.0622 30.017 14.0441 29.1267 13.4839 28.5889C12.9236 28.051 12.0336 28.069 11.4956 28.6293C10.665 29.4944 10.2075 30.6348 10.2075 31.8403C10.2075 32.2928 10.2734 32.7298 10.3942 33.1432C8.247 34.0803 6.03628 33.5339 4.55409 32.1294C4.55391 32.1292 4.55372 32.129 4.55344 32.1288C3.447 31.0822 2.8125 29.6003 2.8125 28.0629C2.8125 25.8799 4.07653 23.8909 6.03263 22.9957C6.03281 22.9956 6.03309 22.9955 6.03338 22.9954C6.73828 22.6726 7.49072 22.5089 8.26969 22.5089C8.56444 22.5089 8.85909 22.5327 9.14541 22.5797C9.912 22.7054 10.6351 22.186 10.7608 21.4196C10.8865 20.6532 10.3672 19.9299 9.60075 19.8042C9.16434 19.7326 8.7165 19.6963 8.26959 19.6963C7.47787 19.6963 6.70397 19.808 5.95697 20.0283C5.43787 19.1627 5.15803 18.1633 5.15803 17.1351C5.15803 14.4597 7.0545 12.1994 9.55022 11.6906C10.1248 13.0284 11.0425 14.208 12.2108 15.0859C12.8317 15.5524 13.7133 15.4272 14.1798 14.8062C14.6463 14.1853 14.5211 13.3038 13.9001 12.8373C12.9084 12.0922 12.1869 11.0196 11.8687 9.81694C11.8687 9.81647 11.8684 9.816 11.8683 9.81544C11.8682 9.81516 11.8682 9.81488 11.8681 9.81469C10.9312 6.29756 13.5488 2.8125 17.1366 2.8125C20.1457 2.8125 22.5938 5.30363 22.5938 8.36559V8.89734C21.4197 9.13875 20.3171 9.67819 19.3984 10.4772C18.1388 11.5727 17.298 13.0852 17.0309 14.7363C17.0189 14.8105 17.0129 14.8856 17.0129 14.9608V14.9618C17.0129 15.7384 17.6425 16.3675 18.4192 16.3675C19.1262 16.3675 19.7114 15.8453 19.8106 15.1657C20.0758 13.5707 21.1654 12.312 22.5938 11.8063V26.2253C21.9247 25.8197 21.4367 25.1296 21.2953 24.2969C21.1977 23.6155 20.6117 23.0921 19.9033 23.0921C19.0365 23.0921 18.3771 23.8688 18.5151 24.7232C18.8781 26.9672 20.5043 28.7037 22.5938 29.2492V38.635C21.9247 38.2295 21.4367 37.5395 21.2953 36.707C21.1978 36.0255 20.6117 35.5019 19.9033 35.5019C19.1267 35.5019 18.4971 36.1319 18.4971 36.9085C18.4971 36.9837 18.5031 37.0588 18.5151 37.1331C18.8582 39.2542 20.33 40.9225 22.2547 41.5596C21.4836 43.6756 19.4805 45.1875 17.1366 45.1875ZM45.1875 25.8332L40.6991 26.1331C40.0737 26.1749 39.5514 26.6256 39.4186 27.2382C39.0464 28.9544 38.3834 30.5769 37.448 32.061C37.1181 32.5844 37.169 33.262 37.5735 33.7302L40.5565 37.1832L38.0144 39.7612L34.6388 36.7629C34.1659 36.3428 33.4706 36.2902 32.9399 36.6344C31.7602 37.3993 30.4821 37.9878 29.1411 38.3832C28.5754 38.55 28.1738 39.0521 28.1355 39.6406L27.8206 44.4756H25.4062V39.6336V35.5963C31.5461 35.3876 36.4775 30.266 36.4775 24.0002C36.4775 17.7338 31.5461 12.6117 25.4062 12.403V8.36559V3.52453H27.8204L28.1353 8.35959C28.1737 8.94844 28.5756 9.45075 29.1417 9.61725C30.4794 10.0108 31.7572 10.5991 32.9397 11.3657C33.4705 11.7099 34.1658 11.6573 34.6388 11.237L38.0142 8.238L40.5563 10.8166L37.5734 14.2686C37.1689 14.7367 37.1179 15.4145 37.4478 15.9379C38.3833 17.422 39.0463 19.0449 39.4184 20.7615C39.5513 21.3742 40.0735 21.8249 40.699 21.8667L45.1875 22.1668V25.8332Z" fill="#335FFF"/>
</g>
<defs>
<clipPath id="clip0_5252_246">
<rect width="48" height="48" fill="white"/>
</clipPath>
</defs>
</svg>
