<svg width="45" height="27" viewBox="0 0 45 27" fill="none" xmlns="http://www.w3.org/2000/svg">
<mask id="mask0_4382_855" style="mask-type:luminance" maskUnits="userSpaceOnUse" x="0" y="0" width="45" height="27">
<path d="M44.5661 0.449219H0.929688V26.1635H44.5661V0.449219Z" fill="white"/>
</mask>
<g mask="url(#mask0_4382_855)">
<path d="M13.2709 9.76801C13.2709 10.2952 13.3287 10.7225 13.4298 11.036C13.5455 11.3494 13.69 11.6913 13.8922 12.0617C13.9645 12.1757 13.9934 12.2896 13.9934 12.3894C13.9934 12.5319 13.9067 12.6743 13.7189 12.8168L12.8086 13.4152C12.6785 13.5006 12.5485 13.5434 12.4329 13.5434C12.2884 13.5434 12.1439 13.4722 11.9994 13.3439C11.7971 13.1302 11.6237 12.9022 11.4792 12.6743C11.3348 12.4321 11.1903 12.1614 11.0313 11.8338C9.90429 13.1445 8.48829 13.7998 6.78329 13.7998C5.56956 13.7998 4.60147 13.4579 3.89346 12.7741C3.18545 12.0902 2.82422 11.1784 2.82422 10.0387C2.82422 8.82773 3.25769 7.84467 4.13909 7.10384C5.02049 6.36301 6.19087 5.99264 7.6791 5.99264C8.17035 5.99264 8.6761 6.03533 9.21073 6.10656C9.74536 6.17779 10.2944 6.29179 10.8724 6.42001V5.37996C10.8724 4.29721 10.6412 3.54216 10.1932 3.10047C9.73088 2.65887 8.95066 2.44519 7.83811 2.44519C7.33234 2.44519 6.81218 2.50219 6.27757 2.63033C5.74294 2.75856 5.22278 2.91533 4.71706 3.11479C4.48587 3.21447 4.31248 3.27147 4.21134 3.29993C4.11019 3.32847 4.03795 3.3427 3.98015 3.3427C3.77787 3.3427 3.67672 3.20024 3.67672 2.90101V2.20296C3.67672 1.97504 3.70562 1.80404 3.77787 1.70436C3.85011 1.60459 3.98015 1.5049 4.18244 1.40513C4.68815 1.14867 5.29502 0.934987 6.00303 0.764072C6.71103 0.578844 7.46239 0.493386 8.2571 0.493386C9.97655 0.493386 11.2336 0.877986 12.0427 1.64736C12.8374 2.41664 13.242 3.58493 13.242 5.15204V9.76801H13.2709ZM7.4046 11.9335C7.88139 11.9335 8.37265 11.848 8.89289 11.677C9.41303 11.5061 9.8754 11.1927 10.2655 10.7653C10.4967 10.4946 10.6701 10.1954 10.7568 9.85347C10.8435 9.51156 10.9013 9.09841 10.9013 8.61404V8.01567C10.4823 7.9159 10.0343 7.83044 9.57195 7.77344C9.10958 7.71644 8.6617 7.68799 8.21373 7.68799C7.24566 7.68799 6.53765 7.87321 6.06082 8.25781C5.584 8.6425 5.35281 9.18387 5.35281 9.89624C5.35281 10.5658 5.52621 11.0644 5.88744 11.4064C6.23422 11.7625 6.73994 11.9335 7.4046 11.9335ZM19.0073 13.4722C18.7472 13.4722 18.5738 13.4294 18.4581 13.3297C18.3426 13.2442 18.2415 13.0448 18.1547 12.7741L14.7592 1.76136C14.6725 1.47636 14.6291 1.29122 14.6291 1.19144C14.6291 0.96353 14.7448 0.8353 14.976 0.8353H16.392C16.6664 0.8353 16.8543 0.877987 16.9555 0.977758C17.071 1.06322 17.1578 1.26267 17.2444 1.53336L19.6719 10.9648L21.9259 1.53336C21.9982 1.24844 22.0849 1.06322 22.2005 0.977758C22.3161 0.892301 22.5183 0.8353 22.7785 0.8353H23.9344C24.2089 0.8353 24.3968 0.877987 24.5123 0.977758C24.628 1.06322 24.7291 1.26267 24.7869 1.53336L27.0699 11.0787L29.5695 1.53336C29.6563 1.24844 29.7574 1.06322 29.8585 0.977758C29.9741 0.892301 30.1619 0.8353 30.422 0.8353H31.7658C31.997 0.8353 32.1271 0.949215 32.1271 1.19144C32.1271 1.26267 32.1126 1.3339 32.0982 1.41936C32.0837 1.5049 32.0548 1.61881 31.997 1.77559L28.5148 12.7883C28.4281 13.0732 28.327 13.2585 28.2113 13.3439C28.0958 13.4294 27.9079 13.4864 27.6623 13.4864H26.4196C26.1451 13.4864 25.9572 13.4436 25.8417 13.3439C25.726 13.2442 25.625 13.059 25.5671 12.7741L23.3275 3.58493L21.1023 12.7598C21.0301 13.0448 20.9434 13.2299 20.8279 13.3297C20.7122 13.4294 20.5099 13.4722 20.2499 13.4722H19.0073ZM37.5744 13.8568C36.823 13.8568 36.0716 13.7713 35.3492 13.6004C34.6267 13.4294 34.0632 13.2442 33.6876 13.0305C33.4564 12.9022 33.2974 12.7598 33.2396 12.6316C33.1818 12.5033 33.153 12.3609 33.153 12.2326V11.5061C33.153 11.2069 33.2685 11.0644 33.4853 11.0644C33.572 11.0644 33.6586 11.0787 33.7454 11.1072C33.832 11.1357 33.9621 11.1927 34.1066 11.2497C34.5978 11.4634 35.1325 11.6344 35.696 11.7483C36.2739 11.8623 36.8374 11.9193 37.4154 11.9193C38.3257 11.9193 39.0337 11.7625 39.525 11.4491C40.0163 11.1357 40.2763 10.6798 40.2763 10.0957C40.2763 9.69678 40.1463 9.3691 39.8862 9.09841C39.6262 8.82773 39.1349 8.5855 38.4268 8.35759L36.3318 7.71644C35.277 7.38876 34.4967 6.90439 34.0199 6.26333C33.5431 5.63641 33.2974 4.93836 33.2974 4.19753C33.2974 3.59916 33.4274 3.07202 33.6876 2.6161C33.9477 2.16019 34.2944 1.76136 34.7279 1.4479C35.1614 1.12022 35.6526 0.877986 36.2306 0.707072C36.8086 0.536072 37.4154 0.464844 38.0512 0.464844C38.3691 0.464844 38.7014 0.479072 39.0193 0.521843C39.3516 0.564615 39.655 0.621615 39.9585 0.678529C40.2474 0.749758 40.522 0.821072 40.7821 0.906529C41.0421 0.991986 41.2444 1.07744 41.389 1.16299C41.5913 1.2769 41.7357 1.3909 41.8225 1.51913C41.9091 1.63313 41.9525 1.78981 41.9525 1.98927V2.65887C41.9525 2.95801 41.8369 3.11479 41.6202 3.11479C41.5045 3.11479 41.3167 3.05779 41.071 2.94379C40.2474 2.57341 39.3227 2.38819 38.2968 2.38819C37.4732 2.38819 36.823 2.51642 36.3751 2.7871C35.9272 3.05779 35.696 3.47093 35.696 4.05507C35.696 4.45399 35.8404 4.7959 36.1295 5.06659C36.4184 5.33727 36.9531 5.60796 37.7189 5.8501L39.7707 6.49124C40.811 6.81893 41.5623 7.27484 42.0103 7.8589C42.4582 8.44304 42.6749 9.11264 42.6749 9.85347C42.6749 10.4661 42.5449 11.0217 42.2992 11.5061C42.0392 11.9905 41.6923 12.4179 41.2444 12.7598C40.7966 13.116 40.2619 13.3724 39.6406 13.5576C38.9904 13.7571 38.3113 13.8568 37.5744 13.8568Z" fill="#F4F4F4"/>
<path d="M40.3047 20.7799C35.5509 24.2419 28.6442 26.0797 22.7057 26.0797C14.3829 26.0797 6.88387 23.0452 1.21981 18.0018C0.771888 17.6029 1.17646 17.0616 1.71107 17.375C7.83747 20.8797 15.3944 23.0024 23.2113 23.0024C28.4853 23.0024 34.2794 21.9197 39.6111 19.6972C40.4058 19.341 41.085 20.2101 40.3047 20.7799ZM42.2842 18.5574C41.6774 17.7882 38.2674 18.1871 36.7213 18.3723C36.259 18.4292 36.1867 18.0303 36.6057 17.7312C39.3222 15.8506 43.7869 16.392 44.3071 17.0188C44.8272 17.6599 44.1626 22.0621 41.6196 24.1707C41.2294 24.4984 40.8538 24.3274 41.0271 23.9C41.6051 22.4896 42.8911 19.3126 42.2842 18.5574Z" fill="#FF9900"/>
</g>
</svg>
