<svg width="48" height="49" viewBox="0 0 48 49" fill="none" xmlns="http://www.w3.org/2000/svg">
<mask id="mask0_4382_798" style="mask-type:luminance" maskUnits="userSpaceOnUse" x="2" y="4" width="44" height="41">
<path d="M45.8161 4.16406H2.17969V44.4498H45.8161V4.16406Z" fill="white"/>
</mask>
<g mask="url(#mask0_4382_798)">
<path d="M16.7268 4.16454H29.6392L16.2349 42.9517C15.9524 43.7689 15.1677 44.3194 14.2845 44.3194H4.23547C3.57338 44.3194 2.95178 44.0081 2.5656 43.4829C2.17941 42.9576 2.0759 42.2829 2.28756 41.6702L14.7759 5.53224C15.0583 4.71464 15.8433 4.16454 16.7268 4.16454Z" fill="url(#paint0_linear_4382_798)"/>
<path d="M35.4911 30.1797H15.0152C14.6256 30.1793 14.2755 30.4117 14.1325 30.7656C13.9896 31.1195 14.083 31.5228 14.368 31.7823L27.5254 43.7758C27.9084 44.1248 28.4129 44.3187 28.9367 44.3187H40.531L35.4911 30.1797Z" fill="#0078D4"/>
<path d="M16.7281 4.16408C15.8341 4.16074 15.0417 4.72574 14.7728 5.55843L2.30421 41.6368C2.07824 42.252 2.1734 42.936 2.55921 43.47C2.94502 44.0039 3.57306 44.3207 4.2422 44.319H14.5506C15.3322 44.1825 15.9783 43.646 16.2417 42.9145L18.7281 35.7578L27.6098 43.8482C27.9819 44.1488 28.4488 44.3151 28.9319 44.319H40.483L35.4168 30.1799L20.6482 30.1833L29.6872 4.16408H16.7281Z" fill="url(#paint1_linear_4382_798)"/>
<path d="M33.2214 5.52982C32.9394 4.71353 32.1556 4.16406 31.2735 4.16406H16.8828C17.7649 4.16406 18.5486 4.71363 18.8307 5.52982L31.3196 41.6693C31.5315 42.2821 31.428 42.957 31.0419 43.4824C30.6557 44.0078 30.0339 44.3194 29.3717 44.3194H43.7629C44.425 44.3194 45.0466 44.0076 45.4327 43.4821C45.8187 42.9568 45.9221 42.282 45.7103 41.6693L33.2214 5.52982Z" fill="url(#paint2_linear_4382_798)"/>
</g>
<defs>
<linearGradient id="paint0_linear_4382_798" x1="1621.52" y1="301.775" x2="409.582" y2="3967.84" gradientUnits="userSpaceOnUse">
<stop stop-color="#114A8B"/>
<stop offset="1" stop-color="#0669BC"/>
</linearGradient>
<linearGradient id="paint1_linear_4382_798" x1="2289.38" y1="2104.78" x2="2017.37" y2="2198.95" gradientUnits="userSpaceOnUse">
<stop stop-opacity="0.3"/>
<stop offset="0.071" stop-opacity="0.2"/>
<stop offset="0.321" stop-opacity="0.1"/>
<stop offset="0.623" stop-opacity="0.05"/>
<stop offset="1" stop-opacity="0"/>
</linearGradient>
<linearGradient id="paint2_linear_4382_798" x1="1095.57" y1="188.881" x2="2419.59" y2="3800.76" gradientUnits="userSpaceOnUse">
<stop stop-color="#3CCBF4"/>
<stop offset="1" stop-color="#2892DF"/>
</linearGradient>
</defs>
</svg>
