<svg width="331" height="280" viewBox="0 0 331 280" fill="none" xmlns="http://www.w3.org/2000/svg">
<path opacity="0.5" d="M330.031 20.3215C330.083 20.4852 330.128 20.6055 330.162 20.6988C330.235 20.8973 330.298 21.0688 330.292 21.2831L330.201 30.6315C330.11 39.739 330.02 48.8453 329.965 57.9566C329.955 59.5016 328.884 60.1601 327.883 60.6558C321.724 63.7163 315.572 66.7841 309.419 69.8523C303.444 72.8315 297.468 75.8109 291.485 78.785C291.086 78.9839 290.66 79.098 290.208 79.2186C289.99 79.2771 289.75 79.3408 289.485 79.4224L289.296 79.4805L289.295 79.6098L289.693 79.7681C289.969 79.8775 290.198 79.9636 290.396 80.0379C290.774 80.1802 291.051 80.2867 291.309 80.4151L302.161 85.7921C310.758 90.0534 319.352 94.3139 327.965 98.5439C329.843 99.4688 330.112 100.714 330.123 101.923C330.195 109.217 330.295 116.516 330.396 123.816C330.456 128.211 330.517 132.608 330.571 137.004C330.579 137.438 330.509 137.851 330.434 138.29C330.401 138.481 330.366 138.681 330.337 138.894L330.319 139.03L331 139.361L330.721 139.516L330.711 140.475L330.45 163.904L330.282 179.134L330.277 179.572L329.828 179.796C318.221 185.586 306.718 191.319 295.017 197.15L290.119 199.592L289.986 199.658C290.179 199.706 290.322 199.738 290.434 199.763C290.66 199.814 290.839 199.854 291.033 199.946L299.455 204.116C309.172 208.928 318.887 213.738 328.616 218.533C329.897 219.166 330.476 220.039 330.493 221.364C330.564 227.505 330.645 233.644 330.725 239.784C330.802 245.635 330.879 251.486 330.947 257.337C330.953 257.719 330.829 258.054 330.709 258.379C330.662 258.505 330.613 258.637 330.572 258.777L330.451 259.192L330.986 259.479L329.795 260.139C329.486 260.311 329.209 260.473 328.951 260.624C328.501 260.887 328.077 261.135 327.625 261.349L317.907 265.965C309.335 270.034 300.471 274.242 291.785 278.421C290.866 278.863 290.065 279.069 289.263 279.069C288.471 279.069 287.678 278.868 286.77 278.436C277.641 274.076 268.331 269.686 259.328 265.442L251.083 261.553C250.627 261.338 250.173 261.117 249.646 260.86L248.564 260.335L247.782 259.958L247.387 260.166C247.098 260.318 246.835 260.46 246.588 260.593C246.064 260.876 245.609 261.12 245.14 261.343C241.841 262.913 238.54 264.48 235.239 266.047C226.868 270.02 218.213 274.128 209.735 278.217C208.673 278.734 207.75 278.974 206.832 278.974C205.93 278.974 205.029 278.744 203.998 278.251C195.262 274.049 186.338 269.835 177.707 265.759C174.65 264.316 171.593 262.872 168.537 261.426C167.872 261.11 167.215 260.79 166.209 260.301L165.631 260.019L165.068 260.3L165.07 260.113C164.725 260.304 164.435 260.471 164.177 260.619C163.7 260.892 163.328 261.104 162.939 261.29C159.572 262.893 156.205 264.491 152.838 266.09C144.307 270.141 135.485 274.33 126.837 278.489C125.96 278.914 125.177 279.113 124.378 279.113C123.569 279.113 122.752 278.902 121.807 278.45C113.684 274.574 105.542 270.728 97.4008 266.883C93.4035 264.994 89.4062 263.106 85.4115 261.215C85.006 261.024 84.6793 260.786 84.3007 260.511C84.1209 260.381 83.924 260.237 83.6942 260.083L83.3271 259.836L83.3164 259.942L83.1794 259.887L82.8069 260.051L82.804 259.989L82.5756 260.121C82.3501 260.252 82.1564 260.369 81.9813 260.475C81.6342 260.685 81.3345 260.866 81.0013 261.026C77.2405 262.816 73.4793 264.602 69.718 266.389C61.3579 270.359 52.7134 274.465 44.2375 278.535C43.5068 278.886 42.8139 279.056 42.1189 279.056C41.1539 279.056 40.3122 278.716 39.6866 278.42C31.3077 274.439 22.9129 270.478 14.5187 266.517L3.53281 261.331C3.05398 261.107 2.5765 260.874 1.90915 260.547L1.31767 260.257L0.826221 260.017L0.465421 260.197L0.446891 259.831L0.0552105 259.64L0.425812 259.425L0.398824 258.897C0.37734 258.481 0.354108 258.124 0.333563 257.804C0.295161 257.209 0.26495 256.737 0.26777 256.263L0.365928 247.374C0.460457 239.066 0.557806 230.476 0.591509 222.026C0.595538 220.243 1.36655 219.143 3.25218 218.228C10.6106 214.617 18.07 210.892 25.2836 207.29L31.4653 204.205L36.7057 201.591L40.9007 199.499L40.7741 199.437L38.2142 198.203C35.9436 197.109 33.8219 196.086 31.7148 195.046C27.6343 193.035 23.5548 191.02 19.4751 189.006C13.9781 186.291 8.48073 183.577 2.97812 180.87C1.70264 180.244 0.455216 179.482 0.4434 177.677C0.377202 170.242 0.277034 162.806 0.176865 155.37C0.115367 150.804 0.0535997 146.237 0.000292309 141.67C-0.00695857 141.284 0.121946 140.94 0.246822 140.608C0.29637 140.477 0.349006 140.338 0.393317 140.189L0.674489 139.247L1.70721 139.683C1.93964 139.781 2.15488 139.868 2.35697 139.95C2.80733 140.133 3.19618 140.291 3.58343 140.487L13.6411 145.483C22.1282 149.701 30.9045 154.063 39.5599 158.32C40.7509 158.906 41.4268 159.613 41.7071 160.625L41.7134 160.036L41.7178 159.597L42.1668 159.373C55.4004 152.775 68.4621 146.267 81.9959 139.526L83.4089 138.822L83.407 138.973L83.5829 138.876C83.8255 138.741 84.0337 138.62 84.2214 138.512C84.5799 138.304 84.8716 138.137 85.1756 137.993L95.2181 133.222C103.911 129.095 112.9 124.827 121.712 120.596C122.52 120.209 123.275 120.021 124.02 120.021C124.351 120.021 124.683 120.057 125.026 120.133C124.347 119.555 123.869 118.775 123.859 117.596C123.792 109.758 123.684 101.92 123.577 94.0812C123.522 90.0668 123.467 86.0524 123.418 82.0378C123.411 81.6429 123.513 81.2691 123.611 80.9077C123.658 80.7355 123.708 80.5542 123.747 80.3591L123.86 79.8037L123.45 79.5502L123.692 79.4203L123.385 79.4704L123.396 78.5168L123.515 67.6453L123.819 40.117L123.824 39.678L124.273 39.4544C132.996 35.1088 141.647 30.7937 150.449 26.4042L164.096 19.5983L165.509 18.8939L165.507 19.0618L165.642 18.9894C165.951 18.8241 166.227 18.6723 166.484 18.5315C167.004 18.2459 167.445 18.0039 167.902 17.785C171.3 16.1682 174.698 14.5559 178.096 12.9436C186.439 8.98431 195.066 4.89047 203.517 0.816589C204.471 0.356415 205.306 0.142181 206.146 0.142181C206.979 0.142181 207.811 0.353912 208.765 0.808197C217.607 5.03543 226.628 9.29123 235.353 13.4069L244.445 17.6987C244.877 17.8983 245.31 18.1084 245.842 18.3668L246.884 18.8712L247.504 19.1692L247.615 19.1174L247.629 19.2294L247.67 19.2495L248.019 19.0538C248.266 18.9147 248.477 18.79 248.667 18.6776C249.016 18.4715 249.305 18.303 249.609 18.1579C252.98 16.5538 256.352 14.9521 259.725 13.3502C268.477 9.19333 277.527 4.89508 286.399 0.626068C287.118 0.280975 287.806 0.113281 288.502 0.113281C289.503 0.113281 290.383 0.469879 291.186 0.855164C299.399 4.75931 307.627 8.64465 315.856 12.5301L326.669 17.6382C327.143 17.8576 327.619 18.0902 328.199 18.3741L329.31 18.915L330.606 19.5414L329.906 19.9331L330.031 20.3215ZM329.196 101.928C329.186 100.702 328.863 99.8887 327.498 99.2164C315.259 93.2057 303.059 87.1339 290.836 81.0851C290.467 80.9012 290.051 80.7719 289.298 80.4722C289.254 81.3696 289.187 81.946 289.198 82.5194C289.352 94.1396 289.529 105.763 289.648 117.387C289.663 118.607 289.999 119.407 291.361 120.08C303.522 126.056 315.641 132.101 327.773 138.121C328.227 138.343 328.712 138.508 329.417 138.806C329.511 138.118 329.656 137.568 329.645 137.012C329.5 125.313 329.312 113.617 329.196 101.928ZM125.516 158.949C125.072 159.088 124.639 159.157 124.206 159.157C123.706 159.157 123.202 159.066 122.658 158.875C123.473 159.434 123.948 160.106 124.139 160.978C124.342 160.168 124.784 159.516 125.516 158.949ZM122.815 240.273C123.332 240.13 123.833 240.061 124.338 240.061C124.801 240.061 125.259 240.118 125.74 240.239C124.959 239.681 124.506 239.014 124.327 238.161C124.107 239.014 123.623 239.689 122.815 240.273ZM124.93 162.142C124.899 173.549 124.733 184.955 124.619 196.362C124.612 197.078 124.675 197.796 124.717 198.768C125.59 198.427 126.22 198.225 126.788 197.942C138.764 191.981 150.73 186.01 162.711 180.054C163.831 179.496 164.563 178.956 164.574 177.678C164.638 165.754 164.797 153.831 164.918 141.902C164.925 141.482 164.833 141.056 164.742 140.281C163.578 140.828 162.805 141.172 162.056 141.549C150.458 147.323 138.889 153.128 127.254 158.847C125.621 159.65 124.937 160.502 124.93 162.142ZM290.204 158.948C289.784 159.059 289.375 159.112 288.962 159.112C288.578 159.112 288.192 159.065 287.79 158.966C288.486 159.493 288.804 160.092 288.95 160.696C289.122 159.87 289.622 159.338 290.204 158.948ZM287.831 240.216C288.291 240.097 288.734 240.04 289.177 240.04C289.681 240.04 290.181 240.113 290.703 240.265C289.901 239.769 289.425 239.167 289.218 238.375C289.035 239.272 288.47 239.821 287.831 240.216ZM290.954 157.815C302.956 152.035 315.019 146.34 327.059 140.609C327.655 140.33 328.209 139.981 329.241 139.406C328.059 138.832 327.312 138.468 326.561 138.106C314.802 132.56 303.024 127.038 291.301 121.438C290.446 121.031 289.697 120.809 288.932 120.809C288.24 120.809 287.536 120.99 286.729 121.38C274.885 127.093 262.97 132.708 251.086 138.361C250.415 138.682 249.78 139.06 248.883 139.545C249.61 139.986 250.109 140.361 250.68 140.634C262.739 146.346 274.811 152.026 286.845 157.773C287.611 158.137 288.281 158.333 288.962 158.333C289.588 158.333 290.224 158.168 290.954 157.815ZM288.143 161.872C288.133 160.685 287.903 159.825 286.503 159.142C274.25 153.129 262.042 147.046 249.82 140.988C249.452 140.804 249.044 140.676 248.4 140.419C248.295 141.108 248.134 141.653 248.143 142.199C248.29 153.904 248.494 165.613 248.577 177.318C248.592 178.795 249.228 179.57 250.689 180.288C262.713 186.193 274.691 192.167 286.687 198.105C287.131 198.327 287.619 198.479 288.474 198.81C288.532 197.919 288.604 197.343 288.599 196.77C288.447 185.137 288.272 173.503 288.143 161.872ZM247.783 178.401C247.635 179.087 247.264 179.625 246.615 180.094C247.007 179.986 247.393 179.933 247.779 179.933C248.146 179.933 248.496 179.983 248.823 180.06C248.288 179.587 247.952 179.049 247.783 178.401ZM248.064 99.392L248.415 99.2169C248.159 99.2682 247.903 99.2935 247.645 99.2935C247.343 99.2935 247.054 99.2574 246.782 99.1991C247.184 99.5712 247.453 100.003 247.605 100.518L247.61 100.055L247.614 99.6158L248.064 99.392ZM285.913 198.354C273.868 192.652 261.803 186.971 249.766 181.253C249.065 180.92 248.439 180.712 247.779 180.712C247.269 180.712 246.738 180.837 246.137 181.125C233.901 187 221.626 192.809 209.367 198.636C208.924 198.846 208.522 199.118 207.674 199.612C208.655 200.087 209.257 200.39 209.868 200.672C221.922 206.362 233.98 212.046 246.023 217.759C246.723 218.092 247.352 218.303 248.017 218.303C248.526 218.303 249.057 218.179 249.659 217.891C261.89 212.013 274.163 206.209 286.425 200.383C286.866 200.171 287.27 199.903 287.941 199.513C287.143 199.051 286.559 198.655 285.913 198.354ZM209.128 197.922C221.186 191.925 233.233 185.901 245.306 179.919C246.421 179.367 246.926 178.784 246.933 177.657C247.018 165.654 247.17 153.644 247.297 141.638C247.298 141.35 247.233 141.056 247.159 140.393C240.27 143.514 233.846 146.934 227.296 150.156C220.689 153.414 214.117 156.723 207.485 160.04C207.344 172.873 207.208 185.616 207.065 198.661C207.94 198.351 208.579 198.196 209.128 197.922ZM246.718 139.516C244.49 138.434 242.678 137.543 240.846 136.681C230.245 131.663 219.613 126.694 209.051 121.628C208.105 121.174 207.282 120.926 206.439 120.926C205.68 120.926 204.905 121.127 204.008 121.561C192.332 127.224 180.573 132.76 168.843 138.346C168.095 138.702 167.374 139.095 166.412 139.59C167.057 140.015 167.47 140.384 167.971 140.619C180.101 146.365 192.258 152.081 204.365 157.86C205.13 158.224 205.799 158.418 206.479 158.418C207.108 158.418 207.747 158.252 208.479 157.9C220.483 152.12 232.544 146.423 244.582 140.698C245.179 140.415 245.727 140.066 246.718 139.516ZM206.553 160.502L206.559 160.033L206.563 159.594L207.011 159.371L207.644 159.054C207.251 159.15 206.867 159.197 206.479 159.197C206.203 159.197 205.927 159.173 205.644 159.123C206.147 159.547 206.414 160.022 206.553 160.502ZM206.311 239.737L205.962 239.911C206.243 239.85 206.523 239.821 206.806 239.821C207.06 239.821 207.315 239.845 207.576 239.895C207.141 239.497 206.9 239.06 206.77 238.618L206.765 239.074L206.76 239.513L206.311 239.737ZM205.77 161.612C205.757 160.568 205.49 159.825 204.32 159.243C191.855 153.11 179.423 146.931 166.982 140.765C166.759 140.649 166.493 140.606 165.895 140.419C165.842 141.236 165.77 141.813 165.779 142.381C165.931 154.005 166.112 165.622 166.231 177.245C166.245 178.46 166.551 179.282 167.917 179.954C180.157 185.971 192.356 192.045 204.564 198.105C204.938 198.292 205.347 198.427 205.94 198.665C206.056 198.093 206.24 197.615 206.231 197.147C206.086 185.3 205.907 173.455 205.77 161.612ZM165.428 178.362C165.228 179.286 164.639 179.862 163.965 180.291C164.438 180.168 164.895 180.109 165.355 180.109C165.877 180.109 166.392 180.183 166.94 180.343C166.014 179.762 165.603 179.075 165.428 178.362ZM203.036 198.243C191.294 192.683 179.531 187.158 167.828 181.548C166.933 181.119 166.153 180.887 165.356 180.887C164.625 180.887 163.879 181.082 163.013 181.499C151.195 187.224 139.29 192.827 127.413 198.479C126.81 198.762 126.243 199.102 125.44 199.539C125.923 199.887 126.243 200.204 126.647 200.395C139.075 206.279 151.52 212.139 163.949 218.036C164.498 218.299 165 218.447 165.512 218.447C165.949 218.447 166.393 218.339 166.882 218.104C179.432 212.104 191.998 206.132 204.558 200.147C204.774 200.041 204.944 199.869 205.521 199.443C204.526 198.961 203.781 198.598 203.036 198.243ZM165.146 100.79C165.311 99.9396 165.822 99.3985 166.418 99.005C165.993 99.1171 165.581 99.1712 165.164 99.1712C164.756 99.1712 164.345 99.1177 163.918 99.0065C164.552 99.4933 164.95 100.071 165.146 100.79ZM165.164 98.3924C165.791 98.3924 166.428 98.2273 167.159 97.8765C179.164 92.097 191.224 86.3995 203.262 80.6685C203.855 80.3855 204.405 80.0433 205.45 79.4639C204.265 78.8905 203.522 78.5239 202.772 78.1679C191.01 72.6194 179.235 67.0984 167.512 61.4966C166.655 61.0869 165.907 60.8647 165.143 60.8647C164.453 60.8647 163.75 61.0466 162.941 61.4358C151.095 67.1486 139.182 72.7686 127.296 78.4205C126.623 78.7414 125.983 79.1124 125.086 79.5946C125.813 80.0432 126.312 80.4189 126.882 80.6896C138.943 86.3995 151.014 92.0816 163.043 97.8293C163.809 98.1959 164.481 98.3924 165.164 98.3924ZM204.197 81.0486C191.983 87.1249 179.779 93.2178 167.564 99.2956C166.576 99.7809 166.027 100.307 166.016 101.367C165.936 113.523 165.789 125.681 165.668 137.837C165.667 138.051 165.734 138.269 165.849 138.982C179.246 132.31 192.325 125.789 205.567 119.19C205.707 106.367 205.848 93.5618 205.992 80.5027C205.238 80.7262 204.667 80.8174 204.197 81.0486ZM206.493 119.197L206.488 119.636L206.039 119.86L205.165 120.296C205.596 120.195 206.016 120.147 206.439 120.147C206.916 120.147 207.389 120.208 207.885 120.337C207.086 119.744 206.691 119.083 206.502 118.402L206.493 119.197ZM207.62 39.0258C207.184 39.1581 206.757 39.2228 206.329 39.2228C205.77 39.2228 205.259 39.1119 204.796 38.9565C205.632 39.4863 206.106 40.1272 206.269 40.9516C206.484 40.1884 206.92 39.568 207.62 39.0258ZM207.264 117.054C207.278 118.527 207.714 119.465 209.349 120.259C221.311 126.106 233.21 132.043 245.128 137.951C245.647 138.208 246.21 138.413 246.975 138.746C247.103 138.139 247.291 137.669 247.288 137.203C247.139 125.353 246.959 113.497 246.83 101.639C246.819 100.488 246.443 99.7412 245.192 99.1299C232.949 93.0916 220.743 87.0107 208.522 80.9469C208.152 80.7627 207.745 80.638 206.938 80.3277C206.888 81.3087 206.821 81.9552 206.824 82.6017C206.978 94.0862 207.166 105.567 207.264 117.054ZM209.024 80.6181C221.306 86.4205 233.591 92.2109 245.87 98.0332C246.49 98.3267 247.054 98.5149 247.645 98.5149C248.083 98.5149 248.536 98.4117 249.037 98.1714C261.509 92.2018 274.002 86.2699 286.485 80.3246C286.774 80.183 287.022 79.9809 287.672 79.555C286.593 79.0287 285.847 78.6591 285.083 78.2987C273.344 72.7457 261.576 67.2261 249.876 61.6044C249.001 61.182 248.24 60.9687 247.478 60.9687C246.716 60.9687 245.952 61.1812 245.069 61.6105C233.316 67.2958 221.488 72.8657 209.693 78.4812C209.018 78.8004 208.38 79.1762 207.463 79.6659C208.114 80.0675 208.539 80.3854 209.024 80.6181ZM248.536 100.062C248.396 112.858 248.257 125.652 248.116 138.48C250.158 138.112 283.647 121.664 287.948 118.957C288.082 106.268 288.22 93.4916 288.362 80.2242C274.811 86.9727 261.749 93.4808 248.536 100.062ZM288.878 118.608L288.874 118.964L288.87 119.349L288.503 119.58C288.228 119.753 287.8 120 287.24 120.309C287.819 120.12 288.372 120.03 288.932 120.03C289.251 120.03 289.571 120.061 289.899 120.123C289.332 119.654 289.033 119.138 288.878 118.608ZM289.111 39.4511C289.318 39.3477 289.526 39.2443 289.733 39.141C289.35 39.233 288.975 39.2784 288.601 39.2784C288.3 39.2784 288.001 39.2504 287.694 39.1922C288.214 39.6382 288.501 40.1414 288.651 40.7043L288.657 40.1138L288.662 39.675L289.111 39.4511ZM329.356 179.126C329.498 166.295 329.638 153.489 329.784 140.468C329.11 140.643 328.605 140.687 328.202 140.891C315.914 146.999 303.636 153.133 291.343 159.237C290.346 159.737 289.818 160.278 289.813 161.328C289.728 173.483 289.585 185.637 289.467 197.793C289.466 198.007 289.531 198.225 289.647 198.922C303.044 192.244 316.133 185.723 329.356 179.126ZM330.021 257.345C329.882 245.355 329.704 233.364 329.567 221.373C329.554 220.385 329.198 219.724 328.147 219.205C315.612 213.027 303.1 206.823 290.576 200.624C290.426 200.552 290.245 200.537 289.686 200.395C289.637 201.147 289.565 201.717 289.574 202.284C289.724 213.981 289.901 225.675 290.021 237.376C290.033 238.541 290.44 239.264 291.677 239.872C303.909 245.9 316.106 251.967 328.317 258.029C328.692 258.216 329.099 258.355 329.672 258.592C329.81 258.121 330.026 257.734 330.021 257.345ZM251.536 260.873C263.438 266.492 275.355 272.089 287.225 277.758C287.97 278.112 288.616 278.29 289.263 278.29C289.915 278.29 290.568 278.109 291.325 277.746C303.241 272.011 315.218 266.355 327.169 260.671C327.829 260.358 328.435 259.961 329.285 259.489C328.388 259.007 327.764 258.632 327.098 258.317C315.205 252.683 303.29 247.086 291.433 241.405C290.614 241.013 289.894 240.819 289.177 240.819C288.439 240.819 287.703 241.024 286.861 241.429C275.024 247.135 263.124 252.756 251.252 258.402C250.592 258.715 249.988 259.114 249.024 259.66C250.068 260.163 250.798 260.527 251.536 260.873ZM248.49 258.562C249.082 258.415 249.59 258.375 249.988 258.178C262.275 252.069 274.538 245.944 286.823 239.84C287.825 239.344 288.346 238.794 288.353 237.753C288.442 225.604 288.581 213.462 288.699 201.313C288.702 201.094 288.621 200.875 288.513 200.312C287.568 200.718 286.869 200.984 286.212 201.307C274.386 207.2 262.585 213.111 250.733 218.967C249.38 219.634 248.751 220.334 248.747 221.732C248.691 233.434 248.534 245.139 248.407 256.839C248.407 257.351 248.458 257.865 248.49 258.562ZM247.918 220.813C248.093 220.046 248.513 219.438 249.237 218.906C248.826 219.024 248.422 219.082 248.017 219.082C247.474 219.082 246.969 218.973 246.518 218.825C247.388 219.413 247.763 220.101 247.918 220.813ZM247.425 258.698C247.479 257.874 247.552 257.296 247.55 256.723C247.392 245.105 247.215 233.484 247.092 221.858C247.083 220.648 246.796 219.815 245.423 219.135C233.177 213.135 220.977 207.06 208.756 201.007C208.387 200.823 207.975 200.69 207.378 200.45C207.264 201.023 207.087 201.5 207.09 201.971C207.233 213.815 207.416 225.659 207.55 237.499C207.562 238.544 207.848 239.292 209.015 239.869C221.478 246.006 233.908 252.186 246.349 258.352C246.572 258.463 246.837 258.511 247.425 258.698ZM168.991 260.747C180.821 266.346 192.676 271.908 204.455 277.574C205.327 277.991 206.082 278.195 206.831 278.195C207.61 278.195 208.382 277.975 209.273 277.542C221.042 271.866 232.875 266.284 244.683 260.665C245.362 260.343 246.009 259.973 246.895 259.506C246.302 259.091 245.911 258.718 245.427 258.496C233.134 252.68 220.834 246.887 208.546 241.066C207.936 240.774 207.38 240.6 206.806 240.6C206.353 240.599 205.888 240.708 205.374 240.952C192.891 246.926 180.381 252.863 167.886 258.816C167.591 258.957 167.334 259.162 166.638 259.61C167.66 260.107 168.322 260.429 168.991 260.747ZM205.839 239.067C205.978 226.192 206.121 213.422 206.262 200.135C192.721 206.884 179.663 213.392 166.435 219.978C166.294 232.769 166.153 245.565 166.008 258.925C179.631 252.133 192.707 245.614 205.839 239.067ZM165.509 219.971L165.514 219.532L165.964 219.308C166.073 219.253 166.182 219.2 166.291 219.145C166.031 219.199 165.773 219.226 165.512 219.226C165.237 219.226 164.962 219.196 164.68 219.135C165.124 219.562 165.37 220.023 165.504 220.497L165.509 219.971ZM165.18 256.82C165.028 245.115 164.853 233.409 164.728 221.699C164.712 220.486 164.383 219.671 163.017 218.997C150.914 213.05 138.869 207.034 126.8 201.047C126.292 200.794 125.74 200.608 124.845 200.256C124.784 201.128 124.711 201.641 124.717 202.152C124.87 213.858 125.064 225.563 125.163 237.273C125.176 238.625 125.713 239.411 127.104 240.094C139.129 245.995 151.113 251.96 163.111 257.906C163.62 258.158 164.173 258.349 164.965 258.676C165.057 257.924 165.187 257.372 165.18 256.82ZM85.8652 260.536C97.9972 266.28 110.151 271.993 122.265 277.773C123.027 278.138 123.697 278.334 124.378 278.334C125.006 278.334 125.645 278.167 126.377 277.812C138.382 272.039 150.444 266.34 162.48 260.613C163.073 260.329 163.625 259.979 164.616 259.432C162.386 258.355 160.578 257.457 158.745 256.59C148.143 251.58 137.516 246.611 126.954 241.543C126.006 241.089 125.181 240.84 124.338 240.84C123.58 240.84 122.807 241.041 121.915 241.473C110.314 247.106 98.6317 252.602 86.9754 258.151C86.1489 258.545 85.3349 258.951 84.2716 259.474C84.9571 259.935 85.3642 260.3 85.8652 260.536ZM83.6733 258.791C84.7018 258.339 85.4708 258.043 86.1981 257.678C97.8796 251.866 109.528 246.011 121.25 240.248C122.896 239.44 123.54 238.572 123.543 236.944C123.579 225.531 123.746 214.115 123.863 202.703C123.871 201.986 123.794 201.267 123.751 200.28C122.722 200.733 121.95 201.034 121.226 201.392C109.548 207.206 97.892 213.061 86.1705 218.82C84.5266 219.631 83.8936 220.506 83.8881 222.13C83.8484 233.542 83.6856 244.954 83.568 256.376C83.5574 257.085 83.6259 257.798 83.6733 258.791ZM123.044 199.601C122.586 199.235 122.303 198.872 121.903 198.684C109.463 192.795 97.0023 186.93 84.5701 181.031C84.0271 180.777 83.5348 180.642 83.0392 180.642C82.5852 180.642 82.1291 180.756 81.6295 180.996C69.065 187 56.4885 192.979 43.9205 198.972C43.6945 199.077 43.5135 199.247 42.9856 199.608C43.8646 200.09 44.4847 200.467 45.1542 200.782C56.9802 206.379 68.8301 211.943 80.6165 217.602C81.5074 218.029 82.2788 218.25 83.0583 218.25C83.8057 218.25 84.5608 218.046 85.4364 217.625C97.1941 211.94 109.035 206.362 120.843 200.742C121.526 200.418 122.178 200.055 123.044 199.601ZM83.103 220.916C83.3207 220.064 83.7988 219.388 84.5957 218.806C84.0686 218.956 83.5638 219.028 83.0581 219.028C82.6477 219.028 82.2349 218.98 81.8074 218.88C82.6137 219.457 82.9677 220.133 83.103 220.916ZM82.698 256.723C82.5554 245.092 82.3782 233.458 82.2495 221.829C82.2403 220.629 81.9747 219.791 80.5878 219.108C68.4106 213.132 56.2805 207.083 44.1341 201.062C43.6926 200.844 43.2132 200.678 42.32 200.312C42.2893 201.414 42.244 202.138 42.2513 202.859C42.405 214.198 42.602 225.531 42.6708 236.87C42.6836 238.544 43.2441 239.527 45.0328 240.404C56.926 246.199 68.7396 252.11 80.5857 257.979C81.1051 258.236 81.6655 258.423 82.5064 258.758C82.5875 257.956 82.7054 257.339 82.698 256.723ZM3.98546 260.651C16.0379 266.346 28.1064 272.024 40.1405 277.741C40.8405 278.073 41.4636 278.277 42.1181 278.277C42.634 278.277 43.1693 278.15 43.7776 277.858C56.0054 271.987 68.2877 266.182 80.5425 260.349C80.9872 260.136 81.3835 259.867 82.0488 259.48C81.3181 259.051 80.801 258.698 80.2333 258.426C68.1103 252.694 55.9712 246.969 43.8574 241.218C43.1603 240.889 42.5393 240.688 41.8889 240.688C41.3694 240.688 40.8311 240.816 40.2201 241.11C27.9887 246.982 15.7142 252.786 3.45721 258.615C3.0086 258.83 2.61102 259.103 1.7824 259.583C2.77537 260.069 3.37598 260.367 3.98546 260.651ZM40.9345 161.853C40.9237 160.54 40.5275 159.699 39.0915 158.992C27.0698 153.08 15.0953 147.104 3.10461 141.154C2.58537 140.891 2.02101 140.687 1.29042 140.378C1.14218 140.876 0.917797 141.267 0.925182 141.662C1.06631 153.669 1.26181 165.669 1.36843 177.672C1.37756 179.05 2.25075 179.612 3.44473 180.197C13.0317 184.914 22.6028 189.653 32.1829 194.374C35.0586 195.794 37.9613 197.18 41.2346 198.762C41.3018 197.896 41.39 197.318 41.3829 196.751C41.2311 185.119 41.0468 173.487 40.9345 161.853ZM31.9368 204.875C22.536 209.562 13.1475 214.273 3.71422 218.902C2.16763 219.652 1.52016 220.483 1.5168 222.028C1.47142 233.443 1.3123 244.855 1.19306 256.266C1.1893 256.983 1.26342 257.696 1.32317 258.863C14.7625 252.157 27.8277 245.642 40.996 239.084C41.1337 226.235 41.2711 213.45 41.4137 200.147C37.8328 201.933 34.8867 203.405 31.9368 204.875ZM41.9304 238.307L41.922 239.091L41.9172 239.53L41.4678 239.754C41.2935 239.841 41.12 239.927 40.946 240.014C41.2622 239.944 41.5755 239.909 41.8889 239.909C42.2873 239.909 42.6642 239.967 43.0128 240.055C42.4761 239.559 42.1243 238.989 41.9304 238.307ZM42.6384 160.043C42.4971 172.95 42.3599 185.68 42.2207 198.327C42.4667 198.446 42.5407 198.491 42.615 198.509C42.6716 198.53 42.7453 198.551 42.8032 198.551C42.8228 198.551 42.8406 198.549 42.8554 198.543C43.3313 198.351 43.8177 198.173 44.2715 197.956C56.8394 191.691 69.4089 185.423 82.0475 179.12C82.1867 166.262 82.3222 153.486 82.4668 140.196C68.9331 146.937 55.8718 153.445 42.6384 160.043ZM82.9733 179.127L82.9683 179.566L82.5196 179.79L82.1762 179.961C82.4648 179.896 82.7515 179.863 83.0393 179.863C83.2788 179.864 83.5167 179.885 83.758 179.93C83.3396 179.538 83.1062 179.11 82.9779 178.678L82.9733 179.127ZM83.2933 142.027C83.4435 153.875 83.6169 165.713 83.7562 177.56C83.7708 178.606 84.051 179.345 85.2157 179.928C97.6808 186.059 110.111 192.244 122.554 198.407C122.775 198.515 123.04 198.566 123.63 198.753C123.686 197.931 123.762 197.358 123.755 196.785C123.601 185.164 123.415 173.54 123.312 161.92C123.299 160.567 122.793 159.777 121.402 159.092C109.311 153.151 97.2629 147.154 85.1977 141.184C84.7455 140.961 84.2645 140.786 83.5918 140.51C83.4743 141.083 83.2898 141.555 83.2933 142.027ZM124.019 120.799C123.439 120.799 122.846 120.949 122.17 121.272C110.019 127.106 97.8128 132.877 85.6299 138.67C85.1851 138.881 84.771 139.148 84.0923 139.525C84.76 139.946 85.2341 140.323 85.7892 140.586C97.9932 146.358 110.208 152.108 122.397 157.9C123.043 158.206 123.618 158.378 124.206 158.378C124.711 158.378 125.225 158.252 125.804 157.974C138.118 152.077 150.467 146.226 162.801 140.357C163.172 140.18 163.502 139.946 164.198 139.531C163.335 139.06 162.776 138.714 162.178 138.434C150.127 132.738 138.064 127.055 126.037 121.334C125.315 120.99 124.675 120.799 124.019 120.799ZM124.784 117.59C124.797 119.015 125.572 119.686 126.893 120.335C137.625 125.598 148.33 130.901 159.049 136.193C160.782 137.049 162.531 137.882 164.724 138.946C164.761 137.837 164.808 137.111 164.797 136.39C164.645 124.909 164.462 113.427 164.367 101.941C164.352 100.614 163.905 99.7931 162.491 99.0933C150.466 93.1921 138.487 87.2207 126.493 81.2752C125.974 81.0136 125.419 80.8099 124.659 80.4904C124.538 81.0851 124.335 81.5595 124.343 82.0296C124.489 93.884 124.682 105.737 124.784 117.59ZM124.744 40.124C124.601 52.9047 124.462 65.6975 124.321 78.5238C126.319 78.1969 159.482 61.9316 164.155 59.0235C164.287 46.3403 164.426 33.5595 164.567 20.2679C150.947 27.0591 137.927 33.5564 124.744 40.124ZM165.08 59.0303L165.076 59.4185L164.705 59.6494C164.425 59.8241 164.01 60.0629 163.481 60.3555C164.05 60.173 164.593 60.0858 165.143 60.0858C165.453 60.0858 165.761 60.1132 166.075 60.1699C165.515 59.7009 165.23 59.1796 165.084 58.6512L165.08 59.0303ZM165.529 20.5857C165.477 21.4375 165.397 22.0777 165.408 22.7197C165.557 34.2745 165.732 45.8216 165.862 57.3672C165.876 58.5505 166.088 59.4129 167.492 60.1019C179.806 66.1448 192.075 72.2681 204.368 78.3625C204.667 78.5101 204.994 78.6135 205.531 78.8233C205.658 78.2849 205.869 77.8225 205.86 77.3662C205.718 65.4526 205.533 53.5344 205.408 41.6192C205.397 40.5103 204.886 39.8701 203.777 39.321C191.549 33.2965 179.343 27.2279 167.124 21.1851C166.692 20.9721 166.218 20.8397 165.529 20.5857ZM243.991 18.3773C232.09 12.7543 220.172 7.1571 208.307 1.4855C207.521 1.11105 206.835 0.920685 206.145 0.920563C205.459 0.920563 204.77 1.1088 203.976 1.49173C192.139 7.19836 180.236 12.8106 168.359 18.4611C167.69 18.7819 167.056 19.1546 166.139 19.6458C166.951 20.1112 167.54 20.5036 168.179 20.8124C180.231 26.51 192.296 32.1909 204.336 37.9021C205.041 38.2348 205.668 38.4442 206.329 38.4442C206.837 38.4442 207.366 38.3205 207.967 38.0344C220.199 32.1558 232.475 26.3519 244.734 20.5159C245.179 20.3076 245.578 20.0397 246.423 19.547C245.351 19.0314 244.678 18.6953 243.991 18.3773ZM246.834 20.3712C245.669 20.9143 244.895 21.2595 244.141 21.6382C232.55 27.4057 220.977 33.2173 209.342 38.9359C207.704 39.7405 207.038 40.6061 207.033 42.2334C207 53.6454 206.832 65.0448 206.718 76.4582C206.711 77.1669 206.779 77.8803 206.826 78.8552C207.702 78.51 208.328 78.3046 208.899 78.0187C220.872 72.058 232.839 66.0807 244.819 60.1338C245.95 59.574 246.666 59.0266 246.671 57.7565C246.738 45.8245 246.897 33.9032 247.02 21.9805C247.024 21.5606 246.926 21.1409 246.834 20.3712ZM247.511 58.5152C247.299 59.406 246.72 59.964 246.061 60.3806C246.545 60.252 247.012 60.19 247.478 60.19C247.975 60.19 248.473 60.2607 248.994 60.4081C248.063 59.8659 247.67 59.2054 247.511 58.5152ZM247.877 22.2179C248.026 33.9869 248.199 45.7577 248.337 57.527C248.346 58.5688 248.592 59.3201 249.773 59.9028C262.23 66.0428 274.662 72.2269 287.104 78.393C287.326 78.504 287.588 78.5541 288.207 78.7536C288.261 77.9503 288.339 77.3786 288.328 76.8083C288.172 65.1866 287.995 53.5619 287.871 41.9432C287.856 40.7431 287.605 39.9005 286.221 39.2177C273.975 33.2099 261.78 27.1292 249.568 21.0741C249.194 20.89 248.785 20.7486 248.123 20.4719C248.024 21.144 247.872 21.6824 247.877 22.2179ZM326.214 18.3165C314.382 12.7225 302.541 7.14807 290.726 1.5311C289.948 1.15756 289.253 0.89151 288.501 0.89151C287.994 0.89151 287.461 1.01202 286.857 1.30157C274.621 7.18921 262.331 12.9976 250.064 18.8352C249.613 19.0497 249.203 19.3234 248.532 19.7006C249.198 20.1264 249.686 20.5219 250.254 20.788C262.308 26.4962 274.386 32.1754 286.422 37.917C287.203 38.2882 287.892 38.4997 288.601 38.4997C289.206 38.4997 289.828 38.3457 290.536 38.0054C302.619 32.1937 314.758 26.4612 326.869 20.6938C327.391 20.4474 327.872 20.1357 328.847 19.5897C327.699 19.0344 326.963 18.6632 326.214 18.3165ZM329.137 20.525C322.369 23.6066 315.932 27.0134 309.381 30.247C302.78 33.5049 296.206 36.8191 289.583 40.1211C289.444 52.9732 289.304 65.7006 289.167 78.6911C289.963 78.4462 290.538 78.352 291.014 78.1147C303.158 72.078 315.272 66.0185 327.413 59.9848C328.384 59.5042 329.032 59.0357 329.039 57.9529C329.113 45.7197 329.25 33.4959 329.366 21.2657C329.37 21.1242 329.285 20.9859 329.137 20.525Z" fill="url(#paint0_linear_4183_3863)"/>
<defs>
<linearGradient id="paint0_linear_4183_3863" x1="50.3696" y1="156.774" x2="271.78" y2="236.473" gradientUnits="userSpaceOnUse">
<stop stop-color="#335FFF" stop-opacity="0"/>
<stop offset="1" stop-color="#335FFF"/>
</linearGradient>
</defs>
</svg>
