<svg width="331" height="280" viewBox="0 0 331 280" fill="none" xmlns="http://www.w3.org/2000/svg">
<path opacity="0.5" d="M0.969452 20.3215C0.91684 20.4852 0.872498 20.6055 0.838257 20.6988C0.765228 20.8973 0.702271 21.0688 0.707916 21.2831L0.799164 30.6315C0.889526 39.739 0.979675 48.8453 1.03497 57.9566C1.04532 59.5016 2.11554 60.1601 3.11737 60.6558C9.27551 63.7163 15.4281 66.7841 21.5814 69.8523C27.5564 72.8315 33.5321 75.8109 39.515 78.785C39.9138 78.9839 40.3402 79.098 40.7917 79.2186C41.0102 79.2771 41.2497 79.3408 41.5146 79.4224L41.7037 79.4805L41.705 79.6098L41.3069 79.7681C41.0314 79.8775 40.8022 79.9636 40.6044 80.0379C40.2261 80.1802 39.9489 80.2867 39.6913 80.4151L28.8386 85.7921C20.2423 90.0534 11.648 94.3139 3.03488 98.5439C1.15652 99.4688 0.888062 100.714 0.877472 101.923C0.805237 109.217 0.704926 116.516 0.60434 123.816C0.543793 128.211 0.483398 132.608 0.429016 137.004C0.420563 137.438 0.491455 137.851 0.566254 138.29C0.59903 138.481 0.633545 138.681 0.662659 138.894L0.681061 139.03L0 139.361L0.278748 139.516L0.28949 140.475L0.549591 163.904L0.718079 179.134L0.722931 179.572L1.17157 179.796C12.7786 185.586 24.2823 191.319 35.9826 197.15L40.8811 199.592L41.0143 199.658C40.8211 199.706 40.6777 199.738 40.5664 199.763C40.3398 199.814 40.1607 199.854 39.9666 199.946L31.5449 204.116C21.8275 208.928 12.1127 213.738 2.38391 218.533C1.10254 219.166 0.523651 220.039 0.506744 221.364C0.436371 227.505 0.355408 233.644 0.274719 239.784C0.197784 245.635 0.120544 251.486 0.0526123 257.337C0.0470886 257.719 0.171295 258.054 0.291473 258.379C0.338196 258.505 0.38736 258.637 0.428314 258.777L0.549194 259.192L0.0142212 259.479L1.20496 260.139C1.51447 260.311 1.79083 260.473 2.04919 260.624C2.49875 260.887 2.92331 261.135 3.37527 261.349L13.0927 265.965C21.6648 270.034 30.529 274.242 39.2149 278.421C40.1341 278.863 40.9352 279.069 41.7366 279.069C42.5294 279.069 43.3217 278.868 44.2305 278.436C53.3593 274.076 62.6688 269.686 71.6717 265.442L79.9167 261.553C80.3727 261.338 80.8274 261.117 81.3542 260.86L82.4363 260.335L83.2182 259.958L83.6125 260.166C83.9016 260.318 84.1649 260.46 84.4121 260.593C84.9365 260.876 85.3914 261.12 85.8602 261.343C89.159 262.913 92.4601 264.48 95.761 266.047C104.132 270.02 112.787 274.128 121.265 278.217C122.327 278.734 123.25 278.974 124.168 278.974C125.07 278.974 125.971 278.744 127.002 278.251C135.738 274.049 144.662 269.835 153.293 265.759C156.35 264.316 159.407 262.872 162.463 261.426C163.128 261.11 163.785 260.79 164.791 260.301L165.369 260.019L165.932 260.3L165.93 260.113C166.275 260.304 166.565 260.471 166.823 260.619C167.3 260.892 167.672 261.104 168.061 261.29C171.428 262.893 174.795 264.491 178.162 266.09C186.693 270.141 195.515 274.33 204.163 278.489C205.04 278.914 205.823 279.113 206.622 279.113C207.431 279.113 208.248 278.902 209.193 278.45C217.316 274.574 225.458 270.728 233.599 266.883C237.596 264.994 241.594 263.106 245.589 261.215C245.994 261.024 246.321 260.786 246.699 260.511C246.879 260.381 247.076 260.237 247.306 260.083L247.673 259.836L247.684 259.942L247.821 259.887L248.193 260.051L248.196 259.989L248.424 260.121C248.65 260.252 248.844 260.369 249.019 260.475C249.366 260.685 249.666 260.866 249.999 261.026C253.759 262.816 257.521 264.602 261.282 266.389C269.642 270.359 278.287 274.465 286.763 278.535C287.493 278.886 288.186 279.056 288.881 279.056C289.846 279.056 290.688 278.716 291.313 278.42C299.692 274.439 308.087 270.478 316.481 266.517L327.467 261.331C327.946 261.107 328.423 260.874 329.091 260.547L329.682 260.257L330.174 260.017L330.535 260.197L330.553 259.831L330.945 259.64L330.574 259.425L330.601 258.897C330.623 258.481 330.646 258.124 330.666 257.804C330.705 257.209 330.735 256.737 330.732 256.263L330.634 247.374C330.54 239.066 330.442 230.476 330.408 222.026C330.404 220.243 329.633 219.143 327.748 218.228C320.389 214.617 312.93 210.892 305.716 207.29L299.535 204.205L294.294 201.591L290.099 199.499L290.226 199.437L292.786 198.203C295.056 197.109 297.178 196.086 299.285 195.046C303.366 193.035 307.445 191.02 311.525 189.006C317.022 186.291 322.519 183.577 328.022 180.87C329.297 180.244 330.545 179.482 330.557 177.677C330.623 170.242 330.723 162.806 330.823 155.37C330.885 150.804 330.946 146.237 331 141.67C331.007 141.284 330.878 140.94 330.753 140.608C330.704 140.477 330.651 140.338 330.607 140.189L330.326 139.247L329.293 139.683C329.06 139.781 328.845 139.868 328.643 139.95C328.193 140.133 327.804 140.291 327.417 140.487L317.359 145.483C308.872 149.701 300.096 154.063 291.44 158.32C290.249 158.906 289.573 159.613 289.293 160.625L289.287 160.036L289.282 159.597L288.833 159.373C275.6 152.775 262.538 146.267 249.004 139.526L247.591 138.822L247.593 138.973L247.417 138.876C247.174 138.741 246.966 138.62 246.779 138.512C246.42 138.304 246.128 138.137 245.824 137.993L235.782 133.222C227.089 129.095 218.1 124.827 209.288 120.596C208.48 120.209 207.725 120.021 206.98 120.021C206.649 120.021 206.317 120.057 205.974 120.133C206.653 119.555 207.131 118.775 207.141 117.596C207.208 109.758 207.316 101.92 207.423 94.0812C207.478 90.0668 207.533 86.0524 207.582 82.0378C207.589 81.6429 207.487 81.2691 207.389 80.9077C207.342 80.7355 207.292 80.5542 207.253 80.3591L207.14 79.8037L207.55 79.5502L207.308 79.4203L207.615 79.4704L207.604 78.5168L207.485 67.6453L207.181 40.117L207.176 39.678L206.727 39.4544C198.004 35.1088 189.353 30.7937 180.551 26.4042L166.904 19.5983L165.491 18.8939L165.493 19.0618L165.358 18.9894C165.049 18.8241 164.773 18.6723 164.516 18.5315C163.996 18.2459 163.555 18.0039 163.098 17.785C159.7 16.1682 156.302 14.5559 152.904 12.9436C144.561 8.98431 135.934 4.89047 127.483 0.816589C126.529 0.356415 125.694 0.142181 124.854 0.142181C124.021 0.142181 123.189 0.353912 122.235 0.808197C113.393 5.03543 104.372 9.29123 95.6473 13.4069L86.5546 17.6987C86.1232 17.8983 85.6905 18.1084 85.1584 18.3668L84.1162 18.8712L83.4962 19.1692L83.3848 19.1174L83.3714 19.2294L83.3296 19.2495L82.9814 19.0538C82.7339 18.9147 82.5233 18.79 82.3328 18.6776C81.9838 18.4715 81.6955 18.303 81.3912 18.1579C78.0202 16.5538 74.6479 14.9521 71.2752 13.3502C62.5235 9.19333 53.4734 4.89508 44.6012 0.626068C43.8816 0.280975 43.1942 0.113281 42.4981 0.113281C41.4974 0.113281 40.6166 0.469879 39.8138 0.855164C31.6013 4.75931 23.3732 8.64465 15.1444 12.5301L4.33087 17.6382C3.85715 17.8576 3.38116 18.0902 2.80069 18.3741L1.68997 18.915L0.394257 19.5414L1.09354 19.9331L0.969452 20.3215ZM1.80368 101.928C1.81442 100.702 2.1366 99.8887 3.50204 99.2164C15.7406 93.2057 27.9413 87.1339 40.1635 81.0851C40.5325 80.9012 40.9485 80.7719 41.7025 80.4722C41.746 81.3696 41.813 81.946 41.8019 82.5194C41.6482 94.1396 41.471 105.763 41.3519 117.387C41.3375 118.607 41.0009 119.407 39.639 120.08C27.4781 126.056 15.359 132.101 3.22678 138.121C2.77292 138.343 2.28818 138.508 1.5827 138.806C1.48898 138.118 1.34399 137.568 1.35513 137.012C1.50003 125.313 1.68796 113.617 1.80368 101.928ZM205.484 158.949C205.928 159.088 206.361 159.157 206.794 159.157C207.294 159.157 207.798 159.066 208.342 158.875C207.527 159.434 207.052 160.106 206.861 160.978C206.658 160.168 206.216 159.516 205.484 158.949ZM208.185 240.273C207.668 240.13 207.167 240.061 206.662 240.061C206.199 240.061 205.741 240.118 205.26 240.239C206.041 239.681 206.494 239.014 206.673 238.161C206.893 239.014 207.377 239.689 208.185 240.273ZM206.07 162.142C206.101 173.549 206.267 184.955 206.381 196.362C206.388 197.078 206.325 197.796 206.283 198.768C205.41 198.427 204.78 198.225 204.212 197.942C192.236 191.981 180.27 186.01 168.289 180.054C167.169 179.496 166.437 178.956 166.426 177.678C166.362 165.754 166.203 153.831 166.082 141.902C166.075 141.482 166.167 141.056 166.258 140.281C167.422 140.828 168.195 141.172 168.944 141.549C180.542 147.323 192.111 153.128 203.746 158.847C205.379 159.65 206.063 160.502 206.07 162.142ZM40.7956 158.948C41.2159 159.059 41.6247 159.112 42.0382 159.112C42.4218 159.112 42.8081 159.065 43.21 158.966C42.5144 159.493 42.1956 160.092 42.05 160.696C41.8784 159.87 41.378 159.338 40.7956 158.948ZM43.1689 240.216C42.7093 240.097 42.2659 240.04 41.8225 240.04C41.3191 240.04 40.8189 240.113 40.2973 240.265C41.0986 239.769 41.5752 239.167 41.7824 238.375C41.9651 239.272 42.53 239.821 43.1689 240.216ZM40.0461 157.815C28.0442 152.035 15.9811 146.34 3.94141 140.609C3.3447 140.33 2.79117 139.981 1.75861 139.406C2.94116 138.832 3.68842 138.468 4.43875 138.106C16.1981 132.56 27.9756 127.038 39.6988 121.438C40.5541 121.031 41.3034 120.809 42.068 120.809C42.7599 120.809 43.464 120.99 44.2709 121.38C56.1153 127.093 68.0301 132.708 79.9143 138.361C80.5853 138.682 81.2201 139.06 82.1172 139.545C81.3903 139.986 80.891 140.361 80.3195 140.634C68.2615 146.346 56.1895 152.026 44.1552 157.773C43.3889 158.137 42.7194 158.333 42.0382 158.333C41.412 158.333 40.7761 158.168 40.0461 157.815ZM42.8566 161.872C42.8673 160.685 43.0969 159.825 44.497 159.142C56.7499 153.129 68.958 147.046 81.1803 140.988C81.5475 140.804 81.9562 140.676 82.6001 140.419C82.7051 141.108 82.866 141.653 82.857 142.199C82.7105 153.904 82.506 165.613 82.4229 177.318C82.4085 178.795 81.7719 179.57 80.3106 180.288C68.2873 186.193 56.3088 192.167 44.3127 198.105C43.8694 198.327 43.3812 198.479 42.5259 198.81C42.468 197.919 42.3956 197.343 42.401 196.77C42.5528 185.137 42.7281 173.503 42.8566 161.872ZM83.2165 178.401C83.3645 179.087 83.7357 179.625 84.3848 180.094C83.9932 179.986 83.6074 179.933 83.2206 179.933C82.8536 179.933 82.5041 179.983 82.1774 180.06C82.7118 179.587 83.0478 179.049 83.2165 178.401ZM82.9362 99.392L82.5849 99.2169C82.8407 99.2682 83.0966 99.2935 83.3548 99.2935C83.6571 99.2935 83.9458 99.2574 84.2178 99.1991C83.8161 99.5712 83.5471 100.003 83.3954 100.518L83.3903 100.055L83.3856 99.6158L82.9362 99.392ZM45.0866 198.354C57.1318 192.652 69.1967 186.971 81.2345 181.253C81.9349 180.92 82.561 180.712 83.2206 180.712C83.7314 180.712 84.2619 180.837 84.8628 181.125C97.0994 187 109.374 192.809 121.633 198.636C122.076 198.846 122.478 199.118 123.326 199.612C122.345 200.087 121.743 200.39 121.132 200.672C109.078 206.362 97.0201 212.046 84.9767 217.759C84.2765 218.092 83.6481 218.303 82.9835 218.303C82.4736 218.303 81.9427 218.179 81.3414 217.891C69.11 212.013 56.8371 206.209 44.5749 200.383C44.1335 200.171 43.7302 199.903 43.0593 199.513C43.8568 199.051 44.4409 198.655 45.0866 198.354ZM121.872 197.922C109.814 191.925 97.7668 185.901 85.6945 179.919C84.5786 179.367 84.0739 178.784 84.0668 177.657C83.9816 165.654 83.8299 153.644 83.7032 141.638C83.7015 141.35 83.7665 141.056 83.8405 140.393C90.7295 143.514 97.1535 146.934 103.704 150.156C110.311 153.414 116.883 156.723 123.515 160.04C123.656 172.873 123.792 185.616 123.935 198.661C123.06 198.351 122.421 198.196 121.872 197.922ZM84.2819 139.516C86.5102 138.434 88.3224 137.543 90.1544 136.681C100.755 131.663 111.387 126.694 121.949 121.628C122.895 121.174 123.718 120.926 124.561 120.926C125.32 120.926 126.095 121.127 126.992 121.561C138.668 127.224 150.427 132.76 162.157 138.346C162.905 138.702 163.626 139.095 164.588 139.59C163.943 140.015 163.53 140.384 163.029 140.619C150.899 146.365 138.742 152.081 126.635 157.86C125.87 158.224 125.201 158.418 124.521 158.418C123.892 158.418 123.253 158.252 122.521 157.9C110.517 152.12 98.4557 146.423 86.4178 140.698C85.8212 140.415 85.2731 140.066 84.2819 139.516ZM124.447 160.502L124.441 160.033L124.437 159.594L123.989 159.371L123.356 159.054C123.749 159.15 124.133 159.197 124.521 159.197C124.797 159.197 125.073 159.173 125.356 159.123C124.853 159.547 124.586 160.022 124.447 160.502ZM124.689 239.737L125.038 239.911C124.757 239.85 124.477 239.821 124.194 239.821C123.94 239.821 123.685 239.845 123.424 239.895C123.859 239.497 124.1 239.06 124.23 238.618L124.235 239.074L124.24 239.513L124.689 239.737ZM125.23 161.612C125.243 160.568 125.51 159.825 126.68 159.243C139.145 153.11 151.577 146.931 164.018 140.765C164.241 140.649 164.507 140.606 165.105 140.419C165.158 141.236 165.23 141.813 165.221 142.381C165.069 154.005 164.888 165.622 164.769 177.245C164.755 178.46 164.449 179.282 163.083 179.954C150.843 185.971 138.644 192.045 126.436 198.105C126.062 198.292 125.653 198.427 125.06 198.665C124.944 198.093 124.76 197.615 124.769 197.147C124.914 185.3 125.093 173.455 125.23 161.612ZM165.572 178.362C165.772 179.286 166.361 179.862 167.035 180.291C166.562 180.168 166.105 180.109 165.645 180.109C165.123 180.109 164.608 180.183 164.06 180.343C164.986 179.762 165.397 179.075 165.572 178.362ZM127.964 198.243C139.706 192.683 151.469 187.158 163.172 181.548C164.067 181.119 164.847 180.887 165.644 180.887C166.375 180.887 167.121 181.082 167.987 181.499C179.805 187.224 191.71 192.827 203.587 198.479C204.19 198.762 204.757 199.102 205.56 199.539C205.077 199.887 204.757 200.204 204.353 200.395C191.925 206.279 179.48 212.139 167.051 218.036C166.502 218.299 166 218.447 165.488 218.447C165.051 218.447 164.607 218.339 164.118 218.104C151.568 212.104 139.002 206.132 126.442 200.147C126.226 200.041 126.056 199.869 125.479 199.443C126.474 198.961 127.219 198.598 127.964 198.243ZM165.854 100.79C165.689 99.9396 165.178 99.3985 164.582 99.005C165.007 99.1171 165.419 99.1712 165.836 99.1712C166.244 99.1712 166.655 99.1177 167.082 99.0065C166.448 99.4933 166.05 100.071 165.854 100.79ZM165.836 98.3924C165.209 98.3924 164.572 98.2273 163.841 97.8765C151.836 92.097 139.776 86.3995 127.738 80.6685C127.145 80.3855 126.595 80.0433 125.55 79.4639C126.735 78.8905 127.478 78.5239 128.228 78.1679C139.99 72.6194 151.765 67.0984 163.488 61.4966C164.345 61.0869 165.093 60.8647 165.857 60.8647C166.547 60.8647 167.25 61.0466 168.059 61.4358C179.905 67.1486 191.818 72.7686 203.704 78.4205C204.377 78.7414 205.017 79.1124 205.914 79.5946C205.187 80.0432 204.688 80.4189 204.118 80.6896C192.057 86.3995 179.986 92.0816 167.957 97.8293C167.191 98.1959 166.519 98.3924 165.836 98.3924ZM126.803 81.0486C139.017 87.1249 151.221 93.2178 163.436 99.2956C164.424 99.7809 164.973 100.307 164.984 101.367C165.064 113.523 165.211 125.681 165.332 137.837C165.333 138.051 165.266 138.269 165.151 138.982C151.754 132.31 138.675 125.789 125.433 119.19C125.293 106.367 125.152 93.5618 125.008 80.5027C125.762 80.7262 126.333 80.8174 126.803 81.0486ZM124.507 119.197L124.512 119.636L124.961 119.86L125.835 120.296C125.404 120.195 124.984 120.147 124.561 120.147C124.084 120.147 123.611 120.208 123.115 120.337C123.914 119.744 124.309 119.083 124.498 118.402L124.507 119.197ZM123.38 39.0258C123.816 39.1581 124.243 39.2228 124.671 39.2228C125.23 39.2228 125.741 39.1119 126.204 38.9565C125.368 39.4863 124.894 40.1272 124.731 40.9516C124.516 40.1884 124.08 39.568 123.38 39.0258ZM123.736 117.054C123.722 118.527 123.286 119.465 121.651 120.259C109.689 126.106 97.7903 132.043 85.8717 137.951C85.3527 138.208 84.7903 138.413 84.0253 138.746C83.8968 138.139 83.7088 137.669 83.7124 137.203C83.8607 125.353 84.0414 113.497 84.1699 101.639C84.1807 100.488 84.557 99.7412 85.8085 99.1299C98.0509 93.0916 110.257 87.0107 122.478 80.9469C122.848 80.7627 123.255 80.638 124.062 80.3277C124.112 81.3087 124.179 81.9552 124.176 82.6017C124.022 94.0862 123.834 105.567 123.736 117.054ZM121.976 80.6181C109.694 86.4205 97.4085 92.2109 85.1301 98.0332C84.5099 98.3267 83.9457 98.5149 83.3547 98.5149C82.9168 98.5149 82.4645 98.4117 81.9633 98.1714C69.4914 92.2018 56.9978 86.2699 44.515 80.3246C44.2255 80.183 43.9779 79.9809 43.3284 79.555C44.4065 79.0287 45.1535 78.6591 45.9166 78.2987C57.6562 72.7457 69.4244 67.2261 81.1243 61.6044C81.9995 61.182 82.7596 60.9687 83.5223 60.9687C84.2836 60.9687 85.0478 61.1812 85.9313 61.6105C97.6835 67.2958 109.512 72.8657 121.307 78.4812C121.982 78.8004 122.62 79.1762 123.537 79.6659C122.886 80.0675 122.461 80.3854 121.976 80.6181ZM82.4645 100.062C82.6037 112.858 82.743 125.652 82.884 138.48C80.8422 138.112 47.3527 121.664 43.0518 118.957C42.9179 106.268 42.7804 93.4916 42.6378 80.2242C56.1895 86.9727 69.251 93.4808 82.4645 100.062ZM42.1221 118.608L42.1257 118.964L42.1299 119.349L42.497 119.58C42.7719 119.753 43.2002 120 43.7602 120.309C43.1811 120.12 42.6284 120.03 42.0678 120.03C41.7495 120.03 41.4293 120.061 41.1006 120.123C41.6679 119.654 41.9674 119.138 42.1221 118.608ZM41.8891 39.4511C41.6816 39.3477 41.4745 39.2443 41.2672 39.141C41.6497 39.233 42.0253 39.2784 42.399 39.2784C42.6997 39.2784 42.9989 39.2504 43.3056 39.1922C42.7858 39.6382 42.499 40.1414 42.3492 40.7043L42.3428 40.1138L42.338 39.675L41.8891 39.4511ZM1.64447 179.126C1.50174 166.295 1.36246 153.489 1.21585 140.468C1.89032 140.643 2.39505 140.687 2.79843 140.891C15.0858 146.999 27.3643 153.133 39.6571 159.237C40.6538 159.737 41.1819 160.278 41.1873 161.328C41.2722 173.483 41.415 185.637 41.5327 197.793C41.5344 198.007 41.4692 198.225 41.3535 198.922C27.9557 192.244 14.8671 185.723 1.64447 179.126ZM0.979126 257.345C1.11838 245.355 1.29559 233.364 1.43295 221.373C1.44559 220.385 1.80194 219.724 2.85263 219.205C15.3878 213.027 27.8996 206.823 40.424 200.624C40.5739 200.552 40.755 200.537 41.3139 200.395C41.3626 201.147 41.4351 201.717 41.426 202.284C41.2758 213.981 41.0986 225.675 40.9794 237.376C40.9666 238.541 40.5597 239.264 39.3226 239.872C27.0912 245.9 14.894 251.967 2.68271 258.029C2.3082 258.216 1.90146 258.355 1.32785 258.592C1.19049 258.121 0.973511 257.734 0.979126 257.345ZM79.4641 260.873C67.5618 266.492 55.645 272.089 43.7753 277.758C43.0298 278.112 42.3837 278.29 41.7371 278.29C41.0848 278.29 40.432 278.109 39.6753 277.746C27.7585 272.011 15.7822 266.355 3.83112 260.671C3.17102 260.358 2.56506 259.961 1.71509 259.489C2.61218 259.007 3.23602 258.632 3.90164 258.317C15.7948 252.683 27.7096 247.086 39.5668 241.405C40.3862 241.013 41.1056 240.819 41.8225 240.819C42.561 240.819 43.2973 241.024 44.1388 241.429C55.976 247.135 67.8764 252.756 79.748 258.402C80.4081 258.715 81.0122 259.114 81.9761 259.66C80.9324 260.163 80.2018 260.527 79.4641 260.873ZM82.5097 258.562C81.9182 258.415 81.41 258.375 81.0121 258.178C68.7246 252.069 56.4625 245.944 44.1769 239.84C43.175 239.344 42.6539 238.794 42.6468 237.753C42.5581 225.604 42.4189 213.462 42.3014 201.313C42.2977 201.094 42.3792 200.875 42.4874 200.312C43.4315 200.718 44.1314 200.984 44.788 201.307C56.6144 207.2 68.4153 213.111 80.2669 218.967C81.6196 219.634 82.2491 220.334 82.2526 221.732C82.3088 233.434 82.4661 245.139 82.5926 256.839C82.5927 257.351 82.5422 257.865 82.5097 258.562ZM83.0823 220.813C82.907 220.046 82.4866 219.438 81.7634 218.906C82.174 219.024 82.5779 219.082 82.9833 219.082C83.5263 219.082 84.0313 218.973 84.4817 218.825C83.6121 219.413 83.2368 220.101 83.0823 220.813ZM83.575 258.698C83.5207 257.874 83.4482 257.296 83.4502 256.723C83.6076 245.105 83.7847 233.484 83.9077 221.858C83.9166 220.648 84.2041 219.815 85.5768 219.135C97.823 213.135 110.023 207.06 122.244 201.007C122.613 200.823 123.025 200.69 123.622 200.45C123.736 201.023 123.913 201.5 123.91 201.971C123.767 213.815 123.584 225.659 123.45 237.499C123.438 238.544 123.152 239.292 121.985 239.869C109.522 246.006 97.0922 252.186 84.651 258.352C84.4284 258.463 84.1627 258.511 83.575 258.698ZM162.009 260.747C150.179 266.346 138.324 271.908 126.545 277.574C125.673 277.991 124.918 278.195 124.169 278.195C123.39 278.195 122.618 277.975 121.727 277.542C109.958 271.866 98.1248 266.284 86.3167 260.665C85.6385 260.343 84.9909 259.973 84.1046 259.506C84.6979 259.091 85.0886 258.718 85.5733 258.496C97.8662 252.68 110.166 246.887 122.454 241.066C123.064 240.774 123.62 240.6 124.194 240.6C124.647 240.599 125.112 240.708 125.626 240.952C138.109 246.926 150.619 252.863 163.114 258.816C163.409 258.957 163.666 259.162 164.362 259.61C163.34 260.107 162.678 260.429 162.009 260.747ZM125.161 239.067C125.022 226.192 124.879 213.422 124.738 200.135C138.279 206.884 151.337 213.392 164.565 219.978C164.706 232.769 164.847 245.565 164.992 258.925C151.369 252.133 138.293 245.614 125.161 239.067ZM165.491 219.971L165.486 219.532L165.036 219.308C164.927 219.253 164.818 219.2 164.709 219.145C164.969 219.199 165.227 219.226 165.488 219.226C165.763 219.226 166.038 219.196 166.32 219.135C165.876 219.562 165.63 220.023 165.496 220.497L165.491 219.971ZM165.82 256.82C165.972 245.115 166.147 233.409 166.272 221.699C166.288 220.486 166.617 219.671 167.983 218.997C180.086 213.05 192.131 207.034 204.2 201.047C204.708 200.794 205.26 200.608 206.155 200.256C206.216 201.128 206.289 201.641 206.283 202.152C206.13 213.858 205.936 225.563 205.837 237.273C205.824 238.625 205.287 239.411 203.896 240.094C191.871 245.995 179.887 251.96 167.889 257.906C167.38 258.158 166.827 258.349 166.035 258.676C165.943 257.924 165.813 257.372 165.82 256.82ZM245.135 260.536C233.003 266.28 220.849 271.993 208.735 277.773C207.973 278.138 207.303 278.334 206.622 278.334C205.994 278.334 205.355 278.167 204.623 277.812C192.618 272.039 180.556 266.34 168.52 260.613C167.927 260.329 167.375 259.979 166.384 259.432C168.614 258.355 170.422 257.457 172.255 256.59C182.857 251.58 193.484 246.611 204.046 241.543C204.994 241.089 205.819 240.84 206.662 240.84C207.42 240.84 208.193 241.041 209.085 241.473C220.686 247.106 232.368 252.602 244.025 258.151C244.851 258.545 245.665 258.951 246.728 259.474C246.043 259.935 245.636 260.3 245.135 260.536ZM247.327 258.791C246.298 258.339 245.529 258.043 244.802 257.678C233.12 251.866 221.472 246.011 209.75 240.248C208.104 239.44 207.46 238.572 207.457 236.944C207.421 225.531 207.254 214.115 207.137 202.703C207.129 201.986 207.206 201.267 207.249 200.28C208.278 200.733 209.05 201.034 209.774 201.392C221.452 207.206 233.108 213.061 244.829 218.82C246.473 219.631 247.106 220.506 247.112 222.13C247.152 233.542 247.314 244.954 247.432 256.376C247.443 257.085 247.374 257.798 247.327 258.791ZM207.956 199.601C208.414 199.235 208.697 198.872 209.097 198.684C221.537 192.795 233.998 186.93 246.43 181.031C246.973 180.777 247.465 180.642 247.961 180.642C248.415 180.642 248.871 180.756 249.371 180.996C261.935 187 274.511 192.979 287.08 198.972C287.306 199.077 287.487 199.247 288.014 199.608C287.135 200.09 286.515 200.467 285.846 200.782C274.02 206.379 262.17 211.943 250.384 217.602C249.493 218.029 248.721 218.25 247.942 218.25C247.194 218.25 246.439 218.046 245.564 217.625C233.806 211.94 221.965 206.362 210.157 200.742C209.474 200.418 208.822 200.055 207.956 199.601ZM247.897 220.916C247.679 220.064 247.201 219.388 246.404 218.806C246.931 218.956 247.436 219.028 247.942 219.028C248.352 219.028 248.765 218.98 249.193 218.88C248.386 219.457 248.032 220.133 247.897 220.916ZM248.302 256.723C248.445 245.092 248.622 233.458 248.75 221.829C248.76 220.629 249.025 219.791 250.412 219.108C262.589 213.132 274.719 207.083 286.866 201.062C287.307 200.844 287.787 200.678 288.68 200.312C288.711 201.414 288.756 202.138 288.749 202.859C288.595 214.198 288.398 225.531 288.329 236.87C288.316 238.544 287.756 239.527 285.967 240.404C274.074 246.199 262.26 252.11 250.414 257.979C249.895 258.236 249.335 258.423 248.494 258.758C248.412 257.956 248.295 257.339 248.302 256.723ZM327.015 260.651C314.962 266.346 302.894 272.024 290.86 277.741C290.16 278.073 289.536 278.277 288.882 278.277C288.366 278.277 287.831 278.15 287.222 277.858C274.995 271.987 262.712 266.182 250.458 260.349C250.013 260.136 249.617 259.867 248.951 259.48C249.682 259.051 250.199 258.698 250.767 258.426C262.89 252.694 275.029 246.969 287.143 241.218C287.84 240.889 288.461 240.688 289.111 240.688C289.631 240.688 290.169 240.816 290.78 241.11C303.011 246.982 315.286 252.786 327.543 258.615C327.991 258.83 328.389 259.103 329.218 259.583C328.225 260.069 327.624 260.367 327.015 260.651ZM290.066 161.853C290.076 160.54 290.473 159.699 291.908 158.992C303.93 153.08 315.905 147.104 327.895 141.154C328.415 140.891 328.979 140.687 329.71 140.378C329.858 140.876 330.082 141.267 330.075 141.662C329.934 153.669 329.738 165.669 329.632 177.672C329.622 179.05 328.749 179.612 327.555 180.197C317.968 184.914 308.397 189.653 298.817 194.374C295.941 195.794 293.039 197.18 289.765 198.762C289.698 197.896 289.61 197.318 289.617 196.751C289.769 185.119 289.953 173.487 290.066 161.853ZM299.063 204.875C308.464 209.562 317.853 214.273 327.286 218.902C328.832 219.652 329.48 220.483 329.483 222.028C329.529 233.443 329.688 244.855 329.807 256.266C329.811 256.983 329.737 257.696 329.677 258.863C316.237 252.157 303.172 245.642 290.004 239.084C289.866 226.235 289.729 213.45 289.586 200.147C293.167 201.933 296.113 203.405 299.063 204.875ZM289.07 238.307L289.078 239.091L289.083 239.53L289.532 239.754C289.707 239.841 289.88 239.927 290.054 240.014C289.738 239.944 289.425 239.909 289.111 239.909C288.713 239.909 288.336 239.967 287.987 240.055C288.524 239.559 288.876 238.989 289.07 238.307ZM288.362 160.043C288.503 172.95 288.64 185.68 288.779 198.327C288.533 198.446 288.459 198.491 288.385 198.509C288.328 198.53 288.255 198.551 288.197 198.551C288.177 198.551 288.159 198.549 288.145 198.543C287.669 198.351 287.182 198.173 286.729 197.956C274.161 191.691 261.591 185.423 248.953 179.12C248.813 166.262 248.678 153.486 248.533 140.196C262.067 146.937 275.128 153.445 288.362 160.043ZM248.027 179.127L248.032 179.566L248.48 179.79L248.824 179.961C248.535 179.896 248.249 179.863 247.961 179.863C247.721 179.864 247.483 179.885 247.242 179.93C247.66 179.538 247.894 179.11 248.022 178.678L248.027 179.127ZM247.707 142.027C247.556 153.875 247.383 165.713 247.244 177.56C247.229 178.606 246.949 179.345 245.784 179.928C233.319 186.059 220.889 192.244 208.446 198.407C208.225 198.515 207.96 198.566 207.37 198.753C207.314 197.931 207.238 197.358 207.245 196.785C207.399 185.164 207.585 173.54 207.688 161.92C207.701 160.567 208.207 159.777 209.598 159.092C221.689 153.151 233.737 147.154 245.802 141.184C246.255 140.961 246.736 140.786 247.408 140.51C247.526 141.083 247.71 141.555 247.707 142.027ZM206.981 120.799C207.561 120.799 208.154 120.949 208.83 121.272C220.981 127.106 233.187 132.877 245.37 138.67C245.815 138.881 246.229 139.148 246.908 139.525C246.24 139.946 245.766 140.323 245.211 140.586C233.007 146.358 220.792 152.108 208.603 157.9C207.957 158.206 207.382 158.378 206.794 158.378C206.289 158.378 205.775 158.252 205.196 157.974C192.882 152.077 180.533 146.226 168.199 140.357C167.828 140.18 167.498 139.946 166.802 139.531C167.665 139.06 168.224 138.714 168.822 138.434C180.873 132.738 192.936 127.055 204.963 121.334C205.685 120.99 206.325 120.799 206.981 120.799ZM206.216 117.59C206.203 119.015 205.428 119.686 204.107 120.335C193.375 125.598 182.67 130.901 171.951 136.193C170.218 137.049 168.469 137.882 166.276 138.946C166.239 137.837 166.192 137.111 166.203 136.39C166.355 124.909 166.538 113.427 166.633 101.941C166.648 100.614 167.095 99.7931 168.509 99.0933C180.534 93.1921 192.513 87.2207 204.507 81.2752C205.026 81.0136 205.581 80.8099 206.341 80.4904C206.462 81.0851 206.665 81.5595 206.657 82.0296C206.511 93.884 206.318 105.737 206.216 117.59ZM206.256 40.124C206.399 52.9047 206.538 65.6975 206.679 78.5238C204.681 78.1969 171.518 61.9316 166.845 59.0235C166.713 46.3403 166.574 33.5595 166.433 20.2679C180.053 27.0591 193.073 33.5564 206.256 40.124ZM165.92 59.0303L165.924 59.4185L166.295 59.6494C166.575 59.8241 166.99 60.0629 167.519 60.3555C166.95 60.173 166.407 60.0858 165.857 60.0858C165.547 60.0858 165.239 60.1132 164.925 60.1699C165.485 59.7009 165.77 59.1796 165.916 58.6512L165.92 59.0303ZM165.471 20.5857C165.523 21.4375 165.603 22.0777 165.592 22.7197C165.443 34.2745 165.268 45.8216 165.138 57.3672C165.124 58.5505 164.912 59.4129 163.508 60.1019C151.194 66.1448 138.925 72.2681 126.632 78.3625C126.333 78.5101 126.006 78.6135 125.469 78.8233C125.342 78.2849 125.131 77.8225 125.14 77.3662C125.282 65.4526 125.467 53.5344 125.592 41.6192C125.603 40.5103 126.114 39.8701 127.223 39.321C139.451 33.2965 151.657 27.2279 163.876 21.1851C164.308 20.9721 164.782 20.8397 165.471 20.5857ZM87.0093 18.3773C98.9097 12.7543 110.828 7.1571 122.693 1.4855C123.479 1.11105 124.165 0.920685 124.855 0.920563C125.541 0.920563 126.23 1.1088 127.024 1.49173C138.861 7.19836 150.764 12.8106 162.641 18.4611C163.31 18.7819 163.944 19.1546 164.861 19.6458C164.049 20.1112 163.46 20.5036 162.821 20.8124C150.769 26.51 138.704 32.1909 126.664 37.9021C125.959 38.2348 125.332 38.4442 124.671 38.4442C124.163 38.4442 123.634 38.3205 123.033 38.0344C110.801 32.1558 98.5246 26.3519 86.2661 20.5159C85.8212 20.3076 85.4216 20.0397 84.5769 19.547C85.6494 19.0314 86.3221 18.6953 87.0093 18.3773ZM84.1661 20.3712C85.3309 20.9143 86.105 21.2595 86.8591 21.6382C98.4503 27.4057 110.023 33.2173 121.658 38.9359C123.296 39.7405 123.962 40.6061 123.967 42.2334C124 53.6454 124.168 65.0448 124.282 76.4582C124.289 77.1669 124.221 77.8803 124.174 78.8552C123.298 78.51 122.672 78.3046 122.101 78.0187C110.128 72.058 98.1609 66.0807 86.1807 60.1338C85.0504 59.574 84.3341 59.0266 84.3288 57.7565C84.2619 45.8245 84.1026 33.9032 83.9796 21.9805C83.9764 21.5606 84.0739 21.1409 84.1661 20.3712ZM83.4887 58.5152C83.7006 59.406 84.2797 59.964 84.9394 60.3806C84.4548 60.252 83.9885 60.19 83.5223 60.19C83.0251 60.19 82.5269 60.2607 82.0059 60.4081C82.937 59.8659 83.3299 59.2054 83.4887 58.5152ZM83.1228 22.2179C82.9745 33.9869 82.8007 45.7577 82.6633 57.527C82.6542 58.5688 82.4083 59.3201 81.2271 59.9028C68.7698 66.0428 56.3376 72.2269 43.8964 78.393C43.674 78.504 43.4117 78.5541 42.7932 78.7536C42.7388 77.9503 42.6612 77.3786 42.6721 76.8083C42.8276 65.1866 43.0047 53.5619 43.1294 41.9432C43.1439 40.7431 43.3954 39.9005 44.7791 39.2177C57.0248 33.2099 69.2201 27.1292 81.4316 21.0741C81.8058 20.89 82.2146 20.7486 82.8765 20.4719C82.9764 21.144 83.1281 21.6824 83.1228 22.2179ZM4.78613 18.3165C16.618 12.7225 28.4587 7.14807 40.2739 1.5311C41.0523 1.15756 41.7466 0.89151 42.4993 0.89151C43.006 0.89151 43.5392 1.01202 44.1425 1.30157C56.3793 7.18921 68.6686 12.9976 80.9362 18.8352C81.3867 19.0497 81.7968 19.3234 82.4678 19.7006C81.8024 20.1264 81.314 20.5219 80.7461 20.788C68.6921 26.4962 56.6144 32.1754 44.5785 37.917C43.7966 38.2882 43.1085 38.4997 42.3991 38.4997C41.7935 38.4997 41.1725 38.3457 40.4639 38.0054C28.3807 32.1937 16.2417 26.4612 4.13141 20.6938C3.60867 20.4474 3.12756 20.1357 2.15271 19.5897C3.3013 19.0344 4.03729 18.6632 4.78613 18.3165ZM1.86349 20.525C8.6311 23.6066 15.0678 27.0134 21.6186 30.247C28.2198 33.5049 34.794 36.8191 41.417 40.1211C41.5563 52.9732 41.6957 65.7006 41.833 78.6911C41.0371 78.4462 40.4623 78.352 39.9864 78.1147C27.8417 72.078 15.728 66.0185 3.58719 59.9848C2.61581 59.5042 1.96835 59.0357 1.96109 57.9529C1.88712 45.7197 1.74969 33.4959 1.63382 21.2657C1.63007 21.1242 1.71512 20.9859 1.86349 20.525Z" fill="url(#paint0_linear_4183_3862)"/>
<defs>
<linearGradient id="paint0_linear_4183_3862" x1="280.63" y1="156.774" x2="59.2203" y2="236.473" gradientUnits="userSpaceOnUse">
<stop stop-color="#335FFF" stop-opacity="0"/>
<stop offset="1" stop-color="#335FFF"/>
</linearGradient>
</defs>
</svg>
