<svg width="40" height="41" viewBox="0 0 40 41" fill="none" xmlns="http://www.w3.org/2000/svg">
<g clip-path="url(#clip0_4183_3215)">
<path d="M3.05859 13.8477H1.17578C0.528594 13.8477 0.00390625 14.3723 0.00390625 15.0195C0.00390625 15.6667 0.528594 16.1914 1.17578 16.1914H3.05859C4.61086 16.1342 4.61141 13.9051 3.05859 13.8477Z" fill="#335FFF"/>
<path d="M38.832 13.8477H36.9492C36.302 13.8477 35.7773 14.3723 35.7773 15.0195C35.7773 15.6667 36.302 16.1914 36.9492 16.1914H38.832C40.3844 16.1342 40.3848 13.9051 38.832 13.8477Z" fill="#335FFF"/>
<path d="M7.19395 3.8658C8.33207 4.92307 9.90871 3.34697 8.85121 2.20854L7.52004 0.877363C7.06246 0.419785 6.32043 0.419785 5.86277 0.877363C5.40512 1.33494 5.40512 2.07697 5.86277 2.53463L7.19395 3.8658Z" fill="#335FFF"/>
<path d="M32.8149 26.1732C31.6769 25.1161 30.1001 26.6918 31.1576 27.8304L32.4888 29.1616C32.9466 29.6194 33.6885 29.6191 34.1461 29.1616C34.6037 28.704 34.6037 27.962 34.1461 27.5043L32.8149 26.1732Z" fill="#335FFF"/>
<path d="M7.19395 26.1732L5.86277 27.5044C5.40512 27.962 5.40512 28.704 5.86277 29.1617C6.32059 29.6195 7.06246 29.6192 7.52004 29.1617L8.85121 27.8305C9.90848 26.6924 8.33246 25.1158 7.19395 26.1732Z" fill="#335FFF"/>
<path d="M32.4869 0.877295L31.1557 2.20847C30.6981 2.66605 30.6981 3.40808 31.1557 3.86573C31.6136 4.32355 32.3554 4.32323 32.813 3.86573L34.1442 2.53456C35.2014 1.39651 33.6255 -0.180048 32.4869 0.877295Z" fill="#335FFF"/>
<path d="M20.0038 1.92313C8.14504 1.85047 2.34807 16.8655 11.2439 24.7077C12.586 25.9483 13.4565 27.6153 13.7234 29.4047C12.1207 29.4802 12.2056 31.7847 13.811 31.7483V33.0869C13.811 36.1009 15.9758 38.6175 18.8319 39.167C18.7155 40.9827 21.2927 40.9816 21.1757 39.167C24.0319 38.6175 26.1967 36.1009 26.1967 33.0869V31.7483C27.8031 31.7843 27.886 29.4795 26.2842 29.4047C26.5509 27.6157 27.4216 25.9485 28.7638 24.7077C37.6627 16.8623 31.8572 1.84891 20.0038 1.92313ZM23.8528 33.0869C23.6587 38.1871 16.3473 38.1838 16.1548 33.0868V31.7483H23.8528V33.0869ZM27.1997 22.9619C25.363 24.6469 24.2021 26.949 23.92 29.4045H16.0877C15.2456 22.6028 10.141 23.1358 9.31569 16.1916H14.9828C15.2937 16.1916 15.5917 16.0681 15.8114 15.8483L18.3648 13.2949C20.7479 14.5271 23.7221 12.6939 23.6861 9.99866C23.6861 7.96823 22.0342 6.31633 20.0038 6.31633C17.3089 6.28055 15.4752 9.25435 16.7075 11.6376L14.4974 13.8477H9.31506C10.9999 1.15546 29.0124 1.1646 30.6925 13.8477H25.0247C24.7138 13.8477 24.4158 13.9711 24.1961 14.191L21.6428 16.7444C19.2596 15.5123 16.2854 17.3454 16.3215 20.0406C16.3215 22.0711 17.9734 23.723 20.0038 23.723C22.6987 23.7587 24.5324 20.7849 23.3001 18.4017L25.5102 16.1916H30.6919C30.4047 18.7974 29.1678 21.2175 27.1997 22.9619ZM18.6651 9.99881C18.6651 9.26076 19.2657 8.6602 20.0038 8.6602C21.7772 8.72754 21.7767 11.2703 20.0038 11.3374C19.2657 11.3374 18.6651 10.7369 18.6651 9.99881ZM21.3424 20.0406C21.3424 20.7787 20.7418 21.3792 20.0038 21.3792C18.2304 21.3119 18.2308 18.7691 20.0038 18.7021C20.7418 18.7021 21.3424 19.3026 21.3424 20.0406Z" fill="#335FFF"/>
</g>
<defs>
<clipPath id="clip0_4183_3215">
<rect width="40" height="40" fill="white" transform="translate(0 0.52832)"/>
</clipPath>
</defs>
</svg>
