<svg width="2030" height="350" viewBox="0 0 2030 350" fill="none" xmlns="http://www.w3.org/2000/svg">
<g clip-path="url(#clip0_4502_1452)">
<path d="M159.672 738.86H272.027V901.549H274.027V738.86H386.383V901.549H388.383V738.86H500.738V901.549H502.738V738.86H613.359V901.549H615.359V738.86H727.719V901.549H729.719V738.86H842.07V901.549H844.07V738.86H956.43V901.549H958.43V738.86H1069.05V901.549H1071.05V738.86H1183.41V901.549H1185.41V738.86H1297.76V901.549H1299.76V738.86H1410.38V901.549H1412.38V738.86H1524.74V901.549H1526.74V738.86H1639.09V901.549H1641.09V738.86H1753.45V901.549H1755.45V738.86H1866.07V901.549H1868.07V738.86H1980.43V901.549H1982.43V738.86H2139.83V736.86H1982.43V624.039H2139.83V622.039H1982.43V509.219H2139.83V507.219H1982.43V394.399H2139.83V392.399H1982.43V279.579H2139.83V277.579H1982.43V164.759H2139.83V162.759H1982.43V49.9385H2139.83V47.9385H1982.43V-64.8818H2139.83V-66.8818H1982.43V-243.738H1980.43V-66.8818H1868.07V-243.738H1866.07V-66.8818H1755.45V-243.738H1753.45V-66.8818H1641.09V-243.738H1639.09V-66.8818H1526.74V-243.738H1524.74V-66.8818H1412.38V-243.738H1410.38V-66.8818H1299.76V-243.738H1297.76V-66.8818H1185.41V-243.738H1183.41V-66.8818H1071.05V-243.738H1069.05V-66.8818H958.43V-243.738H956.43V-66.8818H844.07V-243.738H842.07V-66.8818H729.719V-243.738H727.719V-66.8818H615.359V-243.738H613.359V-66.8818H502.738V-243.738H500.738V-66.8818H388.383V-243.738H386.383V-66.8818H274.027V-243.738H272.027V-66.8818H159.672V-243.738H157.672V-66.8818H0V-64.8818H157.672V47.9385H0V49.9385H157.672V162.759H0V164.759H157.672V277.579H0V279.579H157.672V392.399H0V394.399H157.672V507.219H0V509.219H157.672V622.039H0V624.039H157.672V736.86H0V738.86H157.672V901.549H159.672V738.86ZM1868.07 47.9385V-64.8818H1980.43V47.9385H1868.07ZM159.672 -64.8818H272.027V47.9385H159.672V-64.8818ZM274.027 -64.8818H386.383V47.9385H274.027V-64.8818ZM388.383 -64.8818H500.738V47.9385H388.383V-64.8818ZM502.738 -64.8818H613.359V47.9385H502.738V-64.8818ZM615.359 -64.8818H727.719V47.9385H615.359V-64.8818ZM729.719 -64.8818H842.07V47.9385H729.719V-64.8818ZM844.07 -64.8818H956.43V47.9385H844.07V-64.8818ZM958.43 -64.8818H1069.05V47.9385H958.43V-64.8818ZM1071.05 -64.8818H1183.41V47.9385H1071.05V-64.8818ZM1185.41 -64.8818H1297.76V47.9385H1185.41V-64.8818ZM1299.76 -64.8818H1410.38V47.9385H1299.76V-64.8818ZM1412.38 -64.8818H1524.74V47.9385H1412.38V-64.8818ZM1526.74 -64.8818H1639.09V47.9385H1526.74V-64.8818ZM1641.09 -64.8818H1753.45V47.9385H1641.09V-64.8818ZM1755.45 -64.8818H1866.07V47.9385H1755.45V-64.8818ZM1868.07 162.759V49.9385H1980.43V162.759H1868.07ZM159.672 49.9385H272.027V162.759H159.672V49.9385ZM274.027 49.9385H386.383V162.759H274.027V49.9385ZM388.383 49.9385H500.738V162.759H388.383V49.9385ZM502.738 49.9385H613.359V162.759H502.738V49.9385ZM615.359 49.9385H727.719V162.759H615.359V49.9385ZM729.719 49.9385H842.07V162.759H729.719V49.9385ZM844.07 49.9385H956.43V162.759H844.07V49.9385ZM958.43 49.9385H1069.05V162.759H958.43V49.9385ZM1071.05 49.9385H1183.41V162.759H1071.05V49.9385ZM1185.41 49.9385H1297.76V162.759H1185.41V49.9385ZM1299.76 49.9385H1410.38V162.759H1299.76V49.9385ZM1412.38 49.9385H1524.74V162.759H1412.38V49.9385ZM1526.74 49.9385H1639.09V162.759H1526.74V49.9385ZM1641.09 49.9385H1753.45V162.759H1641.09V49.9385ZM1755.45 49.9385H1866.07V162.759H1755.45V49.9385ZM1868.07 277.579V164.759H1980.43V277.579H1868.07ZM159.672 164.759H272.027V277.579H159.672V164.759ZM274.027 164.759H386.383V277.579H274.027V164.759ZM388.383 164.759H500.738V277.579H388.383V164.759ZM502.738 164.759H613.359V277.579H502.738V164.759ZM615.359 164.759H727.719V277.579H615.359V164.759ZM729.719 164.759H842.07V277.579H729.719V164.759ZM844.07 164.759H956.43V277.579H844.07V164.759ZM958.43 164.759H1069.05V277.579H958.43V164.759ZM1071.05 164.759H1183.41V277.579H1071.05V164.759ZM1185.41 164.759H1297.76V277.579H1185.41V164.759ZM1299.76 164.759H1410.38V277.579H1299.76V164.759ZM1412.38 164.759H1524.74V277.579H1412.38V164.759ZM1526.74 164.759H1639.09V277.579H1526.74V164.759ZM1641.09 164.759H1753.45V277.579H1641.09V164.759ZM1755.45 164.759H1866.07V277.579H1755.45V164.759ZM1868.07 392.399V279.579H1980.43V392.399H1868.07ZM159.672 279.579H272.027V392.399H159.672V279.579ZM274.027 279.579H386.383V392.399H274.027V279.579ZM388.383 279.579H500.738V392.399H388.383V279.579ZM502.738 279.579H613.359V392.399H502.738V279.579ZM615.359 279.579H727.719V392.399H615.359V279.579ZM729.719 279.579H842.07V392.399H729.719V279.579ZM844.07 279.579H956.43V392.399H844.07V279.579ZM958.43 279.579H1069.05V392.399H958.43V279.579ZM1071.05 279.579H1183.41V392.399H1071.05V279.579ZM1185.41 279.579H1297.76V392.399H1185.41V279.579ZM1299.76 279.579H1410.38V392.399H1299.76V279.579ZM1412.38 279.579H1524.74V392.399H1412.38V279.579ZM1526.74 279.579H1639.09V392.399H1526.74V279.579ZM1641.09 279.579H1753.45V392.399H1641.09V279.579ZM1755.45 279.579H1866.07V392.399H1755.45V279.579ZM1868.07 507.219V394.399H1980.43V507.219H1868.07ZM159.672 394.399H272.027V507.219H159.672V394.399ZM274.027 394.399H386.383V507.219H274.027V394.399ZM388.383 394.399H500.738V507.219H388.383V394.399ZM502.738 394.399H613.359V507.219H502.738V394.399ZM615.359 394.399H727.719V507.219H615.359V394.399ZM729.719 394.399H842.07V507.219H729.719V394.399ZM844.07 394.399H956.43V507.219H844.07V394.399ZM958.43 394.399H1069.05V507.219H958.43V394.399ZM1071.05 394.399H1183.41V507.219H1071.05V394.399ZM1185.41 394.399H1297.76V507.219H1185.41V394.399ZM1299.76 394.399H1410.38V507.219H1299.76V394.399ZM1412.38 394.399H1524.74V507.219H1412.38V394.399ZM1526.74 394.399H1639.09V507.219H1526.74V394.399ZM1641.09 394.399H1753.45V507.219H1641.09V394.399ZM1755.45 394.399H1866.07V507.219H1755.45V394.399ZM1868.07 622.039V509.219H1980.43V622.039H1868.07ZM159.672 509.219H272.027V622.039H159.672V509.219ZM274.027 509.219H386.383V622.039H274.027V509.219ZM388.383 509.219H500.738V622.039H388.383V509.219ZM502.738 509.219H613.359V622.039H502.738V509.219ZM615.359 509.219H727.719V622.039H615.359V509.219ZM729.719 509.219H842.07V622.039H729.719V509.219ZM844.07 509.219H956.43V622.039H844.07V509.219ZM958.43 509.219H1069.05V622.039H958.43V509.219ZM1071.05 509.219H1183.41V622.039H1071.05V509.219ZM1185.41 509.219H1297.76V622.039H1185.41V509.219ZM1299.76 509.219H1410.38V622.039H1299.76V509.219ZM1412.38 509.219H1524.74V622.039H1412.38V509.219ZM1526.74 509.219H1639.09V622.039H1526.74V509.219ZM1641.09 509.219H1753.45V622.039H1641.09V509.219ZM1755.45 509.219H1866.07V622.039H1755.45V509.219ZM1868.07 736.86V624.039H1980.43V736.86H1868.07ZM159.672 624.039H272.027V736.86H159.672V624.039ZM274.027 624.039H386.383V736.86H274.027V624.039ZM388.383 624.039H500.738V736.86H388.383V624.039ZM502.738 624.039H613.359V736.86H502.738V624.039ZM615.359 624.039H727.719V736.86H615.359V624.039ZM729.719 624.039H842.07V736.86H729.719V624.039ZM844.07 624.039H956.43V736.86H844.07V624.039ZM958.43 624.039H1069.05V736.86H958.43V624.039ZM1071.05 624.039H1183.41V736.86H1071.05V624.039ZM1185.41 624.039H1297.76V736.86H1185.41V624.039ZM1299.76 624.039H1410.38V736.86H1299.76V624.039ZM1412.38 624.039H1524.74V736.86H1412.38V624.039ZM1526.74 624.039H1639.09V736.86H1526.74V624.039ZM1641.09 624.039H1753.45V736.86H1641.09V624.039ZM1755.45 624.039H1866.07V736.86H1755.45V624.039Z" fill="#EDECF3"/>
</g>
<g clip-path="url(#clip1_4502_1452)">
<path d="M159.758 -240.005H272.113V-402.693H274.113V-240.005H386.469V-402.693H388.469V-240.005H500.824V-402.693H502.824V-240.005H613.445V-402.693H615.445V-240.005H727.805V-402.693H729.805V-240.005H842.156V-402.693H844.156V-240.005H956.516V-402.693H958.516V-240.005H1069.13V-402.693H1071.13V-240.005H1183.49V-402.693H1185.49V-240.005H1297.85V-402.693H1299.85V-240.005H1410.47V-402.693H1412.47V-240.005H1524.82V-402.693H1526.82V-240.005H1639.18V-402.693H1641.18V-240.005H1753.54V-402.693H1755.54V-240.005H1866.16V-402.693H1868.16V-240.005H1980.52V-402.693H1982.52V-240.005H2139.92V-238.005H1982.52V-125.184H2139.92V-123.184H1982.52V-10.3633H2139.92V-8.36328H1982.52V104.456H2139.92V106.456H1982.52V219.276H2139.92V221.276H1982.52V334.097H2139.92V336.097H1982.52V448.917H2139.92V450.917H1982.52V563.737H2139.92V565.737H1982.52V742.594H1980.52V565.737H1868.16V742.594H1866.16V565.737H1755.54V742.594H1753.54V565.737H1641.18V742.594H1639.18V565.737H1526.82V742.594H1524.82V565.737H1412.47V742.594H1410.47V565.737H1299.85V742.594H1297.85V565.737H1185.49V742.594H1183.49V565.737H1071.13V742.594H1069.13V565.737H958.516V742.594H956.516V565.737H844.156V742.594H842.156V565.737H729.805V742.594H727.805V565.737H615.445V742.594H613.445V565.737H502.824V742.594H500.824V565.737H388.469V742.594H386.469V565.737H274.113V742.594H272.113V565.737H159.758V742.594H157.758V565.737H0.0859375V563.737H157.758V450.917H0.0859375V448.917H157.758V336.097H0.0859375V334.097H157.758V221.276H0.0859375V219.276H157.758V106.456H0.0859375V104.456H157.758V-8.36328H0.0859375V-10.3633H157.758V-123.184H0.0859375V-125.184H157.758V-238.005H0.0859375V-240.005H157.758V-402.693H159.758V-240.005ZM1868.16 450.917V563.737H1980.52V450.917H1868.16ZM159.758 563.737H272.113V450.917H159.758V563.737ZM274.113 563.737H386.469V450.917H274.113V563.737ZM388.469 563.737H500.824V450.917H388.469V563.737ZM502.824 563.737H613.445V450.917H502.824V563.737ZM615.445 563.737H727.805V450.917H615.445V563.737ZM729.805 563.737H842.156V450.917H729.805V563.737ZM844.156 563.737H956.516V450.917H844.156V563.737ZM958.516 563.737H1069.13V450.917H958.516V563.737ZM1071.13 563.737H1183.49V450.917H1071.13V563.737ZM1185.49 563.737H1297.85V450.917H1185.49V563.737ZM1299.85 563.737H1410.47V450.917H1299.85V563.737ZM1412.47 563.737H1524.82V450.917H1412.47V563.737ZM1526.82 563.737H1639.18V450.917H1526.82V563.737ZM1641.18 563.737H1753.54V450.917H1641.18V563.737ZM1755.54 563.737H1866.16V450.917H1755.54V563.737ZM1868.16 336.097V448.917H1980.52V336.097H1868.16ZM159.758 448.917H272.113V336.097H159.758V448.917ZM274.113 448.917H386.469V336.097H274.113V448.917ZM388.469 448.917H500.824V336.097H388.469V448.917ZM502.824 448.917H613.445V336.097H502.824V448.917ZM615.445 448.917H727.805V336.097H615.445V448.917ZM729.805 448.917H842.156V336.097H729.805V448.917ZM844.156 448.917H956.516V336.097H844.156V448.917ZM958.516 448.917H1069.13V336.097H958.516V448.917ZM1071.13 448.917H1183.49V336.097H1071.13V448.917ZM1185.49 448.917H1297.85V336.097H1185.49V448.917ZM1299.85 448.917H1410.47V336.097H1299.85V448.917ZM1412.47 448.917H1524.82V336.097H1412.47V448.917ZM1526.82 448.917H1639.18V336.097H1526.82V448.917ZM1641.18 448.917H1753.54V336.097H1641.18V448.917ZM1755.54 448.917H1866.16V336.097H1755.54V448.917ZM1868.16 221.276V334.097H1980.52V221.276H1868.16ZM159.758 334.097H272.113V221.276H159.758V334.097ZM274.113 334.097H386.469V221.276H274.113V334.097ZM388.469 334.097H500.824V221.276H388.469V334.097ZM502.824 334.097H613.445V221.276H502.824V334.097ZM615.445 334.097H727.805V221.276H615.445V334.097ZM729.805 334.097H842.156V221.276H729.805V334.097ZM844.156 334.097H956.516V221.276H844.156V334.097ZM958.516 334.097H1069.13V221.276H958.516V334.097ZM1071.13 334.097H1183.49V221.276H1071.13V334.097ZM1185.49 334.097H1297.85V221.276H1185.49V334.097ZM1299.85 334.097H1410.47V221.276H1299.85V334.097ZM1412.47 334.097H1524.82V221.276H1412.47V334.097ZM1526.82 334.097H1639.18V221.276H1526.82V334.097ZM1641.18 334.097H1753.54V221.276H1641.18V334.097ZM1755.54 334.097H1866.16V221.276H1755.54V334.097ZM1868.16 106.456V219.276H1980.52V106.456H1868.16ZM159.758 219.276H272.113V106.456H159.758V219.276ZM274.113 219.276H386.469V106.456H274.113V219.276ZM388.469 219.276H500.824V106.456H388.469V219.276ZM502.824 219.276H613.445V106.456H502.824V219.276ZM615.445 219.276H727.805V106.456H615.445V219.276ZM729.805 219.276H842.156V106.456H729.805V219.276ZM844.156 219.276H956.516V106.456H844.156V219.276ZM958.516 219.276H1069.13V106.456H958.516V219.276ZM1071.13 219.276H1183.49V106.456H1071.13V219.276ZM1185.49 219.276H1297.85V106.456H1185.49V219.276ZM1299.85 219.276H1410.47V106.456H1299.85V219.276ZM1412.47 219.276H1524.82V106.456H1412.47V219.276ZM1526.82 219.276H1639.18V106.456H1526.82V219.276ZM1641.18 219.276H1753.54V106.456H1641.18V219.276ZM1755.54 219.276H1866.16V106.456H1755.54V219.276ZM1868.16 -8.36328V104.456H1980.52V-8.36328H1868.16ZM159.758 104.456H272.113V-8.36328H159.758V104.456ZM274.113 104.456H386.469V-8.36328H274.113V104.456ZM388.469 104.456H500.824V-8.36328H388.469V104.456ZM502.824 104.456H613.445V-8.36328H502.824V104.456ZM615.445 104.456H727.805V-8.36328H615.445V104.456ZM729.805 104.456H842.156V-8.36328H729.805V104.456ZM844.156 104.456H956.516V-8.36328H844.156V104.456ZM958.516 104.456H1069.13V-8.36328H958.516V104.456ZM1071.13 104.456H1183.49V-8.36328H1071.13V104.456ZM1185.49 104.456H1297.85V-8.36328H1185.49V104.456ZM1299.85 104.456H1410.47V-8.36328H1299.85V104.456ZM1412.47 104.456H1524.82V-8.36328H1412.47V104.456ZM1526.82 104.456H1639.18V-8.36328H1526.82V104.456ZM1641.18 104.456H1753.54V-8.36328H1641.18V104.456ZM1755.54 104.456H1866.16V-8.36328H1755.54V104.456ZM1868.16 -123.184V-10.3633H1980.52V-123.184H1868.16ZM159.758 -10.3633H272.113V-123.184H159.758V-10.3633ZM274.113 -10.3633H386.469V-123.184H274.113V-10.3633ZM388.469 -10.3633H500.824V-123.184H388.469V-10.3633ZM502.824 -10.3633H613.445V-123.184H502.824V-10.3633ZM615.445 -10.3633H727.805V-123.184H615.445V-10.3633ZM729.805 -10.3633H842.156V-123.184H729.805V-10.3633ZM844.156 -10.3633H956.516V-123.184H844.156V-10.3633ZM958.516 -10.3633H1069.13V-123.184H958.516V-10.3633ZM1071.13 -10.3633H1183.49V-123.184H1071.13V-10.3633ZM1185.49 -10.3633H1297.85V-123.184H1185.49V-10.3633ZM1299.85 -10.3633H1410.47V-123.184H1299.85V-10.3633ZM1412.47 -10.3633H1524.82V-123.184H1412.47V-10.3633ZM1526.82 -10.3633H1639.18V-123.184H1526.82V-10.3633ZM1641.18 -10.3633H1753.54V-123.184H1641.18V-10.3633ZM1755.54 -10.3633H1866.16V-123.184H1755.54V-10.3633ZM1868.16 -238.005V-125.184H1980.52V-238.005H1868.16ZM159.758 -125.184H272.113V-238.005H159.758V-125.184ZM274.113 -125.184H386.469V-238.005H274.113V-125.184ZM388.469 -125.184H500.824V-238.005H388.469V-125.184ZM502.824 -125.184H613.445V-238.005H502.824V-125.184ZM615.445 -125.184H727.805V-238.005H615.445V-125.184ZM729.805 -125.184H842.156V-238.005H729.805V-125.184ZM844.156 -125.184H956.516V-238.005H844.156V-125.184ZM958.516 -125.184H1069.13V-238.005H958.516V-125.184ZM1071.13 -125.184H1183.49V-238.005H1071.13V-125.184ZM1185.49 -125.184H1297.85V-238.005H1185.49V-125.184ZM1299.85 -125.184H1410.47V-238.005H1299.85V-125.184ZM1412.47 -125.184H1524.82V-238.005H1412.47V-125.184ZM1526.82 -125.184H1639.18V-238.005H1526.82V-125.184ZM1641.18 -125.184H1753.54V-238.005H1641.18V-125.184ZM1755.54 -125.184H1866.16V-238.005H1755.54V-125.184Z" fill="#EDECF3"/>
</g>
<defs>
<clipPath id="clip0_4502_1452">
<rect width="2030" height="255" fill="white" transform="matrix(1 0 0 -1 0 255.807)"/>
</clipPath>
<clipPath id="clip1_4502_1452">
<rect width="2030" height="92" fill="white" transform="translate(0 257.807)"/>
</clipPath>
</defs>
</svg>
