<svg width="2030" height="349" viewBox="0 0 2030 349" fill="none" xmlns="http://www.w3.org/2000/svg">
<g clip-path="url(#clip0_4500_1439)">
<path d="M159.672 738.054H272.027V900.742H274.027V738.054H386.383V900.742H388.383V738.054H500.738V900.742H502.738V738.054H613.359V900.742H615.359V738.054H727.719V900.742H729.719V738.054H842.07V900.742H844.07V738.054H956.43V900.742H958.43V738.054H1069.05V900.742H1071.05V738.054H1183.41V900.742H1185.41V738.054H1297.76V900.742H1299.76V738.054H1410.38V900.742H1412.38V738.054H1524.74V900.742H1526.74V738.054H1639.09V900.742H1641.09V738.054H1753.45V900.742H1755.45V738.054H1866.07V900.742H1868.07V738.054H1980.43V900.742H1982.43V738.054H2139.83V736.054H1982.43V623.232H2139.83V621.232H1982.43V508.412H2139.83V506.412H1982.43V393.593H2139.83V391.593H1982.43V278.772H2139.83V276.772H1982.43V163.952H2139.83V161.952H1982.43V49.1318H2139.83V47.1318H1982.43V-65.6885H2139.83V-67.6885H1982.43V-244.545H1980.43V-67.6885H1868.07V-244.545H1866.07V-67.6885H1755.45V-244.545H1753.45V-67.6885H1641.09V-244.545H1639.09V-67.6885H1526.74V-244.545H1524.74V-67.6885H1412.38V-244.545H1410.38V-67.6885H1299.76V-244.545H1297.76V-67.6885H1185.41V-244.545H1183.41V-67.6885H1071.05V-244.545H1069.05V-67.6885H958.43V-244.545H956.43V-67.6885H844.07V-244.545H842.07V-67.6885H729.719V-244.545H727.719V-67.6885H615.359V-244.545H613.359V-67.6885H502.738V-244.545H500.738V-67.6885H388.383V-244.545H386.383V-67.6885H274.027V-244.545H272.027V-67.6885H159.672V-244.545H157.672V-67.6885H0V-65.6885H157.672V47.1318H0V49.1318H157.672V161.952H0V163.952H157.672V276.772H0V278.772H157.672V391.593H0V393.593H157.672V506.412H0V508.412H157.672V621.232H0V623.232H157.672V736.054H0V738.054H157.672V900.742H159.672V738.054ZM1868.07 47.1318V-65.6885H1980.43V47.1318H1868.07ZM159.672 -65.6885H272.027V47.1318H159.672V-65.6885ZM274.027 -65.6885H386.383V47.1318H274.027V-65.6885ZM388.383 -65.6885H500.738V47.1318H388.383V-65.6885ZM502.738 -65.6885H613.359V47.1318H502.738V-65.6885ZM615.359 -65.6885H727.719V47.1318H615.359V-65.6885ZM729.719 -65.6885H842.07V47.1318H729.719V-65.6885ZM844.07 -65.6885H956.43V47.1318H844.07V-65.6885ZM958.43 -65.6885H1069.05V47.1318H958.43V-65.6885ZM1071.05 -65.6885H1183.41V47.1318H1071.05V-65.6885ZM1185.41 -65.6885H1297.76V47.1318H1185.41V-65.6885ZM1299.76 -65.6885H1410.38V47.1318H1299.76V-65.6885ZM1412.38 -65.6885H1524.74V47.1318H1412.38V-65.6885ZM1526.74 -65.6885H1639.09V47.1318H1526.74V-65.6885ZM1641.09 -65.6885H1753.45V47.1318H1641.09V-65.6885ZM1755.45 -65.6885H1866.07V47.1318H1755.45V-65.6885ZM1868.07 161.952V49.1318H1980.43V161.952H1868.07ZM159.672 49.1318H272.027V161.952H159.672V49.1318ZM274.027 49.1318H386.383V161.952H274.027V49.1318ZM388.383 49.1318H500.738V161.952H388.383V49.1318ZM502.738 49.1318H613.359V161.952H502.738V49.1318ZM615.359 49.1318H727.719V161.952H615.359V49.1318ZM729.719 49.1318H842.07V161.952H729.719V49.1318ZM844.07 49.1318H956.43V161.952H844.07V49.1318ZM958.43 49.1318H1069.05V161.952H958.43V49.1318ZM1071.05 49.1318H1183.41V161.952H1071.05V49.1318ZM1185.41 49.1318H1297.76V161.952H1185.41V49.1318ZM1299.76 49.1318H1410.38V161.952H1299.76V49.1318ZM1412.38 49.1318H1524.74V161.952H1412.38V49.1318ZM1526.74 49.1318H1639.09V161.952H1526.74V49.1318ZM1641.09 49.1318H1753.45V161.952H1641.09V49.1318ZM1755.45 49.1318H1866.07V161.952H1755.45V49.1318ZM1868.07 276.772V163.952H1980.43V276.772H1868.07ZM159.672 163.952H272.027V276.772H159.672V163.952ZM274.027 163.952H386.383V276.772H274.027V163.952ZM388.383 163.952H500.738V276.772H388.383V163.952ZM502.738 163.952H613.359V276.772H502.738V163.952ZM615.359 163.952H727.719V276.772H615.359V163.952ZM729.719 163.952H842.07V276.772H729.719V163.952ZM844.07 163.952H956.43V276.772H844.07V163.952ZM958.43 163.952H1069.05V276.772H958.43V163.952ZM1071.05 163.952H1183.41V276.772H1071.05V163.952ZM1185.41 163.952H1297.76V276.772H1185.41V163.952ZM1299.76 163.952H1410.38V276.772H1299.76V163.952ZM1412.38 163.952H1524.74V276.772H1412.38V163.952ZM1526.74 163.952H1639.09V276.772H1526.74V163.952ZM1641.09 163.952H1753.45V276.772H1641.09V163.952ZM1755.45 163.952H1866.07V276.772H1755.45V163.952ZM1868.07 391.593V278.772H1980.43V391.593H1868.07ZM159.672 278.772H272.027V391.593H159.672V278.772ZM274.027 278.772H386.383V391.593H274.027V278.772ZM388.383 278.772H500.738V391.593H388.383V278.772ZM502.738 278.772H613.359V391.593H502.738V278.772ZM615.359 278.772H727.719V391.593H615.359V278.772ZM729.719 278.772H842.07V391.593H729.719V278.772ZM844.07 278.772H956.43V391.593H844.07V278.772ZM958.43 278.772H1069.05V391.593H958.43V278.772ZM1071.05 278.772H1183.41V391.593H1071.05V278.772ZM1185.41 278.772H1297.76V391.593H1185.41V278.772ZM1299.76 278.772H1410.38V391.593H1299.76V278.772ZM1412.38 278.772H1524.74V391.593H1412.38V278.772ZM1526.74 278.772H1639.09V391.593H1526.74V278.772ZM1641.09 278.772H1753.45V391.593H1641.09V278.772ZM1755.45 278.772H1866.07V391.593H1755.45V278.772ZM1868.07 506.412V393.593H1980.43V506.412H1868.07ZM159.672 393.593H272.027V506.412H159.672V393.593ZM274.027 393.593H386.383V506.412H274.027V393.593ZM388.383 393.593H500.738V506.412H388.383V393.593ZM502.738 393.593H613.359V506.412H502.738V393.593ZM615.359 393.593H727.719V506.412H615.359V393.593ZM729.719 393.593H842.07V506.412H729.719V393.593ZM844.07 393.593H956.43V506.412H844.07V393.593ZM958.43 393.593H1069.05V506.412H958.43V393.593ZM1071.05 393.593H1183.41V506.412H1071.05V393.593ZM1185.41 393.593H1297.76V506.412H1185.41V393.593ZM1299.76 393.593H1410.38V506.412H1299.76V393.593ZM1412.38 393.593H1524.74V506.412H1412.38V393.593ZM1526.74 393.593H1639.09V506.412H1526.74V393.593ZM1641.09 393.593H1753.45V506.412H1641.09V393.593ZM1755.45 393.593H1866.07V506.412H1755.45V393.593ZM1868.07 621.232V508.412H1980.43V621.232H1868.07ZM159.672 508.412H272.027V621.232H159.672V508.412ZM274.027 508.412H386.383V621.232H274.027V508.412ZM388.383 508.412H500.738V621.232H388.383V508.412ZM502.738 508.412H613.359V621.232H502.738V508.412ZM615.359 508.412H727.719V621.232H615.359V508.412ZM729.719 508.412H842.07V621.232H729.719V508.412ZM844.07 508.412H956.43V621.232H844.07V508.412ZM958.43 508.412H1069.05V621.232H958.43V508.412ZM1071.05 508.412H1183.41V621.232H1071.05V508.412ZM1185.41 508.412H1297.76V621.232H1185.41V508.412ZM1299.76 508.412H1410.38V621.232H1299.76V508.412ZM1412.38 508.412H1524.74V621.232H1412.38V508.412ZM1526.74 508.412H1639.09V621.232H1526.74V508.412ZM1641.09 508.412H1753.45V621.232H1641.09V508.412ZM1755.45 508.412H1866.07V621.232H1755.45V508.412ZM1868.07 736.054V623.232H1980.43V736.054H1868.07ZM159.672 623.232H272.027V736.054H159.672V623.232ZM274.027 623.232H386.383V736.054H274.027V623.232ZM388.383 623.232H500.738V736.054H388.383V623.232ZM502.738 623.232H613.359V736.054H502.738V623.232ZM615.359 623.232H727.719V736.054H615.359V623.232ZM729.719 623.232H842.07V736.054H729.719V623.232ZM844.07 623.232H956.43V736.054H844.07V623.232ZM958.43 623.232H1069.05V736.054H958.43V623.232ZM1071.05 623.232H1183.41V736.054H1071.05V623.232ZM1185.41 623.232H1297.76V736.054H1185.41V623.232ZM1299.76 623.232H1410.38V736.054H1299.76V623.232ZM1412.38 623.232H1524.74V736.054H1412.38V623.232ZM1526.74 623.232H1639.09V736.054H1526.74V623.232ZM1641.09 623.232H1753.45V736.054H1641.09V623.232ZM1755.45 623.232H1866.07V736.054H1755.45V623.232Z" fill="url(#paint0_radial_4500_1439)"/>
</g>
<g clip-path="url(#clip1_4500_1439)">
<path d="M159.758 -240.812H272.113V-403.5H274.113V-240.812H386.469V-403.5H388.469V-240.812H500.824V-403.5H502.824V-240.812H613.445V-403.5H615.445V-240.812H727.805V-403.5H729.805V-240.812H842.156V-403.5H844.156V-240.812H956.516V-403.5H958.516V-240.812H1069.13V-403.5H1071.13V-240.812H1183.49V-403.5H1185.49V-240.812H1297.85V-403.5H1299.85V-240.812H1410.47V-403.5H1412.47V-240.812H1524.82V-403.5H1526.82V-240.812H1639.18V-403.5H1641.18V-240.812H1753.54V-403.5H1755.54V-240.812H1866.16V-403.5H1868.16V-240.812H1980.52V-403.5H1982.52V-240.812H2139.92V-238.812H1982.52V-125.99H2139.92V-123.99H1982.52V-11.1699H2139.92V-9.16992H1982.52V103.649H2139.92V105.649H1982.52V218.47H2139.92V220.47H1982.52V333.29H2139.92V335.29H1982.52V448.11H2139.92V450.11H1982.52V562.931H2139.92V564.931H1982.52V741.787H1980.52V564.931H1868.16V741.787H1866.16V564.931H1755.54V741.787H1753.54V564.931H1641.18V741.787H1639.18V564.931H1526.82V741.787H1524.82V564.931H1412.47V741.787H1410.47V564.931H1299.85V741.787H1297.85V564.931H1185.49V741.787H1183.49V564.931H1071.13V741.787H1069.13V564.931H958.516V741.787H956.516V564.931H844.156V741.787H842.156V564.931H729.805V741.787H727.805V564.931H615.445V741.787H613.445V564.931H502.824V741.787H500.824V564.931H388.469V741.787H386.469V564.931H274.113V741.787H272.113V564.931H159.758V741.787H157.758V564.931H0.0859375V562.931H157.758V450.11H0.0859375V448.11H157.758V335.29H0.0859375V333.29H157.758V220.47H0.0859375V218.47H157.758V105.649H0.0859375V103.649H157.758V-9.16992H0.0859375V-11.1699H157.758V-123.99H0.0859375V-125.99H157.758V-238.812H0.0859375V-240.812H157.758V-403.5H159.758V-240.812ZM1868.16 450.11V562.931H1980.52V450.11H1868.16ZM159.758 562.931H272.113V450.11H159.758V562.931ZM274.113 562.931H386.469V450.11H274.113V562.931ZM388.469 562.931H500.824V450.11H388.469V562.931ZM502.824 562.931H613.445V450.11H502.824V562.931ZM615.445 562.931H727.805V450.11H615.445V562.931ZM729.805 562.931H842.156V450.11H729.805V562.931ZM844.156 562.931H956.516V450.11H844.156V562.931ZM958.516 562.931H1069.13V450.11H958.516V562.931ZM1071.13 562.931H1183.49V450.11H1071.13V562.931ZM1185.49 562.931H1297.85V450.11H1185.49V562.931ZM1299.85 562.931H1410.47V450.11H1299.85V562.931ZM1412.47 562.931H1524.82V450.11H1412.47V562.931ZM1526.82 562.931H1639.18V450.11H1526.82V562.931ZM1641.18 562.931H1753.54V450.11H1641.18V562.931ZM1755.54 562.931H1866.16V450.11H1755.54V562.931ZM1868.16 335.29V448.11H1980.52V335.29H1868.16ZM159.758 448.11H272.113V335.29H159.758V448.11ZM274.113 448.11H386.469V335.29H274.113V448.11ZM388.469 448.11H500.824V335.29H388.469V448.11ZM502.824 448.11H613.445V335.29H502.824V448.11ZM615.445 448.11H727.805V335.29H615.445V448.11ZM729.805 448.11H842.156V335.29H729.805V448.11ZM844.156 448.11H956.516V335.29H844.156V448.11ZM958.516 448.11H1069.13V335.29H958.516V448.11ZM1071.13 448.11H1183.49V335.29H1071.13V448.11ZM1185.49 448.11H1297.85V335.29H1185.49V448.11ZM1299.85 448.11H1410.47V335.29H1299.85V448.11ZM1412.47 448.11H1524.82V335.29H1412.47V448.11ZM1526.82 448.11H1639.18V335.29H1526.82V448.11ZM1641.18 448.11H1753.54V335.29H1641.18V448.11ZM1755.54 448.11H1866.16V335.29H1755.54V448.11ZM1868.16 220.47V333.29H1980.52V220.47H1868.16ZM159.758 333.29H272.113V220.47H159.758V333.29ZM274.113 333.29H386.469V220.47H274.113V333.29ZM388.469 333.29H500.824V220.47H388.469V333.29ZM502.824 333.29H613.445V220.47H502.824V333.29ZM615.445 333.29H727.805V220.47H615.445V333.29ZM729.805 333.29H842.156V220.47H729.805V333.29ZM844.156 333.29H956.516V220.47H844.156V333.29ZM958.516 333.29H1069.13V220.47H958.516V333.29ZM1071.13 333.29H1183.49V220.47H1071.13V333.29ZM1185.49 333.29H1297.85V220.47H1185.49V333.29ZM1299.85 333.29H1410.47V220.47H1299.85V333.29ZM1412.47 333.29H1524.82V220.47H1412.47V333.29ZM1526.82 333.29H1639.18V220.47H1526.82V333.29ZM1641.18 333.29H1753.54V220.47H1641.18V333.29ZM1755.54 333.29H1866.16V220.47H1755.54V333.29ZM1868.16 105.649V218.47H1980.52V105.649H1868.16ZM159.758 218.47H272.113V105.649H159.758V218.47ZM274.113 218.47H386.469V105.649H274.113V218.47ZM388.469 218.47H500.824V105.649H388.469V218.47ZM502.824 218.47H613.445V105.649H502.824V218.47ZM615.445 218.47H727.805V105.649H615.445V218.47ZM729.805 218.47H842.156V105.649H729.805V218.47ZM844.156 218.47H956.516V105.649H844.156V218.47ZM958.516 218.47H1069.13V105.649H958.516V218.47ZM1071.13 218.47H1183.49V105.649H1071.13V218.47ZM1185.49 218.47H1297.85V105.649H1185.49V218.47ZM1299.85 218.47H1410.47V105.649H1299.85V218.47ZM1412.47 218.47H1524.82V105.649H1412.47V218.47ZM1526.82 218.47H1639.18V105.649H1526.82V218.47ZM1641.18 218.47H1753.54V105.649H1641.18V218.47ZM1755.54 218.47H1866.16V105.649H1755.54V218.47ZM1868.16 -9.16992V103.649H1980.52V-9.16992H1868.16ZM159.758 103.649H272.113V-9.16992H159.758V103.649ZM274.113 103.649H386.469V-9.16992H274.113V103.649ZM388.469 103.649H500.824V-9.16992H388.469V103.649ZM502.824 103.649H613.445V-9.16992H502.824V103.649ZM615.445 103.649H727.805V-9.16992H615.445V103.649ZM729.805 103.649H842.156V-9.16992H729.805V103.649ZM844.156 103.649H956.516V-9.16992H844.156V103.649ZM958.516 103.649H1069.13V-9.16992H958.516V103.649ZM1071.13 103.649H1183.49V-9.16992H1071.13V103.649ZM1185.49 103.649H1297.85V-9.16992H1185.49V103.649ZM1299.85 103.649H1410.47V-9.16992H1299.85V103.649ZM1412.47 103.649H1524.82V-9.16992H1412.47V103.649ZM1526.82 103.649H1639.18V-9.16992H1526.82V103.649ZM1641.18 103.649H1753.54V-9.16992H1641.18V103.649ZM1755.54 103.649H1866.16V-9.16992H1755.54V103.649ZM1868.16 -123.99V-11.1699H1980.52V-123.99H1868.16ZM159.758 -11.1699H272.113V-123.99H159.758V-11.1699ZM274.113 -11.1699H386.469V-123.99H274.113V-11.1699ZM388.469 -11.1699H500.824V-123.99H388.469V-11.1699ZM502.824 -11.1699H613.445V-123.99H502.824V-11.1699ZM615.445 -11.1699H727.805V-123.99H615.445V-11.1699ZM729.805 -11.1699H842.156V-123.99H729.805V-11.1699ZM844.156 -11.1699H956.516V-123.99H844.156V-11.1699ZM958.516 -11.1699H1069.13V-123.99H958.516V-11.1699ZM1071.13 -11.1699H1183.49V-123.99H1071.13V-11.1699ZM1185.49 -11.1699H1297.85V-123.99H1185.49V-11.1699ZM1299.85 -11.1699H1410.47V-123.99H1299.85V-11.1699ZM1412.47 -11.1699H1524.82V-123.99H1412.47V-11.1699ZM1526.82 -11.1699H1639.18V-123.99H1526.82V-11.1699ZM1641.18 -11.1699H1753.54V-123.99H1641.18V-11.1699ZM1755.54 -11.1699H1866.16V-123.99H1755.54V-11.1699ZM1868.16 -238.812V-125.99H1980.52V-238.812H1868.16ZM159.758 -125.99H272.113V-238.812H159.758V-125.99ZM274.113 -125.99H386.469V-238.812H274.113V-125.99ZM388.469 -125.99H500.824V-238.812H388.469V-125.99ZM502.824 -125.99H613.445V-238.812H502.824V-125.99ZM615.445 -125.99H727.805V-238.812H615.445V-125.99ZM729.805 -125.99H842.156V-238.812H729.805V-125.99ZM844.156 -125.99H956.516V-238.812H844.156V-125.99ZM958.516 -125.99H1069.13V-238.812H958.516V-125.99ZM1071.13 -125.99H1183.49V-238.812H1071.13V-125.99ZM1185.49 -125.99H1297.85V-238.812H1185.49V-125.99ZM1299.85 -125.99H1410.47V-238.812H1299.85V-125.99ZM1412.47 -125.99H1524.82V-238.812H1412.47V-125.99ZM1526.82 -125.99H1639.18V-238.812H1526.82V-125.99ZM1641.18 -125.99H1753.54V-238.812H1641.18V-125.99ZM1755.54 -125.99H1866.16V-238.812H1755.54V-125.99Z" fill="url(#paint1_radial_4500_1439)"/>
</g>
<defs>
<radialGradient id="paint0_radial_4500_1439" cx="0" cy="0" r="1" gradientUnits="userSpaceOnUse" gradientTransform="translate(1064.55 -823.311) rotate(180) scale(1300.45 1064.35)">
<stop stop-color="#EDECF3"/>
<stop offset="1" stop-color="#E6E5F5" stop-opacity="0.01"/>
</radialGradient>
<radialGradient id="paint1_radial_4500_1439" cx="0" cy="0" r="1" gradientUnits="userSpaceOnUse" gradientTransform="translate(1064.63 1320.55) rotate(180) scale(1300.45 1064.35)">
<stop stop-color="#EDECF3"/>
<stop offset="1" stop-color="#E6E5F5" stop-opacity="0.01"/>
</radialGradient>
<clipPath id="clip0_4500_1439">
<rect width="2030" height="255" fill="white" transform="matrix(1 0 0 -1 0 255)"/>
</clipPath>
<clipPath id="clip1_4500_1439">
<rect width="2030" height="92" fill="white" transform="translate(0 257)"/>
</clipPath>
</defs>
</svg>
