<svg width="71" height="81" viewBox="0 0 71 81" fill="none" xmlns="http://www.w3.org/2000/svg">
<path d="M55.4943 56.7836C51.4138 60.0489 45.7012 62.4978 39.9885 62.4978C26.931 62.4978 17.954 52.7019 17.954 39.6407C17.954 26.5795 26.931 17.5999 39.9885 17.5999C45.7012 17.5999 51.4138 19.2325 55.4943 23.3142L57.9425 25.7631L71 13.5182L67.7356 11.0693C60.3908 4.53865 50.5977 0.457031 39.9885 0.457031C17.1379 0.457031 0 17.5999 0 40.457C0 63.3142 17.1379 80.457 39.9885 80.457C50.5977 80.457 60.3908 76.3754 67.7356 69.8448L71 67.3958L57.9425 54.3346L55.4943 56.7836Z" fill="white"/>
<path d="M39.1727 53.519C46.3842 53.519 52.2302 47.6712 52.2302 40.4577C52.2302 33.2442 46.3842 27.3965 39.1727 27.3965C31.9613 27.3965 26.1152 33.2442 26.1152 40.4577C26.1152 47.6712 31.9613 53.519 39.1727 53.519Z" fill="#EF4335"/>
</svg>
