<svg width="114" height="33" viewBox="0 0 114 33" fill="none" xmlns="http://www.w3.org/2000/svg">
<path d="M22.1577 24.5434C20.2052 26.5466 17.5531 27.632 14.7624 27.632C9.04227 27.632 4.88314 23.152 4.88314 17.0029C4.88314 10.8257 9.04227 6.34567 14.7624 6.34567C17.5261 6.34567 20.1487 7.42983 22.1307 9.40615L22.9112 10.1857L26.3438 6.76295L25.5903 5.98343C22.7443 3.0612 18.8933 1.47656 14.7624 1.47656C6.33498 1.47656 0 8.15431 0 17.0298C0 25.8784 6.36322 32.5293 14.7624 32.5293C18.9215 32.5293 22.7726 30.9165 25.6185 27.9943L26.372 27.2148L22.9677 23.737L22.1577 24.5434Z" fill="#24262B"/>
<path d="M34.0761 0.52832H28.9414V32.5283H34.0761V0.52832Z" fill="#24262B"/>
<path d="M50.7612 22.3196C50.7612 27.2168 46.6315 27.6072 45.4031 27.6072C42.3338 27.6072 41.7754 24.7426 41.7754 23.0146V10.7676H36.6406V22.989C36.6406 26.0226 37.5957 28.5263 39.2696 30.1954C40.7484 31.6712 42.9641 32.4776 45.3645 32.4776C47.0667 32.4776 49.4775 31.949 50.7612 30.7803V32.5275H55.8959V10.7676H50.7612V22.3196Z" fill="#24262B"/>
<path d="M67.4545 3.08789H62.3198V10.7679H58.4688V15.8879H62.3198V32.5278H67.4545V15.8879H71.3056V10.7679H67.4545V3.08789Z" fill="#24262B"/>
<path d="M89.1623 26.1016C88.0442 27.1038 86.568 27.6594 84.948 27.6594C81.3767 27.6594 78.7542 25.0443 78.7542 21.4539C78.7542 17.8635 81.2933 15.3586 84.948 15.3586C86.5397 15.3586 88.0442 15.8872 89.1905 16.8895L89.9697 17.5576L93.4318 14.1067L92.5653 13.3272C90.5281 11.493 87.8234 10.4639 84.9467 10.4639C78.5283 10.4639 73.8672 15.0821 73.8672 21.427C73.8672 27.7451 78.6399 32.5285 84.9467 32.5285C87.8773 32.5285 90.6103 31.4993 92.6218 29.6357L93.4588 28.8562L89.9428 25.4078L89.1623 26.1016Z" fill="#24262B"/>
<path d="M111.688 12.6653C110.209 11.1907 108.477 10.3843 106.076 10.3843C104.374 10.3843 102.446 10.9129 101.162 12.0803V0.52832H96.0273V32.5283H101.162V20.5411C101.162 15.6438 104.651 15.2547 105.88 15.2547C108.949 15.2547 108.864 18.1206 108.864 19.846V32.5283H113.999V19.8729C113.999 16.8393 113.364 14.3357 111.688 12.6653Z" fill="#24262B"/>
<path d="M84.3917 17.7285C86.4651 17.7285 88.1453 19.3836 88.1453 21.4303C88.1453 23.4744 86.4651 25.132 84.3917 25.132C82.3196 25.132 80.6406 23.4744 80.6406 21.4303C80.6419 19.3848 82.3209 17.7285 84.3917 17.7285Z" fill="#FF3D2E"/>
</svg>
