<svg width="48" height="49" viewBox="0 0 48 49" fill="none" xmlns="http://www.w3.org/2000/svg">
<g clip-path="url(#clip0_4183_3574)">
<path d="M7.42969 9.5791C8.20312 9.5791 8.83594 8.94922 8.83594 8.17285C8.83594 7.39685 8.20312 6.7666 7.42969 6.7666C6.65625 6.7666 6.02344 7.39685 6.02344 8.17285C6.02344 8.94922 6.65625 9.5791 7.42969 9.5791Z" fill="#335FFF"/>
<path d="M13.457 9.5791C14.2305 9.5791 14.8633 8.94922 14.8633 8.17285C14.8633 7.39685 14.2305 6.7666 13.457 6.7666C12.6836 6.7666 12.0508 7.39685 12.0508 8.17285C12.0508 8.94922 12.684 9.5791 13.457 9.5791Z" fill="#335FFF"/>
<path d="M19.4805 9.5791C20.2539 9.5791 20.8867 8.94922 20.8867 8.17285C20.8867 7.39685 20.2539 6.7666 19.4805 6.7666C18.707 6.7666 18.0742 7.39685 18.0742 8.17285C18.0742 8.94922 18.707 9.5791 19.4805 9.5791Z" fill="#335FFF"/>
<path d="M40.5688 0.742188H7.43115C3.33362 0.742188 0 4.07581 0 8.17334V41.311C0 45.4086 3.33362 48.7422 7.43115 48.7422H40.5688C44.6664 48.7422 48 45.4086 48 41.311V8.17334C48 4.07581 44.6664 0.742188 40.5688 0.742188ZM7.43115 3.55469H40.5688C43.1155 3.55469 45.1875 5.62671 45.1875 8.17334V12.7924H2.8125V8.17334C2.8125 5.62671 4.88452 3.55469 7.43115 3.55469ZM40.5688 45.9297H7.43115C4.88452 45.9297 2.8125 43.8577 2.8125 41.311V15.6045H45.1875V41.311C45.1875 43.8577 43.1155 45.9297 40.5688 45.9297Z" fill="#335FFF"/>
<path d="M14.4489 20.7352C13.8996 20.1859 13.0094 20.1859 12.4601 20.7352L6.43515 26.7601C5.8862 27.3091 5.8862 28.1997 6.43515 28.7487L12.4601 34.7739C12.7347 35.0486 13.0947 35.1859 13.4543 35.1859C13.8143 35.1859 14.1743 35.0486 14.4489 34.7739C14.9979 34.2246 14.9979 33.3344 14.4489 32.785L9.4183 27.7544L14.4489 22.7238C14.9979 22.1744 14.9979 21.2842 14.4489 20.7352Z" fill="#335FFF"/>
<path d="M32.5255 20.7352C31.9766 20.1859 31.0863 20.1859 30.537 20.7352C29.9877 21.2842 29.9877 22.1744 30.537 22.7238L35.5676 27.7544L30.537 32.785C29.9877 33.3344 29.9877 34.2246 30.537 34.7739C30.8116 35.0486 31.1713 35.1859 31.5312 35.1859C31.8912 35.1859 32.2512 35.0486 32.5255 34.7739L38.5504 28.7487C39.0997 28.1997 39.0997 27.3094 38.5504 26.7601L32.5255 20.7352Z" fill="#335FFF"/>
<path d="M26.1345 20.4719C25.4402 20.1247 24.5953 20.4064 24.2478 21.1007L18.2229 33.1509C17.8757 33.8456 18.1573 34.6904 18.8517 35.0376C19.0534 35.1387 19.268 35.1863 19.4794 35.1863C19.9953 35.1863 20.4919 34.9014 20.7384 34.4088L26.7633 22.3586C27.1108 21.6639 26.8292 20.8191 26.1345 20.4719Z" fill="#335FFF"/>
</g>
<defs>
<clipPath id="clip0_4183_3574">
<rect width="48" height="48" fill="white" transform="translate(0 0.742188)"/>
</clipPath>
</defs>
</svg>
