<svg width="48" height="49" viewBox="0 0 48 49" fill="none" xmlns="http://www.w3.org/2000/svg">
<g clip-path="url(#clip0_4183_3608)">
<path d="M46.5938 22.3984H45.1875V19.3323C46.8243 18.7518 48 17.1887 48 15.3554C48 13.0292 46.1075 11.1366 43.7812 11.1366C41.455 11.1366 39.5625 13.0292 39.5625 15.3554C39.5625 17.1887 40.7382 18.7518 42.375 19.3323V22.3984H36.2727V12.301C37.9095 11.7205 39.0852 10.1574 39.0852 8.32413C39.0852 5.99791 37.1927 4.10538 34.8665 4.10538C32.5402 4.10538 30.6477 5.99791 30.6477 8.32413C30.6477 10.1574 31.8234 11.7205 33.4602 12.301V22.3984H31.8562C31.0796 22.3984 30.45 23.0281 30.45 23.8047C30.45 26.8782 28.2885 29.4547 25.4062 30.0984V8.93781C27.043 8.35731 28.2188 6.79422 28.2188 4.96094C28.2188 2.63472 26.3262 0.742188 24 0.742188C21.6738 0.742188 19.7812 2.63472 19.7812 4.96094C19.7812 6.79422 20.957 8.35731 22.5938 8.93781V30.0984C19.7115 29.4547 17.55 26.8782 17.55 23.8047C17.55 23.0281 16.9204 22.3984 16.1437 22.3984H14.5398V12.301C16.1766 11.7205 17.3523 10.1574 17.3523 8.32413C17.3523 5.99791 15.4598 4.10538 13.1335 4.10538C10.8073 4.10538 8.91478 5.99791 8.91478 8.32413C8.91478 10.1574 10.0905 11.7205 11.7273 12.301V22.3984H5.625V19.3323C7.26178 18.7518 8.4375 17.1887 8.4375 15.3554C8.4375 13.0292 6.54497 11.1366 4.21875 11.1366C1.89253 11.1366 0 13.0292 0 15.3554C0 17.1887 1.17572 18.7518 2.8125 19.3323V22.3984H1.40625C0.629625 22.3984 0 23.0281 0 23.8047V29.5603C0 30.3369 0.629625 30.9665 1.40625 30.9665H5.14716C5.45288 31.8943 5.8275 32.7987 6.26728 33.6715L3.62166 36.3172C3.07247 36.8663 3.07247 37.7567 3.62166 38.3059L10.4363 45.1205C10.9854 45.6696 11.8759 45.6696 12.4251 45.1205L15.0707 42.4749C15.9435 42.9147 16.8479 43.2894 17.7757 43.595V47.3359C17.7757 48.1126 18.4053 48.7422 19.1819 48.7422H28.818C29.5946 48.7422 30.2243 48.1126 30.2243 47.3359V43.595C31.152 43.2893 32.0564 42.9147 32.9292 42.4749L35.5748 45.1205C36.1239 45.6697 37.0144 45.6697 37.5636 45.1205L44.3783 38.3059C44.9274 37.7568 44.9274 36.8664 44.3783 36.3172L41.7326 33.6715C42.1724 32.7987 42.5471 31.8943 42.8528 30.9665H46.5938C47.3704 30.9665 48 30.3369 48 29.5603V23.8047C48 23.0281 47.3704 22.3984 46.5938 22.3984ZM43.7812 13.9491C44.5567 13.9491 45.1875 14.58 45.1875 15.3554C45.1875 16.1308 44.5567 16.7616 43.7812 16.7616C43.0058 16.7616 42.375 16.1308 42.375 15.3554C42.375 14.58 43.0058 13.9491 43.7812 13.9491ZM34.8665 6.91788C35.6419 6.91788 36.2727 7.54872 36.2727 8.32413C36.2727 9.09953 35.6419 9.73038 34.8665 9.73038C34.0911 9.73038 33.4602 9.09953 33.4602 8.32413C33.4602 7.54872 34.0911 6.91788 34.8665 6.91788ZM13.1335 6.91788C13.9089 6.91788 14.5398 7.54872 14.5398 8.32413C14.5398 9.09953 13.9089 9.73038 13.1335 9.73038C12.3581 9.73038 11.7273 9.09953 11.7273 8.32413C11.7273 7.54872 12.358 6.91788 13.1335 6.91788ZM4.21875 13.9491C4.99416 13.9491 5.625 14.58 5.625 15.3554C5.625 16.1308 4.99416 16.7616 4.21875 16.7616C3.44334 16.7616 2.8125 16.1308 2.8125 15.3554C2.8125 14.58 3.44334 13.9491 4.21875 13.9491ZM24 3.55469C24.7754 3.55469 25.4062 4.18553 25.4062 4.96094C25.4062 5.73634 24.7754 6.36719 24 6.36719C23.2246 6.36719 22.5938 5.73634 22.5938 4.96094C22.5938 4.18553 23.2246 3.55469 24 3.55469ZM45.1875 28.154H41.8063C41.1706 28.154 40.6138 28.5806 40.4485 29.1946C40.069 30.603 39.5076 31.9591 38.7796 33.2251C38.4627 33.776 38.5549 34.471 39.0042 34.9204L41.3952 37.3115L36.5692 42.1375L34.1782 39.7465C33.7287 39.2972 33.0337 39.2051 32.4828 39.5219C31.2168 40.2498 29.8607 40.8113 28.4523 41.1908C27.8383 41.3562 27.4118 41.9129 27.4118 42.5486V45.9297H20.5882V42.5485C20.5882 41.9128 20.1616 41.356 19.5476 41.1907C18.1392 40.8112 16.7831 40.2497 15.5171 39.5218C14.966 39.2048 14.2711 39.2972 13.8218 39.7464L11.4307 42.1374L6.60469 37.3114L8.99569 34.9203C9.44513 34.4709 9.53719 33.7759 9.22031 33.225C8.49234 31.959 7.93087 30.6029 7.55137 29.1945C7.386 28.5805 6.82931 28.1539 6.19359 28.1539H2.8125V25.2109H14.8441C15.5235 29.6535 19.3705 33.0672 24 33.0672C28.6295 33.0672 32.4765 29.6535 33.1559 25.2109H45.1875V28.154Z" fill="#335FFF"/>
</g>
<defs>
<clipPath id="clip0_4183_3608">
<rect width="48" height="48" fill="white" transform="translate(0 0.742188)"/>
</clipPath>
</defs>
</svg>
