<svg width="24" height="25" viewBox="0 0 24 25" fill="none" xmlns="http://www.w3.org/2000/svg">
<path d="M10.831 14.9648C11.1056 15.2395 11.5509 15.2395 11.8255 14.9648L15.7441 11.0462C16.0188 10.7716 16.0188 10.3263 15.7441 10.0517C15.4695 9.77704 15.0242 9.77704 14.7496 10.0517L10.831 13.9703C10.5563 14.2449 10.5563 14.6902 10.831 14.9648Z" fill="#24262B"/>
<path d="M11.2345 11.5151C11.6219 11.5151 11.9378 11.1992 11.9378 10.8119C11.9018 9.88028 10.5671 9.88056 10.5312 10.8119C10.5312 11.1992 10.8472 11.5151 11.2345 11.5151Z" fill="#24262B"/>
<path d="M15.3439 13.7412C14.9565 13.7412 14.6406 14.0571 14.6406 14.4445C14.6766 15.376 16.0113 15.3758 16.0471 14.4445C16.0471 14.0571 15.7312 13.7412 15.3439 13.7412Z" fill="#24262B"/>
<path d="M23.8239 5.96206C23.6904 5.81086 23.4984 5.72427 23.2967 5.72427H3.86435L3.45773 2.90464C3.40784 2.55859 3.1113 2.30176 2.76169 2.30176H0.698807C-0.233287 2.33636 -0.232584 3.674 0.698807 3.70827H2.15258L3.92309 16.0994C4.13065 17.7093 5.38563 19.0837 6.96519 19.4283C6.19147 20.916 7.33538 22.7767 9.01982 22.7542C10.6494 22.7815 11.8038 21.005 11.1229 19.5313H15.6387C14.9581 21.0052 16.1119 22.7815 17.7419 22.7542C19.4303 22.7769 20.5745 20.9069 19.7919 19.4194C20.4194 19.2686 21.0039 18.9683 21.4925 18.5369C22.2187 17.8957 22.6852 17.0088 22.8062 16.0396L23.9946 6.51454C24.0196 6.31444 23.9574 6.11322 23.8239 5.96206ZM9.01982 21.3477C8.52815 21.3477 8.12819 20.9478 8.12819 20.4561C8.17301 19.2749 9.86677 19.2752 9.91145 20.4561C9.91145 20.9478 9.51149 21.3477 9.01982 21.3477ZM17.7419 21.3477C17.2502 21.3477 16.8502 20.9478 16.8502 20.4561C16.8951 19.2749 18.5888 19.2752 18.6335 20.4561C18.6335 20.9478 18.2335 21.3477 17.7419 21.3477ZM21.4105 15.8654C21.2472 17.1746 20.1711 18.1248 18.8518 18.1248H7.86962C6.57033 18.1248 5.49637 17.1909 5.31601 15.9041L4.08611 7.13078H22.5003L21.4105 15.8654Z" fill="#24262B"/>
</svg>
