<svg width="24" height="25" viewBox="0 0 24 25" fill="none" xmlns="http://www.w3.org/2000/svg">
<path d="M22.4938 16.4589V7.5117L23.5192 7.16989C23.8063 7.07417 24 6.80548 24 6.50286C24 6.20023 23.8064 5.93154 23.5192 5.83582L12.2223 2.07021C12.078 2.02217 11.922 2.02217 11.7777 2.07021L0.480797 5.83582C0.193641 5.9315 0 6.20018 0 6.50286C0 6.80553 0.193641 7.07417 0.480797 7.16989L4.51875 8.51586V14.7872C4.51875 14.9737 4.59286 15.1526 4.72472 15.2844C6.66825 17.2277 9.25214 18.298 12.0003 18.298C14.7486 18.298 17.3322 17.2277 19.2753 15.2843C19.4072 15.1525 19.4813 14.9736 19.4813 14.7872V8.51586L21.0875 7.98045V16.4589C20.2131 16.7533 19.5813 17.5804 19.5813 18.5528V22.3184C19.5813 22.7067 19.8961 23.0216 20.2844 23.0216H23.2969C23.6852 23.0216 24 22.7067 24 22.3184V18.5528C24 17.5804 23.3682 16.7533 22.4938 16.4589ZM18.075 14.4895C14.6677 17.6867 9.33319 17.6867 5.925 14.4895V8.98461L11.7776 10.9355C11.922 10.9835 12.078 10.9835 12.2223 10.9355L18.075 8.98461V14.4895ZM12 9.52728L2.92664 6.50286L12 3.47839L21.0734 6.50281L12 9.52728ZM22.5938 21.6153H20.9875V18.5528C20.9875 18.11 21.3478 17.7497 21.7906 17.7497C22.2334 17.7497 22.5938 18.11 22.5938 18.5528V21.6153Z" fill="#24262B"/>
</svg>
