<svg width="24" height="25" viewBox="0 0 24 25" fill="none" xmlns="http://www.w3.org/2000/svg">
<g clip-path="url(#clip0_4365_2977)">
<path d="M21.452 10.9733H7.38002L20.2354 5.24969C20.4071 5.17328 20.5413 5.03181 20.6087 4.85636C20.676 4.68091 20.6709 4.48591 20.5945 4.31425L19.0961 0.948874C18.937 0.59136 18.5182 0.430579 18.1607 0.589766L2.26035 7.66913C1.90288 7.82827 1.7421 8.24705 1.90129 8.60452L3.33843 11.8324V23.8198C3.33843 24.2111 3.65563 24.5283 4.04689 24.5283H21.452C21.8433 24.5283 22.1605 24.2111 22.1605 23.8198V11.6818C22.1605 11.2905 21.8433 10.9733 21.452 10.9733ZM17.6838 12.3903L15.6164 14.6572H12.6791L14.7465 12.3903H17.6838ZM12.8287 12.3903L10.7613 14.6572H7.82402L9.89138 12.3903H12.8287ZM7.97369 12.3903L5.90632 14.6572H4.75536V12.3903H7.97369ZM17.0465 2.63688L18.0898 2.1724L19.0119 4.24333L16.08 5.5487L17.0465 2.63688ZM12.6112 4.61167L15.2946 3.41693L14.328 6.32874L11.6446 7.52349L12.6112 4.61167ZM8.17591 6.58641L10.8593 5.39167L9.8927 8.30349L7.20935 9.49818L8.17591 6.58641ZM3.48392 8.67534L6.42396 7.36641L5.4574 10.2782L4.40595 10.7463L3.48392 8.67534ZM20.7436 23.1113H4.7554V16.0742H20.7436V23.1113ZM20.7436 14.6572H17.5342L19.6016 12.3903H20.7436V14.6572Z" fill="white"/>
</g>
<defs>
<clipPath id="clip0_4365_2977">
<rect width="24" height="24" fill="white" transform="translate(0 0.52832)"/>
</clipPath>
</defs>
</svg>
