<svg width="24" height="25" viewBox="0 0 24 25" fill="none" xmlns="http://www.w3.org/2000/svg">
<g clip-path="url(#clip0_4365_2948)">
<path d="M11.998 15.3877C11.6103 15.3877 11.2949 15.0723 11.2949 14.6846C11.2949 14.4014 11.4634 14.147 11.7242 14.0365C12.0391 13.9032 12.4159 14.017 12.7583 14.3487C13.0372 14.6189 13.4823 14.6118 13.7525 14.333C14.0227 14.0541 14.0156 13.6089 13.7368 13.3387C13.4193 13.0312 13.0665 12.8138 12.7012 12.6912V11.8721C12.7012 11.4838 12.3864 11.1689 11.998 11.1689C11.6097 11.1689 11.2949 11.4838 11.2949 11.8721V12.6957C11.255 12.7099 11.2153 12.7249 11.1759 12.7416C10.3939 13.0728 9.88867 13.8354 9.88867 14.6846C9.88867 15.8477 10.8349 16.7939 11.998 16.7939C12.3857 16.7939 12.7012 17.1094 12.7012 17.4971C12.7012 17.7917 12.5153 18.0574 12.2387 18.1581C11.8775 18.2896 11.4571 18.1113 11.0853 17.6685C10.8355 17.3712 10.3921 17.3326 10.0947 17.5823C9.79731 17.8321 9.75873 18.2756 10.0085 18.5729C10.3886 19.0255 10.831 19.3359 11.295 19.4921V20.3096C11.295 20.6979 11.6098 21.0127 11.9981 21.0127C12.3864 21.0127 12.7012 20.6979 12.7012 20.3096V19.4858C12.7075 19.4836 12.7138 19.4817 12.72 19.4795C13.5498 19.1772 14.1074 18.3805 14.1074 17.4971C14.1074 16.334 13.1612 15.3877 11.998 15.3877Z" fill="white"/>
<path d="M18.5118 11.0873C17.6761 10.0592 16.7208 9.24013 15.6721 8.6511C15.8439 8.4479 15.9794 8.20963 16.0669 7.94409C16.4103 6.89835 15.9087 5.65616 14.6284 5.25149L16.4232 2.12188C16.6497 1.72691 16.4462 1.22385 16.0096 1.09691C14.7119 0.719617 13.3629 0.52832 12 0.52832C10.6371 0.52832 9.28809 0.719617 7.99041 1.09691C7.55325 1.22399 7.35061 1.72738 7.57678 2.12188L9.37158 5.25154C8.09634 5.65415 7.58841 6.89451 7.93327 7.94465C8.0205 8.20949 8.15597 8.44762 8.32823 8.65091C7.27941 9.23995 6.324 10.0591 5.48822 11.0873C3.81755 13.1427 2.85938 15.7352 2.85938 18.2002C2.85938 23.3138 6.9397 24.5283 12 24.5283C17.0639 24.5283 21.1406 23.3118 21.1406 18.2002C21.1406 15.7352 20.1825 13.1427 18.5118 11.0873ZM9.25763 2.22604C10.1547 2.0324 11.0737 1.93457 12 1.93457C12.9263 1.93457 13.8453 2.0324 14.7424 2.22604L13.194 4.92613C12.4009 4.81541 11.5994 4.81546 10.8061 4.92618L9.25763 2.22604ZM9.717 6.6172C10.9271 6.22026 12.1931 6.14502 13.4239 6.39107C13.4253 6.39135 13.4268 6.39163 13.4283 6.39191C13.7152 6.44948 14.0001 6.52438 14.282 6.61687C14.6505 6.73832 14.8519 7.1369 14.7311 7.50473C14.6433 7.77112 14.4115 7.95459 14.1388 7.9843C13.4377 7.76479 12.7227 7.65332 12 7.65332C11.2788 7.65332 10.5651 7.76432 9.86541 7.98295C9.58852 7.95445 9.35616 7.76966 9.26911 7.50538C9.14812 7.1369 9.3495 6.73827 9.717 6.6172ZM12 23.1314C6.50644 23.1314 4.26562 21.6961 4.26562 18.2002C4.26562 16.0842 5.13061 13.7568 6.57938 11.9744C8.10727 10.0947 10.0323 9.05957 12 9.05957C14.1659 9.05957 16.0604 10.3009 17.4206 11.9744C18.8694 13.7568 19.7344 16.0842 19.7344 18.2002C19.7344 21.6961 17.4936 23.1314 12 23.1314Z" fill="white"/>
</g>
<defs>
<clipPath id="clip0_4365_2948">
<rect width="24" height="24" fill="white" transform="translate(0 0.52832)"/>
</clipPath>
</defs>
</svg>
