<svg width="16" height="21" viewBox="0 0 16 21" fill="none" xmlns="http://www.w3.org/2000/svg">
<path d="M13.4265 9.3275C12.7301 8.47074 11.934 7.78816 11.0601 7.2973C11.2032 7.12797 11.3162 6.92941 11.3891 6.70813C11.6753 5.83668 11.2573 4.80152 10.1904 4.4643L11.686 1.85629C11.8747 1.52715 11.7052 1.10793 11.3413 1.00215C10.2599 0.687734 9.13578 0.52832 8 0.52832C6.86422 0.52832 5.74008 0.687734 4.65867 1.00215C4.29438 1.10805 4.12551 1.52754 4.31398 1.85629L5.80965 4.46434C4.74695 4.79984 4.32367 5.83348 4.61105 6.70859C4.68375 6.9293 4.79664 7.12773 4.9402 7.29715C4.06617 7.78801 3.27 8.47066 2.57352 9.3275C1.18129 11.0403 0.382812 13.2007 0.382812 15.2549C0.382812 19.5163 3.78309 20.5283 8 20.5283C12.2199 20.5283 15.6172 19.5145 15.6172 15.2549C15.6172 13.2007 14.8187 11.0403 13.4265 9.3275ZM5.71469 1.94309C6.46223 1.78172 7.22805 1.7002 8 1.7002C8.77195 1.7002 9.53777 1.78172 10.2853 1.94309L8.99496 4.19316C8.33406 4.1009 7.66613 4.10094 7.00508 4.1932L5.71469 1.94309ZM6.0975 5.60238C7.1059 5.2716 8.1609 5.20891 9.18656 5.41395C9.18777 5.41418 9.18902 5.41441 9.19023 5.41465C9.4293 5.46262 9.66676 5.52504 9.90168 5.60211C10.2088 5.70332 10.3766 6.03547 10.2759 6.34199C10.2027 6.56398 10.0096 6.71688 9.78234 6.74164C9.19812 6.55871 8.60223 6.46582 8 6.46582C7.39898 6.46582 6.80426 6.55832 6.22117 6.74051C5.99043 6.71676 5.7968 6.56277 5.72426 6.34254C5.62344 6.03547 5.79125 5.70328 6.0975 5.60238ZM8 19.3643C3.42203 19.3643 1.55469 18.1682 1.55469 15.2549C1.55469 13.4915 2.27551 11.552 3.48281 10.0667C4.75605 8.50031 6.36027 7.6377 8 7.6377C9.80492 7.6377 11.3836 8.67215 12.5172 10.0667C13.7245 11.552 14.4453 13.4915 14.4453 15.2549C14.4453 18.1682 12.578 19.3643 8 19.3643Z" fill="#24262B"/>
</svg>
