<svg width="41" height="41" viewBox="0 0 41 41" fill="none" xmlns="http://www.w3.org/2000/svg">
<path d="M29.247 6.84603C29.012 6.04631 28.5245 5.34417 27.8572 4.84469C27.1899 4.34521 26.3788 4.07525 25.5453 4.0752H24.4203C23.5179 4.07518 22.6439 4.3915 21.9506 4.96915C21.2572 5.54681 20.7883 6.34923 20.6253 7.23686L18.6953 17.7477L19.1745 16.1102C19.4087 15.3094 19.8963 14.6062 20.5639 14.1059C21.2316 13.6056 22.0435 13.3351 22.8778 13.3352H29.422L32.167 14.4035L34.8128 13.3344H34.0411C33.2075 13.3345 32.3962 13.0646 31.7288 12.5651C31.0613 12.0656 30.5736 11.3634 30.3386 10.5635L29.247 6.84603Z" fill="url(#paint0_radial_4648_1968)"/>
<path d="M12.7409 34.6221C12.9733 35.4258 13.4605 36.1321 14.1292 36.6347C14.7979 37.1374 15.6119 37.409 16.4484 37.4088H18.8401C19.8462 37.4089 20.8125 37.0161 21.5331 36.314C22.2537 35.612 22.6715 34.6562 22.6976 33.6505L22.9576 23.5146L22.4126 25.3755C22.1782 26.176 21.6908 26.8789 21.0233 27.3791C20.3558 27.8792 19.5442 28.1496 18.7101 28.1496H12.1109L9.75844 26.873L7.21094 28.1496H7.97094C8.80719 28.1498 9.62076 28.4216 10.2891 28.9242C10.9575 29.4268 11.4445 30.133 11.6768 30.9363L12.7426 34.6221H12.7409Z" fill="url(#paint1_radial_4648_1968)"/>
<path d="M25.3779 4.0752H12.0112C8.19205 4.0752 5.90122 9.1227 4.37372 14.1694C2.56372 20.1502 0.19455 28.146 7.04705 28.146H12.8179C13.6569 28.1468 14.4733 27.874 15.1434 27.369C15.8135 26.8641 16.3007 26.1545 16.5312 25.3477C17.8916 20.5762 19.2724 15.8106 20.6737 11.051C21.3762 8.68186 21.9604 6.6477 22.8579 5.3802C23.3612 4.6702 24.1995 4.0752 25.3779 4.0752Z" fill="url(#paint2_linear_4648_1968)"/>
<path d="M25.3779 4.0752H12.0112C8.19205 4.0752 5.90122 9.1227 4.37372 14.1694C2.56372 20.1502 0.19455 28.146 7.04705 28.146H12.8179C13.6569 28.1468 14.4733 27.874 15.1434 27.369C15.8135 26.8641 16.3007 26.1545 16.5312 25.3477C17.8916 20.5762 19.2724 15.8106 20.6737 11.051C21.3762 8.68186 21.9604 6.6477 22.8579 5.3802C23.3612 4.6702 24.1995 4.0752 25.3779 4.0752Z" fill="url(#paint3_linear_4648_1968)"/>
<path d="M16.2109 37.409H29.5776C33.3959 37.409 35.6876 32.3607 37.2151 27.3132C39.0243 21.3323 41.3926 13.334 34.5418 13.334H28.7701C27.9312 13.3334 27.115 13.6063 26.4451 14.1112C25.7752 14.6162 25.2881 15.3257 25.0576 16.1323C23.6969 20.9049 22.3158 25.6716 20.9143 30.4323C20.2126 32.8015 19.6276 34.8365 18.7309 36.104C18.2276 36.814 17.3893 37.409 16.2109 37.409Z" fill="url(#paint4_radial_4648_1968)"/>
<path d="M16.2109 37.409H29.5776C33.3959 37.409 35.6876 32.3607 37.2151 27.3132C39.0243 21.3323 41.3926 13.334 34.5418 13.334H28.7701C27.9312 13.3334 27.115 13.6063 26.4451 14.1112C25.7752 14.6162 25.2881 15.3257 25.0576 16.1323C23.6969 20.9049 22.3158 25.6716 20.9143 30.4323C20.2126 32.8015 19.6276 34.8365 18.7309 36.104C18.2276 36.814 17.3893 37.409 16.2109 37.409Z" fill="url(#paint5_linear_4648_1968)"/>
<defs>
<radialGradient id="paint0_radial_4648_1968" cx="0" cy="0" r="1" gradientUnits="userSpaceOnUse" gradientTransform="translate(32.4661 17.8369) rotate(-129.304) scale(14.4194 13.5588)">
<stop offset="0.096" stop-color="#00AEFF"/>
<stop offset="0.773" stop-color="#2253CE"/>
<stop offset="1" stop-color="#0736C4"/>
</radialGradient>
<radialGradient id="paint1_radial_4648_1968" cx="0" cy="0" r="1" gradientUnits="userSpaceOnUse" gradientTransform="translate(10.0671 28.0894) rotate(51.84) scale(13.326 12.9266)">
<stop stop-color="#FFB657"/>
<stop offset="0.634" stop-color="#FF5F3D"/>
<stop offset="0.923" stop-color="#C02B3C"/>
</radialGradient>
<linearGradient id="paint2_linear_4648_1968" x1="11.2112" y1="6.99186" x2="13.1179" y2="29.0544" gradientUnits="userSpaceOnUse">
<stop offset="0.156" stop-color="#0D91E1"/>
<stop offset="0.487" stop-color="#52B471"/>
<stop offset="0.652" stop-color="#98BD42"/>
<stop offset="0.937" stop-color="#FFC800"/>
</linearGradient>
<linearGradient id="paint3_linear_4648_1968" x1="12.8779" y1="4.0752" x2="13.9195" y2="28.146" gradientUnits="userSpaceOnUse">
<stop stop-color="#3DCBFF"/>
<stop offset="0.247" stop-color="#0588F7" stop-opacity="0"/>
</linearGradient>
<radialGradient id="paint4_radial_4648_1968" cx="0" cy="0" r="1" gradientUnits="userSpaceOnUse" gradientTransform="translate(35.2274 10.9766) rotate(109.274) scale(31.9894 38.3222)">
<stop offset="0.066" stop-color="#8C48FF"/>
<stop offset="0.5" stop-color="#F2598A"/>
<stop offset="0.896" stop-color="#FFB152"/>
</radialGradient>
<linearGradient id="paint5_linear_4648_1968" x1="36.2843" y1="11.864" x2="36.2701" y2="18.4215" gradientUnits="userSpaceOnUse">
<stop offset="0.058" stop-color="#F8ADFA"/>
<stop offset="0.708" stop-color="#A86EDD" stop-opacity="0"/>
</linearGradient>
</defs>
</svg>
