<svg width="41" height="41" viewBox="0 0 41 41" fill="none" xmlns="http://www.w3.org/2000/svg">
<path d="M20.7969 3.24219C11.1281 3.24219 3.29688 11.0734 3.29688 20.7422C3.29688 28.4859 8.30625 35.0266 15.2625 37.3453C16.1375 37.4984 16.4656 36.9734 16.4656 36.5141C16.4656 36.0984 16.4438 34.7203 16.4438 33.2547C12.0469 34.0641 10.9094 32.1828 10.5594 31.1984C10.3625 30.6953 9.50938 29.1422 8.76562 28.7266C8.15312 28.3984 7.27813 27.5891 8.74375 27.5672C10.1219 27.5453 11.1063 28.8359 11.4344 29.3609C13.0094 32.0078 15.525 31.2641 16.5312 30.8047C16.6844 29.6672 17.1438 28.9016 17.6469 28.4641C13.7531 28.0266 9.68438 26.5172 9.68438 19.8234C9.68438 17.9203 10.3625 16.3453 11.4781 15.1203C11.3031 14.6828 10.6906 12.8891 11.6531 10.4828C11.6531 10.4828 13.1187 10.0234 16.4656 12.2766C17.8656 11.8828 19.3531 11.6859 20.8406 11.6859C22.3281 11.6859 23.8156 11.8828 25.2156 12.2766C28.5625 10.0016 30.0281 10.4828 30.0281 10.4828C30.9906 12.8891 30.3781 14.6828 30.2031 15.1203C31.3188 16.3453 31.9969 17.8984 31.9969 19.8234C31.9969 26.5391 27.9062 28.0266 24.0125 28.4641C24.6469 29.0109 25.1938 30.0609 25.1938 31.7016C25.1938 34.0422 25.1719 35.9234 25.1719 36.5141C25.1719 36.9734 25.5 37.5203 26.375 37.3453C29.8491 36.1725 32.8679 33.9398 35.0065 30.9614C37.1452 27.983 38.2959 24.4089 38.2969 20.7422C38.2969 11.0734 30.4656 3.24219 20.7969 3.24219Z" fill="black"/>
</svg>
