<svg width="496" height="253" viewBox="0 0 496 253" fill="none" xmlns="http://www.w3.org/2000/svg">
<path d="M-0.15625 208.898H29.2031V252.059H31.2031V208.898H60.5625V252.059H62.5625V208.898H91.9219V252.059H93.9219V208.898H122.805V252.059H124.805V208.898H154.164V252.059H156.164V208.898H185.516V252.059H187.516V208.898H216.875V252.059H218.875V208.898H247.766V252.059H249.766V208.898H279.125V252.059H281.125V208.898H310.477V252.059H312.477V208.898H341.359V252.059H343.359V208.898H372.719V252.059H374.719V208.898H404.078V252.059H406.078V208.898H435.438V252.059H437.438V208.898H466.32V252.059H468.32V208.898H497.68V252.059H499.68V208.898H541.389V206.898H499.68V177.412H541.389V175.412H499.68V145.928H541.389V143.928H499.68V114.441H541.389V112.441H499.68V82.9551H541.389V80.9551H499.68V51.4688H541.389V49.4688H499.68V19.9844H541.389V17.9844H499.68V-11.502H541.389V-13.502H499.68V-61.999H497.68V-13.502H468.32V-61.999H466.32V-13.502H437.438V-61.999H435.438V-13.502H406.078V-61.999H404.078V-13.502H374.719V-61.999H372.719V-13.502H343.359V-61.999H341.359V-13.502H312.477V-61.999H310.477V-13.502H281.125V-61.999H279.125V-13.502H249.766V-61.999H247.766V-13.502H218.875V-61.999H216.875V-13.502H187.516V-61.999H185.516V-13.502H156.164V-61.999H154.164V-13.502H124.805V-61.999H122.805V-13.502H93.9219V-61.999H91.9219V-13.502H62.5625V-61.999H60.5625V-13.502H31.2031V-61.999H29.2031V-13.502H-0.15625V-61.999H-2.15625V-13.502H-45.3906V-11.502H-2.15625V17.9844H-45.3906V19.9844H-2.15625V49.4688H-45.3906V51.4688H-2.15625V80.9551H-45.3906V82.9551H-2.15625V112.441H-45.3906V114.441H-2.15625V143.928H-45.3906V145.928H-2.15625V175.412H-45.3906V177.412H-2.15625V206.898H-45.3906V208.898H-2.15625V252.059H-0.15625V208.898ZM468.32 17.9844V-11.502H497.68V17.9844H468.32ZM-0.15625 -11.502H29.2031V17.9844H-0.15625V-11.502ZM31.2031 -11.502H60.5625V17.9844H31.2031V-11.502ZM62.5625 -11.502H91.9219V17.9844H62.5625V-11.502ZM93.9219 -11.502H122.805V17.9844H93.9219V-11.502ZM124.805 -11.502H154.164V17.9844H124.805V-11.502ZM156.164 -11.502H185.516V17.9844H156.164V-11.502ZM187.516 -11.502H216.875V17.9844H187.516V-11.502ZM218.875 -11.502H247.766V17.9844H218.875V-11.502ZM249.766 -11.502H279.125V17.9844H249.766V-11.502ZM281.125 -11.502H310.477V17.9844H281.125V-11.502ZM312.477 -11.502H341.359V17.9844H312.477V-11.502ZM343.359 -11.502H372.719V17.9844H343.359V-11.502ZM374.719 -11.502H404.078V17.9844H374.719V-11.502ZM406.078 -11.502H435.438V17.9844H406.078V-11.502ZM437.438 -11.502H466.32V17.9844H437.438V-11.502ZM468.32 49.4688V19.9844H497.68V49.4688H468.32ZM-0.15625 19.9844H29.2031V49.4688H-0.15625V19.9844ZM31.2031 19.9844H60.5625V49.4688H31.2031V19.9844ZM62.5625 19.9844H91.9219V49.4688H62.5625V19.9844ZM93.9219 19.9844H122.805V49.4688H93.9219V19.9844ZM124.805 19.9844H154.164V49.4688H124.805V19.9844ZM156.164 19.9844H185.516V49.4688H156.164V19.9844ZM187.516 19.9844H216.875V49.4688H187.516V19.9844ZM218.875 19.9844H247.766V49.4688H218.875V19.9844ZM249.766 19.9844H279.125V49.4688H249.766V19.9844ZM281.125 19.9844H310.477V49.4688H281.125V19.9844ZM312.477 19.9844H341.359V49.4688H312.477V19.9844ZM343.359 19.9844H372.719V49.4688H343.359V19.9844ZM374.719 19.9844H404.078V49.4688H374.719V19.9844ZM406.078 19.9844H435.438V49.4688H406.078V19.9844ZM437.438 19.9844H466.32V49.4688H437.438V19.9844ZM468.32 80.9551V51.4688H497.68V80.9551H468.32ZM-0.15625 51.4688H29.2031V80.9551H-0.15625V51.4688ZM31.2031 51.4688H60.5625V80.9551H31.2031V51.4688ZM62.5625 51.4688H91.9219V80.9551H62.5625V51.4688ZM93.9219 51.4688H122.805V80.9551H93.9219V51.4688ZM124.805 51.4688H154.164V80.9551H124.805V51.4688ZM156.164 51.4688H185.516V80.9551H156.164V51.4688ZM187.516 51.4688H216.875V80.9551H187.516V51.4688ZM218.875 51.4688H247.766V80.9551H218.875V51.4688ZM249.766 51.4688H279.125V80.9551H249.766V51.4688ZM281.125 51.4688H310.477V80.9551H281.125V51.4688ZM312.477 51.4688H341.359V80.9551H312.477V51.4688ZM343.359 51.4688H372.719V80.9551H343.359V51.4688ZM374.719 51.4688H404.078V80.9551H374.719V51.4688ZM406.078 51.4688H435.438V80.9551H406.078V51.4688ZM437.438 51.4688H466.32V80.9551H437.438V51.4688ZM468.32 112.441V82.9551H497.68V112.441H468.32ZM-0.15625 82.9551H29.2031V112.441H-0.15625V82.9551ZM31.2031 82.9551H60.5625V112.441H31.2031V82.9551ZM62.5625 82.9551H91.9219V112.441H62.5625V82.9551ZM93.9219 82.9551H122.805V112.441H93.9219V82.9551ZM124.805 82.9551H154.164V112.441H124.805V82.9551ZM156.164 82.9551H185.516V112.441H156.164V82.9551ZM187.516 82.9551H216.875V112.441H187.516V82.9551ZM218.875 82.9551H247.766V112.441H218.875V82.9551ZM249.766 82.9551H279.125V112.441H249.766V82.9551ZM281.125 82.9551H310.477V112.441H281.125V82.9551ZM312.477 82.9551H341.359V112.441H312.477V82.9551ZM343.359 82.9551H372.719V112.441H343.359V82.9551ZM374.719 82.9551H404.078V112.441H374.719V82.9551ZM406.078 82.9551H435.438V112.441H406.078V82.9551ZM437.438 82.9551H466.32V112.441H437.438V82.9551ZM468.32 143.928V114.441H497.68V143.928H468.32ZM-0.15625 114.441H29.2031V143.928H-0.15625V114.441ZM31.2031 114.441H60.5625V143.928H31.2031V114.441ZM62.5625 114.441H91.9219V143.928H62.5625V114.441ZM93.9219 114.441H122.805V143.928H93.9219V114.441ZM124.805 114.441H154.164V143.928H124.805V114.441ZM156.164 114.441H185.516V143.928H156.164V114.441ZM187.516 114.441H216.875V143.928H187.516V114.441ZM218.875 114.441H247.766V143.928H218.875V114.441ZM249.766 114.441H279.125V143.928H249.766V114.441ZM281.125 114.441H310.477V143.928H281.125V114.441ZM312.477 114.441H341.359V143.928H312.477V114.441ZM343.359 114.441H372.719V143.928H343.359V114.441ZM374.719 114.441H404.078V143.928H374.719V114.441ZM406.078 114.441H435.438V143.928H406.078V114.441ZM437.438 114.441H466.32V143.928H437.438V114.441ZM468.32 175.412V145.928H497.68V175.412H468.32ZM-0.15625 145.928H29.2031V175.412H-0.15625V145.928ZM31.2031 145.928H60.5625V175.412H31.2031V145.928ZM62.5625 145.928H91.9219V175.412H62.5625V145.928ZM93.9219 145.928H122.805V175.412H93.9219V145.928ZM124.805 145.928H154.164V175.412H124.805V145.928ZM156.164 145.928H185.516V175.412H156.164V145.928ZM187.516 145.928H216.875V175.412H187.516V145.928ZM218.875 145.928H247.766V175.412H218.875V145.928ZM249.766 145.928H279.125V175.412H249.766V145.928ZM281.125 145.928H310.477V175.412H281.125V145.928ZM312.477 145.928H341.359V175.412H312.477V145.928ZM343.359 145.928H372.719V175.412H343.359V145.928ZM374.719 145.928H404.078V175.412H374.719V145.928ZM406.078 145.928H435.438V175.412H406.078V145.928ZM437.438 145.928H466.32V175.412H437.438V145.928ZM468.32 206.898V177.412H497.68V206.898H468.32ZM-0.15625 177.412H29.2031V206.898H-0.15625V177.412ZM31.2031 177.412H60.5625V206.898H31.2031V177.412ZM62.5625 177.412H91.9219V206.898H62.5625V177.412ZM93.9219 177.412H122.805V206.898H93.9219V177.412ZM124.805 177.412H154.164V206.898H124.805V177.412ZM156.164 177.412H185.516V206.898H156.164V177.412ZM187.516 177.412H216.875V206.898H187.516V177.412ZM218.875 177.412H247.766V206.898H218.875V177.412ZM249.766 177.412H279.125V206.898H249.766V177.412ZM281.125 177.412H310.477V206.898H281.125V177.412ZM312.477 177.412H341.359V206.898H312.477V177.412ZM343.359 177.412H372.719V206.898H343.359V177.412ZM374.719 177.412H404.078V206.898H374.719V177.412ZM406.078 177.412H435.438V206.898H406.078V177.412ZM437.438 177.412H466.32V206.898H437.438V177.412Z" fill="url(#paint0_radial_4648_2478)"/>
<defs>
<radialGradient id="paint0_radial_4648_2478" cx="0" cy="0" r="1" gradientUnits="userSpaceOnUse" gradientTransform="translate(246.527 -220.707) rotate(180) scale(356.605 338.432)">
<stop stop-color="#EDECF3"/>
<stop offset="1" stop-color="#E6E5F5" stop-opacity="0.01"/>
</radialGradient>
</defs>
</svg>
