<svg width="49" height="49" viewBox="0 0 49 49" fill="none" xmlns="http://www.w3.org/2000/svg">
<path d="M40.7131 18.9513C40.7131 9.86874 33.3239 2.47949 24.2413 2.47949C15.1587 2.47949 7.76953 9.86883 7.76953 18.9513C7.76953 25.8746 11.973 30.428 15.0422 33.7526C16.1744 34.979 17.2636 36.1594 17.8558 37.1778C16.2849 37.6228 16.5657 39.907 18.2152 39.9428H18.3152V43.0558C18.3152 45.4861 20.2802 47.4754 22.7347 47.4754H22.8348V47.5754C22.904 49.4396 25.5792 49.4382 25.6478 47.5754V47.4754H25.7478C28.1893 47.4754 30.1674 45.5013 30.1674 43.0558V39.9428H30.2673C31.9181 39.9066 32.1966 37.6221 30.6267 37.1778C34.4908 31.7276 40.6106 28.0279 40.7131 18.9513ZM27.3544 43.0558C27.3544 43.9418 26.6385 44.6624 25.7479 44.6624H22.7348C21.8596 44.6624 21.1283 43.9548 21.1283 43.0558V39.9428H27.3544V43.0558ZM27.5768 37.1297H20.9058C20.3502 35.3554 18.8225 33.7006 17.109 31.8445C14.2012 28.6948 10.5825 24.7748 10.5825 18.9514C10.5825 11.4199 16.7098 5.29261 24.2413 5.29261C31.7728 5.29261 37.9001 11.4199 37.9001 18.9514C37.9001 24.7748 34.2813 28.6948 31.3735 31.8445C29.6601 33.7006 28.1324 35.3554 27.5768 37.1297Z" fill="#335FFF"/>
<path d="M46.8417 17.5449H45.3351C43.4709 17.6141 43.4723 20.2894 45.3351 20.3579H46.8417C48.7059 20.2888 48.7045 17.6135 46.8417 17.5449Z" fill="#335FFF"/>
<path d="M39.8198 1.38466L38.1619 3.04265C37.6127 3.59194 37.6127 4.48245 38.1619 5.03174C38.7111 5.58084 39.6016 5.58112 40.151 5.03174L41.8089 3.37375C42.3581 2.82446 42.3581 1.93395 41.8089 1.38466C41.2596 0.835369 40.3691 0.835275 39.8198 1.38466Z" fill="#335FFF"/>
<path d="M40.1511 32.8699C39.6018 32.3207 38.7113 32.3207 38.162 32.8699C37.6127 33.4192 37.6127 34.3097 38.162 34.859L39.8199 36.517C40.369 37.0661 41.2595 37.0664 41.809 36.517C42.3582 35.9677 42.3582 35.0772 41.809 34.5279L40.1511 32.8699Z" fill="#335FFF"/>
<path d="M3.15027 17.5449H1.64371C-0.220481 17.6141 -0.219074 20.2894 1.64371 20.3579H3.15027C5.01446 20.2888 5.01305 17.6135 3.15027 17.5449Z" fill="#335FFF"/>
<path d="M8.3354 5.03167C8.88478 5.58105 9.77529 5.58077 10.3245 5.03167C10.8738 4.48238 10.8738 3.59187 10.3245 3.04258L8.66668 1.38459C8.11748 0.835299 7.22688 0.835393 6.67759 1.38459C6.1283 1.93388 6.1283 2.82439 6.67759 3.37368L8.3354 5.03167Z" fill="#335FFF"/>
<path d="M8.33542 32.87L6.67752 34.5279C6.12833 35.0772 6.12833 35.9677 6.67752 36.517C7.227 37.0664 8.11751 37.0661 8.66661 36.517L10.3245 34.859C10.8737 34.3097 10.8737 33.4192 10.3245 32.8699C9.77522 32.3207 8.88481 32.3206 8.33542 32.87Z" fill="#335FFF"/>
<path d="M19.8219 13.0244C17.4024 13.0244 15.4023 14.9796 15.4023 17.444V23.4701C15.4715 25.3343 18.1468 25.3329 18.2154 23.4701V21.8636H21.4285V23.4701C21.4977 25.3343 24.173 25.3329 24.2415 23.4701V17.444C24.2414 15.0291 22.2907 13.0244 19.8219 13.0244ZM21.4284 19.0506H18.2153V17.444C18.2929 15.3164 21.3498 15.3143 21.4284 17.444V19.0506Z" fill="#335FFF"/>
<path d="M31.7766 15.8374C33.6408 15.7682 33.6394 13.093 31.7766 13.0244H27.257C25.3928 13.0936 25.3942 15.7689 27.257 15.8374H28.1103V22.0636H27.257C25.3928 22.1328 25.3942 24.8081 27.257 24.8766H31.7766C33.6408 24.8074 33.6394 22.1321 31.7766 22.0636H30.9233V15.8374H31.7766Z" fill="#335FFF"/>
</svg>
