<svg width="40" height="41" viewBox="0 0 40 41" fill="none" xmlns="http://www.w3.org/2000/svg">
<g clip-path="url(#clip0_4183_3230)">
<path d="M36.4313 38.5061C36.407 38.4831 33.988 36.1578 31.6038 31.79C29.5099 27.9541 27.0321 21.7411 26.8125 13.5752H29.9999C30.4667 13.5752 30.8889 13.2982 31.0749 12.8701C31.2608 12.4421 31.1749 11.9443 30.8563 11.6033L20.8563 0.900195C20.6346 0.663008 20.3245 0.52832 19.9999 0.52832C19.6753 0.52832 19.3652 0.663008 19.1437 0.900195L9.14368 11.6033C8.82501 11.9443 8.73915 12.442 8.92509 12.8701C9.11102 13.2982 9.53321 13.5752 10 13.5752H13.1874C12.9678 21.7411 10.49 27.9541 8.39618 31.79C6.01204 36.1578 3.5929 38.4831 3.57001 38.5048C3.22118 38.8346 3.10876 39.3436 3.28618 39.7896C3.4636 40.2356 3.89501 40.5283 4.37493 40.5283H35.6249C36.1043 40.5283 36.5346 40.2358 36.7125 39.7907C36.8903 39.3456 36.7786 38.8364 36.4313 38.5061ZM18.0468 29.9033C18.0468 28.8264 18.923 27.9502 19.9999 27.9502C21.0769 27.9502 21.9531 28.8264 21.9531 29.9033C21.9531 30.9803 21.0769 31.8564 19.9999 31.8564C18.923 31.8564 18.0468 30.9803 18.0468 29.9033ZM19.9999 34.2002C22.403 34.2002 24.42 35.9043 24.9442 38.1846H15.0557C15.5799 35.9043 17.5969 34.2002 19.9999 34.2002ZM27.3305 38.1846C27.0892 36.6426 26.3734 35.2142 25.2551 34.0764C24.6752 33.4866 24.0174 33.0063 23.3057 32.645C23.9242 31.9005 24.2968 30.9446 24.2968 29.9033C24.2968 27.534 22.3692 25.6064 19.9999 25.6064C17.6306 25.6064 15.7031 27.534 15.7031 29.9033C15.7031 30.9446 16.0756 31.9004 16.6941 32.645C15.9825 33.0063 15.3246 33.4866 14.7449 34.0764C13.6265 35.2141 12.9108 36.6426 12.6695 38.1846H6.97712C7.93532 36.983 9.16821 35.2525 10.402 33.0067C11.8966 30.286 13.0873 27.3612 13.9409 24.3136C15.0065 20.509 15.5468 16.5018 15.5468 12.4033C15.5468 11.7561 15.0221 11.2314 14.3749 11.2314H12.6986L19.9999 3.41676L27.3013 11.2314H25.6249C24.9777 11.2314 24.4531 11.7561 24.4531 12.4033C24.4531 16.5018 24.9934 20.509 26.059 24.3136C26.9126 27.3612 28.1032 30.2859 29.5979 33.0067C30.8317 35.2525 32.0645 36.983 33.0227 38.1846H27.3305Z" fill="#335FFF"/>
</g>
<defs>
<clipPath id="clip0_4183_3230">
<rect width="40" height="40" fill="white" transform="translate(0 0.52832)"/>
</clipPath>
</defs>
</svg>
