<svg width="24" height="25" viewBox="0 0 24 25" fill="none" xmlns="http://www.w3.org/2000/svg">
<g clip-path="url(#clip0_4365_2968)">
<path d="M23.3627 4.14602C22.9518 3.74562 22.4099 3.53323 21.8353 3.54809C20.7027 3.5773 19.7812 4.53747 19.7812 5.68857V10.1102C19.5583 10.0316 19.3214 9.99048 19.0781 9.99048C18.5146 9.99048 17.9849 10.2099 17.5865 10.6084L12.3246 15.8707C12.2067 15.9886 12.0987 16.1138 12 16.2448C11.9013 16.1138 11.7933 15.9886 11.6753 15.8706L6.41354 10.6083C6.0151 10.2099 5.48542 9.99044 4.92194 9.99044C4.67866 9.99044 4.44171 10.0315 4.21887 10.1101V5.65684C4.24545 4.53907 3.22546 3.49208 2.05425 3.54805C0.921574 3.57725 6.71587e-05 4.53747 6.71587e-05 5.68852V12.6575C-0.0044328 13.3466 0.217378 14.1254 0.613889 14.7235L5.008 20.7609V23.8247C5.008 24.213 5.32281 24.5278 5.71112 24.5278H18.2888C18.6771 24.5278 18.992 24.213 18.992 23.8247V20.7609C18.992 20.7609 22.3185 16.2549 23.3861 14.7235C23.7743 14.1667 24.0046 13.3778 23.9999 12.6575V5.65684C23.9999 5.08309 23.7736 4.54652 23.3627 4.14602ZM6.27966 20.1184C6.27966 20.1184 2.83607 15.5066 1.76517 13.9155C1.51665 13.5463 1.4064 13.103 1.4064 12.6575V5.68852C1.4064 5.29314 1.71328 4.96361 2.09048 4.95391C2.42395 4.94298 2.81324 5.22873 2.81259 5.65688V12.1234C2.81685 12.6066 3.0261 13.1941 3.43039 13.5916L5.99504 16.1565C6.26963 16.4311 6.71484 16.4311 6.98944 16.1565C7.26403 15.8819 7.26407 15.4367 6.98948 15.1621L4.42484 12.5972C4.15067 12.323 4.15067 11.8769 4.42484 11.6027C4.65523 11.3695 5.12266 11.3055 5.41909 11.6027L10.6809 16.8649C11.0781 17.2622 11.2969 17.7926 11.2969 18.3582V23.1215H6.41429V20.5321C6.41429 20.3835 6.36713 20.2386 6.27966 20.1184ZM22.5936 12.6575C22.5936 13.1029 22.4833 13.5463 22.2349 13.9155C21.164 15.5067 17.7203 20.1184 17.7203 20.1184C17.6328 20.2386 17.5857 20.3835 17.5857 20.5321V23.1215H12.7032V18.3582C12.7032 17.7926 12.9219 17.2622 13.3191 16.865L18.5809 11.6027C18.8112 11.3695 19.2787 11.3055 19.5752 11.6027C19.8494 11.8769 19.8494 12.3231 19.575 12.5974L17.0106 15.1638C16.7361 15.4385 16.7362 15.8837 17.0109 16.1582C17.2857 16.4327 17.7308 16.4325 18.0054 16.1578L20.5696 13.5916C20.9486 13.2189 21.181 12.6501 21.1875 12.1235V5.68852C21.1875 5.29314 21.4944 4.96361 21.8715 4.95391C22.2058 4.94308 22.5939 5.22869 22.5936 5.65688V12.6575H22.5936Z" fill="white"/>
<path d="M7.55463 7.90853H9.79674V10.1177C9.79674 10.506 10.1115 10.8208 10.4999 10.8208H13.4507C13.839 10.8208 14.1538 10.506 14.1538 10.1177V7.90853H16.441C16.8293 7.90853 17.1441 7.59372 17.1441 7.20541V4.17207C17.1441 3.78376 16.8293 3.46895 16.441 3.46895H14.169V1.23144C14.169 0.84313 13.8542 0.52832 13.4658 0.52832H10.5216C10.1332 0.52832 9.81844 0.84313 9.81844 1.23144V3.46895H7.55468C7.16637 3.46895 6.85156 3.78376 6.85156 4.17207V7.20541C6.85152 7.59372 7.16633 7.90853 7.55463 7.90853ZM8.25775 4.87518H10.5215C10.9098 4.87518 11.2246 4.56038 11.2246 4.17207V1.93456H12.7627V4.17207C12.7627 4.56038 13.0775 4.87518 13.4658 4.87518H15.7378V6.50229H13.4506C13.0623 6.50229 12.7475 6.8171 12.7475 7.20541V9.41461H11.2029V7.20541C11.2029 6.8171 10.8881 6.50229 10.4998 6.50229H8.25771V4.87518H8.25775Z" fill="white"/>
</g>
<defs>
<clipPath id="clip0_4365_2968">
<rect width="24" height="24" fill="white" transform="translate(0 0.52832)"/>
</clipPath>
</defs>
</svg>
