<svg width="24" height="25" viewBox="0 0 24 25" fill="none" xmlns="http://www.w3.org/2000/svg">
<g clip-path="url(#clip0_4365_2943)">
<path d="M23.4 10.9203C23.3993 10.9198 23.3988 10.919 23.3982 10.9185L13.6081 1.12872C13.1908 0.711243 12.636 0.481445 12.0458 0.481445C11.4557 0.481445 10.9009 0.711243 10.4834 1.12872L0.69839 10.9135C0.695094 10.9168 0.691615 10.9203 0.688502 10.9236C-0.168433 11.7855 -0.166968 13.1839 0.692714 14.0435C1.08548 14.4365 1.60403 14.6639 2.15866 14.6879C2.18136 14.6901 2.20407 14.6912 2.22696 14.6912H2.61697V21.8957C2.61697 23.3215 3.77713 24.4815 5.20298 24.4815H9.03318C9.42155 24.4815 9.73631 24.1666 9.73631 23.7784V18.1299C9.73631 17.4793 10.2657 16.9502 10.9162 16.9502H13.1754C13.826 16.9502 14.3552 17.4793 14.3552 18.1299V23.7784C14.3552 24.1666 14.6699 24.4815 15.0583 24.4815H18.8885C20.3145 24.4815 21.4745 23.3215 21.4745 21.8957V14.6912H21.8363C22.4263 14.6912 22.9811 14.4614 23.3988 14.0437C24.2593 13.1828 24.2597 11.7818 23.4 10.9203ZM22.4043 13.0495C22.2525 13.2013 22.0507 13.2849 21.8363 13.2849H20.7714C20.383 13.2849 20.0682 13.5997 20.0682 13.9881V21.8957C20.0682 22.5461 19.5391 23.0752 18.8885 23.0752H15.7614V18.1299C15.7614 16.7041 14.6014 15.5439 13.1754 15.5439H10.9162C9.49022 15.5439 8.33006 16.7041 8.33006 18.1299V23.0752H5.20298C4.55258 23.0752 4.02323 22.5461 4.02323 21.8957V13.9881C4.02323 13.5997 3.70847 13.2849 3.3201 13.2849H2.27347C2.26248 13.2842 2.25168 13.2837 2.24051 13.2835C2.03103 13.2798 1.83456 13.1967 1.68734 13.0493C1.37423 12.7362 1.37423 12.2266 1.68734 11.9133C1.68753 11.9133 1.68753 11.9131 1.68771 11.9129L1.68826 11.9124L11.478 2.12299C11.6296 1.97119 11.8312 1.8877 12.0458 1.8877C12.2602 1.8877 12.4618 1.97119 12.6136 2.12299L22.4012 11.9104C22.4027 11.9118 22.4043 11.9133 22.4058 11.9148C22.7172 12.2284 22.7167 12.7369 22.4043 13.0495Z" fill="white"/>
</g>
<defs>
<clipPath id="clip0_4365_2943">
<rect width="24" height="24" fill="white" transform="translate(0 0.52832)"/>
</clipPath>
</defs>
</svg>
