<svg width="88" height="33" viewBox="0 0 88 33" fill="none" xmlns="http://www.w3.org/2000/svg">
<rect x="0.5" y="1.30078" width="86.9998" height="31" rx="15.5" stroke="#EE3124"/>
<path fill-rule="evenodd" clip-rule="evenodd" d="M12.2109 10.7999H15.0772V14.7119H17.3066V10.7754H20.1488V20.2437H17.3066V15.9078H15.0521V20.1947H12.21V10.7999" fill="#EE3124"/>
<path d="M17.0967 10.5605H20.3611V20.4583H17.0967V16.1224H15.2644V20.4093H12V10.5863H15.2895V14.4983H17.0959L17.0967 10.5605ZM19.9388 10.99H17.5189V14.9268H14.867V11.0147H12.4222V19.9803H14.8422V15.6935H17.5189V20.0293H19.9388V10.99Z" fill="#EE3124"/>
<path fill-rule="evenodd" clip-rule="evenodd" d="M25.6278 14.6939C25.7464 15.0623 25.8034 15.4484 25.7964 15.8359C25.8063 16.7668 25.8075 17.8657 25.788 18.0952C25.7497 18.5362 25.5982 19.1731 25.2304 19.4869C24.8626 19.8007 24.4156 19.6711 24.1364 19.2439C23.8572 18.8166 23.7592 18.4144 23.7797 17.2067C23.8002 15.9991 23.7375 15.1628 23.9601 14.6682C24.1826 14.1736 24.4143 13.9678 24.6263 13.9272C25.0755 13.8363 25.4127 14.143 25.6278 14.6939ZM24.6767 13.1127C25.2422 13.088 25.8074 13.1704 26.3434 13.3557C27.1208 13.6116 27.7717 14.1617 28.1615 14.8921C28.6793 15.7965 28.7395 17.1093 28.3741 18.1746C28.0982 18.98 27.5276 19.6463 26.7811 20.0348C26.1484 20.3263 25.4585 20.4664 24.7643 20.4447C24.008 20.4447 23.039 20.2759 22.3887 19.7497C21.7608 19.2879 21.3066 18.622 21.1013 17.862C20.9026 17.0794 20.7807 15.6792 21.6008 14.5724C21.8784 14.1939 22.2276 13.8757 22.6279 13.6365C23.0282 13.3972 23.4715 13.2418 23.9317 13.1793C24.1772 13.1318 24.4267 13.1092 24.6767 13.1117" fill="#EE3124"/>
<path d="M24.8532 12.894C25.3867 12.8868 25.9171 12.9755 26.4203 13.1558C27.2426 13.4283 27.9309 14.011 28.3436 14.7841C28.6245 15.2985 28.7839 15.8723 28.8094 16.4601C28.8465 17.0655 28.7662 17.6723 28.5731 18.2461C28.2806 19.1026 27.6745 19.8113 26.8811 20.2247C26.2177 20.5335 25.4933 20.6825 24.7641 20.6602C24.286 20.6602 23.0843 20.588 22.2572 19.9187C21.5937 19.4276 21.114 18.7217 20.8968 17.9169C20.766 17.3965 20.7193 16.8579 20.7586 16.3222C20.8014 15.6433 21.0356 14.9913 21.433 14.4441C21.7269 14.0443 22.0961 13.708 22.5191 13.4547C22.942 13.2014 23.4102 13.0362 23.8965 12.9687C24.1363 12.9233 24.3796 12.8994 24.6235 12.8974H24.6728C24.6933 12.8966 24.7579 12.894 24.8532 12.894ZM24.7639 20.2308C25.4231 20.2533 26.0786 20.122 26.6802 19.847C27.3824 19.4867 27.9184 18.8615 28.1735 18.1048C28.5278 17.0708 28.4493 15.823 27.9779 14.9999C27.6126 14.3107 26.9986 13.7926 26.2652 13.5546C25.8108 13.3956 25.333 13.3172 24.8525 13.3226C24.7501 13.3226 24.6882 13.3261 24.6878 13.3261H24.6757H24.6218C24.4024 13.3281 24.1837 13.3497 23.9681 13.3907C23.5336 13.4478 23.115 13.5933 22.7371 13.8186C22.3592 14.0438 22.0298 14.3442 21.7685 14.7018C20.9028 15.8698 21.1948 17.3751 21.3048 17.8084C21.4976 18.5238 21.9264 19.15 22.5193 19.5819C23.2433 20.1676 24.3301 20.2308 24.7639 20.2308ZM24.7788 13.6967C25.0919 13.6967 25.5291 13.8559 25.8239 14.6148C25.9511 15.0079 26.013 15.4197 26.0072 15.8335C26.0147 16.5515 26.0214 17.8393 25.9978 18.1139C25.9759 18.3669 25.8656 19.2248 25.3655 19.6515C25.207 19.7931 25.004 19.8726 24.793 19.8756C24.6232 19.8673 24.458 19.816 24.3126 19.7265C24.1671 19.6369 24.0459 19.5119 23.9599 19.3627C23.6359 18.8688 23.5478 18.3843 23.5677 17.2031C23.5723 16.9336 23.5728 16.6887 23.573 16.4511C23.5745 15.6118 23.5755 15.0058 23.7672 14.579C23.9982 14.0671 24.273 13.7768 24.5861 13.7165C24.6496 13.7036 24.7143 13.6969 24.779 13.6967H24.7788ZM24.793 19.4462C24.9045 19.4434 25.0112 19.3999 25.0939 19.3237C25.3925 19.0687 25.5392 18.5129 25.577 18.0776C25.5953 17.8633 25.5948 16.7893 25.5847 15.8394C25.5916 15.4781 25.5397 15.1181 25.4311 14.774C25.3164 14.4789 25.1102 14.1271 24.7786 14.1271C24.7409 14.1273 24.7034 14.1312 24.6666 14.1389H24.6644C24.5681 14.1572 24.3754 14.2613 24.1509 14.7586C23.9974 15.0998 23.9965 15.6672 23.995 16.4525C23.995 16.6918 23.995 16.9393 23.9897 17.2119C23.9695 18.4076 24.0678 18.7552 24.3111 19.126C24.3596 19.2154 24.4289 19.2914 24.513 19.3472C24.597 19.403 24.693 19.437 24.793 19.4462Z" fill="#EE3124"/>
<path fill-rule="evenodd" clip-rule="evenodd" d="M32.0429 15.2658V20.202L29.3828 20.2008V13.3397H32.0564V14.2629C32.2902 13.93 32.5958 13.656 32.9498 13.4616C33.3254 13.2738 33.7356 13.1682 34.1538 13.1517C34.5721 13.1352 34.9891 13.2082 35.3779 13.3659C35.6967 13.4979 35.9721 13.7193 36.172 14.0043C36.3718 14.2893 36.488 14.6262 36.5068 14.9758L36.5107 20.2008H33.8853V15.424C33.9033 15.1655 33.8275 14.9091 33.6721 14.7036C33.5436 14.59 33.3838 14.5196 33.2144 14.5021C33.0451 14.4846 32.8746 14.5207 32.7262 14.6056C32.363 14.8031 31.9911 15.2129 32.0431 15.2651" fill="#EE3124"/>
<path d="M34.3056 12.9326C34.7028 12.9314 35.0961 13.0121 35.4618 13.1698C35.8166 13.3177 36.1229 13.5648 36.3454 13.8824C36.5679 14.2 36.6973 14.5752 36.7188 14.9646V14.9771L36.7229 20.417H33.6763V15.4259C33.6938 15.2175 33.6352 15.0099 33.5118 14.8426C33.4095 14.755 33.2782 14.7103 33.1447 14.7177C33.0343 14.7171 32.9255 14.7443 32.8279 14.7968C32.6092 14.9228 32.4152 15.0889 32.2559 15.2867V20.4194L29.1729 20.418V13.1276H32.2682V13.6954C32.442 13.5231 32.6415 13.3797 32.8593 13.2704C33.3115 13.0521 33.8051 12.9368 34.3056 12.9326ZM36.2971 14.9837C36.2787 14.6754 36.175 14.3786 35.9981 14.1276C35.8211 13.8766 35.578 13.6815 35.2968 13.5649C34.9833 13.4299 34.6461 13.3609 34.3056 13.3621C33.8684 13.3654 33.4372 13.4658 33.0421 13.656C32.723 13.8248 32.449 14.0699 32.2439 14.3703C32.2242 14.4027 32.1968 14.4295 32.1644 14.4483C32.1319 14.4672 32.0953 14.4775 32.0579 14.4783H31.9705L31.8467 14.3527V13.5551H29.5958V19.9868H31.8337V15.3012C31.8281 15.2729 31.8273 15.2439 31.8315 15.2154C31.8375 15.1728 31.8537 15.0599 32.1186 14.8022C32.2715 14.6521 32.4429 14.5227 32.6285 14.4173C32.7874 14.3315 32.9647 14.2868 33.1447 14.2873C33.2728 14.2818 33.4006 14.3039 33.5198 14.3521C33.6389 14.4003 33.7468 14.4736 33.8362 14.567C34.0231 14.811 34.1163 15.1157 34.0985 15.4244V19.9861H36.3009L36.2971 14.9837Z" fill="#EE3124"/>
<path fill-rule="evenodd" clip-rule="evenodd" d="M37.7304 14.9712C38.2603 13.8879 39.6092 13.0232 41.2723 13.1094C42.9355 13.1957 43.8908 13.8122 44.4773 14.9467C44.7947 15.6487 44.9393 16.4189 44.8983 17.1905L40.1039 17.1766V18.5729C40.1293 18.7244 40.1824 18.8697 40.2605 19.0013C40.3684 19.1483 40.8036 19.7183 42.1035 19.5093C43.5456 19.2771 43.5056 18.2355 43.5345 18.2355L44.6752 18.2302C44.6534 18.6608 44.4807 19.0692 44.1882 19.3815C43.5619 19.9562 42.7737 20.3161 41.9352 20.4103C40.9958 20.5083 39.6663 20.5362 38.5942 19.6277C38.0837 19.198 37.7038 18.6297 37.4987 17.9889C37.2083 16.9882 37.2908 15.9138 37.7304 14.9712ZM40.0996 16.2753C40.089 15.8328 40.1088 15.3901 40.1588 14.9503C40.2154 14.5861 40.3991 14.2548 40.6762 14.017C40.8336 13.9137 41.0197 13.8653 41.2065 13.8789C41.3933 13.8926 41.5707 13.9676 41.7119 14.0927C41.8928 14.2708 42.0221 14.4961 42.0857 14.7438C42.1591 15.0419 42.195 15.3483 42.1924 15.6556C42.1874 16.0412 42.1874 16.2587 42.1924 16.2749H40.1001" fill="#EE3124"/>
<path d="M41.0421 12.8897C41.1209 12.8897 41.2009 12.8917 41.2799 12.8959C42.0138 12.9065 42.7345 13.0965 43.3811 13.45C43.9318 13.7802 44.3764 14.2658 44.6611 14.848C44.8953 15.3357 45.0391 15.8632 45.0852 16.404C45.1093 16.644 45.1146 16.8449 45.1149 16.9701C45.1149 17.2373 45.1014 17.2606 45.0763 17.3027L45.0147 17.4064H44.8942L40.3109 17.3929V18.555C40.3301 18.6672 40.3687 18.775 40.425 18.8734C40.709 19.2605 41.2016 19.3416 41.565 19.3416C41.7331 19.3405 41.9009 19.3262 42.0668 19.2987C42.8031 19.1801 43.2229 18.8267 43.3113 18.2483C43.3142 18.2304 43.3163 18.2165 43.3192 18.2025C43.3283 18.152 43.3543 18.1064 43.3928 18.0733C43.4314 18.0403 43.4801 18.0219 43.5305 18.0215L44.8868 18.0151L44.8824 18.2356C44.8598 18.7238 44.6635 19.1869 44.3299 19.5388C43.67 20.1469 42.838 20.5274 41.9528 20.6259C41.6744 20.6569 41.3945 20.6733 41.1144 20.6749C40.0233 20.6749 39.1535 20.3873 38.4553 19.7957C37.9158 19.3412 37.5139 18.7407 37.296 18.0636C37.1518 17.6021 37.0908 17.118 37.1158 16.6345C37.1339 16.0254 37.2776 15.4269 37.5376 14.8779C37.8428 14.2852 38.3101 13.7949 38.883 13.4661C39.5401 13.0836 40.285 12.8848 41.0421 12.8897ZM44.6936 16.9765C44.6999 16.3109 44.5611 15.6522 44.2873 15.0476C43.7118 13.9343 42.7775 13.4029 41.2587 13.3245C41.1864 13.3209 41.1141 13.3189 41.0419 13.3189C39.4729 13.3189 38.3413 14.1973 37.916 15.0679C37.501 15.9586 37.422 16.9733 37.6941 17.9193C37.8856 18.5242 38.2437 19.0605 38.7257 19.4648C39.345 19.9895 40.1266 20.2445 41.1149 20.2445C41.3804 20.2432 41.6457 20.2279 41.9097 20.1987C42.7012 20.1076 43.4453 19.7683 44.0387 19.2279C44.2441 19.0139 44.3812 18.7418 44.4318 18.4472L43.7034 18.4506C43.657 18.66 43.5667 18.8568 43.4385 19.0273C43.109 19.4236 42.6404 19.6734 42.1325 19.7235C41.9448 19.7548 41.755 19.7711 41.5648 19.7725C41.1047 19.7725 40.4749 19.6615 40.0871 19.1326C39.9885 18.9743 39.9221 18.7974 39.8918 18.6126L39.8886 18.5944V16.9635L44.6936 16.9765ZM41.1508 13.6636C41.2812 13.6597 41.4111 13.6825 41.5327 13.7306C41.6543 13.7787 41.7652 13.8511 41.8589 13.9436C42.0585 14.1405 42.2029 14.388 42.2773 14.6606L42.2838 14.6821C42.3635 15.0017 42.4025 15.3304 42.3996 15.66C42.3943 16.0659 42.3958 16.1943 42.397 16.2337L42.4786 16.4907H39.8886L39.8845 16.2803C39.8732 15.8235 39.8941 15.3666 39.9472 14.9129C40.0117 14.4933 40.2261 14.1126 40.5493 13.8436C40.727 13.7225 40.9369 13.6596 41.1508 13.6636ZM41.9735 16.0615C41.9735 15.9667 41.9752 15.8359 41.9776 15.6539C41.98 15.3688 41.9477 15.0845 41.8813 14.8076L41.8743 14.7831C41.8194 14.5775 41.7103 14.3912 41.5588 14.2441C41.4482 14.141 41.3019 14.0865 41.152 14.0927C41.027 14.0893 40.9037 14.1234 40.7976 14.1907C40.5649 14.3958 40.4113 14.6782 40.3641 14.9876C40.3199 15.3433 40.3006 15.7018 40.3065 16.0603L41.9735 16.0615Z" fill="#EE3124"/>
<path fill-rule="evenodd" clip-rule="evenodd" d="M61.924 14.9712C62.4539 13.8879 63.8039 13.0232 65.4666 13.1094C67.1293 13.1957 68.0845 13.8122 68.6701 14.9467C68.9876 15.6486 69.1302 16.4192 69.0853 17.1905L64.2967 17.1766V18.5729C64.3221 18.7244 64.3752 18.8697 64.4533 19.0013C64.5619 19.1483 64.9964 19.7183 66.2964 19.5093C67.7391 19.2771 67.6992 18.2279 67.7281 18.2279L68.8681 18.2292C68.8463 18.6598 68.6735 19.0683 68.381 19.3805C67.7547 19.9552 66.9665 20.3152 66.128 20.4093C65.1886 20.5073 63.8591 20.5352 62.7867 19.6267C62.2765 19.1968 61.8966 18.6286 61.6913 17.9879C61.4017 16.9874 61.4846 15.9135 61.924 14.9712ZM64.2936 16.2753C64.2829 15.8328 64.3025 15.3901 64.3521 14.9503C64.409 14.5862 64.5926 14.255 64.8695 14.017C65.0269 13.9139 65.213 13.8655 65.3998 13.8791C65.5865 13.8928 65.7639 13.9677 65.9052 14.0927C66.0857 14.271 66.2148 14.4962 66.2783 14.7438C66.3517 15.042 66.3877 15.3483 66.3857 15.6556C66.3797 16.0412 66.3797 16.2587 66.3857 16.2749H64.2931" fill="#EE3124"/>
<path d="M65.2443 12.8897C65.3231 12.8897 65.403 12.8917 65.482 12.8959C66.2159 12.9066 66.9364 13.0966 67.5829 13.45C68.1334 13.7803 68.5779 14.2659 68.8626 14.848C69.097 15.3357 69.2399 15.8637 69.2841 16.4047C69.3025 16.5929 69.3116 16.7819 69.3113 16.9711C69.3113 17.2376 69.2959 17.2621 69.2718 17.3027L69.2101 17.4064H69.0897L64.5133 17.3929V18.555C64.5325 18.6672 64.5712 18.775 64.6275 18.8734C64.8568 19.1843 65.2402 19.3416 65.7675 19.3416C65.9355 19.3405 66.1031 19.3262 66.2689 19.2987C67.0055 19.1801 67.4251 18.8247 67.5142 18.2419C67.5171 18.224 67.5193 18.2098 67.5222 18.1959C67.5311 18.1454 67.5571 18.0996 67.5957 18.0666C67.6342 18.0335 67.6829 18.0151 67.7334 18.0146L69.089 18.0163L69.0846 18.2351C69.062 18.7233 68.8656 19.1864 68.5321 19.5383C67.8722 20.1464 67.0402 20.5269 66.155 20.6254C65.8766 20.6564 65.5967 20.6728 65.3166 20.6744C64.2255 20.6744 63.3557 20.3868 62.6572 19.7952C62.118 19.3406 61.7161 18.7403 61.4979 18.0633C61.3538 17.6019 61.2929 17.1177 61.318 16.6342C61.3362 16.0252 61.4798 15.4267 61.7395 14.8776C62.0449 14.2849 62.5123 13.7946 63.0855 13.4659C63.7425 13.0836 64.4873 12.8848 65.2443 12.8897ZM68.8903 16.9764C68.8996 16.3112 68.7624 15.6522 68.4887 15.0479C67.9133 13.9345 66.9792 13.4029 65.4606 13.3248C65.3883 13.3211 65.3161 13.3192 65.2438 13.3192C63.6744 13.3192 62.5428 14.1976 62.1174 15.0682C61.7027 15.959 61.6237 16.9735 61.8956 17.9196C62.0895 18.5232 62.4471 19.059 62.9272 19.465C63.5465 19.9897 64.3281 20.2447 65.3163 20.2447C65.5819 20.2434 65.8472 20.2281 66.1112 20.1989C66.9027 20.1079 67.6467 19.7686 68.2402 19.2281C68.4459 19.0138 68.583 18.7411 68.6335 18.446H67.9056C67.8593 18.6562 67.7689 18.8538 67.6407 19.0253C67.3118 19.4233 66.8427 19.6743 66.334 19.7244C66.1464 19.7557 65.9566 19.7721 65.7665 19.7734C65.4883 19.7913 65.2098 19.7428 64.9533 19.6318C64.6968 19.5208 64.4693 19.3503 64.289 19.1341C64.1902 18.9756 64.1236 18.7986 64.0932 18.6135L64.0901 18.5954V16.9644L68.8903 16.9764ZM65.3525 13.6641C65.483 13.6603 65.6129 13.6831 65.7346 13.7312C65.8563 13.7792 65.9673 13.8516 66.0611 13.9441C66.2604 14.1412 66.4046 14.3886 66.479 14.6611L66.4855 14.6829C66.5652 15.0023 66.6044 15.3307 66.6021 15.6603C66.596 16.0544 66.5975 16.1862 66.5989 16.2291L66.6953 16.4914H64.0913L64.0872 16.281C64.0759 15.8245 64.0966 15.3677 64.1491 14.9141C64.214 14.4946 64.4283 14.114 64.7513 13.8448C64.9287 13.7233 65.1386 13.66 65.3525 13.6636V13.6641ZM66.1752 16.062C66.1752 15.9665 66.1772 15.8357 66.1798 15.6539C66.1813 15.3689 66.1483 15.0848 66.0816 14.808L66.0746 14.7835C66.0197 14.5781 65.9108 14.3918 65.7595 14.2446C65.6487 14.1416 65.5024 14.0873 65.3525 14.0935C65.2275 14.09 65.1042 14.1241 64.9982 14.1915C64.7657 14.3967 64.6121 14.679 64.5646 14.9883C64.5207 15.3441 64.5017 15.7025 64.5075 16.061L66.1752 16.062Z" fill="#EE3124"/>
<path fill-rule="evenodd" clip-rule="evenodd" d="M44.6599 13.3418H47.5592L48.7972 16.6032L50.1196 13.3418L53.7681 13.3511L54.9404 17.1951L55.972 13.3418H58.2976L59.4422 17.1375L60.4644 13.3418H61.6651L59.8083 20.2088H57.6229L56.4032 16.203L55.3251 20.2088H53.0831L51.0854 13.5801L48.2813 20.5711C48.2813 20.5711 47.8778 21.7158 47.3809 22.1634C46.884 22.6109 46.3404 22.946 45.4398 22.7834C44.5392 22.6207 44.1832 22.1448 44.1175 21.5818C44.0676 21.2977 44.129 21.0049 44.2885 20.7662C44.448 20.5274 44.693 20.3615 44.9711 20.3039C45.6084 20.1802 46.021 20.4278 46.1711 20.7431C46.3125 21.0088 46.3463 21.3201 46.2653 21.6108C46.2127 21.7334 46.1362 21.8438 46.0403 21.9353C46.1666 21.9567 46.2962 21.9442 46.4162 21.899C46.5363 21.8538 46.6427 21.7775 46.7248 21.6776C46.9877 21.3741 47.1828 21.0162 47.2969 20.6287C47.3256 20.5422 47.3446 20.4526 47.3535 20.3617L44.6614 13.342" fill="#EE3124"/>
<path d="M49.9809 13.1284L53.9262 13.1385L54.9297 16.4286L55.8132 13.1287H58.4561L59.4331 16.3683L60.3057 13.1282H61.9436L59.9707 20.4246H57.4693L56.4177 16.9707L55.4882 20.4246H52.9293L51.0595 14.22L48.4808 20.649C48.4478 20.7419 48.0434 21.8567 47.5234 22.3253C47.0891 22.7706 46.502 23.0271 45.8855 23.0411C45.7245 23.0403 45.5639 23.0253 45.4055 22.996C44.2802 22.7934 43.9714 22.1296 43.9104 21.6083C43.8687 21.2813 43.9366 20.9496 44.1031 20.6667C44.1936 20.5166 44.3145 20.3879 44.4577 20.2891C44.601 20.1904 44.7633 20.1238 44.9339 20.0939C45.0529 20.0704 45.1739 20.0582 45.2952 20.0577C45.5102 20.0428 45.7249 20.0907 45.9141 20.1958C46.1033 20.3008 46.2591 20.4585 46.3631 20.6505C46.5122 20.9451 46.5576 21.2828 46.4918 21.6073C46.5208 21.5839 46.5481 21.5583 46.5734 21.5309C46.8125 21.2521 46.9905 20.9248 47.0956 20.5706C47.1209 20.4807 47.1332 20.4237 47.1392 20.3896L44.3543 13.1279H47.7055L48.8053 16.0251L49.9809 13.1284ZM47.4164 13.5581H44.9722L47.5665 20.3227V20.3631C47.5584 20.4742 47.5366 20.5839 47.5017 20.6894C47.378 21.1099 47.1659 21.498 46.88 21.8268C46.7889 21.9306 46.6777 22.014 46.5533 22.0719C46.429 22.1299 46.2942 22.161 46.1574 22.1634C46.1007 22.1642 46.0441 22.1579 45.9888 22.1448L45.6035 22.0416L45.905 21.7751C45.9764 21.7047 46.0337 21.6208 46.0736 21.5282C46.1293 21.295 46.0973 21.049 45.9838 20.8386C45.9131 20.7203 45.811 20.6246 45.6893 20.5626C45.5676 20.5005 45.4312 20.4746 45.2956 20.4878C45.2009 20.4884 45.1064 20.498 45.0133 20.5165C44.7882 20.5649 44.5906 20.701 44.4629 20.8956C44.3351 21.0903 44.2874 21.3281 44.3298 21.5581C44.3948 22.1141 44.7708 22.4463 45.4794 22.5737C45.6135 22.5985 45.7495 22.6114 45.8858 22.6122C46.1402 22.6067 46.3912 22.5503 46.6242 22.4461C46.8572 22.3418 47.0676 22.1918 47.2435 22.0046C47.6939 21.5987 48.0815 20.5104 48.0865 20.5001L48.0896 20.4915L50.8699 13.5591L50.2649 13.5576L48.9948 16.6867L48.6027 16.6823L47.4164 13.5581ZM58.1435 13.5581H56.1357L55.1464 17.2531L54.7411 17.2602L53.6148 13.5669L51.3025 13.561L53.2417 19.9957H55.1664L56.2022 16.1478L56.6075 16.141L57.781 19.9957H59.6499L61.3906 13.5581H60.6278L59.6482 17.1958L59.2428 17.2019L58.1435 13.5581Z" fill="#EE3124"/>
<path fill-rule="evenodd" clip-rule="evenodd" d="M69.8867 10.7832H72.4399V20.2174H69.8867V10.7832Z" fill="#EE3124"/>
<path d="M69.6768 10.5635H72.6521V20.4271H69.6768V10.5635ZM72.2299 10.9929H70.0988V19.9977H72.2299V10.9929Z" fill="#EE3124"/>
<path fill-rule="evenodd" clip-rule="evenodd" d="M73.2344 10.7891H75.7875V20.2233H73.2344V10.7891Z" fill="#EE3124"/>
<path d="M73.0244 10.5752H75.9998V20.4389H73.0244V10.5752ZM75.5776 11.0046H73.4466V20.0094H75.5778L75.5776 11.0046Z" fill="#EE3124"/>
</svg>
