<svg width="83" height="17" viewBox="0 0 83 17" fill="none" xmlns="http://www.w3.org/2000/svg">
<path fill-rule="evenodd" clip-rule="evenodd" d="M0.270766 0.835119H3.94546V5.85067H6.8037V0.803711H10.4475V12.9428H6.8037V7.38391H3.91335V12.88H0.269531V0.835119" fill="#EE3124"/>
<path d="M6.53416 0.52832H10.7193V13.2179H6.53416V7.65907H4.18514V13.1551H0V0.561295H4.21725V5.57685H6.53324L6.53416 0.52832ZM10.178 1.07887H7.07549V6.12614H3.67562V1.11059H0.54132V12.6052H3.64381V7.10915H7.07549V12.668H10.178V1.07887Z" fill="#EE3124"/>
<path fill-rule="evenodd" clip-rule="evenodd" d="M17.4741 5.82768C17.6261 6.3 17.6992 6.79492 17.6902 7.29183C17.7029 8.48526 17.7044 9.89414 17.6794 10.1884C17.6303 10.7537 17.4361 11.5703 16.9646 11.9726C16.493 12.3749 15.9199 12.2088 15.562 11.661C15.2041 11.1133 15.0784 10.5976 15.1047 9.04931C15.1309 7.501 15.0506 6.4288 15.336 5.79471C15.6213 5.16062 15.9184 4.8968 16.1901 4.84467C16.766 4.72815 17.1983 5.12136 17.4741 5.82768ZM16.2546 3.80042C16.9798 3.76871 17.7044 3.87436 18.3915 4.11197C19.3882 4.44012 20.2226 5.14535 20.7223 6.08176C21.3862 7.24127 21.4634 8.92432 20.995 10.2902C20.6412 11.3228 19.9097 12.177 18.9526 12.6751C18.1415 13.0488 17.257 13.2285 16.367 13.2006C15.3974 13.2006 14.1551 12.9842 13.3214 12.3096C12.5163 11.7175 11.9341 10.8637 11.6708 9.88943C11.4161 8.886 11.2598 7.09083 12.3113 5.67191C12.6672 5.18665 13.1149 4.77866 13.628 4.47193C14.1412 4.16521 14.7095 3.96594 15.2995 3.88584C15.6143 3.82495 15.9342 3.79592 16.2546 3.79916" fill="#EE3124"/>
<path d="M16.4807 3.52004C17.1646 3.51093 17.8447 3.62458 18.4897 3.85577C19.544 4.20513 20.4265 4.95224 20.9555 5.94333C21.3156 6.60286 21.52 7.33848 21.5527 8.09213C21.6002 8.86822 21.4973 9.64624 21.2498 10.382C20.8747 11.48 20.0977 12.3886 19.0805 12.9186C18.23 13.3145 17.3013 13.5056 16.3664 13.477C15.7535 13.477 14.2129 13.3844 13.1524 12.5264C12.3018 11.8967 11.6868 10.9917 11.4084 9.95986C11.2407 9.29262 11.1808 8.6021 11.2311 7.91532C11.2861 7.04491 11.5862 6.20899 12.0957 5.50742C12.4726 4.99491 12.9459 4.56375 13.4881 4.23901C14.0304 3.91426 14.6307 3.70243 15.2541 3.61582C15.5615 3.55762 15.8734 3.52704 16.1861 3.52444H16.2494C16.2756 3.5235 16.3584 3.52004 16.4807 3.52004ZM16.3661 12.9265C17.2112 12.9553 18.0517 12.787 18.8229 12.4343C19.7233 11.9725 20.4103 11.1709 20.7375 10.2007C21.1917 8.87509 21.091 7.27526 20.4867 6.22002C20.0184 5.33643 19.2311 4.67215 18.2909 4.36706C17.7083 4.16324 17.0957 4.06264 16.4797 4.06964C16.3485 4.06964 16.2691 4.07404 16.2685 4.07404H16.2531H16.1839C15.9027 4.0766 15.6223 4.10435 15.3458 4.15695C14.7889 4.23015 14.2522 4.4167 13.7677 4.70549C13.2832 4.99428 12.8608 5.37938 12.5259 5.83781C11.4161 7.33525 11.7903 9.26515 11.9315 9.82072C12.1785 10.7379 12.7283 11.5408 13.4884 12.0945C14.4167 12.8454 15.81 12.9265 16.3661 12.9265ZM16.3853 4.54921C16.7867 4.54921 17.3472 4.75335 17.7251 5.72631C17.8882 6.23025 17.9676 6.75829 17.9601 7.28877C17.9697 8.20928 17.9783 9.8603 17.9481 10.2124C17.92 10.5368 17.7786 11.6366 17.1375 12.1837C16.9342 12.3653 16.674 12.4672 16.4035 12.4711C16.1857 12.4604 15.974 12.3947 15.7875 12.2798C15.601 12.165 15.4456 12.0047 15.3353 11.8134C14.92 11.1803 14.807 10.5591 14.8326 9.04468C14.8385 8.69922 14.8391 8.38515 14.8394 8.08051C14.8413 7.00454 14.8425 6.22756 15.0883 5.68046C15.3844 5.02407 15.7368 4.65191 16.1382 4.57466C16.2197 4.55802 16.3025 4.5495 16.3856 4.54921H16.3853ZM16.4035 11.9205C16.5464 11.9169 16.6833 11.8612 16.7892 11.7635C17.1721 11.4366 17.3601 10.724 17.4086 10.1659C17.4321 9.89107 17.4315 8.51423 17.4185 7.29631C17.4273 6.83309 17.3607 6.37158 17.2215 5.93046C17.0745 5.55201 16.8102 5.10102 16.385 5.10102C16.3367 5.10125 16.2886 5.1063 16.2414 5.1161H16.2386C16.1151 5.13965 15.868 5.27313 15.5802 5.91067C15.3835 6.34816 15.3823 7.07552 15.3804 8.0824C15.3804 8.38923 15.3804 8.70644 15.3736 9.05599C15.3477 10.5889 15.4737 11.0346 15.7856 11.5101C15.8478 11.6247 15.9367 11.722 16.0444 11.7936C16.1522 11.8651 16.2753 11.9087 16.4035 11.9205Z" fill="#EE3124"/>
<path fill-rule="evenodd" clip-rule="evenodd" d="M25.6945 6.56004V12.8887L22.2842 12.8871V4.09058H25.7118V5.27428C26.0116 4.8475 26.4034 4.49611 26.8572 4.24698C27.3387 4.00614 27.8646 3.87076 28.4009 3.84961C28.9371 3.82846 29.4717 3.922 29.9702 4.12419C30.3789 4.29342 30.732 4.57727 30.9882 4.94268C31.2444 5.3081 31.3933 5.74004 31.4175 6.18819L31.4224 12.8871H28.0566V6.76292C28.0797 6.4314 27.9824 6.10276 27.7833 5.83927C27.6186 5.69365 27.4136 5.60341 27.1965 5.58092C26.9794 5.55843 26.7608 5.60479 26.5706 5.71365C26.1049 5.96678 25.6282 6.4922 25.6949 6.5591" fill="#EE3124"/>
<path d="M28.5922 3.56935C29.1014 3.56784 29.6056 3.67126 30.0744 3.87336C30.5293 4.06302 30.9221 4.37979 31.2073 4.78702C31.4925 5.19425 31.6585 5.6753 31.686 6.17449V6.19051L31.6913 13.1649H27.7853V6.76587C27.8078 6.49871 27.7327 6.23251 27.5744 6.01809C27.4433 5.90572 27.275 5.84844 27.1038 5.85791C26.9623 5.85722 26.8228 5.89207 26.6977 5.95935C26.4172 6.12091 26.1686 6.33387 25.9643 6.58748V13.168L22.0117 13.1661V3.81935H25.9801V4.54734C26.203 4.32637 26.4587 4.14249 26.7379 4.00245C27.3176 3.72251 27.9505 3.5747 28.5922 3.56935ZM31.1453 6.19898C31.1218 5.80371 30.9889 5.42324 30.762 5.10142C30.5351 4.77959 30.2234 4.5295 29.8629 4.37995C29.461 4.20687 29.0287 4.11841 28.5922 4.1199C28.0317 4.12425 27.4789 4.25286 26.9723 4.49677C26.5632 4.71313 26.2119 5.02743 25.9489 5.41258C25.9236 5.45403 25.8886 5.48842 25.847 5.5126C25.8053 5.53679 25.7584 5.55002 25.7105 5.55108H25.5984L25.4397 5.38997V4.36738H22.554V12.6134H25.423V6.60601C25.4158 6.56981 25.4149 6.53261 25.4202 6.49608C25.428 6.44144 25.4486 6.29666 25.7883 5.96626C25.9844 5.77382 26.2041 5.60798 26.442 5.47288C26.6458 5.36277 26.8731 5.30548 27.1038 5.30611C27.2681 5.29911 27.4319 5.32744 27.5847 5.38924C27.7375 5.45104 27.8757 5.54493 27.9904 5.66477C28.2299 5.97751 28.3494 6.36821 28.3266 6.76398V12.6124H31.1503L31.1453 6.19898Z" fill="#EE3124"/>
<path fill-rule="evenodd" clip-rule="evenodd" d="M32.9845 6.18353C33.6639 4.79476 35.3932 3.68612 37.5254 3.79667C39.6577 3.90722 40.8824 4.69771 41.6343 6.15213C42.0413 7.05222 42.2266 8.03963 42.1741 9.02892L36.0274 9.01102V10.8012C36.06 10.9954 36.1281 11.1817 36.2282 11.3505C36.3665 11.5389 36.9245 12.2697 38.5911 12.0018C40.4399 11.7041 40.3886 10.3687 40.4257 10.3687L41.8881 10.3618C41.8602 10.9139 41.6387 11.4376 41.2637 11.8379C40.4607 12.5747 39.4502 13.0362 38.3752 13.1569C37.1709 13.2826 35.4664 13.3184 34.0919 12.1535C33.4374 11.6027 32.9504 10.874 32.6875 10.0524C32.3151 8.76957 32.4208 7.39207 32.9845 6.18353ZM36.0219 7.8556C36.0083 7.28824 36.0337 6.7206 36.0979 6.15684C36.1704 5.68987 36.4058 5.26509 36.7611 4.96027C36.9629 4.82784 37.2015 4.76569 37.441 4.78319C37.6805 4.8007 37.9079 4.89691 38.089 5.05731C38.3209 5.28566 38.4867 5.57443 38.5682 5.89209C38.6624 6.27426 38.7083 6.66706 38.705 7.06102C38.6985 7.55535 38.6985 7.83424 38.705 7.85497H36.0225" fill="#EE3124"/>
<path d="M37.2331 3.51379C37.3341 3.51379 37.4366 3.5163 37.5379 3.52164C38.4789 3.53527 39.4029 3.77893 40.2318 4.23205C40.9378 4.65544 41.5078 5.27806 41.8728 6.02439C42.1731 6.64972 42.3574 7.32599 42.4166 8.0193C42.4475 8.32708 42.4543 8.58461 42.4546 8.7451C42.4546 9.08774 42.4373 9.11757 42.4052 9.17159L42.3261 9.30444H42.1717L36.2956 9.28717V10.7771C36.3202 10.9209 36.3698 11.0591 36.442 11.1853C36.806 11.6816 37.4375 11.7855 37.9035 11.7855C38.119 11.7842 38.3341 11.7658 38.5467 11.7306C39.4907 11.5786 40.029 11.1254 40.1423 10.3839C40.146 10.3609 40.1488 10.343 40.1525 10.3251C40.164 10.2605 40.1974 10.2019 40.2468 10.1595C40.2963 10.1172 40.3587 10.0937 40.4233 10.093L42.1621 10.0849L42.1566 10.3675C42.1276 10.9934 41.8758 11.5873 41.4482 12.0383C40.6022 12.818 39.5356 13.3058 38.4007 13.4321C38.0437 13.4719 37.6849 13.4929 37.3257 13.495C35.9269 13.495 34.8118 13.1262 33.9166 12.3678C33.225 11.7851 32.7098 11.0151 32.4304 10.1471C32.2456 9.55544 32.1673 8.93474 32.1994 8.31484C32.2225 7.5339 32.4068 6.76661 32.7401 6.0627C33.1315 5.30287 33.7305 4.67432 34.465 4.25277C35.3075 3.76237 36.2625 3.50741 37.2331 3.51379ZM41.9145 8.75326C41.9225 7.89995 41.7446 7.05542 41.3935 6.28035C40.6558 4.85295 39.458 4.17174 37.5107 4.07124C37.4181 4.06653 37.3254 4.06402 37.2328 4.06402C35.2213 4.06402 33.7706 5.19024 33.2252 6.30642C32.6932 7.44836 32.592 8.74925 32.9408 9.96208C33.1863 10.7376 33.6453 11.4252 34.2634 11.9435C35.0573 12.6162 36.0594 12.9431 37.3264 12.9431C37.6668 12.9414 38.0069 12.9218 38.3454 12.8844C39.3602 12.7677 40.3141 12.3327 41.0749 11.6398C41.3383 11.3655 41.5139 11.0166 41.5788 10.6389L40.645 10.6433C40.5856 10.9118 40.4697 11.164 40.3053 11.3826C39.883 11.8907 39.2822 12.211 38.631 12.2751C38.3904 12.3153 38.147 12.3363 37.9032 12.338C37.3134 12.338 36.5059 12.1957 36.0087 11.5176C35.8823 11.3146 35.7972 11.0879 35.7583 10.8509L35.7543 10.8276V8.73662L41.9145 8.75326ZM37.3724 4.50591C37.5396 4.50099 37.7061 4.53022 37.8621 4.59188C38.018 4.65354 38.1602 4.74637 38.2802 4.86488C38.5361 5.1174 38.7213 5.4347 38.8166 5.78413L38.825 5.81177C38.9272 6.22145 38.9772 6.64284 38.9735 7.0655C38.9667 7.5859 38.9686 7.75047 38.9701 7.80103L39.0748 8.13048H35.7543L35.749 7.8607C35.7345 7.27514 35.7613 6.68927 35.8293 6.10762C35.9121 5.56963 36.1869 5.08155 36.6013 4.73674C36.8291 4.58139 37.0982 4.50082 37.3724 4.50591ZM38.4272 7.58025C38.4272 7.4587 38.4294 7.291 38.4325 7.05765C38.4355 6.69215 38.3941 6.32768 38.309 5.97257L38.3 5.94116C38.2296 5.67766 38.0897 5.43873 37.8955 5.25023C37.7537 5.11797 37.5662 5.04818 37.3739 5.05614C37.2137 5.05173 37.0557 5.09543 36.9197 5.18177C36.6213 5.44467 36.4244 5.80668 36.3638 6.2034C36.3072 6.65946 36.2825 7.11905 36.29 7.57867L38.4272 7.58025Z" fill="#EE3124"/>
<path fill-rule="evenodd" clip-rule="evenodd" d="M64.0043 6.18353C64.6837 4.79476 66.4145 3.68612 68.5461 3.79667C70.6777 3.90722 71.9024 4.69771 72.6531 6.15213C73.0601 7.05205 73.243 8.04008 73.1855 9.02892L67.0463 9.01102V10.8012C67.0788 10.9954 67.1469 11.1817 67.247 11.3505C67.3863 11.5389 67.9433 12.2697 69.6099 12.0018C71.4596 11.7041 71.4084 10.359 71.4454 10.359L72.9069 10.3605C72.879 10.9127 72.6575 11.4363 72.2826 11.8366C71.4796 12.5735 70.4691 13.0349 69.3941 13.1557C68.1897 13.2813 66.4852 13.3171 65.1104 12.1523C64.4562 11.6012 63.9692 10.8726 63.706 10.0512C63.3347 8.7685 63.4409 7.39167 64.0043 6.18353ZM67.0422 7.8556C67.0286 7.28826 67.0537 6.72064 67.1173 6.15684C67.1902 5.69002 67.4256 5.26538 67.7806 4.96027C67.9824 4.82799 68.221 4.76593 68.4604 4.78343C68.6999 4.80094 68.9273 4.89705 69.1084 5.05731C69.3399 5.2859 69.5053 5.57461 69.5868 5.89209C69.6808 6.27429 69.7271 6.66704 69.7245 7.06102C69.7168 7.55535 69.7168 7.83424 69.7245 7.85497H67.0416" fill="#EE3124"/>
<path d="M68.2566 3.51379C68.3576 3.51379 68.4601 3.5163 68.5614 3.52164C69.5022 3.53537 70.4259 3.77903 71.2547 4.23204C71.9606 4.6555 72.5305 5.27811 72.8954 6.02439C73.1959 6.64974 73.3791 7.32659 73.4358 8.02024C73.4594 8.26153 73.471 8.50387 73.4707 8.74635C73.4707 9.08805 73.4509 9.11946 73.42 9.17159L73.341 9.30444H73.1866L67.3194 9.28716V10.7771C67.3441 10.9209 67.3936 11.0591 67.4658 11.1853C67.7597 11.5839 68.2513 11.7855 68.9273 11.7855C69.1427 11.7842 69.3576 11.7658 69.5702 11.7306C70.5145 11.5786 71.0525 11.1229 71.1667 10.3757C71.1704 10.3528 71.1732 10.3346 71.1769 10.3167C71.1884 10.2519 71.2217 10.1933 71.2712 10.1509C71.3206 10.1084 71.383 10.0849 71.4477 10.0843L73.1856 10.0864L73.1801 10.3669C73.1511 10.9928 72.8993 11.5866 72.4717 12.0377C71.6257 12.8174 70.5591 13.3052 69.4242 13.4315C69.0672 13.4713 68.7084 13.4923 68.3492 13.4943C66.9504 13.4943 65.8353 13.1256 64.9398 12.3672C64.2485 11.7843 63.7332 11.0146 63.4536 10.1467C63.2688 9.55511 63.1907 8.93441 63.2229 8.31452C63.2462 7.53363 63.4303 6.7664 63.7633 6.06239C64.1548 5.30245 64.754 4.67388 65.4888 4.25246C66.3312 3.7623 67.2861 3.50746 68.2566 3.51379ZM72.9309 8.75326C72.9428 7.90032 72.767 7.05547 72.4161 6.28066C71.6784 4.85326 70.4809 4.17174 68.5339 4.07156C68.4413 4.06685 68.3486 4.06434 68.256 4.06434C66.2439 4.06434 64.7931 5.19056 64.2478 6.30673C63.716 7.44875 63.6148 8.74954 63.9634 9.9624C64.212 10.7364 64.6704 11.4232 65.286 11.9438C66.0799 12.6165 67.0819 12.9435 68.3489 12.9435C68.6894 12.9417 69.0295 12.9221 69.368 12.8847C70.3827 12.768 71.3366 12.333 72.0974 11.6401C72.3612 11.3653 72.537 11.0157 72.6017 10.6373H71.6685C71.6091 10.9069 71.4932 11.1602 71.3288 11.3801C70.9073 11.8903 70.3058 12.2121 69.6536 12.2764C69.4131 12.3165 69.1698 12.3375 68.9261 12.3392C68.5694 12.3621 68.2124 12.2999 67.8835 12.1576C67.5546 12.0153 67.263 11.7968 67.0319 11.5195C66.9052 11.3163 66.8198 11.0894 66.7808 10.8521L66.7768 10.8289V8.73787L72.9309 8.75326ZM68.3953 4.50653C68.5626 4.50165 68.7292 4.5309 68.8852 4.59256C69.0412 4.65421 69.1835 4.74702 69.3037 4.8655C69.5592 5.11825 69.7441 5.43548 69.8395 5.78476L69.8478 5.81271C69.95 6.22222 70.0002 6.64334 69.9973 7.06581C69.9896 7.57114 69.9914 7.7401 69.9933 7.79506L70.1168 8.13142H66.7784L66.7731 7.86164C66.7586 7.27631 66.7851 6.69068 66.8525 6.10919C66.9357 5.57135 67.2104 5.08341 67.6245 4.73831C67.852 4.58247 68.121 4.50135 68.3953 4.5059V4.50653ZM69.4501 7.58087C69.4501 7.45839 69.4526 7.29068 69.456 7.05765C69.4578 6.69228 69.4155 6.32806 69.33 5.97319L69.321 5.94179C69.2506 5.67842 69.111 5.43955 68.9171 5.25086C68.7751 5.11881 68.5875 5.04916 68.3953 5.05708C68.235 5.05267 68.077 5.09636 67.941 5.1827C67.643 5.44585 67.4461 5.80775 67.3852 6.20435C67.329 6.66044 67.3045 7.12001 67.312 7.57962L69.4501 7.58087Z" fill="#EE3124"/>
<path fill-rule="evenodd" clip-rule="evenodd" d="M41.8753 4.09375H45.5923L47.1795 8.27515L48.8748 4.09375L53.5525 4.10568L55.0554 9.03393L56.378 4.09375H59.3594L60.8268 8.96012L62.1374 4.09375H63.6767L61.2962 12.8978H58.4945L56.9307 7.76198L55.5486 12.8978H52.6743L50.1131 4.39933L46.5181 13.3623C46.5181 13.3623 46.0008 14.8299 45.3638 15.4037C44.7267 15.9775 44.0298 16.4071 42.8752 16.1986C41.7206 15.9901 41.2642 15.3798 41.1799 14.6581C41.116 14.2938 41.1947 13.9185 41.3991 13.6123C41.6036 13.3062 41.9177 13.0935 42.2743 13.0197C43.0913 12.8611 43.6203 13.1786 43.8127 13.5828C43.994 13.9234 44.0374 14.3226 43.9334 14.6952C43.8661 14.8524 43.768 14.994 43.645 15.1113C43.8069 15.1387 43.973 15.1227 44.127 15.0647C44.2809 15.0068 44.4173 14.9089 44.5226 14.7809C44.8596 14.3917 45.1098 13.9329 45.256 13.4361C45.2929 13.3252 45.3172 13.2103 45.3286 13.0938L41.8771 4.09406" fill="#EE3124"/>
<path d="M48.6925 3.81996L53.7507 3.83284L55.0371 8.05099L56.1698 3.82028H59.5582L60.8107 7.97374L61.9295 3.81965H64.0293L61.5 13.1743H58.2931L56.9449 8.74601L55.7532 13.1743H52.4726L50.0754 5.21942L46.7694 13.4619C46.727 13.581 46.2086 15.0103 45.5419 15.6111C44.9852 16.1819 44.2324 16.5109 43.4421 16.5287C43.2356 16.5278 43.0297 16.5085 42.8266 16.471C41.3839 16.2112 40.988 15.3601 40.9099 14.6918C40.8564 14.2726 40.9434 13.8473 41.157 13.4846C41.2729 13.2922 41.4279 13.1272 41.6116 13.0005C41.7952 12.8739 42.0033 12.7886 42.222 12.7503C42.3746 12.7201 42.5297 12.7045 42.6852 12.7038C42.9609 12.6848 43.2362 12.7462 43.4787 12.8808C43.7213 13.0155 43.921 13.2177 44.0544 13.4638C44.2455 13.8416 44.3037 14.2745 44.2193 14.6906C44.2565 14.6605 44.2915 14.6278 44.324 14.5926C44.6305 14.2352 44.8588 13.8155 44.9935 13.3614C45.0259 13.2462 45.0416 13.173 45.0494 13.1294L41.479 3.81934H45.7753L47.1853 7.53374L48.6925 3.81996ZM45.4048 4.37083H42.2711L45.5972 13.0436V13.0954C45.5868 13.2379 45.5589 13.3784 45.5141 13.5138C45.3556 14.0529 45.0836 14.5504 44.7171 14.972C44.6003 15.105 44.4577 15.212 44.2983 15.2862C44.1388 15.3605 43.966 15.4004 43.7907 15.4035C43.7179 15.4045 43.6454 15.3965 43.5745 15.3796L43.0805 15.2474L43.4671 14.9057C43.5586 14.8154 43.632 14.7079 43.6832 14.5891C43.7546 14.2901 43.7136 13.9748 43.5681 13.705C43.4774 13.5533 43.3466 13.4306 43.1905 13.3511C43.0345 13.2715 42.8596 13.2383 42.6858 13.2553C42.5643 13.256 42.4431 13.2683 42.3239 13.292C42.0353 13.3541 41.782 13.5286 41.6182 13.7781C41.4544 14.0277 41.3932 14.3325 41.4475 14.6274C41.5309 15.3403 42.0129 15.7662 42.9214 15.9295C43.0933 15.9614 43.2676 15.9779 43.4424 15.9788C43.7686 15.9719 44.0904 15.8995 44.3891 15.7659C44.6878 15.6322 44.9576 15.4399 45.1831 15.2C45.7605 14.6796 46.2574 13.2842 46.2639 13.271L46.2679 13.26L49.8323 4.37209L49.0566 4.3702L47.4283 8.38201L46.9256 8.37636L45.4048 4.37083ZM59.1574 4.37083H56.5833L55.315 9.10812L54.7953 9.11723L53.3514 4.38214L50.3869 4.3746L52.8731 12.6243H55.3407L56.6685 7.69108L57.1882 7.68228L58.6927 12.6243H61.0886L63.3203 4.37083H62.3424L61.0865 9.03463L60.5668 9.04248L59.1574 4.37083Z" fill="#EE3124"/>
<path fill-rule="evenodd" clip-rule="evenodd" d="M74.21 0.8125H77.4832V12.9079H74.21V0.8125Z" fill="#EE3124"/>
<path d="M73.9404 0.532227H77.755V13.1782H73.9404V0.532227ZM77.2137 1.08278H74.4814V12.6276H77.2137V1.08278Z" fill="#EE3124"/>
<path fill-rule="evenodd" clip-rule="evenodd" d="M78.5049 0.820312H81.7782V12.9157H78.5049V0.820312Z" fill="#EE3124"/>
<path d="M78.2354 0.545898H82.0499V13.1919H78.2354V0.545898ZM81.5086 1.09645H78.7767V12.6413H81.5089L81.5086 1.09645Z" fill="#EE3124"/>
</svg>
