<svg width="88" height="33" viewBox="0 0 88 33" fill="none" xmlns="http://www.w3.org/2000/svg">
<rect x="0.5" y="1.30078" width="87" height="31" rx="15.5" stroke="#3366FF" stroke-opacity="0.666667"/>
<path d="M22.3247 15.7063L17.969 12.1929C17.8149 12.0686 17.6236 12.001 17.4263 12.001C17.229 12.001 17.0376 12.0686 16.8836 12.1929L14.17 14.3801V13.0239C14.17 12.9775 14.1517 12.933 14.1191 12.9002C14.0866 12.8674 14.0424 12.8489 13.9963 12.8489H13.2563C13.2103 12.8489 13.1661 12.8674 13.1335 12.9002C13.1009 12.933 13.0826 12.9775 13.0826 13.0239V15.257L12.5292 15.7063C12.3639 15.8396 12.2306 16.0086 12.139 16.2009C12.0474 16.3932 11.9999 16.6038 12 16.8171V20.7261C12 20.9581 12.0915 21.1807 12.2543 21.3447C12.4171 21.5088 12.638 21.601 12.8682 21.601H21.9922C22.0552 21.6006 22.1166 21.5805 22.1677 21.5434C22.2189 21.5064 22.2574 21.4542 22.2778 21.3941C22.2983 21.3341 22.2997 21.2691 22.2819 21.2082C22.2641 21.1473 22.228 21.0935 22.1785 21.0542L20.6871 19.8502L20.658 19.5894L20.343 19.3351L20.2969 19.3804C20.1054 19.5608 19.8829 19.7044 19.6402 19.8041C19.4496 19.8829 19.249 19.9344 19.0442 19.9572C18.9042 19.9726 18.7632 19.9751 18.6228 19.9644C18.1942 19.9323 17.7835 19.7778 17.4389 19.519C17.0943 19.2602 16.83 18.9078 16.6771 18.5031C16.5241 18.0984 16.4888 17.6581 16.5752 17.2339C16.6616 16.8097 16.8662 16.4191 17.165 16.1078C17.4639 15.7966 17.8445 15.5776 18.2625 15.4765C18.6804 15.3754 19.1182 15.3964 19.5247 15.537C19.9312 15.6777 20.2895 15.9321 20.5577 16.2706C20.8258 16.609 20.9927 17.0175 21.0387 17.448C21.0689 17.7204 21.0486 17.996 20.9791 18.261C20.9238 18.4733 20.8365 18.6758 20.7204 18.8615L21.0353 19.1159L21.2941 19.0866L22.5713 20.1183C22.5968 20.1389 22.6276 20.1518 22.66 20.1555C22.6925 20.1593 22.7253 20.1537 22.7547 20.1395C22.7842 20.1253 22.8091 20.103 22.8266 20.0752C22.844 20.0474 22.8533 20.0152 22.8535 19.9823V16.8135C22.8531 16.6008 22.8054 16.391 22.7139 16.1994C22.6224 16.0077 22.4894 15.8392 22.3247 15.7063Z" fill="#3366FF"/>
<path d="M19.3174 16.4654C19.1376 16.3896 18.9436 16.354 18.7488 16.3613C18.5541 16.3685 18.3632 16.4183 18.1895 16.5073C17.9438 16.6359 17.7442 16.8387 17.6187 17.0874C17.4932 17.336 17.4481 17.618 17.4897 17.8938C17.5312 18.1696 17.6574 18.4253 17.8506 18.6252C18.0437 18.8251 18.2941 18.959 18.5666 19.0083C18.7537 19.0414 18.9456 19.0341 19.1298 18.987C19.3139 18.9399 19.486 18.8539 19.6348 18.7349C19.8117 18.5894 19.9484 18.4005 20.0317 18.1863C20.115 17.9721 20.1421 17.7399 20.1105 17.5121C20.0788 17.2842 19.9894 17.0685 19.8509 16.8856C19.7125 16.7027 19.5295 16.5588 19.3198 16.4679L19.3174 16.4654Z" fill="#3366FF"/>
<path d="M27.0752 19.8129V13.2229H28.4649V15.9419H31.286V13.2229H32.6725V19.8129H31.286V17.0907H28.4649V19.8129H27.0752Z" fill="#3366FF"/>
<path d="M36.0199 19.9095C35.5214 19.9095 35.0903 19.8033 34.7265 19.5909C34.3649 19.3764 34.0857 19.0782 33.8889 18.6964C33.692 18.3124 33.5936 17.8673 33.5936 17.361C33.5936 16.8504 33.692 16.4042 33.8889 16.0224C34.0857 15.6384 34.3649 15.3402 34.7265 15.1278C35.0903 14.9133 35.5214 14.8061 36.0199 14.8061C36.5185 14.8061 36.9485 14.9133 37.3101 15.1278C37.6739 15.3402 37.9542 15.6384 38.151 16.0224C38.3479 16.4042 38.4463 16.8504 38.4463 17.361C38.4463 17.8673 38.3479 18.3124 38.151 18.6964C37.9542 19.0782 37.6739 19.3764 37.3101 19.5909C36.9485 19.8033 36.5185 19.9095 36.0199 19.9095ZM36.0264 18.8476C36.2532 18.8476 36.4425 18.7832 36.5944 18.6545C36.7463 18.5237 36.8608 18.3456 36.9378 18.1204C37.017 17.8951 37.0566 17.6388 37.0566 17.3513C37.0566 17.0639 37.017 16.8075 36.9378 16.5823C36.8608 16.357 36.7463 16.179 36.5944 16.0481C36.4425 15.9173 36.2532 15.8518 36.0264 15.8518C35.7974 15.8518 35.6048 15.9173 35.4487 16.0481C35.2946 16.179 35.178 16.357 35.0988 16.5823C35.0218 16.8075 34.9833 17.0639 34.9833 17.3513C34.9833 17.6388 35.0218 17.8951 35.0988 18.1204C35.178 18.3456 35.2946 18.5237 35.4487 18.6545C35.6048 18.7832 35.7974 18.8476 36.0264 18.8476Z" fill="#3366FF"/>
<path d="M42.4966 17.7085V14.8704H43.8638V19.8129H42.5512V18.9152H42.4998C42.3886 19.2048 42.2035 19.4375 41.9446 19.6134C41.6878 19.7893 41.3744 19.8773 41.0042 19.8773C40.6747 19.8773 40.3848 19.8022 40.1344 19.6521C39.8841 19.5019 39.6883 19.2884 39.5471 19.0117C39.408 18.735 39.3374 18.4035 39.3353 18.0174V14.8704H40.7025V17.7729C40.7047 18.0646 40.7828 18.2952 40.9368 18.4647C41.0909 18.6342 41.2973 18.7189 41.5562 18.7189C41.721 18.7189 41.875 18.6814 42.0184 18.6063C42.1617 18.529 42.2773 18.4153 42.365 18.2652C42.4549 18.115 42.4987 17.9295 42.4966 17.7085Z" fill="#3366FF"/>
<path d="M44.9318 19.8129V18.9956L47.3453 15.9999V15.9645H45.0152V14.8704H48.9917V15.7617L46.7259 18.6835V18.7189H49.0752V19.8129H44.9318Z" fill="#3366FF"/>
<path d="M52.6272 17.5219H53.8083L54.4021 18.2877L54.9862 18.9699L56.087 20.3535H54.7904L54.033 19.4204L53.6446 18.8669L52.6272 17.5219ZM56.1865 16.5179C56.1865 17.2366 56.0506 17.8479 55.7789 18.3521C55.5093 18.8562 55.1413 19.2412 54.6749 19.5073C54.2106 19.7711 53.6885 19.903 53.1086 19.903C52.5245 19.903 52.0003 19.77 51.536 19.504C51.0717 19.238 50.7048 18.853 50.4352 18.3488C50.1656 17.8447 50.0308 17.2344 50.0308 16.5179C50.0308 15.7993 50.1656 15.1879 50.4352 14.6838C50.7048 14.1797 51.0717 13.7957 51.536 13.5318C52.0003 13.2658 52.5245 13.1328 53.1086 13.1328C53.6885 13.1328 54.2106 13.2658 54.6749 13.5318C55.1413 13.7957 55.5093 14.1797 55.7789 14.6838C56.0506 15.1879 56.1865 15.7993 56.1865 16.5179ZM54.7776 16.5179C54.7776 16.0524 54.708 15.6598 54.5689 15.3402C54.432 15.0206 54.2384 14.7782 53.988 14.613C53.7377 14.4478 53.4446 14.3652 53.1086 14.3652C52.7727 14.3652 52.4796 14.4478 52.2293 14.613C51.9789 14.7782 51.7842 15.0206 51.6451 15.3402C51.5082 15.6598 51.4397 16.0524 51.4397 16.5179C51.4397 16.9834 51.5082 17.376 51.6451 17.6956C51.7842 18.0153 51.9789 18.2577 52.2293 18.4229C52.4796 18.588 52.7727 18.6706 53.1086 18.6706C53.4446 18.6706 53.7377 18.588 53.988 18.4229C54.2384 18.2577 54.432 18.0153 54.5689 17.6956C54.708 17.376 54.7776 16.9834 54.7776 16.5179Z" fill="#3366FF"/>
<path d="M60.3516 17.7085V14.8704H61.7188V19.8129H60.4061V18.9152H60.3548C60.2435 19.2048 60.0584 19.4375 59.7995 19.6134C59.5428 19.7893 59.2293 19.8773 58.8592 19.8773C58.5297 19.8773 58.2398 19.8022 57.9894 19.6521C57.7391 19.5019 57.5433 19.2884 57.4021 19.0117C57.263 18.735 57.1924 18.4035 57.1903 18.0174V14.8704H58.5575V17.7729C58.5596 18.0646 58.6377 18.2952 58.7918 18.4647C58.9458 18.6342 59.1523 18.7189 59.4112 18.7189C59.576 18.7189 59.73 18.6814 59.8734 18.6063C60.0167 18.529 60.1323 18.4153 60.22 18.2652C60.3099 18.115 60.3537 17.9295 60.3516 17.7085Z" fill="#3366FF"/>
<path d="M65.059 19.9095C64.5519 19.9095 64.1155 19.8065 63.7496 19.6006C63.3858 19.3925 63.1055 19.0986 62.9087 18.7189C62.7119 18.337 62.6134 17.8855 62.6134 17.3642C62.6134 16.8558 62.7119 16.4096 62.9087 16.0256C63.1055 15.6416 63.3826 15.3424 63.74 15.1278C64.0994 14.9133 64.5209 14.8061 65.0045 14.8061C65.3297 14.8061 65.6325 14.8586 65.9128 14.9637C66.1952 15.0667 66.4412 15.2222 66.6509 15.4303C66.8627 15.6384 67.0275 15.9001 67.1452 16.2155C67.2629 16.5287 67.3217 16.8955 67.3217 17.3159V17.6924H63.159V16.8429H66.0347C66.0347 16.6456 65.9919 16.4707 65.9063 16.3184C65.8207 16.1661 65.702 16.0471 65.5501 15.9612C65.4003 15.8733 65.2259 15.8293 65.0269 15.8293C64.8194 15.8293 64.6354 15.8776 64.4749 15.9741C64.3166 16.0685 64.1925 16.1961 64.1026 16.357C64.0128 16.5158 63.9668 16.6928 63.9646 16.888V17.6956C63.9646 17.9402 64.0095 18.1515 64.0994 18.3295C64.1914 18.5076 64.3209 18.6449 64.4878 18.7414C64.6546 18.838 64.8526 18.8862 65.0815 18.8862C65.2334 18.8862 65.3725 18.8648 65.4987 18.8219C65.625 18.779 65.733 18.7146 65.8229 18.6288C65.9128 18.543 65.9812 18.4379 66.0283 18.3135L67.2928 18.3971C67.2286 18.7017 67.097 18.9677 66.8981 19.1951C66.7012 19.4204 66.4466 19.5963 66.1342 19.7228C65.824 19.8473 65.4656 19.9095 65.059 19.9095Z" fill="#3366FF"/>
<path d="M72.3156 16.2798L71.0639 16.357C71.0425 16.2498 70.9965 16.1532 70.9259 16.0674C70.8553 15.9795 70.7622 15.9098 70.6467 15.8583C70.5333 15.8046 70.3974 15.7778 70.2391 15.7778C70.0273 15.7778 69.8486 15.8229 69.7031 15.913C69.5576 16.0009 69.4849 16.1189 69.4849 16.2669C69.4849 16.3849 69.5319 16.4847 69.6261 16.5662C69.7202 16.6477 69.8818 16.7131 70.1107 16.7625L71.0029 16.9427C71.4822 17.0414 71.8395 17.2001 72.0749 17.4189C72.3103 17.6377 72.4279 17.9252 72.4279 18.2813C72.4279 18.6052 72.3327 18.8894 72.1423 19.134C71.954 19.3785 71.6951 19.5695 71.3656 19.7068C71.0382 19.8419 70.6606 19.9095 70.2327 19.9095C69.5801 19.9095 69.0602 19.7733 68.6729 19.5008C68.2877 19.2262 68.062 18.853 67.9957 18.381L69.3404 18.3102C69.3811 18.5097 69.4795 18.662 69.6357 18.7672C69.7919 18.8701 69.992 18.9216 70.2359 18.9216C70.4755 18.9216 70.6681 18.8755 70.8136 18.7832C70.9612 18.6889 71.0361 18.5677 71.0382 18.4196C71.0361 18.2952 70.9837 18.1933 70.881 18.1139C70.7783 18.0324 70.6199 17.9702 70.406 17.9273L69.5523 17.7568C69.0708 17.6602 68.7125 17.4929 68.4771 17.2548C68.2439 17.0167 68.1273 16.7131 68.1273 16.3442C68.1273 16.0267 68.2129 15.7532 68.384 15.5236C68.5573 15.2941 68.8002 15.1171 69.1126 14.9927C69.4271 14.8683 69.7951 14.8061 70.2166 14.8061C70.8393 14.8061 71.3292 14.938 71.6865 15.2019C72.046 15.4657 72.2557 15.825 72.3156 16.2798Z" fill="#3366FF"/>
<path d="M75.911 14.8704V15.9001H72.9422V14.8704H75.911ZM73.6162 13.6863H74.9835V18.2941C74.9835 18.4207 75.0027 18.5194 75.0412 18.5902C75.0797 18.6588 75.1332 18.7071 75.2017 18.735C75.2723 18.7629 75.3536 18.7768 75.4456 18.7768C75.5098 18.7768 75.574 18.7714 75.6382 18.7607C75.7024 18.7479 75.7516 18.7382 75.7858 18.7318L76.0009 19.7518C75.9324 19.7733 75.8361 19.7979 75.712 19.8258C75.5879 19.8558 75.4371 19.8741 75.2595 19.8805C74.93 19.8934 74.6411 19.8494 74.3929 19.7486C74.1469 19.6478 73.9554 19.4912 73.8184 19.2788C73.6815 19.0664 73.6141 18.7983 73.6162 18.4743V13.6863Z" fill="#3366FF"/>
</svg>
