<svg width="56" height="57" viewBox="0 0 56 57" fill="none" xmlns="http://www.w3.org/2000/svg">
<circle cx="28" cy="28.5283" r="27.25" stroke="#335FFF" stroke-width="1.5"/>
<path d="M27.7334 19.4648C27.317 19.0488 26.6419 19.0487 26.2256 19.4648L17.2256 28.4658C17.1909 28.5005 17.1909 28.5571 17.2256 28.5918L26.2256 37.5918C26.6159 37.9821 27.2335 38.0064 27.6523 37.665L27.7334 37.5918C28.1498 37.1754 28.1498 36.5004 27.7334 36.084L21.9277 30.2773L21.2451 29.5947H37.7324C38.3213 29.5947 38.7988 29.1172 38.7988 28.5283C38.7987 27.9395 38.3213 27.4619 37.7324 27.4619H21.2451L27.7334 20.9736C28.1498 20.5572 28.1498 19.8813 27.7334 19.4648Z" fill="#335FFF" stroke="white" stroke-width="0.8"/>
</svg>
