<svg width="24" height="25" viewBox="0 0 24 25" fill="none" xmlns="http://www.w3.org/2000/svg">
<path d="M23.2616 11.4985L20.5609 8.79775C20.0847 8.32164 19.4516 8.05942 18.7781 8.05942H16.4687V3.49066C16.4687 2.27242 15.4776 1.28125 14.2594 1.28125H2.20936C0.991125 1.28125 0 2.27242 0 3.49066V19.3063C0 20.5245 0.991125 21.5157 2.20936 21.5157H3.0975C3.41405 22.8108 4.58372 23.7751 5.97502 23.7751C7.36631 23.7751 8.53594 22.8108 8.85248 21.5157H15.1475C15.4641 22.8108 16.6337 23.7751 18.025 23.7751C19.4162 23.7751 20.586 22.8108 20.9025 21.5157H21.7906C23.0028 21.5157 24 20.5358 24 19.3063V13.2813C24 12.6078 23.7378 11.9747 23.2616 11.4985ZM5.97502 22.3688C5.11688 22.3688 4.41877 21.6707 4.41877 20.8126C4.41877 19.9545 5.11692 19.2563 5.97502 19.2563C6.83311 19.2563 7.53127 19.9545 7.53127 20.8126C7.53127 21.6707 6.83311 22.3688 5.97502 22.3688ZM15.0625 20.1094H8.85319C8.53673 18.8141 7.36636 17.85 5.97502 17.85C4.58367 17.85 3.41325 18.8141 3.0968 20.1094H2.20936C1.76653 20.1094 1.40625 19.7491 1.40625 19.3063V16.2438H15.0625V20.1094ZM15.0625 14.8375H1.40625V3.49066C1.40625 3.04783 1.76653 2.6875 2.20936 2.6875H14.2594C14.7022 2.6875 15.0625 3.04783 15.0625 3.49066V14.8375ZM18.025 22.3688C17.1668 22.3688 16.4687 21.6707 16.4687 20.8126C16.4687 19.9545 17.1668 19.2563 18.025 19.2563C18.8831 19.2563 19.5812 19.9545 19.5812 20.8126C19.5812 21.6707 18.8831 22.3688 18.025 22.3688ZM22.5938 19.3063C22.5938 19.7539 22.23 20.1094 21.7906 20.1094H20.9032C20.5867 18.8142 19.4163 17.8501 18.025 17.8501C17.4546 17.8501 16.9213 18.0122 16.4687 18.2926V9.46567H18.075V15.5407C18.075 15.929 18.3898 16.2438 18.7781 16.2438H22.5938V19.3063ZM22.5938 14.8375H19.4813V9.71509C19.5108 9.73914 19.5392 9.76488 19.5665 9.79216L22.2672 12.4929C22.4778 12.7034 22.5938 12.9835 22.5938 13.2813V14.8375Z" fill="white"/>
</svg>
