<svg width="98" height="32" viewBox="0 0 98 32" fill="none" xmlns="http://www.w3.org/2000/svg">
<g clip-path="url(#clip0_4295_255)">
<path fill-rule="evenodd" clip-rule="evenodd" d="M15.8148 31.5279C24.549 31.5279 31.6296 24.4914 31.6296 15.8113C31.6296 7.13118 24.549 0.0947266 15.8148 0.0947266C7.08064 0.0947266 0 7.13118 0 15.8113C0 24.4914 7.08064 31.5279 15.8148 31.5279ZM17.6952 20.9441C18.0686 17.1498 19.9412 12.6143 25.3411 11.5818C23.7271 7.90426 20.0359 5.33359 15.7407 5.33359C9.95876 5.33359 5.27161 9.99163 5.27161 15.7376C5.27161 18.1398 6.09083 20.352 7.46711 22.1132C9.97724 20.3259 13.6361 19.1102 17.6952 20.9441Z" fill="#FF4F5E"/>
<path d="M86.1454 28.467C85.155 28.467 84.1094 28.2497 83.3667 27.8423L84.3295 25.4253C84.8796 25.6968 85.4573 25.7783 85.9529 25.7783C87.191 25.7783 87.9889 25.1808 88.4016 23.9316L88.8144 22.7095H87.9061L82.7891 9.07617H86.2006L89.8876 19.6135H90.0525L93.2716 9.07617H96.6279L91.5654 24.4204C90.713 27.0004 88.7315 28.467 86.1454 28.467Z" fill="#343132"/>
<path d="M79.4297 22.71V3.15625H82.5666V22.71H79.4297Z" fill="#343132"/>
<path d="M74.7773 22.71V3.15625H77.9142V22.71H74.7773Z" fill="#343132"/>
<path d="M67.2698 23.0361C63.1703 23.0361 60.2539 20.0215 60.2539 15.8935C60.2539 11.7927 63.1428 8.75098 67.2423 8.75098C70.9843 8.75098 73.7906 11.331 73.7906 15.4046C73.7906 15.812 73.763 16.2737 73.7078 16.6811H63.528C63.7481 18.908 65.2063 20.3202 67.2698 20.3202C68.7556 20.3202 70.0487 19.5598 70.379 18.5278H73.6256C73.1577 21.135 70.544 23.0361 67.2698 23.0361ZM63.6381 14.3998H70.4611C70.2963 12.6617 69.0858 11.4668 67.2974 11.4668C65.509 11.4668 64.0507 12.6617 63.6381 14.3998Z" fill="#343132"/>
<path d="M47.8829 14.4542C47.8829 12.6617 46.9475 11.6025 45.4342 11.6025C43.7834 11.6025 42.7654 12.879 42.7654 14.8344V22.7102H39.6289V9.07689H42.3802L42.5453 10.5434H42.7104C43.3157 9.42992 44.6639 8.75098 46.3147 8.75098C47.993 8.75098 49.5338 9.48422 50.1665 10.6792H50.3316C51.2121 9.4571 52.7253 8.75098 54.4862 8.75098C57.4577 8.75098 59.2736 10.7878 59.2736 14.0468V22.7102H56.137V14.4542C56.137 12.6617 55.174 11.6025 53.6333 11.6025C51.9549 11.6025 51.0195 12.7975 51.0195 14.8344V22.7102H47.8829V14.4542Z" fill="#343132"/>
</g>
<defs>
<clipPath id="clip0_4295_255">
<rect y="0.0947266" width="97.4398" height="31.4332" rx="15.7166" fill="white"/>
</clipPath>
</defs>
</svg>
