<svg width="49" height="49" viewBox="0 0 49 49" fill="none" xmlns="http://www.w3.org/2000/svg">
<mask id="mask0_4382_743" style="mask-type:luminance" maskUnits="userSpaceOnUse" x="2" y="10" width="45" height="29">
<path d="M46.5621 10.1641H2.92578V38.4498H46.5621V10.1641Z" fill="white"/>
</mask>
<g mask="url(#mask0_4382_743)">
<path d="M7.63904 28.7129C7.63904 30.3297 8.00475 31.5711 8.48276 32.3221C9.10947 33.3059 10.0443 33.7226 10.9972 33.7226C12.2263 33.7226 13.3508 33.4267 15.5178 30.5183C17.2537 28.1871 19.2993 24.9151 20.6757 22.8637L23.0065 19.3884C24.6256 16.9748 26.4997 14.2917 28.6485 12.4731C30.4026 10.9887 32.2949 10.1641 34.1994 10.1641C37.3966 10.1641 40.4421 11.9621 42.773 15.3343C45.3239 19.0276 46.5621 23.6795 46.5621 28.4802C46.5621 31.334 45.9825 33.431 44.9961 35.0877C44.0431 36.6899 42.1858 38.2906 39.0613 38.2906V33.7226C41.7366 33.7226 42.4043 31.337 42.4043 28.6069C42.4043 24.7162 41.4695 20.3986 39.4103 17.3135C37.949 15.1252 36.0552 13.7881 33.9717 13.7881C31.7183 13.7881 29.9048 15.4375 27.8669 18.3782C26.7834 19.9406 25.6711 21.8447 24.4223 23.9932L23.0475 26.3567C20.2856 31.1088 19.5861 32.1911 18.2052 33.9774C15.7848 37.1052 13.718 38.2906 10.9972 38.2906C7.76955 38.2906 5.72854 36.9343 4.4645 34.8904C3.43262 33.2249 2.92578 31.0395 2.92578 28.5494L7.63904 28.7129Z" fill="#0081FB"/>
<path d="M6.64453 15.6569C8.80541 12.4245 11.9238 10.1641 15.5005 10.1641C17.5719 10.1641 19.6311 10.759 21.7813 12.4628C24.1334 14.3257 26.6403 17.393 29.7678 22.4485L30.8891 24.2627C33.5963 28.6393 35.1365 30.8908 36.0379 31.9525C37.1973 33.3162 38.0091 33.7226 39.0637 33.7226C41.7391 33.7226 42.4067 31.337 42.4067 28.6069L46.5646 28.4802C46.5646 31.334 45.985 33.431 44.9986 35.0877C44.0456 36.6899 42.1883 38.2906 39.0637 38.2906C37.1214 38.2906 35.4006 37.8812 33.4976 36.1392C32.0349 34.802 30.3247 32.4267 29.009 30.2915L25.0955 23.9475C23.1318 20.7638 21.3306 18.39 20.2881 17.3149C19.1667 16.159 17.7251 14.763 15.4246 14.763C13.5627 14.763 11.9815 16.0309 10.6583 17.9703L6.64453 15.6569Z" fill="url(#paint0_linear_4382_743)"/>
<path d="M15.4222 14.763C13.5602 14.763 11.979 16.0309 10.6558 17.9703C8.78473 20.7108 7.63904 24.7928 7.63904 28.7129C7.63904 30.3297 8.00475 31.5711 8.48276 32.3221L4.4645 34.8904C3.43262 33.2249 2.92578 31.0395 2.92578 28.5494C2.92578 24.0211 4.20653 19.3015 6.64206 15.6569C8.80295 12.4245 11.9213 10.1641 15.498 10.1641L15.4222 14.763Z" fill="url(#paint1_linear_4382_743)"/>
</g>
<defs>
<linearGradient id="paint0_linear_4382_743" x1="560.673" y1="1583.39" x2="3561.18" y2="1739.54" gradientUnits="userSpaceOnUse">
<stop stop-color="#0064E1"/>
<stop offset="0.4" stop-color="#0064E1"/>
<stop offset="0.83" stop-color="#0073EE"/>
<stop offset="1" stop-color="#0082FB"/>
</linearGradient>
<linearGradient id="paint1_linear_4382_743" x1="685.787" y1="2057.07" x2="685.787" y2="982.077" gradientUnits="userSpaceOnUse">
<stop stop-color="#0082FB"/>
<stop offset="1" stop-color="#0064E0"/>
</linearGradient>
</defs>
</svg>
