<svg width="40" height="41" viewBox="0 0 40 41" fill="none" xmlns="http://www.w3.org/2000/svg">
<g clip-path="url(#clip0_4183_3238)">
<path d="M34.1422 6.38613C30.3646 2.60871 25.3422 0.52832 20 0.52832C14.6578 0.52832 9.63539 2.60871 5.85781 6.38613C2.08039 10.1637 0 15.1861 0 20.5283C0 25.8705 2.08039 30.8929 5.85781 34.6705C9.63539 38.4479 14.6578 40.5283 20 40.5283C25.3422 40.5283 30.3646 38.4479 34.1422 34.6705C37.9196 30.8929 40 25.8705 40 20.5283C40 15.1861 37.9196 10.1637 34.1422 6.38613ZM20 38.1846C10.2643 38.1846 2.34375 30.264 2.34375 20.5283C2.34375 10.7926 10.2643 2.87207 20 2.87207C29.7357 2.87207 37.6562 10.7926 37.6562 20.5283C37.6562 30.264 29.7357 38.1846 20 38.1846Z" fill="#335FFF"/>
<path d="M20.0001 17.0029C19.516 17.0029 18.6338 17.1413 16.5711 18.3379C15.5288 18.9425 14.6634 19.539 14.627 19.5641C14.3102 19.7829 14.1211 20.1433 14.1211 20.5283C14.1211 20.9133 14.3102 21.2737 14.627 21.4925C14.6634 21.5176 15.5288 22.1142 16.5711 22.7187C18.6337 23.9153 19.5159 24.0537 20.0001 24.0537C21.944 24.0537 23.5255 22.4722 23.5255 20.5283C23.5255 18.5844 21.944 17.0029 20.0001 17.0029ZM20.0013 21.71C19.6409 21.7008 18.6108 21.2089 17.4645 20.5281C18.6095 19.8479 19.6391 19.3563 20.0009 19.3467C20.6521 19.3471 21.1817 19.877 21.1817 20.5283C21.1817 21.1799 20.6516 21.71 20.0013 21.71Z" fill="#335FFF"/>
<path d="M21.3803 31.2405L20.8542 30.8912L21.7374 29.4182C22.0702 28.8632 21.8899 28.1434 21.3349 27.8106C20.7798 27.4776 20.0599 27.6581 19.7272 28.2131L18.2686 30.646C17.9466 31.1831 18.1039 31.8785 18.6256 32.2249L19.1517 32.5742L18.2685 34.0471C17.9357 34.6022 18.116 35.322 18.671 35.6548C18.8597 35.7679 19.0674 35.8218 19.2724 35.8218C19.6707 35.8218 20.059 35.6186 20.2787 35.2523L21.7373 32.8194C22.0593 32.2823 21.9021 31.5869 21.3803 31.2405Z" fill="#335FFF"/>
<path d="M35.2921 20.3716C35.2514 16.3062 33.6442 12.4989 30.7667 9.65098C27.8895 6.80355 24.0659 5.23535 19.9999 5.23535C11.5673 5.23535 4.70703 12.0957 4.70703 20.5283C4.70703 23.5451 5.58445 26.4634 7.24445 28.9675C7.83125 29.8527 8.77367 30.4211 9.83023 30.5272C9.94914 30.5391 10.0678 30.5451 10.1859 30.5451C11.1159 30.5451 12.0071 30.1786 12.6774 29.5083C13.8574 28.3284 14.0462 26.4654 13.1263 25.0784C12.231 23.7288 11.7578 22.1554 11.7578 20.5283C11.7578 18.3046 12.63 16.22 14.2138 14.6586C15.7973 13.0976 17.897 12.2579 20.1204 12.287C22.3102 12.3181 24.3642 13.2093 25.9042 14.7961C27.4441 16.383 28.2741 18.4635 28.2413 20.6544C28.2177 22.2381 27.7434 23.7702 26.8697 25.0847C25.951 26.4668 26.1437 28.3293 27.3279 29.5135C28.0777 30.2633 29.1123 30.6325 30.1674 30.5261C31.2276 30.4192 32.1737 29.8472 32.763 28.9564C34.4484 26.4089 35.323 23.4403 35.2921 20.3716ZM11.015 27.8561C10.7641 28.107 10.4176 28.2314 10.0641 28.1952C9.71031 28.1597 9.39461 27.9692 9.19797 27.6726C7.79328 25.5535 7.05078 23.0831 7.05078 20.5283C7.05078 17.3793 8.18117 14.4895 10.0569 12.2425L11.7313 13.9169C10.2295 15.7868 9.41406 18.0924 9.41406 20.5283C9.41406 22.6177 10.0223 24.639 11.173 26.3738C11.479 26.8352 11.4146 27.4564 11.015 27.8561ZM20.1536 9.94355C17.6667 9.90809 15.3013 10.7243 13.3886 12.2596L11.7141 10.5852C13.9612 8.70949 16.8509 7.5791 19.9999 7.5791C23.1388 7.5791 26.0287 8.71332 28.2786 10.5925L26.6033 12.2678C24.7725 10.794 22.5259 9.97723 20.1536 9.94355ZM30.8083 27.6632C30.6088 27.9645 30.2895 28.1581 29.9323 28.1941C29.7256 28.215 29.3278 28.1988 28.9852 27.8562C28.5872 27.4582 28.5184 26.8383 28.8216 26.3821C29.9447 24.6922 30.5544 22.7237 30.5847 20.6894C30.6217 18.2117 29.8019 15.8457 28.2593 13.9263L29.9366 12.2489C31.7886 14.465 32.9175 17.304 32.9485 20.3952C32.9746 22.9941 32.2346 25.5074 30.8083 27.6632Z" fill="#335FFF"/>
</g>
<defs>
<clipPath id="clip0_4183_3238">
<rect width="40" height="40" fill="white" transform="translate(0 0.52832)"/>
</clipPath>
</defs>
</svg>
