<svg width="41" height="41" viewBox="0 0 41 41" fill="none" xmlns="http://www.w3.org/2000/svg">
<g clip-path="url(#clip0_4183_2899)">
<path d="M37.1168 16.4012C38.0117 13.7153 37.7035 10.7729 36.2724 8.32975C34.1201 4.58244 29.7935 2.65455 25.5679 3.5618C23.6881 1.44408 20.9873 0.239762 18.1559 0.257019C13.8366 0.247158 10.0043 3.02805 8.67546 7.13776C5.90073 7.70602 3.50566 9.44284 2.10412 11.9045C-0.0641423 15.6419 0.430157 20.3532 3.32692 23.5581C2.43201 26.2441 2.74017 29.1864 4.1713 31.6296C6.32353 35.3769 10.6502 37.3048 14.8758 36.3975C16.7543 38.5153 19.4564 39.7196 22.2878 39.7011C26.6095 39.7122 30.4431 36.9288 31.7719 32.8154C34.5466 32.2472 36.9417 30.5103 38.3433 28.0487C40.5091 24.3113 40.0135 19.6037 37.118 16.3988L37.1168 16.4012ZM22.2903 37.1236C20.5608 37.126 18.8856 36.5208 17.558 35.4126C17.6184 35.3806 17.7232 35.3227 17.791 35.2808L25.6456 30.7445C26.0474 30.5165 26.2939 30.0888 26.2915 29.6265V18.5535L29.6111 20.4703C29.6468 20.4875 29.6702 20.522 29.6752 20.5615V29.7313C29.6702 33.8089 26.3679 37.115 22.2903 37.1236ZM6.40859 30.3402C5.54202 28.8438 5.23016 27.0897 5.52723 25.3874C5.58516 25.4219 5.68748 25.4848 5.7602 25.5267L13.6147 30.0629C14.0129 30.2958 14.506 30.2958 14.9053 30.0629L24.4943 24.5257V28.3593C24.4967 28.3988 24.4782 28.437 24.4474 28.4616L16.5078 33.0459C12.9713 35.0823 8.45481 33.8718 6.40982 30.3402H6.40859ZM4.3414 13.1951C5.20427 11.6962 6.56637 10.5498 8.18855 9.9544C8.18855 10.0222 8.18486 10.1418 8.18486 10.2256V19.2992C8.18239 19.7603 8.42892 20.188 8.82954 20.416L18.4184 25.9519L15.0989 27.8687C15.0656 27.8909 15.0237 27.8946 14.9867 27.8786L7.04587 23.2906C3.51675 21.2468 2.30627 16.7316 4.34017 13.1963L4.3414 13.1951ZM31.6154 19.5421L22.0265 14.0049L25.346 12.0894C25.3793 12.0672 25.4212 12.0635 25.4582 12.0795L33.399 16.6638C36.9343 18.7063 38.146 23.229 36.1035 26.7643C35.2394 28.2607 33.8785 29.4071 32.2576 30.0037V20.6589C32.2613 20.1978 32.016 19.7713 31.6166 19.5421H31.6154ZM34.9189 14.5695C34.861 14.5338 34.7587 14.4721 34.6859 14.4302L26.8314 9.894C26.4332 9.66103 25.9402 9.66103 25.5408 9.894L15.9519 15.4311V11.5975C15.9494 11.5581 15.9679 11.5199 15.9987 11.4952L23.9383 6.91465C27.4748 4.87458 31.9963 6.08876 34.0351 9.62651C34.8967 11.1205 35.2086 12.8697 34.9164 14.5695H34.9189ZM14.1473 21.4022L10.8265 19.4854C10.7907 19.4681 10.7673 19.4336 10.7624 19.3942V10.2244C10.7648 6.14177 14.077 2.83329 18.1596 2.83576C19.8866 2.83576 21.558 3.44223 22.8856 4.5467C22.8252 4.57874 22.7217 4.63668 22.6527 4.67859L14.7981 9.2148C14.3963 9.44284 14.1497 9.86935 14.1522 10.3316L14.1473 21.3997V21.4022ZM15.9507 17.5143L20.2218 15.0478L24.493 17.5131V22.445L20.2218 24.9103L15.9507 22.445V17.5143Z" fill="#24262B"/>
</g>
<defs>
<clipPath id="clip0_4183_2899">
<rect width="40" height="40" fill="white" transform="translate(0.5 0.256836)"/>
</clipPath>
</defs>
</svg>
