<svg width="88" height="33" viewBox="0 0 88 33" fill="none" xmlns="http://www.w3.org/2000/svg">
<rect x="0.5" y="1.30078" width="87" height="31" rx="15.5" stroke="#09244F"/>
<g clip-path="url(#clip0_4763_3570)">
<path fill-rule="evenodd" clip-rule="evenodd" d="M18.2025 16.809L20.2687 14.7604V18.8575L18.2025 16.809V20.9045L16.1348 18.8575V24.8008L24.2014 16.809L16.1348 8.80078V14.7604L18.2025 12.7134V16.809Z" fill="#09244F"/>
<path fill-rule="evenodd" clip-rule="evenodd" d="M18.1994 16.8085L14.0654 12.7129V16.8085L16.1316 14.7599V18.857L18.1994 16.8085Z" fill="#4F8309"/>
<path fill-rule="evenodd" clip-rule="evenodd" d="M12 14.7598L16.1339 18.8568L14.0677 20.9039V16.8083L12 18.8568V14.7598Z" fill="#4F8309"/>
<path d="M27.459 20.2191V13.3564H31.0824C32.1455 13.3564 32.8618 13.654 33.3558 14.1791C33.767 14.6454 33.985 15.2485 33.966 15.8674C33.9471 16.4863 33.6926 17.0752 33.2537 17.516C32.7807 17.9623 32.111 18.2375 31.0824 18.2375H29.1093V20.2191H27.459ZM29.1108 14.734V16.8465H31.1424C31.4579 16.868 31.7693 16.7654 32.0089 16.5609C32.1973 16.3493 32.3037 16.0783 32.3092 15.7962C32.3098 15.5209 32.2119 15.2542 32.0329 15.0435C31.9147 14.9333 31.7746 14.8488 31.6215 14.7955C31.4684 14.7422 31.3057 14.7213 31.1439 14.734H29.1108Z" fill="#09244F"/>
<path d="M39.6285 17.4937H36.8475V18.84H41.0791V20.2459H35.1973V13.3564H41.0791V14.7742H36.8475V16.0878H39.6285V17.4937Z" fill="#09244F"/>
<path d="M47.8406 13.3545V17.4203L43.9859 13.3545H42.5654V20.2246H44.2277V16.2019H44.2382L48.0718 20.2454H49.5044V13.3545H47.8406Z" fill="#09244F"/>
<path d="M50.6533 13.3564H58.1073L57.4436 14.7742H55.041V20.2459H53.3892V14.7742H50.6533V13.3564Z" fill="#09244F"/>
<path d="M61.6974 13.3564H60.2769L57.0439 20.2459H58.7873L59.2138 19.2462H62.69L63.0609 20.2474H64.8733L61.6974 13.3564ZM59.7694 17.9534L60.9166 15.3098H60.9857L62.1299 17.9519L59.7694 17.9534Z" fill="#09244F"/>
<path d="M66 20.2459V13.3564H67.6518V20.2459H66Z" fill="#09244F"/>
<path d="M69.4902 20.2191V13.3564H73.1151C74.1873 13.3564 74.8915 13.6659 75.3765 14.1672C75.7795 14.6135 76.002 15.1915 76.0012 15.7903C76.0012 16.7513 75.4006 17.5755 74.4756 17.9742L75.9096 20.2191H74.0161L72.8253 18.2375H71.1405V20.2191H69.4902ZM71.142 14.734V16.8465H73.2893C73.57 16.8411 73.8373 16.7268 74.0339 16.5282C74.2304 16.3295 74.3405 16.0625 74.3404 15.7843C74.3447 15.5174 74.2514 15.2579 74.0776 15.0539C73.8104 14.7683 73.477 14.734 73.1767 14.734H71.142Z" fill="#09244F"/>
</g>
<defs>
<clipPath id="clip0_4763_3570">
<rect width="64" height="16" fill="white" transform="translate(12 8.80078)"/>
</clipPath>
</defs>
</svg>
