<svg width="49" height="49" viewBox="0 0 49 49" fill="none" xmlns="http://www.w3.org/2000/svg">
<mask id="mask0_4382_777" style="mask-type:luminance" maskUnits="userSpaceOnUse" x="5" y="2" width="39" height="44">
<path d="M43.2577 2.87891H5.73047V45.736H43.2577V2.87891Z" fill="white"/>
</mask>
<g mask="url(#mask0_4382_777)">
<path d="M10.8364 2.87891L23.251 14.1006V14.098V2.9048H25.6677V14.1508L38.1379 2.87891V15.6733H43.2577V34.128H38.1536V45.5208L25.6677 34.7587V45.6444H23.251V34.9361L10.8505 45.6514V34.128H5.73047V15.6733H10.8364V2.87891ZM21.4292 18.0153H8.1471V31.7861H10.8474V27.4423L21.4292 18.0153ZM13.267 28.4814V40.4256L23.251 31.7985V19.5847L13.267 28.4814ZM25.7372 31.6843V19.5732L35.7242 28.4704V34.128H35.737V40.3036L25.7372 31.6843ZM38.1536 31.7861H40.8411V18.0153H27.658L38.1536 27.3447V31.7861ZM35.7212 15.6733V8.26585L27.5262 15.6733H35.7212ZM21.4479 15.6733H13.253V8.26585L21.4479 15.6733Z" fill="#62C4D9"/>
</g>
</svg>
