<svg width="19" height="19" viewBox="0 0 19 19" fill="none" xmlns="http://www.w3.org/2000/svg">
<path d="M5.37 18.8088C4.58 18.8088 3.83 18.6188 3.17 18.2388C1.61 17.3388 0.75 15.5088 0.75 13.0988V5.9688C0.75 3.5488 1.61 1.7288 3.17 0.828798C4.73 -0.0712024 6.74 0.0987976 8.84 1.3088L15.01 4.8688C17.1 6.0788 18.26 7.73882 18.26 9.53882C18.26 11.3388 17.11 12.9988 15.01 14.2088L8.84 17.7688C7.63 18.4588 6.45 18.8088 5.37 18.8088ZM5.37 1.7488C4.83 1.7488 4.35 1.8688 3.92 2.1188C2.84 2.7388 2.25 4.1088 2.25 5.9688V13.0888C2.25 14.9488 2.84 16.3088 3.92 16.9388C5 17.5688 6.48 17.3888 8.09 16.4588L14.26 12.8988C15.87 11.9688 16.76 10.7788 16.76 9.52882C16.76 8.27882 15.87 7.0888 14.26 6.1588L8.09 2.5988C7.11 2.0388 6.19 1.7488 5.37 1.7488Z" fill="white"/>
<path d="M5.37 1.7488C4.83 1.7488 4.35 1.8688 3.92 2.1188C2.84 2.7388 2.25 4.1088 2.25 5.9688V13.0888C2.25 14.9488 2.84 16.3088 3.92 16.9388C5 17.5688 6.48 17.3888 8.09 16.4588L14.26 12.8988C15.87 11.9688 16.76 10.7788 16.76 9.52882C16.76 8.27882 15.87 7.0888 14.26 6.1588L8.09 2.5988C7.11 2.0388 6.19 1.7488 5.37 1.7488Z" fill="white"/>
</svg>
