<svg width="16" height="17" viewBox="0 0 16 17" fill="none" xmlns="http://www.w3.org/2000/svg">
<path d="M14.9689 7.01182H9.03115V1.07411C9.03115 0.504679 8.5695 0.0429688 8 0.0429688C7.43051 0.0429688 6.96886 0.504619 6.96886 1.07411V7.01182H1.03115C0.461711 7.01182 0 7.47347 0 8.04297C0 8.61246 0.46165 9.07411 1.03115 9.07411H6.96886V15.0118C6.96886 15.5813 7.43051 16.043 8 16.043C8.5695 16.043 9.03115 15.5813 9.03115 15.0118V9.07411H14.9689C15.5383 9.07411 16 8.61246 16 8.04297C16 7.47347 15.5383 7.01182 14.9689 7.01182Z" fill="#24262B"/>
</svg>
