<svg width="41" height="41" viewBox="0 0 41 41" fill="none" xmlns="http://www.w3.org/2000/svg">
<g clip-path="url(#clip0_4183_2877)">
<path d="M20.432 0.0424805C10.988 0.0424805 10.8865 3.7083 10.8865 4.46284C10.8865 5.60757 10.8865 9.04248 10.8865 9.04248H20.6138V10.4174C20.6138 10.4174 10.4858 10.4174 7.02291 10.4174C4.13236 10.4174 0.5 12.1748 0.5 19.9628C0.5 27.1167 3.33345 29.8832 6.19309 29.8832C7.04218 29.8832 9.59091 29.8832 9.59091 29.8832C9.59091 29.8832 9.59091 26.3323 9.59091 25.1105C9.59091 23.1138 10.5804 19.4174 15.1931 19.4174C20.9785 19.4174 22.4553 19.4174 24.8407 19.4174C26.2596 19.4174 30.2611 18.8007 30.2611 14.1788C30.2611 9.28721 30.2611 7.67339 30.2611 5.37194C30.2615 4.22539 30.0655 0.0424805 20.432 0.0424805ZM15.0684 3.12212C16.0364 3.12212 16.8185 3.90393 16.8185 4.8723C16.8185 5.83993 16.0364 6.62248 15.0684 6.62248C14.1004 6.62248 13.3182 5.8403 13.3182 4.8723C13.3182 3.90393 14.1004 3.12212 15.0684 3.12212Z" fill="url(#paint0_linear_4183_2877)"/>
<path d="M20.5677 40.0424C30.0074 40.0424 30.1248 36.3075 30.1248 35.622C30.1248 34.4773 30.1248 31.0424 30.1248 31.0424H20.3859V29.6675C20.3859 29.6675 30.5794 29.6675 33.9768 29.6675C36.8892 29.6675 40.4997 27.866 40.4997 20.122C40.4997 11.6413 36.6677 10.2017 34.8066 10.2017C33.9572 10.2017 31.4088 10.2017 31.4088 10.2017C31.4088 10.2017 31.4088 13.9166 31.4088 14.9744C31.4088 16.9711 30.4521 20.6675 25.8066 20.6675C20.0212 20.6675 18.7245 20.6675 16.1586 20.6675C14.7434 20.6675 10.7383 21.3569 10.7383 25.906C10.7383 31.1697 10.7383 32.5478 10.7383 34.7129C10.7383 36.6148 11.9005 40.0424 20.5677 40.0424ZM25.9317 36.9628C24.9637 36.9628 24.1816 36.1806 24.1816 35.2126C24.1816 34.2446 24.9634 33.4624 25.9317 33.4624C26.8994 33.4624 27.6819 34.2446 27.6819 35.2126C27.6819 36.1806 26.8994 36.9628 25.9317 36.9628Z" fill="url(#paint1_linear_4183_2877)"/>
</g>
<defs>
<linearGradient id="paint0_linear_4183_2877" x1="4.24855" y1="3.61564" x2="24.1313" y2="23.5649" gradientUnits="userSpaceOnUse">
<stop stop-color="#387EB8"/>
<stop offset="1" stop-color="#366994"/>
</linearGradient>
<linearGradient id="paint1_linear_4183_2877" x1="16.3314" y1="16.3613" x2="37.6485" y2="36.7842" gradientUnits="userSpaceOnUse">
<stop stop-color="#FFE052"/>
<stop offset="1" stop-color="#FFC331"/>
</linearGradient>
<clipPath id="clip0_4183_2877">
<rect width="40" height="40" fill="white" transform="translate(0.5 0.0424805)"/>
</clipPath>
</defs>
</svg>
