<svg width="54" height="49" viewBox="0 0 54 49" fill="none" xmlns="http://www.w3.org/2000/svg">
<g clip-path="url(#clip0_4382_865)">
<path d="M23.6702 47.0043C36.169 47.0043 46.3012 36.823 46.3012 24.2639C46.3012 11.7047 36.169 1.52344 23.6702 1.52344C11.1713 1.52344 1.03906 11.7047 1.03906 24.2639C1.03906 36.823 11.1713 47.0043 23.6702 47.0043Z" fill="#7968FA"/>
<mask id="mask0_4382_865" style="mask-type:alpha" maskUnits="userSpaceOnUse" x="1" y="0" width="54" height="48">
<path d="M54.0006 32.5332C54.0006 45.5 36.5874 47.4682 23.9396 47.4682C11.2921 47.4682 1.03906 36.9567 1.03906 23.9899C1.03906 11.0233 11.2921 0.511719 23.9396 0.511719C36.5874 0.511719 54.0006 19.5666 54.0006 32.5332Z" fill="#D9D9D9"/>
</mask>
<g mask="url(#mask0_4382_865)">
<path d="M22.8906 16.1536L23.3621 12.1777C23.3621 12.1777 23.7484 10.5341 25.5089 10.8206C27.2694 11.1071 27.0086 12.6301 27.0086 12.6301C27.0086 13.9872 25.1578 16.7316 25.1578 16.7316" fill="white"/>
<path d="M22.8906 16.1536L23.3621 12.1777C23.3621 12.1777 23.7484 10.5341 25.5089 10.8206C27.2694 11.1071 27.0086 12.6301 27.0086 12.6301C27.0086 13.9872 25.1578 16.7316 25.1578 16.7316" stroke="black" stroke-width="0.724507" stroke-linecap="round" stroke-linejoin="round"/>
<path d="M52.3402 35.8585L48.7138 38.1003C48.7991 38.251 40.5882 34.5063 32.6431 32.5913C28.2844 31.5408 24.0059 30.6964 21.1218 32.5109C13.2871 37.4417 12.0632 64.2524 4.80537 74.858C4.80537 74.858 5.86871 81.9554 4.91068 89.0928C3.60657 98.8037 -4.18798 103.051 -4.85009 103.071C8.70766 102.302 8.23617 107.132 8.23617 107.132C8.23617 107.132 0.356331 107.142 -8.16052 107.148C-10.3073 107.148 -11.7318 107.142 -11.9977 107.132C-13.4473 107.092 -11.8672 102.754 -11.8672 102.754C-13.683 101.784 -15.1526 99.6632 -15.7345 98.0397L-23.0977 102.674L-20.7853 107.153C-25.2996 107.153 -28.6301 107.148 -29.0514 107.132C-30.501 107.092 -28.9211 102.176 -28.9211 102.176C-33.4102 99.5325 -34.5889 92.385 -34.5889 92.385C-34.5889 92.385 -38.3457 76.2906 -29.6734 55.3859C-26.0671 46.6903 -20.7904 36.9844 -11.3706 27.6152C1.13879 15.1749 13.5629 11.9128 23.8253 14.4864C41.7067 18.9649 51.5728 33.3452 52.3402 35.8585Z" fill="white" stroke="black" stroke-width="0.724507" stroke-linecap="round" stroke-linejoin="round"/>
<path d="M12.1988 17.4723L10.0772 14.5872C10.0772 14.5872 8.82824 12.1896 10.8947 11.4255C12.9612 10.6615 13.7738 12.7877 13.8841 13.3305C13.9945 13.8734 14.7519 16.5424 14.7519 16.5424" fill="white"/>
<path d="M12.1988 17.4723L10.0772 14.5872C10.0772 14.5872 8.82824 12.1896 10.8947 11.4255C12.9612 10.6615 13.7738 12.7877 13.8841 13.3305C13.9945 13.8734 14.7519 16.5424 14.7519 16.5424" stroke="black" stroke-width="0.724507" stroke-linecap="round" stroke-linejoin="round"/>
<path d="M45.4922 36.5711L50.6935 33.1934L52.2736 35.6362L48.7173 38.0992L45.4922 36.5711Z" fill="#7A68FA" stroke="black" stroke-width="0.724507" stroke-linecap="round" stroke-linejoin="round"/>
<path d="M20.5586 20.3008C20.5586 20.3008 21.1204 20.6526 21.1204 21.4217C21.1204 22.1907 21.0151 24.8146 24.4359 24.8146C27.8566 24.8146 27.7864 22.3667 27.7864 20.3361" fill="black"/>
<path d="M20.5586 20.3008C20.5586 20.3008 21.1204 20.6526 21.1204 21.4217C21.1204 22.1907 21.0151 24.8146 24.4359 24.8146C27.8566 24.8146 27.7864 22.3667 27.7864 20.3361" stroke="black" stroke-width="0.724507" stroke-linecap="round" stroke-linejoin="round"/>
<path d="M37.9701 20.3008C37.9701 20.3008 37.4083 20.6526 37.4083 21.4217C37.4083 22.1907 37.5137 24.8146 34.0929 24.8146C30.6721 24.8146 30.7423 22.3667 30.7423 20.3361" fill="black"/>
<path d="M37.9701 20.3008C37.9701 20.3008 37.4083 20.6526 37.4083 21.4217C37.4083 22.1907 37.5137 24.8146 34.0929 24.8146C30.6721 24.8146 30.7423 22.3667 30.7423 20.3361" stroke="black" stroke-width="0.724507" stroke-linecap="round" stroke-linejoin="round"/>
<path d="M19.6953 20.2012H38.8255" stroke="black" stroke-width="0.724507" stroke-linecap="round" stroke-linejoin="round"/>
<path d="M30.9498 21.2865C30.9498 20.8392 30.4784 20.2812 29.3097 20.2812C28.141 20.2812 27.5742 20.8492 27.5742 21.2865" stroke="black" stroke-width="0.724507" stroke-linecap="round" stroke-linejoin="round"/>
</g>
<path d="M46.102 27.5479C46.2334 26.5561 46.3013 25.5439 46.3013 24.5159C46.3013 11.9567 36.1691 1.77539 23.6702 1.77539C11.1713 1.77539 1.03906 11.9567 1.03906 24.5159C1.03906 37.0751 11.1713 47.2564 23.6702 47.2564C31.9426 47.2564 39.1785 42.7964 43.126 36.1388" stroke="#0E0F10" stroke-width="0.726431"/>
</g>
<defs>
<clipPath id="clip0_4382_865">
<rect width="54" height="48" fill="white" transform="translate(0 0.511719)"/>
</clipPath>
</defs>
</svg>
