<svg width="173" height="125" viewBox="0 0 173 125" fill="none" xmlns="http://www.w3.org/2000/svg">
<g opacity="0.5">
<path d="M0.5 124.026V84.915C0.5 44.9304 27.8459 10.3025 66.1621 1.98438C67.8781 1.61174 69.2509 1.37142 70.1924 1.22461C70.6588 1.15189 71.0195 1.10293 71.2637 1.07129L77.8906 17.541C62.6912 25.4146 54.621 37.6223 50.3535 47.8857C48.201 53.0625 47.0138 57.7486 46.3643 61.1416C46.0395 62.8382 45.8487 64.2126 45.7393 65.165C45.6845 65.6413 45.6507 66.0127 45.6299 66.2656C45.6195 66.3919 45.6119 66.4888 45.6074 66.5547C45.6052 66.5875 45.6036 66.6126 45.6025 66.6299C45.602 66.6385 45.6018 66.6458 45.6016 66.6504V66.6572C45.6037 66.6578 45.6351 66.6599 46.1006 66.6846L45.6016 66.6582L45.5732 67.1846H67.9365V124.026H0.5Z" stroke="url(#paint0_linear_4295_245)"/>
<path d="M94.9766 124.028V84.917C94.9766 44.9324 122.324 10.3045 160.641 1.98633C162.357 1.61369 163.729 1.37337 164.67 1.22656C165.136 1.15387 165.496 1.10489 165.74 1.07324L172.367 17.543C157.173 25.4165 149.106 37.6244 144.839 47.8877C142.687 53.0644 141.499 57.7505 140.85 61.1436C140.525 62.8401 140.334 64.2146 140.225 65.167C140.17 65.6433 140.135 66.0147 140.114 66.2676C140.104 66.3938 140.097 66.4908 140.093 66.5566C140.091 66.5895 140.089 66.6146 140.088 66.6318C140.087 66.6405 140.087 66.6477 140.087 66.6523C140.087 66.6544 140.087 66.656 140.087 66.6572L140.086 66.6592C140.086 66.6596 140.098 66.6606 140.586 66.6865L140.086 66.6602L140.059 67.1865H162.422V124.028H94.9766Z" stroke="url(#paint1_linear_4295_245)"/>
</g>
<defs>
<linearGradient id="paint0_linear_4295_245" x1="39.2619" y1="124.526" x2="39.2619" y2="0.528084" gradientUnits="userSpaceOnUse">
<stop stop-color="#335FFF" stop-opacity="0"/>
<stop offset="1" stop-color="#335FFF"/>
</linearGradient>
<linearGradient id="paint1_linear_4295_245" x1="133.738" y1="124.528" x2="133.738" y2="0.530037" gradientUnits="userSpaceOnUse">
<stop stop-color="#335FFF" stop-opacity="0"/>
<stop offset="1" stop-color="#335FFF"/>
</linearGradient>
</defs>
</svg>
