<svg width="56" height="57" viewBox="0 0 56 57" fill="none" xmlns="http://www.w3.org/2000/svg">
<circle cx="28" cy="28.5283" r="27.25" stroke="#335FFF" stroke-width="1.5"/>
<path d="M28.2666 19.4648C28.683 19.0488 29.3581 19.0487 29.7744 19.4648L38.7744 28.4658C38.8091 28.5005 38.8091 28.5571 38.7744 28.5918L29.7744 37.5918C29.3841 37.9821 28.7665 38.0064 28.3477 37.665L28.2666 37.5918C27.8502 37.1754 27.8502 36.5004 28.2666 36.084L34.0723 30.2773L34.7549 29.5947H18.2676C17.6787 29.5947 17.2012 29.1172 17.2012 28.5283C17.2013 27.9395 17.6787 27.4619 18.2676 27.4619H34.7549L28.2666 20.9736C27.8502 20.5572 27.8502 19.8813 28.2666 19.4648Z" fill="#335FFF" stroke="white" stroke-width="0.8"/>
</svg>
