<svg width="24" height="25" viewBox="0 0 24 25" fill="none" xmlns="http://www.w3.org/2000/svg">
<path d="M4.84681 8.33634C6.68797 8.33634 8.18586 6.83845 8.18586 4.9973C8.18586 3.15614 6.68802 1.6582 4.84681 1.6582C3.0057 1.6582 1.50781 3.15609 1.50781 4.99725C1.50781 6.83841 3.0057 8.33634 4.84681 8.33634ZM4.84681 3.06445C5.91256 3.06445 6.77961 3.9315 6.77961 4.99725C6.77961 6.063 5.91256 6.93005 4.84681 6.93005C3.78111 6.93005 2.91406 6.063 2.91406 4.99725C2.91406 3.9315 3.78111 3.06445 4.84681 3.06445Z" fill="white"/>
<path d="M23.293 19.4369L12.9945 9.13967L14.2594 7.8748L15.5303 9.14384C15.9714 9.58812 16.5842 9.84294 17.2154 9.84294C18.4627 9.84294 19.4812 8.82936 19.4812 7.57517C19.4812 6.94137 19.2348 6.34414 18.7853 5.89147L16.8879 3.99472C15.4398 2.54656 13.08 2.54539 11.6305 3.99505L5.22169 10.405L3.96169 9.14614C3.51295 8.6953 2.88933 8.43669 2.2508 8.43669C1.04447 8.43669 0 9.40419 0 10.689C0 11.3242 0.257156 11.947 0.706969 12.3989L2.59378 14.2854C4.04297 15.7317 6.40083 15.7318 7.85175 14.2835L8.23411 13.8998C8.53645 14.2025 8.94567 14.612 9.37205 15.039C9.41437 15.0812 9.45717 15.1228 9.5003 15.164L8.36273 16.3025C6.90923 17.7533 6.90623 20.1045 8.36227 21.5578L9.507 22.7018C9.948 23.145 10.56 23.3991 11.1904 23.3991C12.4376 23.3991 13.4562 22.3857 13.4562 21.1314C13.4562 20.4976 13.2098 19.9004 12.7601 19.4475L12.2416 18.93L13.8777 17.2939C14.154 17.333 14.4336 17.3585 14.7158 17.3688L20.0383 22.6897C20.487 23.1406 21.1106 23.3992 21.7492 23.3992C22.9555 23.3992 24 22.4317 24 21.1469C24 20.5116 23.7428 19.8889 23.293 19.4369ZM12.6252 4.98908C13.525 4.08936 14.9927 4.08828 15.8933 4.98884L17.7896 6.88447C18.0069 7.10328 18.2917 7.71491 17.8219 8.18403C17.3406 8.66473 16.7311 8.35747 16.5255 8.15047C16.5255 8.15047 14.7568 6.38347 14.7567 6.38338C14.6248 6.25152 14.4459 6.17736 14.2595 6.17736C13.9556 6.17736 13.777 6.36856 13.7623 6.38333L11.9536 8.19195C11.4049 7.81503 10.7628 7.58028 10.098 7.51794L12.6252 4.98908ZM10.7497 18.4332C10.475 18.7079 10.4753 19.1536 10.75 19.4279L11.7646 20.4407C11.9655 20.643 12.2781 21.2597 11.7969 21.7402C11.3171 22.2194 10.7073 21.9148 10.5031 21.7092C10.502 21.708 10.4983 21.7044 10.4995 21.7056C10.5031 21.7092 9.35616 20.563 9.35616 20.563C8.91923 20.1269 8.67858 19.5471 8.67858 18.9305C8.67858 18.3138 8.91923 17.734 9.35695 17.2971L10.6051 16.0479C11.1319 16.3983 11.6955 16.6828 12.2858 16.8972L10.7497 18.4332ZM22.3488 21.7445C21.858 22.2266 21.2378 21.9014 21.0334 21.6961L15.5098 16.174C15.3779 16.0421 15.199 15.968 15.0125 15.968C13.2598 15.968 11.6093 15.2845 10.3662 14.0444L9.22861 12.9056L9.48469 12.6495C9.75928 12.3749 9.75928 11.9298 9.48469 11.6552C9.21014 11.3806 8.76492 11.3806 8.49033 11.6552L6.85655 13.2901C5.95519 14.1897 4.48856 14.1897 3.58866 13.2915L1.70231 11.4056C1.43541 11.1374 1.2195 10.5267 1.65122 10.0914C2.14041 9.61067 2.76019 9.93238 2.96644 10.1396L4.72495 11.8965C4.99955 12.1709 5.44467 12.1709 5.71917 11.8963L7.97812 9.63692L7.97831 9.63711C7.97831 9.63711 7.98141 9.63402 7.98712 9.6283C8.44997 9.16972 9.08822 8.90675 9.74063 8.90675C10.3959 8.90675 11.037 9.17183 11.5003 9.63416C11.5012 9.63505 11.502 9.63603 11.5028 9.63697C11.5042 9.63828 11.5082 9.64189 11.5069 9.64062C11.5003 9.6342 22.2977 20.4303 22.2977 20.4303C22.5702 20.7042 22.7758 21.3139 22.3488 21.7445Z" fill="white"/>
</svg>
