<svg width="2004" height="1909" viewBox="0 0 2004 1909" fill="none" xmlns="http://www.w3.org/2000/svg">
<g opacity="0.2">
<mask id="mask0_4990_340" style="mask-type:alpha" maskUnits="userSpaceOnUse" x="138" y="401" width="1956" height="1440">
<path d="M1005.84 942.585C1005.84 1089.84 1103.2 1209.22 1223.31 1209.22C1343.41 1209.22 2093.82 692.725 2093.82 545.465C2093.82 398.205 1015.63 600.936 895.527 600.936C775.422 600.936 1005.84 795.325 1005.84 942.585Z" fill="url(#paint0_linear_4990_340)"/>
<path d="M921.372 1573.61C921.372 1720.87 1018.74 1840.25 1138.84 1840.25C1258.95 1840.25 1928.04 1805.92 1928.04 1658.66C1928.04 1511.4 1878.58 1162.58 1758.48 1162.58C1638.37 1162.58 921.372 1426.35 921.372 1573.61Z" fill="url(#paint1_radial_4990_340)"/>
<path d="M674.681 942.988C350.615 1235.68 500.314 1088.59 221.97 1081.18C178.305 1089.59 104.178 1089.99 156.991 1024.3C223.007 942.183 201.731 884.185 284.233 794.721C366.735 705.257 416.98 614.363 541.535 472.073C666.091 329.783 675.673 447.077 816.094 435.958C956.514 424.839 892.468 442.496 1086.21 648.953C1279.96 855.411 998.747 650.299 674.681 942.988Z" fill="#D9D9D9"/>
<path d="M980.627 1403.37C1414.31 1454.43 1205.03 1438.67 1382.79 1652.99C1417.88 1680.3 1467 1735.82 1382.79 1739.35C1277.52 1743.76 1247.9 1797.97 1126.24 1794.82C1004.58 1791.66 903.094 1813.73 713.99 1813.73C524.885 1813.73 606.83 1729.26 505.975 1630.93C405.119 1532.59 460.589 1569.15 488.325 1287.39C516.06 1005.62 546.947 1352.31 980.627 1403.37Z" fill="#D9D9D9"/>
</mask>
<g mask="url(#mask0_4990_340)">
<line y1="-0.630349" x2="1511.58" y2="-0.630349" transform="matrix(-1 0 0 1 1796.3 1248.94)" stroke="white" stroke-opacity="0.16" stroke-width="1.2607"/>
<line y1="-0.630349" x2="1511.58" y2="-0.630349" transform="matrix(-1 0 0 1 1796.3 1571.67)" stroke="white" stroke-opacity="0.16" stroke-width="1.2607"/>
<line y1="-0.630349" x2="1511.58" y2="-0.630349" transform="matrix(-1 0 0 1 1796.3 926.197)" stroke="white" stroke-opacity="0.16" stroke-width="1.2607"/>
<line y1="-0.630349" x2="1511.58" y2="-0.630349" transform="matrix(-1 0 0 1 1796.3 603.457)" stroke="white" stroke-opacity="0.16" stroke-width="1.2607"/>
<line y1="-0.630349" x2="1511.58" y2="-0.630349" transform="matrix(-1 0 0 1 1796.3 1733.04)" stroke="white" stroke-opacity="0.16" stroke-width="1.2607"/>
<line y1="-0.630349" x2="1511.58" y2="-0.630349" transform="matrix(-1 0 0 1 1796.3 1087.57)" stroke="white" stroke-opacity="0.16" stroke-width="1.2607"/>
<line y1="-0.630349" x2="1511.58" y2="-0.630349" transform="matrix(-1 0 0 1 1796.3 1410.3)" stroke="white" stroke-opacity="0.16" stroke-width="1.2607"/>
<line y1="-0.630349" x2="1511.58" y2="-0.630349" transform="matrix(-1 0 0 1 1796.3 764.827)" stroke="white" stroke-opacity="0.16" stroke-width="1.2607"/>
<line y1="-0.630349" x2="1511.58" y2="-0.630349" transform="matrix(-1 0 0 1 1796.3 442.089)" stroke="white" stroke-opacity="0.16" stroke-width="1.2607"/>
<line y1="-0.630349" x2="1511.58" y2="-0.630349" transform="matrix(-1 0 0 1 1796.3 1813.73)" stroke="white" stroke-opacity="0.16" stroke-width="1.2607"/>
<line y1="-0.630349" x2="1511.58" y2="-0.630349" transform="matrix(-1 0 0 1 1796.3 1168.25)" stroke="white" stroke-opacity="0.16" stroke-width="1.2607"/>
<line y1="-0.630349" x2="1511.58" y2="-0.630349" transform="matrix(-1 0 0 1 1796.3 1490.99)" stroke="white" stroke-opacity="0.16" stroke-width="1.2607"/>
<line y1="-0.630349" x2="1511.58" y2="-0.630349" transform="matrix(-1 0 0 1 1796.3 845.512)" stroke="white" stroke-opacity="0.16" stroke-width="1.2607"/>
<line y1="-0.630349" x2="1511.58" y2="-0.630349" transform="matrix(-1 0 0 1 1796.3 522.774)" stroke="white" stroke-opacity="0.16" stroke-width="1.2607"/>
<line y1="-0.630349" x2="1511.58" y2="-0.630349" transform="matrix(-1 0 0 1 1796.3 1652.36)" stroke="white" stroke-opacity="0.16" stroke-width="1.2607"/>
<line y1="-0.630349" x2="1511.58" y2="-0.630349" transform="matrix(-1 0 0 1 1796.3 1006.88)" stroke="white" stroke-opacity="0.16" stroke-width="1.2607"/>
<line y1="-0.630349" x2="1511.58" y2="-0.630349" transform="matrix(-1 0 0 1 1796.3 1329.62)" stroke="white" stroke-opacity="0.16" stroke-width="1.2607"/>
<line y1="-0.630349" x2="1511.58" y2="-0.630349" transform="matrix(-1 0 0 1 1796.3 684.142)" stroke="white" stroke-opacity="0.16" stroke-width="1.2607"/>
<line y1="-0.630349" x2="1167.41" y2="-0.630349" transform="matrix(4.37114e-08 1 1 -4.37114e-08 1749.65 574.462)" stroke="white" stroke-opacity="0.16" stroke-width="1.2607"/>
<line y1="-0.630349" x2="1167.41" y2="-0.630349" transform="matrix(4.37114e-08 1 1 -4.37114e-08 1104.17 574.462)" stroke="white" stroke-opacity="0.16" stroke-width="1.2607"/>
<line y1="-0.630349" x2="1167.41" y2="-0.630349" transform="matrix(4.37114e-08 1 1 -4.37114e-08 1426.91 574.462)" stroke="white" stroke-opacity="0.16" stroke-width="1.2607"/>
<line y1="-0.630349" x2="1167.41" y2="-0.630349" transform="matrix(4.37114e-08 1 1 -4.37114e-08 781.438 574.462)" stroke="white" stroke-opacity="0.16" stroke-width="1.2607"/>
<line y1="-0.630349" x2="1167.41" y2="-0.630349" transform="matrix(4.37114e-08 1 1 -4.37114e-08 458.688 574.462)" stroke="white" stroke-opacity="0.16" stroke-width="1.2607"/>
<line y1="-0.630349" x2="1167.41" y2="-0.630349" transform="matrix(4.37114e-08 1 1 -4.37114e-08 1588.28 574.462)" stroke="white" stroke-opacity="0.16" stroke-width="1.2607"/>
<line y1="-0.630349" x2="1167.41" y2="-0.630349" transform="matrix(4.37114e-08 1 1 -4.37114e-08 942.805 574.462)" stroke="white" stroke-opacity="0.16" stroke-width="1.2607"/>
<line y1="-0.630349" x2="1167.41" y2="-0.630349" transform="matrix(4.37114e-08 1 1 -4.37114e-08 1265.54 574.462)" stroke="white" stroke-opacity="0.16" stroke-width="1.2607"/>
<line y1="-0.630349" x2="1167.41" y2="-0.630349" transform="matrix(4.37114e-08 1 1 -4.37114e-08 620.062 574.462)" stroke="white" stroke-opacity="0.16" stroke-width="1.2607"/>
<line y1="-0.630349" x2="1167.41" y2="-0.630349" transform="matrix(4.37114e-08 1 1 -4.37114e-08 297.32 574.462)" stroke="white" stroke-opacity="0.16" stroke-width="1.2607"/>
<line y1="-0.630349" x2="1167.41" y2="-0.630349" transform="matrix(4.37114e-08 1 1 -4.37114e-08 1668.96 574.462)" stroke="white" stroke-opacity="0.16" stroke-width="1.2607"/>
<line y1="-0.630349" x2="1167.41" y2="-0.630349" transform="matrix(4.37114e-08 1 1 -4.37114e-08 1023.48 574.462)" stroke="white" stroke-opacity="0.16" stroke-width="1.2607"/>
<line y1="-0.630349" x2="1167.41" y2="-0.630349" transform="matrix(4.37114e-08 1 1 -4.37114e-08 1346.23 574.462)" stroke="white" stroke-opacity="0.16" stroke-width="1.2607"/>
<line y1="-0.630349" x2="1167.41" y2="-0.630349" transform="matrix(4.37114e-08 1 1 -4.37114e-08 700.75 574.462)" stroke="white" stroke-opacity="0.16" stroke-width="1.2607"/>
<line y1="-0.630349" x2="1167.41" y2="-0.630349" transform="matrix(4.37114e-08 1 1 -4.37114e-08 378.008 574.462)" stroke="white" stroke-opacity="0.16" stroke-width="1.2607"/>
<line y1="-0.630349" x2="1167.41" y2="-0.630349" transform="matrix(4.37114e-08 1 1 -4.37114e-08 1507.59 574.462)" stroke="white" stroke-opacity="0.16" stroke-width="1.2607"/>
<line y1="-0.630349" x2="1167.41" y2="-0.630349" transform="matrix(4.37114e-08 1 1 -4.37114e-08 862.117 574.462)" stroke="white" stroke-opacity="0.16" stroke-width="1.2607"/>
<line y1="-0.630349" x2="1167.41" y2="-0.630349" transform="matrix(4.37114e-08 1 1 -4.37114e-08 1184.86 574.462)" stroke="white" stroke-opacity="0.16" stroke-width="1.2607"/>
<line y1="-0.630349" x2="1167.41" y2="-0.630349" transform="matrix(4.37114e-08 1 1 -4.37114e-08 539.375 574.462)" stroke="white" stroke-opacity="0.16" stroke-width="1.2607"/>
<line y1="-0.630349" x2="1167.41" y2="-0.630349" transform="matrix(4.37114e-08 1 1 -4.37114e-08 216.641 574.462)" stroke="white" stroke-opacity="0.16" stroke-width="1.2607"/>
<g opacity="0.7">
<rect width="80.2262" height="80.2262" transform="matrix(-1 0 0 1 1345.53 1409.62)" fill="#335FFF" fill-opacity="0.25"/>
<rect width="80.2262" height="79.0801" transform="matrix(-1 0 0 1 618.906 845.74)" fill="#335FFF" fill-opacity="0.11"/>
<rect width="80.2262" height="79.0801" transform="matrix(-1 0 0 1 1265.31 765.514)" fill="#335FFF" fill-opacity="0.31"/>
<rect width="80.2262" height="79.0801" transform="matrix(-1 0 0 1 700.281 925.966)" fill="#335FFF" fill-opacity="0.11"/>
<rect width="80.2262" height="79.0801" transform="matrix(-1 0 0 1 1346.67 845.74)" fill="#335FFF" fill-opacity="0.31"/>
<rect width="80.2262" height="79.0801" transform="matrix(-1 0 0 1 700.281 845.74)" fill="#335FFF" fill-opacity="0.11"/>
<rect width="80.2262" height="79.0801" transform="matrix(-1 0 0 1 1346.67 765.514)" fill="#335FFF" fill-opacity="0.31"/>
<rect width="80.2262" height="80.2262" transform="matrix(-1 0 0 1 1425.76 1409.62)" fill="#335FFF" fill-opacity="0.25"/>
<rect width="80.2262" height="81.3723" transform="matrix(-1 0 0 1 1425.76 1489.84)" fill="#335FFF" fill-opacity="0.25"/>
<rect width="80.2262" height="80.2262" transform="matrix(-1 0 0 1 1587.36 1329.39)" fill="#335FFF" fill-opacity="0.25"/>
<rect width="80.2262" height="80.2262" transform="matrix(-1 0 0 1 860.734 592.454)" fill="#335FFF" fill-opacity="0.61"/>
<rect width="81.3723" height="82.5184" transform="matrix(-1 0 0 1 1587.35 763.221)" fill="#335FFF" fill-opacity="0.24"/>
<rect width="81.3723" height="80.2262" transform="matrix(-1 0 0 1 1668.73 682.995)" fill="#335FFF" fill-opacity="0.24"/>
<rect width="81.3723" height="80.2262" transform="matrix(-1 0 0 1 1748.95 684.141)" fill="#335FFF" fill-opacity="0.24"/>
<rect width="81.3723" height="82.5184" transform="matrix(-1 0 0 1 1668.73 763.222)" fill="#335FFF" fill-opacity="0.24"/>
<rect width="81.3723" height="80.2262" transform="matrix(-1 0 0 1 1345.52 602.769)" fill="#335FFF"/>
<rect width="80.2262" height="81.3723" transform="matrix(-1 0 0 1 1587.35 924.82)" fill="#335FFF" fill-opacity="0.24"/>
</g>
</g>
</g>
<g filter="url(#filter0_f_4990_340)">
<circle cx="1024.62" cy="665.257" r="225" fill="#335FFF"/>
</g>
<defs>
<filter id="filter0_f_4990_340" x="359.825" y="0.456848" width="1329.6" height="1329.6" filterUnits="userSpaceOnUse" color-interpolation-filters="sRGB">
<feFlood flood-opacity="0" result="BackgroundImageFix"/>
<feBlend mode="normal" in="SourceGraphic" in2="BackgroundImageFix" result="shape"/>
<feGaussianBlur stdDeviation="219.9" result="effect1_foregroundBlur_4990_340"/>
</filter>
<linearGradient id="paint0_linear_4990_340" x1="1574.41" y1="619.216" x2="1119.93" y2="861.27" gradientUnits="userSpaceOnUse">
<stop stop-color="white"/>
<stop offset="1" stop-color="white" stop-opacity="0"/>
</linearGradient>
<radialGradient id="paint1_radial_4990_340" cx="0" cy="0" r="1" gradientUnits="userSpaceOnUse" gradientTransform="translate(1609.08 1579.87) rotate(-150.607) scale(777.019 1335.47)">
<stop stop-color="white"/>
<stop offset="1" stop-color="white" stop-opacity="0"/>
</radialGradient>
</defs>
</svg>
