<svg width="331" height="280" viewBox="0 0 331 280" fill="none" xmlns="http://www.w3.org/2000/svg">
<path opacity="0.5" d="M0.969452 258.905C0.91684 258.741 0.872498 258.621 0.838257 258.528C0.765228 258.329 0.702271 258.158 0.707916 257.943L0.799164 248.595C0.889526 239.488 0.979675 230.381 1.03497 221.27C1.04532 219.725 2.11554 219.066 3.11737 218.571C9.27551 215.51 15.4281 212.442 21.5814 209.374C27.5564 206.395 33.5321 203.416 39.515 200.442C39.9138 200.243 40.3402 200.129 40.7917 200.008C41.0102 199.95 41.2497 199.886 41.5146 199.804L41.7037 199.746L41.705 199.617L41.3069 199.458C41.0314 199.349 40.8022 199.263 40.6044 199.189C40.2261 199.046 39.9489 198.94 39.6913 198.811L28.8386 193.434C20.2423 189.173 11.648 184.913 3.03488 180.683C1.15652 179.758 0.888062 178.512 0.877472 177.304C0.805237 170.009 0.704926 162.711 0.60434 155.411C0.543793 151.015 0.483398 146.619 0.429016 142.222C0.420563 141.789 0.491455 141.375 0.566254 140.937C0.59903 140.746 0.633545 140.546 0.662659 140.332L0.681061 140.196L0 139.865L0.278748 139.71L0.28949 138.751L0.549591 115.323L0.718079 100.093L0.722931 99.6543L1.17157 99.4304C12.7786 93.6402 24.2823 87.9072 35.9826 82.0763L40.8811 79.635L41.0143 79.5688C40.8211 79.5202 40.6777 79.4882 40.5664 79.4635C40.3398 79.4128 40.1607 79.3728 39.9666 79.2801L31.5449 75.1106C21.8275 70.2987 12.1127 65.4882 2.38391 60.6932C1.10254 60.0606 0.523651 59.1875 0.506744 57.8623C0.436371 51.7219 0.355408 45.5822 0.274719 39.4427C0.197784 33.5915 0.120544 27.7402 0.0526123 21.8894C0.0470886 21.5078 0.171295 21.1722 0.291473 20.8477C0.338196 20.7212 0.38736 20.5895 0.428314 20.4492L0.549194 20.0349L0.0142212 19.7474L1.20496 19.0871C1.51447 18.9155 1.79083 18.7538 2.04919 18.6028C2.49875 18.34 2.92331 18.0919 3.37527 17.8771L13.0927 13.2616C21.6648 9.19243 30.529 4.98462 39.2149 0.805155C40.1341 0.363518 40.9352 0.157888 41.7366 0.157888C42.5294 0.157888 43.3217 0.358997 44.2305 0.790923C53.3593 5.15073 62.6688 9.54012 71.6717 13.785L79.9167 17.6739C80.3727 17.8882 80.8274 18.1096 81.3542 18.3661L82.4363 18.8912L83.2182 19.2683L83.6125 19.0604C83.9016 18.9081 84.1649 18.7664 84.4121 18.6332C84.9365 18.351 85.3914 18.1065 85.8602 17.8835C89.159 16.3138 92.4601 14.7469 95.761 13.18C104.132 9.20688 112.787 5.09833 121.265 1.00921C122.327 0.49304 123.25 0.252173 124.168 0.252173C125.07 0.252173 125.971 0.482086 127.002 0.976006C135.738 5.17772 144.662 9.39196 153.293 13.4673C156.35 14.9108 159.407 16.3544 162.463 17.8005C163.128 18.1165 163.785 18.4362 164.791 18.9258L165.369 19.2074L165.932 18.9266L165.93 19.1135C166.275 18.9221 166.565 18.7557 166.823 18.608C167.3 18.3347 167.672 18.1226 168.061 17.9362C171.428 16.3341 174.795 14.7354 178.162 13.1368C186.693 9.0856 195.515 4.89654 204.163 0.737963C205.04 0.312248 205.823 0.113281 206.622 0.113281C207.431 0.113281 208.248 0.324106 209.193 0.776697C217.316 4.65229 225.458 8.49818 233.599 12.344C237.596 14.2321 241.594 16.1203 245.589 18.012C245.994 18.2028 246.321 18.4403 246.699 18.7152C246.879 18.8459 247.076 18.9893 247.306 19.1439L247.673 19.3906L247.684 19.2848L247.821 19.3393L248.193 19.1756L248.196 19.2377L248.424 19.1053C248.65 18.9743 248.844 18.8572 249.019 18.7513C249.366 18.5413 249.666 18.3602 249.999 18.2008C253.759 16.4107 257.521 14.6243 261.282 12.8379C269.642 8.86721 278.287 4.76137 286.763 0.691889C287.493 0.340702 288.186 0.17008 288.881 0.17008C289.846 0.17008 290.688 0.510315 291.313 0.806961C299.692 4.78757 308.087 8.74876 316.481 12.7097L327.467 17.8959C327.946 18.1192 328.423 18.353 329.091 18.68L329.682 18.9693L330.174 19.2095L330.535 19.0295L330.553 19.3951L330.945 19.5864L330.574 19.8013L330.601 20.3299C330.623 20.7452 330.646 21.1026 330.666 21.4229C330.705 22.0178 330.735 22.4898 330.732 22.9631L330.634 31.8524C330.54 40.1601 330.442 48.7508 330.408 57.2007C330.404 58.9833 329.633 60.0838 327.748 60.9985C320.389 64.6098 312.93 68.3343 305.716 71.9362L299.535 75.0215L294.294 77.6351L290.099 79.728L290.226 79.7892L292.786 81.0239C295.056 82.1179 297.178 83.1401 299.285 84.1809C303.366 86.1916 307.445 88.2061 311.525 90.2209C317.022 92.9352 322.519 95.65 328.022 98.3569C329.297 98.9826 330.545 99.745 330.557 101.55C330.623 108.985 330.723 116.42 330.823 123.856C330.885 128.423 330.946 132.989 331 137.557C331.007 137.943 330.878 138.286 330.753 138.618C330.704 138.75 330.651 138.888 330.607 139.037L330.326 139.98L329.293 139.544C329.06 139.446 328.845 139.358 328.643 139.276C328.193 139.093 327.804 138.936 327.417 138.739L317.359 133.743C308.872 129.525 300.096 125.163 291.44 120.907C290.249 120.32 289.573 119.613 289.293 118.602L289.287 119.191L289.282 119.63L288.833 119.853C275.6 126.451 262.538 132.96 249.004 139.701L247.591 140.404L247.593 140.253L247.417 140.351C247.174 140.486 246.966 140.606 246.779 140.715C246.42 140.922 246.128 141.09 245.824 141.234L235.782 146.005C227.089 150.132 218.1 154.4 209.288 158.631C208.48 159.018 207.725 159.206 206.98 159.206C206.649 159.206 206.317 159.169 205.974 159.094C206.653 159.672 207.131 160.452 207.141 161.631C207.208 169.469 207.316 177.307 207.423 185.145C207.478 189.16 207.533 193.174 207.582 197.189C207.589 197.584 207.487 197.957 207.389 198.319C207.342 198.491 207.292 198.672 207.253 198.867L207.14 199.423L207.55 199.676L207.308 199.806L207.615 199.756L207.604 200.71L207.485 211.581L207.181 239.11L207.176 239.549L206.727 239.772C198.004 244.118 189.353 248.433 180.551 252.822L166.904 259.628L165.491 260.333L165.493 260.165L165.358 260.237C165.049 260.402 164.773 260.554 164.516 260.695C163.996 260.981 163.555 261.223 163.098 261.442C159.7 263.058 156.302 264.671 152.904 266.283C144.561 270.242 135.934 274.336 127.483 278.41C126.529 278.87 125.694 279.084 124.854 279.084C124.021 279.084 123.189 278.873 122.235 278.418C113.393 274.191 104.372 269.935 95.6473 265.82L86.5546 261.528C86.1232 261.328 85.6905 261.118 85.1584 260.86L84.1162 260.355L83.4962 260.057L83.3848 260.109L83.3714 259.997L83.3296 259.977L82.9814 260.173C82.7339 260.312 82.5233 260.437 82.3328 260.549C81.9838 260.755 81.6955 260.924 81.3912 261.069C78.0202 262.673 74.6479 264.274 71.2752 265.876C62.5235 270.033 53.4734 274.331 44.6012 278.6C43.8816 278.946 43.1942 279.113 42.4981 279.113C41.4974 279.113 40.6166 278.757 39.8138 278.371C31.6013 274.467 23.3732 270.582 15.1444 266.697L4.33087 261.588C3.85715 261.369 3.38116 261.136 2.80069 260.852L1.68997 260.312L0.394257 259.685L1.09354 259.293L0.969452 258.905ZM1.80368 177.298C1.81442 178.524 2.1366 179.338 3.50204 180.01C15.7406 186.021 27.9413 192.093 40.1635 198.142C40.5325 198.325 40.9485 198.455 41.7025 198.754C41.746 197.857 41.813 197.281 41.8019 196.707C41.6482 185.087 41.471 173.464 41.3519 161.839C41.3375 160.619 41.0009 159.819 39.639 159.147C27.4781 153.171 15.359 147.125 3.22678 141.105C2.77292 140.883 2.28818 140.719 1.5827 140.421C1.48898 141.108 1.34399 141.659 1.35513 142.214C1.50003 153.913 1.68796 165.61 1.80368 177.298ZM205.484 120.278C205.928 120.138 206.361 120.07 206.794 120.07C207.294 120.07 207.798 120.161 208.342 120.352C207.527 119.793 207.052 119.12 206.861 118.249C206.658 119.058 206.216 119.71 205.484 120.278ZM208.185 38.9534C207.668 39.0967 207.167 39.1655 206.662 39.1655C206.199 39.1655 205.741 39.1084 205.26 38.9874C206.041 39.5456 206.494 40.2121 206.673 41.0659C206.893 40.2128 207.377 39.5371 208.185 38.9534ZM206.07 117.085C206.101 105.678 206.267 94.272 206.381 82.8647C206.388 82.1485 206.325 81.4304 206.283 80.4586C205.41 80.7994 204.78 81.0015 204.212 81.2846C192.236 87.2452 180.27 93.2165 168.289 99.1726C167.169 99.7308 166.437 100.271 166.426 101.548C166.362 113.473 166.203 125.396 166.082 137.324C166.075 137.744 166.167 138.17 166.258 138.946C167.422 138.398 168.195 138.055 168.944 137.677C180.542 131.904 192.111 126.098 203.746 120.379C205.379 119.576 206.063 118.724 206.07 117.085ZM40.7956 120.278C41.2159 120.168 41.6247 120.114 42.0382 120.114C42.4218 120.114 42.8081 120.162 43.21 120.26C42.5144 119.734 42.1956 119.134 42.05 118.531C41.8784 119.357 41.378 119.889 40.7956 120.278ZM43.1689 39.0106C42.7093 39.1293 42.2659 39.1865 41.8225 39.1865C41.3191 39.1864 40.8189 39.1136 40.2973 38.9614C41.0986 39.4572 41.5752 40.0595 41.7824 40.8516C41.9651 39.9544 42.53 39.4055 43.1689 39.0106ZM40.0461 121.412C28.0442 127.192 15.9811 132.886 3.94141 138.617C3.3447 138.897 2.79117 139.245 1.75861 139.82C2.94116 140.395 3.68842 140.759 4.43875 141.121C16.1981 146.666 27.9756 152.189 39.6988 157.789C40.5541 158.196 41.3034 158.418 42.068 158.418C42.7599 158.418 43.464 158.236 44.2709 157.847C56.1153 152.134 68.0301 146.519 79.9143 140.865C80.5853 140.544 81.2201 140.167 82.1172 139.682C81.3903 139.241 80.891 138.865 80.3195 138.593C68.2615 132.88 56.1895 127.201 44.1552 121.453C43.3889 121.089 42.7194 120.893 42.0382 120.893C41.412 120.893 40.7761 121.059 40.0461 121.412ZM42.8566 117.354C42.8673 118.542 43.0969 119.401 44.497 120.084C56.7499 126.098 68.958 132.181 81.1803 138.238C81.5475 138.422 81.9562 138.55 82.6001 138.807C82.7051 138.118 82.866 137.574 82.857 137.028C82.7105 125.322 82.506 113.614 82.4229 101.909C82.4085 100.432 81.7719 99.6562 80.3106 98.9382C68.2873 93.0339 56.3088 87.0597 44.3127 81.1218C43.8694 80.8995 43.3812 80.7477 42.5259 80.4161C42.468 81.3072 42.3956 81.8836 42.401 82.4571C42.5528 94.0895 42.7281 105.723 42.8566 117.354ZM83.2165 100.825C83.3645 100.14 83.7357 99.6014 84.3848 99.133C83.9932 99.2404 83.6074 99.2933 83.2206 99.2933C82.8536 99.2933 82.5041 99.2439 82.1774 99.1663C82.7118 99.6394 83.0478 100.177 83.2165 100.825ZM82.9362 179.835L82.5849 180.01C82.8407 179.958 83.0966 179.933 83.3548 179.933C83.6571 179.933 83.9458 179.969 84.2178 180.027C83.8161 179.655 83.5471 179.224 83.3954 178.709L83.3903 179.172L83.3856 179.611L82.9362 179.835ZM45.0866 80.8722C57.1318 86.5744 69.1967 92.2551 81.2345 97.9739C81.9349 98.3064 82.561 98.5145 83.2206 98.5145C83.7314 98.5145 84.2619 98.3898 84.8628 98.1016C97.0994 92.2263 109.374 86.4177 121.633 80.5908C122.076 80.3808 122.478 80.1086 123.326 79.6143C122.345 79.1396 121.743 78.837 121.132 78.5541C109.078 72.8641 97.0201 67.1803 84.9767 61.4676C84.2765 61.1345 83.6481 60.9235 82.9835 60.9235C82.4736 60.9235 81.9427 61.0475 81.3414 61.3354C69.11 67.2137 56.8371 73.0178 44.5749 78.8431C44.1335 79.056 43.7302 79.3238 43.0593 79.7131C43.8568 80.1757 44.4409 80.5712 45.0866 80.8722ZM121.872 81.3043C109.814 87.3014 97.7668 93.3259 85.6945 99.3078C84.5786 99.8599 84.0739 100.443 84.0668 101.57C83.9816 113.573 83.8299 125.583 83.7032 137.589C83.7015 137.877 83.7665 138.17 83.8405 138.833C90.7295 135.712 97.1535 132.293 103.704 129.07C110.311 125.812 116.883 122.504 123.515 119.187C123.656 106.353 123.792 93.6104 123.935 80.5652C123.06 80.8753 122.421 81.0305 121.872 81.3043ZM84.2819 139.711C86.5102 140.792 88.3224 141.683 90.1544 142.546C100.755 147.563 111.387 152.532 121.949 157.599C122.895 158.052 123.718 158.301 124.561 158.301C125.32 158.301 126.095 158.099 126.992 157.666C138.668 152.003 150.427 146.467 162.157 140.88C162.905 140.524 163.626 140.132 164.588 139.636C163.943 139.212 163.53 138.842 163.029 138.608C150.899 132.862 138.742 127.146 126.635 121.366C125.87 121.003 125.201 120.808 124.521 120.808C123.892 120.808 123.253 120.975 122.521 121.327C110.517 127.107 98.4557 132.804 86.4178 138.529C85.8212 138.812 85.2731 139.16 84.2819 139.711ZM124.447 118.725L124.441 119.194L124.437 119.632L123.989 119.856L123.356 120.173C123.749 120.076 124.133 120.029 124.521 120.029C124.797 120.029 125.073 120.054 125.356 120.104C124.853 119.679 124.586 119.205 124.447 118.725ZM124.689 39.4893L125.038 39.3153C124.757 39.3761 124.477 39.406 124.194 39.406C123.94 39.4059 123.685 39.3815 123.424 39.3312C123.859 39.7291 124.1 40.1662 124.23 40.6089L124.235 40.1521L124.24 39.7131L124.689 39.4893ZM125.23 117.614C125.243 118.659 125.51 119.401 126.68 119.984C139.145 126.116 151.577 132.296 164.018 138.462C164.241 138.578 164.507 138.62 165.105 138.807C165.158 137.99 165.23 137.414 165.221 136.845C165.069 125.222 164.888 113.605 164.769 101.982C164.755 100.766 164.449 99.9451 163.083 99.2729C150.843 93.2559 138.644 87.1812 126.436 81.1218C126.062 80.9347 125.653 80.7993 125.06 80.5619C124.944 81.1339 124.76 81.6114 124.769 82.0798C124.914 93.9268 125.093 105.772 125.23 117.614ZM165.572 100.864C165.772 99.9402 166.361 99.3642 167.035 98.9355C166.562 99.0587 166.105 99.118 165.645 99.118C165.123 99.118 164.608 99.0431 164.06 98.8831C164.986 99.465 165.397 100.151 165.572 100.864ZM127.964 80.9833C139.706 86.5439 151.469 92.0681 163.172 97.6789C164.067 98.1075 164.847 98.3393 165.644 98.3393C166.375 98.3394 167.121 98.1446 167.987 97.7277C179.805 92.0027 191.71 86.3996 203.587 80.7477C204.19 80.4647 204.757 80.1241 205.56 79.6875C205.077 79.3392 204.757 79.0228 204.353 78.8311C191.925 72.948 179.48 67.0877 167.051 61.1911C166.502 60.9281 166 60.7797 165.488 60.7797C165.051 60.7797 164.607 60.8871 164.118 61.1226C151.568 67.1227 139.002 73.0942 126.442 79.0791C126.226 79.1855 126.056 79.3575 125.479 79.7833C126.474 80.2655 127.219 80.629 127.964 80.9833ZM165.854 178.437C165.689 179.287 165.178 179.828 164.582 180.222C165.007 180.109 165.419 180.055 165.836 180.055C166.244 180.055 166.655 180.109 167.082 180.22C166.448 179.733 166.05 179.156 165.854 178.437ZM165.836 180.834C165.209 180.834 164.572 180.999 163.841 181.35C151.836 187.13 139.776 192.827 127.738 198.558C127.145 198.841 126.595 199.183 125.55 199.763C126.735 200.336 127.478 200.703 128.228 201.059C139.99 206.607 151.765 212.128 163.488 217.73C164.345 218.14 165.093 218.362 165.857 218.362C166.547 218.362 167.25 218.18 168.059 217.791C179.905 212.078 191.818 206.458 203.704 200.806C204.377 200.485 205.017 200.114 205.914 199.632C205.187 199.183 204.688 198.808 204.118 198.537C192.057 192.827 179.986 187.145 167.957 181.397C167.191 181.031 166.519 180.834 165.836 180.834ZM126.803 198.178C139.017 192.102 151.221 186.009 163.436 179.931C164.424 179.446 164.973 178.919 164.984 177.859C165.064 165.704 165.211 153.545 165.332 141.39C165.333 141.175 165.266 140.958 165.151 140.244C151.754 146.917 138.675 153.437 125.433 160.037C125.293 172.86 125.152 185.665 125.008 198.724C125.762 198.5 126.333 198.409 126.803 198.178ZM124.507 160.03L124.512 159.591L124.961 159.367L125.835 158.931C125.404 159.031 124.984 159.08 124.561 159.08C124.084 159.08 123.611 159.019 123.115 158.89C123.914 159.482 124.309 160.143 124.498 160.825L124.507 160.03ZM123.38 240.201C123.816 240.068 124.243 240.004 124.671 240.004C125.23 240.004 125.741 240.115 126.204 240.27C125.368 239.74 124.894 239.099 124.731 238.275C124.516 239.038 124.08 239.659 123.38 240.201ZM123.736 162.172C123.722 160.7 123.286 159.762 121.651 158.968C109.689 153.121 97.7903 147.183 85.8717 141.276C85.3527 141.019 84.7903 140.813 84.0253 140.48C83.8968 141.087 83.7088 141.557 83.7124 142.024C83.8607 153.874 84.0414 165.73 84.1699 177.587C84.1807 178.739 84.557 179.485 85.8085 180.097C98.0509 186.135 110.257 192.216 122.478 198.28C122.848 198.464 123.255 198.589 124.062 198.899C124.112 197.918 124.179 197.271 124.176 196.625C124.022 185.14 123.834 173.66 123.736 162.172ZM121.976 198.608C109.694 192.806 97.4085 187.016 85.1301 181.193C84.5099 180.9 83.9457 180.712 83.3547 180.712C82.9168 180.712 82.4645 180.815 81.9633 181.055C69.4914 187.025 56.9978 192.957 44.515 198.902C44.2255 199.044 43.9779 199.246 43.3284 199.672C44.4065 200.198 45.1535 200.568 45.9166 200.928C57.6562 206.481 69.4244 212.001 81.1243 217.622C81.9995 218.045 82.7596 218.258 83.5223 218.258C84.2836 218.258 85.0478 218.045 85.9313 217.616C97.6835 211.931 109.512 206.361 121.307 200.745C121.982 200.426 122.62 200.05 123.537 199.561C122.886 199.159 122.461 198.841 121.976 198.608ZM82.4645 179.165C82.6037 166.369 82.743 153.574 82.884 140.747C80.8422 141.114 47.3527 157.562 43.0518 160.27C42.9179 172.959 42.7804 185.735 42.6378 199.002C56.1895 192.254 69.251 185.746 82.4645 179.165ZM42.1221 160.619L42.1257 160.263L42.1299 159.877L42.497 159.646C42.7719 159.473 43.2002 159.226 43.7602 158.918C43.1811 159.106 42.6284 159.196 42.0678 159.196C41.7495 159.196 41.4293 159.166 41.1006 159.104C41.6679 159.573 41.9674 160.088 42.1221 160.619ZM41.8891 239.775C41.6816 239.879 41.4745 239.982 41.2672 240.086C41.6497 239.994 42.0253 239.948 42.399 239.948C42.6997 239.948 42.9989 239.976 43.3056 240.034C42.7858 239.588 42.499 239.085 42.3492 238.522L42.3428 239.113L42.338 239.552L41.8891 239.775ZM1.64447 100.1C1.50174 112.931 1.36246 125.738 1.21585 138.759C1.89032 138.584 2.39505 138.54 2.79843 138.336C15.0858 132.228 27.3643 126.094 39.6571 119.99C40.6538 119.49 41.1819 118.948 41.1873 117.899C41.2722 105.743 41.415 93.5892 41.5327 81.4337C41.5344 81.2191 41.4692 81.0016 41.3535 80.305C27.9557 86.9821 14.8671 93.5039 1.64447 100.1ZM0.979126 21.8818C1.11838 33.8716 1.29559 45.8627 1.43295 57.854C1.44559 58.8411 1.80194 59.5028 2.85263 60.0214C15.3878 66.1996 27.8996 72.4035 40.424 78.6029C40.5739 78.6745 40.755 78.6898 41.3139 78.8311C41.3626 78.0799 41.4351 77.5095 41.426 76.9422C41.2758 65.246 41.0986 53.5512 40.9794 41.8505C40.9666 40.6854 40.5597 39.9629 39.3226 39.3545C27.0912 33.327 14.894 27.26 2.68271 21.1974C2.3082 21.0104 1.90146 20.8718 1.32785 20.6347C1.19049 21.106 0.973511 21.4924 0.979126 21.8818ZM79.4641 18.3531C67.5618 12.7347 55.645 7.1377 43.7753 1.46891C43.0298 1.11456 42.3837 0.936597 41.7371 0.936597C41.0848 0.936597 40.432 1.1175 39.6753 1.48099C27.7585 7.21517 15.7822 12.8717 3.83112 18.5554C3.17102 18.8687 2.56506 19.2657 1.71509 19.7372C2.61218 20.2194 3.23602 20.5951 3.90164 20.9099C15.7948 26.5434 27.7096 32.1408 39.5668 37.8214C40.3862 38.214 41.1056 38.4076 41.8225 38.4078C42.561 38.4078 43.2973 38.2023 44.1388 37.7971C55.976 32.092 67.8764 26.4705 79.748 20.8247C80.4081 20.5115 81.0122 20.113 81.9761 19.5669C80.9324 19.0635 80.2018 18.7 79.4641 18.3531ZM82.5097 20.665C81.9182 20.8111 81.41 20.852 81.0121 21.0483C68.7246 27.158 56.4625 33.2828 44.1769 39.3864C43.175 39.8822 42.6539 40.4329 42.6468 41.4732C42.5581 53.6226 42.4189 65.7644 42.3014 77.9138C42.2977 78.1328 42.3792 78.3519 42.4874 78.9147C43.4315 78.5086 44.1314 78.2425 44.788 77.9199C56.6144 72.0261 68.4153 66.1157 80.2669 60.26C81.6196 59.5922 82.2491 58.8926 82.2526 57.4949C82.3088 45.7926 82.4661 34.0873 82.5926 22.388C82.5927 21.8757 82.5422 21.3617 82.5097 20.665ZM83.0823 58.4135C82.907 59.1801 82.4866 59.7889 81.7634 60.3207C82.174 60.2029 82.5779 60.1451 82.9833 60.1451C83.5263 60.1451 84.0313 60.2532 84.4817 60.4012C83.6121 59.8132 83.2368 59.1254 83.0823 58.4135ZM83.575 20.5281C83.5207 21.3524 83.4482 21.9304 83.4502 22.5039C83.6076 34.1211 83.7847 45.7428 83.9077 57.3689C83.9166 58.5781 84.2041 59.4116 85.5768 60.0915C97.823 66.0917 110.023 72.1665 122.244 78.2198C122.613 78.4038 123.025 78.5361 123.622 78.7764C123.736 78.2031 123.913 77.7269 123.91 77.2555C123.767 65.4118 123.584 53.568 123.45 41.7273C123.438 40.6824 123.152 39.9342 121.985 39.3577C109.522 33.2205 97.0922 27.041 84.651 20.875C84.4284 20.7639 84.1627 20.7151 83.575 20.5281ZM162.009 18.4794C150.179 12.8807 138.324 7.3186 126.545 1.65297C125.673 1.23584 124.918 1.03111 124.169 1.03111C123.39 1.03111 122.618 1.25176 121.727 1.68492C109.958 7.36106 98.1248 12.943 86.3167 18.5613C85.6385 18.8838 84.9909 19.2534 84.1046 19.7205C84.6979 20.1357 85.0886 20.5082 85.5733 20.7303C97.8662 26.5465 110.166 32.3398 122.454 38.1605C123.064 38.4529 123.62 38.627 124.194 38.627C124.647 38.6271 125.112 38.5187 125.626 38.2746C138.109 32.3002 150.619 26.364 163.114 20.4109C163.409 20.2695 163.666 20.0642 164.362 19.617C163.34 19.1196 162.678 18.7972 162.009 18.4794ZM125.161 40.1591C125.022 53.0341 124.879 65.8041 124.738 79.0913C138.279 72.3429 151.337 65.8346 164.565 59.2488C164.706 46.4576 164.847 33.6617 164.992 20.3015C151.369 27.094 138.293 33.613 125.161 40.1591ZM165.491 59.2559L165.486 59.6951L165.036 59.9188C164.927 59.9732 164.818 60.0271 164.709 60.0815C164.969 60.0276 165.227 60.0009 165.488 60.0009C165.763 60.0009 166.038 60.0304 166.32 60.0913C165.876 59.6647 165.63 59.2033 165.496 58.7299L165.491 59.2559ZM165.82 22.4066C165.972 34.1119 166.147 45.8171 166.272 57.5271C166.288 58.7408 166.617 59.5559 167.983 60.2297C180.086 66.1768 192.131 72.1922 204.2 78.18C204.708 78.4325 205.26 78.6182 206.155 78.9711C206.216 78.0982 206.289 77.5855 206.283 77.0745C206.13 65.369 205.936 53.6638 205.837 41.954C205.824 40.6019 205.287 39.8154 203.896 39.1325C191.871 33.2314 179.887 27.2661 167.889 21.3206C167.38 21.0682 166.827 20.878 166.035 20.551C165.943 21.3024 165.813 21.8544 165.82 22.4066ZM245.135 18.6907C233.003 12.9462 220.849 7.23346 208.735 1.45366C207.973 1.08836 207.303 0.892328 206.622 0.892328C205.994 0.892328 205.355 1.05934 204.623 1.41425C192.618 7.18784 180.556 12.8869 168.52 18.6132C167.927 18.8975 167.375 19.2476 166.384 19.795C168.614 20.8718 170.422 21.7693 172.255 22.6361C182.857 27.6462 193.484 32.6153 204.046 37.6831C204.994 38.138 205.819 38.3867 206.662 38.3867C207.42 38.3867 208.193 38.1857 209.085 37.7531C220.686 32.121 232.368 26.6242 244.025 21.0758C244.851 20.6818 245.665 20.2756 246.728 19.7525C246.043 19.2916 245.636 18.9265 245.135 18.6907ZM247.327 20.4353C246.298 20.8871 245.529 21.1836 244.802 21.5487C233.12 27.3602 221.472 33.216 209.75 38.9789C208.104 39.7865 207.46 40.655 207.457 42.2824C207.421 53.6956 207.254 65.112 207.137 76.5237C207.129 77.2401 207.206 77.9595 207.249 78.9467C208.278 78.4935 209.05 78.1922 209.774 77.8348C221.452 72.0201 233.108 66.166 244.829 60.4061C246.473 59.5956 247.106 58.721 247.112 57.0966C247.152 45.6848 247.314 34.2731 247.432 22.8507C247.443 22.1419 247.374 21.4285 247.327 20.4353ZM207.956 79.6251C208.414 79.9916 208.697 80.355 209.097 80.5421C221.537 86.4314 233.998 92.2962 246.43 98.196C246.973 98.4492 247.465 98.5842 247.961 98.5844C248.415 98.5844 248.871 98.4707 249.371 98.2309C261.935 92.2263 274.511 86.2473 287.08 80.2546C287.306 80.1498 287.487 79.9796 288.014 79.6189C287.135 79.1368 286.515 78.7597 285.846 78.4446C274.02 72.8476 262.17 67.2839 250.384 61.6243C249.493 61.198 248.721 60.9766 247.942 60.9766C247.194 60.9766 246.439 61.1801 245.564 61.6016C233.806 67.2869 221.965 72.8642 210.157 78.4843C209.474 78.8082 208.822 79.1718 207.956 79.6251ZM247.897 58.3104C247.679 59.163 247.201 59.8381 246.404 60.4209C246.931 60.2703 247.436 60.1982 247.942 60.1982C248.352 60.1982 248.765 60.2467 249.193 60.347C248.386 59.7694 248.032 59.0935 247.897 58.3104ZM248.302 22.5039C248.445 34.1346 248.622 45.7686 248.75 57.3979C248.76 58.5979 249.025 59.4359 250.412 60.1187C262.589 66.0947 274.719 72.1435 286.866 78.165C287.307 78.3825 287.787 78.5483 288.68 78.9148C288.711 77.8121 288.756 77.0881 288.749 76.3672C288.595 65.0285 288.398 53.6956 288.329 42.3568C288.316 40.6823 287.756 39.6998 285.967 38.8221C274.074 33.0273 262.26 27.117 250.414 21.2474C249.895 20.9904 249.335 20.8033 248.494 20.4687C248.412 21.2703 248.295 21.8879 248.302 22.5039ZM327.015 18.5751C314.962 12.8807 302.894 7.20297 290.86 1.48573C290.16 1.15397 289.536 0.949244 288.882 0.949244C288.366 0.949244 287.831 1.07628 287.222 1.36863C274.995 7.23956 262.712 13.045 250.458 18.8779C250.013 19.0908 249.617 19.36 248.951 19.7464C249.682 20.1753 250.199 20.5282 250.767 20.8005C262.89 26.5331 275.029 32.258 287.143 38.0086C287.84 38.3376 288.461 38.5387 289.111 38.5387C289.631 38.5387 290.169 38.4104 290.78 38.1167C303.011 32.2443 315.286 26.4402 327.543 20.6119C327.991 20.3961 328.389 20.1238 329.218 19.6431C328.225 19.1577 327.624 18.8596 327.015 18.5751ZM290.066 117.374C290.076 118.686 290.473 119.528 291.908 120.235C303.93 126.147 315.905 132.123 327.895 138.073C328.415 138.336 328.979 138.54 329.71 138.848C329.858 138.351 330.082 137.96 330.075 137.565C329.934 125.558 329.738 113.558 329.632 101.554C329.622 100.176 328.749 99.615 327.555 99.0295C317.968 94.313 308.397 89.5736 298.817 84.8527C295.941 83.4321 293.039 82.0465 289.765 80.4647C289.698 81.3302 289.61 81.9081 289.617 82.4754C289.769 94.1078 289.953 105.74 290.066 117.374ZM299.063 74.3519C308.464 69.6643 317.853 64.9538 327.286 60.3242C328.832 59.5742 329.48 58.7438 329.483 57.1986C329.529 45.7836 329.688 34.372 329.807 22.9602C329.811 22.2438 329.737 21.5306 329.677 20.3639C316.237 27.0698 303.172 33.5841 290.004 40.1426C289.866 52.9918 289.729 65.7769 289.586 79.0792C293.167 77.2935 296.113 75.8212 299.063 74.3519ZM289.07 40.9199L289.078 40.1354L289.083 39.6962L289.532 39.4724C289.707 39.3856 289.88 39.2993 290.054 39.2125C289.738 39.2826 289.425 39.3173 289.111 39.3173C288.713 39.3173 288.336 39.2598 287.987 39.1716C288.524 39.668 288.876 40.2374 289.07 40.9199ZM288.362 119.184C288.503 106.277 288.64 93.5464 288.779 80.8996C288.533 80.781 288.459 80.7355 288.385 80.7172C288.328 80.6966 288.255 80.6755 288.197 80.6755C288.177 80.6755 288.159 80.6779 288.145 80.6836C287.669 80.8754 287.182 81.0532 286.729 81.2708C274.161 87.5357 261.591 93.8036 248.953 100.106C248.813 112.965 248.678 125.741 248.533 139.031C262.067 132.29 275.128 125.782 288.362 119.184ZM248.027 100.099L248.032 99.6604L248.48 99.4365L248.824 99.2653C248.535 99.3308 248.249 99.3631 247.961 99.3631C247.721 99.363 247.483 99.3413 247.242 99.297C247.66 99.689 247.894 100.117 248.022 100.549L248.027 100.099ZM247.707 137.2C247.556 125.351 247.383 113.514 247.244 101.667C247.229 100.62 246.949 99.8813 245.784 99.2988C233.319 93.1678 220.889 86.9821 208.446 80.8191C208.225 80.7111 207.96 80.6609 207.37 80.4738C207.314 81.2951 207.238 81.8685 207.245 82.4419C207.399 94.0622 207.585 105.687 207.688 117.307C207.701 118.659 208.207 119.45 209.598 120.134C221.689 126.075 233.737 132.072 245.802 138.042C246.255 138.266 246.736 138.441 247.408 138.716C247.526 138.144 247.71 137.671 247.707 137.2ZM206.981 158.427C207.561 158.427 208.154 158.278 208.83 157.955C220.981 152.12 233.187 146.35 245.37 140.556C245.815 140.345 246.229 140.079 246.908 139.702C246.24 139.28 245.766 138.903 245.211 138.64C233.007 132.868 220.792 127.119 208.603 121.327C207.957 121.021 207.382 120.848 206.794 120.848C206.289 120.848 205.775 120.975 205.196 121.252C192.882 127.149 180.533 133 168.199 138.87C167.828 139.046 167.498 139.28 166.802 139.696C167.665 140.167 168.224 140.512 168.822 140.792C180.873 146.488 192.936 152.172 204.963 157.892C205.685 158.237 206.325 158.427 206.981 158.427ZM206.216 161.637C206.203 160.212 205.428 159.541 204.107 158.892C193.375 153.629 182.67 148.325 171.951 143.034C170.218 142.178 168.469 141.344 166.276 140.281C166.239 141.39 166.192 142.115 166.203 142.836C166.355 154.318 166.538 165.8 166.633 177.286C166.648 178.612 167.095 179.433 168.509 180.133C180.534 186.034 192.513 192.006 204.507 197.951C205.026 198.213 205.581 198.417 206.341 198.736C206.462 198.141 206.665 197.667 206.657 197.197C206.511 185.343 206.318 173.49 206.216 161.637ZM206.256 239.103C206.399 226.322 206.538 213.529 206.679 200.703C204.681 201.03 171.518 217.295 166.845 220.203C166.713 232.886 166.574 245.667 166.433 258.959C180.053 252.168 193.073 245.67 206.256 239.103ZM165.92 220.196L165.924 219.808L166.295 219.577C166.575 219.402 166.99 219.164 167.519 218.871C166.95 219.054 166.407 219.141 165.857 219.141C165.547 219.141 165.239 219.113 164.925 219.057C165.485 219.526 165.77 220.047 165.916 220.575L165.92 220.196ZM165.471 258.641C165.523 257.789 165.603 257.149 165.592 256.507C165.443 244.952 165.268 233.405 165.138 221.859C165.124 220.676 164.912 219.814 163.508 219.125C151.194 213.082 138.925 206.958 126.632 200.864C126.333 200.716 126.006 200.613 125.469 200.403C125.342 200.942 125.131 201.404 125.14 201.86C125.282 213.774 125.467 225.692 125.592 237.607C125.603 238.716 126.114 239.356 127.223 239.906C139.451 245.93 151.657 251.999 163.876 258.041C164.308 258.254 164.782 258.387 165.471 258.641ZM87.0093 260.849C98.9097 266.472 110.828 272.069 122.693 277.741C123.479 278.116 124.165 278.306 124.855 278.306C125.541 278.306 126.23 278.118 127.024 277.735C138.861 272.028 150.764 266.416 162.641 260.766C163.31 260.445 163.944 260.072 164.861 259.581C164.049 259.115 163.46 258.723 162.821 258.414C150.769 252.717 138.704 247.036 126.664 241.324C125.959 240.992 125.332 240.782 124.671 240.782C124.163 240.782 123.634 240.906 123.033 241.192C110.801 247.071 98.5246 252.875 86.2661 258.711C85.8212 258.919 85.4216 259.187 84.5769 259.68C85.6494 260.195 86.3221 260.531 87.0093 260.849ZM84.1661 258.855C85.3309 258.312 86.105 257.967 86.8591 257.588C98.4503 251.821 110.023 246.009 121.658 240.291C123.296 239.486 123.962 238.62 123.967 236.993C124 225.581 124.168 214.182 124.282 202.768C124.289 202.06 124.221 201.346 124.174 200.371C123.298 200.717 122.672 200.922 122.101 201.208C110.128 207.169 98.1609 213.146 86.1807 219.093C85.0504 219.653 84.3341 220.2 84.3288 221.47C84.2619 233.402 84.1026 245.323 83.9796 257.246C83.9764 257.666 84.0739 258.086 84.1661 258.855ZM83.4887 220.711C83.7006 219.821 84.2797 219.263 84.9394 218.846C84.4548 218.975 83.9885 219.037 83.5223 219.037C83.0251 219.037 82.5269 218.966 82.0059 218.819C82.937 219.361 83.3299 220.021 83.4887 220.711ZM83.1228 257.009C82.9745 245.24 82.8007 233.469 82.6633 221.7C82.6542 220.658 82.4083 219.906 81.2271 219.324C68.7698 213.184 56.3376 207 43.8964 200.834C43.674 200.723 43.4117 200.672 42.7932 200.473C42.7388 201.276 42.6612 201.848 42.6721 202.418C42.8276 214.04 43.0047 225.665 43.1294 237.283C43.1439 238.483 43.3954 239.326 44.7791 240.009C57.0248 246.017 69.2201 252.097 81.4316 258.152C81.8058 258.337 82.2146 258.478 82.8765 258.755C82.9764 258.083 83.1281 257.544 83.1228 257.009ZM4.78613 260.91C16.618 266.504 28.4587 272.078 40.2739 277.695C41.0523 278.069 41.7466 278.335 42.4993 278.335C43.006 278.335 43.5392 278.215 44.1425 277.925C56.3793 272.037 68.6686 266.229 80.9362 260.391C81.3867 260.177 81.7968 259.903 82.4678 259.526C81.8024 259.1 81.314 258.705 80.7461 258.439C68.6921 252.73 56.6144 247.051 44.5785 241.31C43.7966 240.938 43.1085 240.727 42.3991 240.727C41.7935 240.727 41.1725 240.881 40.4639 241.221C28.3807 247.033 16.2417 252.765 4.13141 258.533C3.60867 258.779 3.12756 259.091 2.15271 259.637C3.3013 260.192 4.03729 260.563 4.78613 260.91ZM1.86349 258.702C8.6311 255.62 15.0678 252.213 21.6186 248.98C28.2198 245.722 34.794 242.407 41.417 239.105C41.5563 226.253 41.6957 213.526 41.833 200.535C41.0371 200.78 40.4623 200.875 39.9864 201.112C27.8417 207.149 15.728 213.208 3.58719 219.242C2.61581 219.722 1.96835 220.191 1.96109 221.274C1.88712 233.507 1.74969 245.731 1.63382 257.961C1.63007 258.102 1.71512 258.241 1.86349 258.702Z" fill="url(#paint0_linear_4183_3861)"/>
<defs>
<linearGradient id="paint0_linear_4183_3861" x1="280.63" y1="122.453" x2="59.2203" y2="42.7535" gradientUnits="userSpaceOnUse">
<stop stop-color="#335FFF" stop-opacity="0"/>
<stop offset="1" stop-color="#335FFF"/>
</linearGradient>
</defs>
</svg>
