<svg width="331" height="280" viewBox="0 0 331 280" fill="none" xmlns="http://www.w3.org/2000/svg">
<path opacity="0.5" d="M330.031 258.905C330.083 258.741 330.128 258.621 330.162 258.528C330.235 258.329 330.298 258.158 330.292 257.943L330.201 248.595C330.11 239.488 330.02 230.381 329.965 221.27C329.955 219.725 328.884 219.066 327.883 218.571C321.724 215.51 315.572 212.442 309.419 209.374C303.444 206.395 297.468 203.416 291.485 200.442C291.086 200.243 290.66 200.129 290.208 200.008C289.99 199.95 289.75 199.886 289.485 199.804L289.296 199.746L289.295 199.617L289.693 199.458C289.969 199.349 290.198 199.263 290.396 199.189C290.774 199.046 291.051 198.94 291.309 198.811L302.161 193.434C310.758 189.173 319.352 184.913 327.965 180.683C329.843 179.758 330.112 178.512 330.123 177.304C330.195 170.009 330.295 162.711 330.396 155.411C330.456 151.015 330.517 146.619 330.571 142.222C330.579 141.789 330.509 141.375 330.434 140.937C330.401 140.746 330.366 140.546 330.337 140.332L330.319 140.196L331 139.865L330.721 139.71L330.711 138.751L330.45 115.323L330.282 100.093L330.277 99.6543L329.828 99.4304C318.221 93.6402 306.718 87.9072 295.017 82.0763L290.119 79.635L289.986 79.5688C290.179 79.5202 290.322 79.4882 290.434 79.4635C290.66 79.4128 290.839 79.3728 291.033 79.2801L299.455 75.1106C309.172 70.2987 318.887 65.4882 328.616 60.6932C329.897 60.0606 330.476 59.1875 330.493 57.8623C330.564 51.7219 330.645 45.5822 330.725 39.4427C330.802 33.5915 330.879 27.7402 330.947 21.8894C330.953 21.5078 330.829 21.1722 330.709 20.8477C330.662 20.7212 330.613 20.5895 330.572 20.4492L330.451 20.0349L330.986 19.7474L329.795 19.0871C329.486 18.9155 329.209 18.7538 328.951 18.6028C328.501 18.34 328.077 18.0919 327.625 17.8771L317.907 13.2616C309.335 9.19243 300.471 4.98462 291.785 0.805155C290.866 0.363518 290.065 0.157888 289.263 0.157888C288.471 0.157888 287.678 0.358997 286.77 0.790923C277.641 5.15073 268.331 9.54012 259.328 13.785L251.083 17.6739C250.627 17.8882 250.173 18.1096 249.646 18.3661L248.564 18.8912L247.782 19.2683L247.387 19.0604C247.098 18.9081 246.835 18.7664 246.588 18.6332C246.064 18.351 245.609 18.1065 245.14 17.8835C241.841 16.3138 238.54 14.7469 235.239 13.18C226.868 9.20688 218.213 5.09833 209.735 1.00921C208.673 0.49304 207.75 0.252173 206.832 0.252173C205.93 0.252173 205.029 0.482086 203.998 0.976006C195.262 5.17772 186.338 9.39196 177.707 13.4673C174.65 14.9108 171.593 16.3544 168.537 17.8005C167.872 18.1165 167.215 18.4362 166.209 18.9258L165.631 19.2074L165.068 18.9266L165.07 19.1135C164.725 18.9221 164.435 18.7557 164.177 18.608C163.7 18.3347 163.328 18.1226 162.939 17.9362C159.572 16.3341 156.205 14.7354 152.838 13.1368C144.307 9.0856 135.485 4.89654 126.837 0.737963C125.96 0.312248 125.177 0.113281 124.378 0.113281C123.569 0.113281 122.752 0.324106 121.807 0.776697C113.684 4.65229 105.542 8.49818 97.4008 12.344C93.4035 14.2321 89.4062 16.1203 85.4115 18.012C85.006 18.2028 84.6793 18.4403 84.3007 18.7152C84.1209 18.8459 83.924 18.9893 83.6942 19.1439L83.3271 19.3906L83.3164 19.2848L83.1794 19.3393L82.8069 19.1756L82.804 19.2377L82.5756 19.1053C82.3501 18.9743 82.1564 18.8572 81.9813 18.7513C81.6342 18.5413 81.3345 18.3602 81.0013 18.2008C77.2405 16.4107 73.4793 14.6243 69.718 12.8379C61.3579 8.86721 52.7134 4.76137 44.2375 0.691889C43.5068 0.340702 42.8139 0.17008 42.1189 0.17008C41.1539 0.17008 40.3122 0.510315 39.6866 0.806961C31.3077 4.78757 22.9129 8.74876 14.5187 12.7097L3.53281 17.8959C3.05398 18.1192 2.5765 18.353 1.90915 18.68L1.31767 18.9693L0.826221 19.2095L0.465421 19.0295L0.446891 19.3951L0.0552105 19.5864L0.425812 19.8013L0.398824 20.3299C0.37734 20.7452 0.354108 21.1026 0.333563 21.4229C0.295161 22.0178 0.26495 22.4898 0.26777 22.9631L0.365928 31.8524C0.460457 40.1601 0.557806 48.7508 0.591509 57.2007C0.595538 58.9833 1.36655 60.0838 3.25218 60.9985C10.6106 64.6098 18.07 68.3343 25.2836 71.9362L31.4653 75.0215L36.7057 77.6351L40.9007 79.728L40.7741 79.7892L38.2142 81.0239C35.9436 82.1179 33.8219 83.1401 31.7148 84.1809C27.6343 86.1916 23.5548 88.2061 19.4751 90.2209C13.9781 92.9352 8.48073 95.65 2.97812 98.3569C1.70264 98.9826 0.455216 99.745 0.4434 101.55C0.377202 108.985 0.277034 116.42 0.176865 123.856C0.115367 128.423 0.0535997 132.989 0.000292309 137.557C-0.00695857 137.943 0.121946 138.286 0.246822 138.618C0.29637 138.75 0.349006 138.888 0.393317 139.037L0.674489 139.98L1.70721 139.544C1.93964 139.446 2.15488 139.358 2.35697 139.276C2.80733 139.093 3.19618 138.936 3.58343 138.739L13.6411 133.743C22.1282 129.525 30.9045 125.163 39.5599 120.907C40.7509 120.32 41.4268 119.613 41.7071 118.602L41.7134 119.191L41.7178 119.63L42.1668 119.853C55.4004 126.451 68.4621 132.96 81.9959 139.701L83.4089 140.404L83.407 140.253L83.5829 140.351C83.8255 140.486 84.0337 140.606 84.2214 140.715C84.5799 140.922 84.8716 141.09 85.1756 141.234L95.2181 146.005C103.911 150.132 112.9 154.4 121.712 158.631C122.52 159.018 123.275 159.206 124.02 159.206C124.351 159.206 124.683 159.169 125.026 159.094C124.347 159.672 123.869 160.452 123.859 161.631C123.792 169.469 123.684 177.307 123.577 185.145C123.522 189.16 123.467 193.174 123.418 197.189C123.411 197.584 123.513 197.957 123.611 198.319C123.658 198.491 123.708 198.672 123.747 198.867L123.86 199.423L123.45 199.676L123.692 199.806L123.385 199.756L123.396 200.71L123.515 211.581L123.819 239.11L123.824 239.549L124.273 239.772C132.996 244.118 141.647 248.433 150.449 252.822L164.096 259.628L165.509 260.333L165.507 260.165L165.642 260.237C165.951 260.402 166.227 260.554 166.484 260.695C167.004 260.981 167.445 261.223 167.902 261.442C171.3 263.058 174.698 264.671 178.096 266.283C186.439 270.242 195.066 274.336 203.517 278.41C204.471 278.87 205.306 279.084 206.146 279.084C206.979 279.084 207.811 278.873 208.765 278.418C217.607 274.191 226.628 269.935 235.353 265.82L244.445 261.528C244.877 261.328 245.31 261.118 245.842 260.86L246.884 260.355L247.504 260.057L247.615 260.109L247.629 259.997L247.67 259.977L248.019 260.173C248.266 260.312 248.477 260.437 248.667 260.549C249.016 260.755 249.305 260.924 249.609 261.069C252.98 262.673 256.352 264.274 259.725 265.876C268.477 270.033 277.527 274.331 286.399 278.6C287.118 278.946 287.806 279.113 288.502 279.113C289.503 279.113 290.383 278.757 291.186 278.371C299.399 274.467 307.627 270.582 315.856 266.697L326.669 261.588C327.143 261.369 327.619 261.136 328.199 260.852L329.31 260.312L330.606 259.685L329.906 259.293L330.031 258.905ZM329.196 177.298C329.186 178.524 328.863 179.338 327.498 180.01C315.259 186.021 303.059 192.093 290.836 198.142C290.467 198.325 290.051 198.455 289.298 198.754C289.254 197.857 289.187 197.281 289.198 196.707C289.352 185.087 289.529 173.464 289.648 161.839C289.663 160.619 289.999 159.819 291.361 159.147C303.522 153.171 315.641 147.125 327.773 141.105C328.227 140.883 328.712 140.719 329.417 140.421C329.511 141.108 329.656 141.659 329.645 142.214C329.5 153.913 329.312 165.61 329.196 177.298ZM125.516 120.278C125.072 120.138 124.639 120.07 124.206 120.07C123.706 120.07 123.202 120.161 122.658 120.352C123.473 119.793 123.948 119.12 124.139 118.249C124.342 119.058 124.784 119.71 125.516 120.278ZM122.815 38.9534C123.332 39.0967 123.833 39.1655 124.338 39.1655C124.801 39.1655 125.259 39.1084 125.74 38.9874C124.959 39.5456 124.506 40.2121 124.327 41.0659C124.107 40.2128 123.623 39.5371 122.815 38.9534ZM124.93 117.085C124.899 105.678 124.733 94.272 124.619 82.8647C124.612 82.1485 124.675 81.4304 124.717 80.4586C125.59 80.7994 126.22 81.0015 126.788 81.2846C138.764 87.2452 150.73 93.2165 162.711 99.1726C163.831 99.7308 164.563 100.271 164.574 101.548C164.638 113.473 164.797 125.396 164.918 137.324C164.925 137.744 164.833 138.17 164.742 138.946C163.578 138.398 162.805 138.055 162.056 137.677C150.458 131.904 138.889 126.098 127.254 120.379C125.621 119.576 124.937 118.724 124.93 117.085ZM290.204 120.278C289.784 120.168 289.375 120.114 288.962 120.114C288.578 120.114 288.192 120.162 287.79 120.26C288.486 119.734 288.804 119.134 288.95 118.531C289.122 119.357 289.622 119.889 290.204 120.278ZM287.831 39.0106C288.291 39.1293 288.734 39.1865 289.177 39.1865C289.681 39.1864 290.181 39.1136 290.703 38.9614C289.901 39.4572 289.425 40.0595 289.218 40.8516C289.035 39.9544 288.47 39.4055 287.831 39.0106ZM290.954 121.412C302.956 127.192 315.019 132.886 327.059 138.617C327.655 138.897 328.209 139.245 329.241 139.82C328.059 140.395 327.312 140.759 326.561 141.121C314.802 146.666 303.024 152.189 291.301 157.789C290.446 158.196 289.697 158.418 288.932 158.418C288.24 158.418 287.536 158.236 286.729 157.847C274.885 152.134 262.97 146.519 251.086 140.865C250.415 140.544 249.78 140.167 248.883 139.682C249.61 139.241 250.109 138.865 250.68 138.593C262.739 132.88 274.811 127.201 286.845 121.453C287.611 121.089 288.281 120.893 288.962 120.893C289.588 120.893 290.224 121.059 290.954 121.412ZM288.143 117.354C288.133 118.542 287.903 119.401 286.503 120.084C274.25 126.098 262.042 132.181 249.82 138.238C249.452 138.422 249.044 138.55 248.4 138.807C248.295 138.118 248.134 137.574 248.143 137.028C248.29 125.322 248.494 113.614 248.577 101.909C248.592 100.432 249.228 99.6562 250.689 98.9382C262.713 93.0339 274.691 87.0597 286.687 81.1218C287.131 80.8995 287.619 80.7477 288.474 80.4161C288.532 81.3072 288.604 81.8836 288.599 82.4571C288.447 94.0895 288.272 105.723 288.143 117.354ZM247.783 100.825C247.635 100.14 247.264 99.6014 246.615 99.133C247.007 99.2404 247.393 99.2933 247.779 99.2933C248.146 99.2933 248.496 99.2439 248.823 99.1663C248.288 99.6394 247.952 100.177 247.783 100.825ZM248.064 179.835L248.415 180.01C248.159 179.958 247.903 179.933 247.645 179.933C247.343 179.933 247.054 179.969 246.782 180.027C247.184 179.655 247.453 179.224 247.605 178.709L247.61 179.172L247.614 179.611L248.064 179.835ZM285.913 80.8722C273.868 86.5744 261.803 92.2551 249.766 97.9739C249.065 98.3064 248.439 98.5145 247.779 98.5145C247.269 98.5145 246.738 98.3898 246.137 98.1016C233.901 92.2263 221.626 86.4177 209.367 80.5908C208.924 80.3808 208.522 80.1086 207.674 79.6143C208.655 79.1396 209.257 78.837 209.868 78.5541C221.922 72.8641 233.98 67.1803 246.023 61.4676C246.723 61.1345 247.352 60.9235 248.017 60.9235C248.526 60.9235 249.057 61.0475 249.659 61.3354C261.89 67.2137 274.163 73.0178 286.425 78.8431C286.866 79.056 287.27 79.3238 287.941 79.7131C287.143 80.1757 286.559 80.5712 285.913 80.8722ZM209.128 81.3043C221.186 87.3014 233.233 93.3259 245.306 99.3078C246.421 99.8599 246.926 100.443 246.933 101.57C247.018 113.573 247.17 125.583 247.297 137.589C247.298 137.877 247.233 138.17 247.159 138.833C240.27 135.712 233.846 132.293 227.296 129.07C220.689 125.812 214.117 122.504 207.485 119.187C207.344 106.353 207.208 93.6104 207.065 80.5652C207.94 80.8753 208.579 81.0305 209.128 81.3043ZM246.718 139.711C244.49 140.792 242.678 141.683 240.846 142.546C230.245 147.563 219.613 152.532 209.051 157.599C208.105 158.052 207.282 158.301 206.439 158.301C205.68 158.301 204.905 158.099 204.008 157.666C192.332 152.003 180.573 146.467 168.843 140.88C168.095 140.524 167.374 140.132 166.412 139.636C167.057 139.212 167.47 138.842 167.971 138.608C180.101 132.862 192.258 127.146 204.365 121.366C205.13 121.003 205.799 120.808 206.479 120.808C207.108 120.808 207.747 120.975 208.479 121.327C220.483 127.107 232.544 132.804 244.582 138.529C245.179 138.812 245.727 139.16 246.718 139.711ZM206.553 118.725L206.559 119.194L206.563 119.632L207.011 119.856L207.644 120.173C207.251 120.076 206.867 120.029 206.479 120.029C206.203 120.029 205.927 120.054 205.644 120.104C206.147 119.679 206.414 119.205 206.553 118.725ZM206.311 39.4893L205.962 39.3153C206.243 39.3761 206.523 39.406 206.806 39.406C207.06 39.4059 207.315 39.3815 207.576 39.3312C207.141 39.7291 206.9 40.1662 206.77 40.6089L206.765 40.1521L206.76 39.7131L206.311 39.4893ZM205.77 117.614C205.757 118.659 205.49 119.401 204.32 119.984C191.855 126.116 179.423 132.296 166.982 138.462C166.759 138.578 166.493 138.62 165.895 138.807C165.842 137.99 165.77 137.414 165.779 136.845C165.931 125.222 166.112 113.605 166.231 101.982C166.245 100.766 166.551 99.9451 167.917 99.2729C180.157 93.2559 192.356 87.1812 204.564 81.1218C204.938 80.9347 205.347 80.7993 205.94 80.5619C206.056 81.1339 206.24 81.6114 206.231 82.0798C206.086 93.9268 205.907 105.772 205.77 117.614ZM165.428 100.864C165.228 99.9402 164.639 99.3642 163.965 98.9355C164.438 99.0587 164.895 99.118 165.355 99.118C165.877 99.118 166.392 99.0431 166.94 98.8831C166.014 99.465 165.603 100.151 165.428 100.864ZM203.036 80.9833C191.294 86.5439 179.531 92.0681 167.828 97.6789C166.933 98.1075 166.153 98.3393 165.356 98.3393C164.625 98.3394 163.879 98.1446 163.013 97.7277C151.195 92.0027 139.29 86.3996 127.413 80.7477C126.81 80.4647 126.243 80.1241 125.44 79.6875C125.923 79.3392 126.243 79.0228 126.647 78.8311C139.075 72.948 151.52 67.0877 163.949 61.1911C164.498 60.9281 165 60.7797 165.512 60.7797C165.949 60.7797 166.393 60.8871 166.882 61.1226C179.432 67.1227 191.998 73.0942 204.558 79.0791C204.774 79.1855 204.944 79.3575 205.521 79.7833C204.526 80.2655 203.781 80.629 203.036 80.9833ZM165.146 178.437C165.311 179.287 165.822 179.828 166.418 180.222C165.993 180.109 165.581 180.055 165.164 180.055C164.756 180.055 164.345 180.109 163.918 180.22C164.552 179.733 164.95 179.156 165.146 178.437ZM165.164 180.834C165.791 180.834 166.428 180.999 167.159 181.35C179.164 187.13 191.224 192.827 203.262 198.558C203.855 198.841 204.405 199.183 205.45 199.763C204.265 200.336 203.522 200.703 202.772 201.059C191.01 206.607 179.235 212.128 167.512 217.73C166.655 218.14 165.907 218.362 165.143 218.362C164.453 218.362 163.75 218.18 162.941 217.791C151.095 212.078 139.182 206.458 127.296 200.806C126.623 200.485 125.983 200.114 125.086 199.632C125.813 199.183 126.312 198.808 126.882 198.537C138.943 192.827 151.014 187.145 163.043 181.397C163.809 181.031 164.481 180.834 165.164 180.834ZM204.197 198.178C191.983 192.102 179.779 186.009 167.564 179.931C166.576 179.446 166.027 178.919 166.016 177.859C165.936 165.704 165.789 153.545 165.668 141.39C165.667 141.175 165.734 140.958 165.849 140.244C179.246 146.917 192.325 153.437 205.567 160.037C205.707 172.86 205.848 185.665 205.992 198.724C205.238 198.5 204.667 198.409 204.197 198.178ZM206.493 160.03L206.488 159.591L206.039 159.367L205.165 158.931C205.596 159.031 206.016 159.08 206.439 159.08C206.916 159.08 207.389 159.019 207.885 158.89C207.086 159.482 206.691 160.143 206.502 160.825L206.493 160.03ZM207.62 240.201C207.184 240.068 206.757 240.004 206.329 240.004C205.77 240.004 205.259 240.115 204.796 240.27C205.632 239.74 206.106 239.099 206.269 238.275C206.484 239.038 206.92 239.659 207.62 240.201ZM207.264 162.172C207.278 160.7 207.714 159.762 209.349 158.968C221.311 153.121 233.21 147.183 245.128 141.276C245.647 141.019 246.21 140.813 246.975 140.48C247.103 141.087 247.291 141.557 247.288 142.024C247.139 153.874 246.959 165.73 246.83 177.587C246.819 178.739 246.443 179.485 245.192 180.097C232.949 186.135 220.743 192.216 208.522 198.28C208.152 198.464 207.745 198.589 206.938 198.899C206.888 197.918 206.821 197.271 206.824 196.625C206.978 185.14 207.166 173.66 207.264 162.172ZM209.024 198.608C221.306 192.806 233.591 187.016 245.87 181.193C246.49 180.9 247.054 180.712 247.645 180.712C248.083 180.712 248.536 180.815 249.037 181.055C261.509 187.025 274.002 192.957 286.485 198.902C286.774 199.044 287.022 199.246 287.672 199.672C286.593 200.198 285.847 200.568 285.083 200.928C273.344 206.481 261.576 212.001 249.876 217.622C249.001 218.045 248.24 218.258 247.478 218.258C246.716 218.258 245.952 218.045 245.069 217.616C233.316 211.931 221.488 206.361 209.693 200.745C209.018 200.426 208.38 200.05 207.463 199.561C208.114 199.159 208.539 198.841 209.024 198.608ZM248.536 179.165C248.396 166.369 248.257 153.574 248.116 140.747C250.158 141.114 283.647 157.562 287.948 160.27C288.082 172.959 288.22 185.735 288.362 199.002C274.811 192.254 261.749 185.746 248.536 179.165ZM288.878 160.619L288.874 160.263L288.87 159.877L288.503 159.646C288.228 159.473 287.8 159.226 287.24 158.918C287.819 159.106 288.372 159.196 288.932 159.196C289.251 159.196 289.571 159.166 289.899 159.104C289.332 159.573 289.033 160.088 288.878 160.619ZM289.111 239.775C289.318 239.879 289.526 239.982 289.733 240.086C289.35 239.994 288.975 239.948 288.601 239.948C288.3 239.948 288.001 239.976 287.694 240.034C288.214 239.588 288.501 239.085 288.651 238.522L288.657 239.113L288.662 239.552L289.111 239.775ZM329.356 100.1C329.498 112.931 329.638 125.738 329.784 138.759C329.11 138.584 328.605 138.54 328.202 138.336C315.914 132.228 303.636 126.094 291.343 119.99C290.346 119.49 289.818 118.948 289.813 117.899C289.728 105.743 289.585 93.5892 289.467 81.4337C289.466 81.2191 289.531 81.0016 289.647 80.305C303.044 86.9821 316.133 93.5039 329.356 100.1ZM330.021 21.8818C329.882 33.8716 329.704 45.8627 329.567 57.854C329.554 58.8411 329.198 59.5028 328.147 60.0214C315.612 66.1996 303.1 72.4035 290.576 78.6029C290.426 78.6745 290.245 78.6898 289.686 78.8311C289.637 78.0799 289.565 77.5095 289.574 76.9422C289.724 65.246 289.901 53.5512 290.021 41.8505C290.033 40.6854 290.44 39.9629 291.677 39.3545C303.909 33.327 316.106 27.26 328.317 21.1974C328.692 21.0104 329.099 20.8718 329.672 20.6347C329.81 21.106 330.026 21.4924 330.021 21.8818ZM251.536 18.3531C263.438 12.7347 275.355 7.1377 287.225 1.46891C287.97 1.11456 288.616 0.936597 289.263 0.936597C289.915 0.936597 290.568 1.1175 291.325 1.48099C303.241 7.21517 315.218 12.8717 327.169 18.5554C327.829 18.8687 328.435 19.2657 329.285 19.7372C328.388 20.2194 327.764 20.5951 327.098 20.9099C315.205 26.5434 303.29 32.1408 291.433 37.8214C290.614 38.214 289.894 38.4076 289.177 38.4078C288.439 38.4078 287.703 38.2023 286.861 37.7971C275.024 32.092 263.124 26.4705 251.252 20.8247C250.592 20.5115 249.988 20.113 249.024 19.5669C250.068 19.0635 250.798 18.7 251.536 18.3531ZM248.49 20.665C249.082 20.8111 249.59 20.852 249.988 21.0483C262.275 27.158 274.538 33.2828 286.823 39.3864C287.825 39.8822 288.346 40.4329 288.353 41.4732C288.442 53.6226 288.581 65.7644 288.699 77.9138C288.702 78.1328 288.621 78.3519 288.513 78.9147C287.568 78.5086 286.869 78.2425 286.212 77.9199C274.386 72.0261 262.585 66.1157 250.733 60.26C249.38 59.5922 248.751 58.8926 248.747 57.4949C248.691 45.7926 248.534 34.0873 248.407 22.388C248.407 21.8757 248.458 21.3617 248.49 20.665ZM247.918 58.4135C248.093 59.1801 248.513 59.7889 249.237 60.3207C248.826 60.2029 248.422 60.1451 248.017 60.1451C247.474 60.1451 246.969 60.2532 246.518 60.4012C247.388 59.8132 247.763 59.1254 247.918 58.4135ZM247.425 20.5281C247.479 21.3524 247.552 21.9304 247.55 22.5039C247.392 34.1211 247.215 45.7428 247.092 57.3689C247.083 58.5781 246.796 59.4116 245.423 60.0915C233.177 66.0917 220.977 72.1665 208.756 78.2198C208.387 78.4038 207.975 78.5361 207.378 78.7764C207.264 78.2031 207.087 77.7269 207.09 77.2555C207.233 65.4118 207.416 53.568 207.55 41.7273C207.562 40.6824 207.848 39.9342 209.015 39.3577C221.478 33.2205 233.908 27.041 246.349 20.875C246.572 20.7639 246.837 20.7151 247.425 20.5281ZM168.991 18.4794C180.821 12.8807 192.676 7.3186 204.455 1.65297C205.327 1.23584 206.082 1.03111 206.831 1.03111C207.61 1.03111 208.382 1.25176 209.273 1.68492C221.042 7.36106 232.875 12.943 244.683 18.5613C245.362 18.8838 246.009 19.2534 246.895 19.7205C246.302 20.1357 245.911 20.5082 245.427 20.7303C233.134 26.5465 220.834 32.3398 208.546 38.1605C207.936 38.4529 207.38 38.627 206.806 38.627C206.353 38.6271 205.888 38.5187 205.374 38.2746C192.891 32.3002 180.381 26.364 167.886 20.4109C167.591 20.2695 167.334 20.0642 166.638 19.617C167.66 19.1196 168.322 18.7972 168.991 18.4794ZM205.839 40.1591C205.978 53.0341 206.121 65.8041 206.262 79.0913C192.721 72.3429 179.663 65.8346 166.435 59.2488C166.294 46.4576 166.153 33.6617 166.008 20.3015C179.631 27.094 192.707 33.613 205.839 40.1591ZM165.509 59.2559L165.514 59.6951L165.964 59.9188C166.073 59.9732 166.182 60.0271 166.291 60.0815C166.031 60.0276 165.773 60.0009 165.512 60.0009C165.237 60.0009 164.962 60.0304 164.68 60.0913C165.124 59.6647 165.37 59.2033 165.504 58.7299L165.509 59.2559ZM165.18 22.4066C165.028 34.1119 164.853 45.8171 164.728 57.5271C164.712 58.7408 164.383 59.5559 163.017 60.2297C150.914 66.1768 138.869 72.1922 126.8 78.18C126.292 78.4325 125.74 78.6182 124.845 78.9711C124.784 78.0982 124.711 77.5855 124.717 77.0745C124.87 65.369 125.064 53.6638 125.163 41.954C125.176 40.6019 125.713 39.8154 127.104 39.1325C139.129 33.2314 151.113 27.2661 163.111 21.3206C163.62 21.0682 164.173 20.878 164.965 20.551C165.057 21.3024 165.187 21.8544 165.18 22.4066ZM85.8652 18.6907C97.9972 12.9462 110.151 7.23346 122.265 1.45366C123.027 1.08836 123.697 0.892328 124.378 0.892328C125.006 0.892328 125.645 1.05934 126.377 1.41425C138.382 7.18784 150.444 12.8869 162.48 18.6132C163.073 18.8975 163.625 19.2476 164.616 19.795C162.386 20.8718 160.578 21.7693 158.745 22.6361C148.143 27.6462 137.516 32.6153 126.954 37.6831C126.006 38.138 125.181 38.3867 124.338 38.3867C123.58 38.3867 122.807 38.1857 121.915 37.7531C110.314 32.121 98.6317 26.6242 86.9754 21.0758C86.1489 20.6818 85.3349 20.2756 84.2716 19.7525C84.9571 19.2916 85.3642 18.9265 85.8652 18.6907ZM83.6733 20.4353C84.7018 20.8871 85.4708 21.1836 86.1981 21.5487C97.8796 27.3602 109.528 33.216 121.25 38.9789C122.896 39.7865 123.54 40.655 123.543 42.2824C123.579 53.6956 123.746 65.112 123.863 76.5237C123.871 77.2401 123.794 77.9595 123.751 78.9467C122.722 78.4935 121.95 78.1922 121.226 77.8348C109.548 72.0201 97.892 66.166 86.1705 60.4061C84.5266 59.5956 83.8936 58.721 83.8881 57.0966C83.8484 45.6848 83.6856 34.2731 83.568 22.8507C83.5574 22.1419 83.6259 21.4285 83.6733 20.4353ZM123.044 79.6251C122.586 79.9916 122.303 80.355 121.903 80.5421C109.463 86.4314 97.0023 92.2962 84.5701 98.196C84.0271 98.4492 83.5348 98.5842 83.0392 98.5844C82.5852 98.5844 82.1291 98.4707 81.6295 98.2309C69.065 92.2263 56.4885 86.2473 43.9205 80.2546C43.6945 80.1498 43.5135 79.9796 42.9856 79.6189C43.8646 79.1368 44.4847 78.7597 45.1542 78.4446C56.9802 72.8476 68.8301 67.2839 80.6165 61.6243C81.5074 61.198 82.2788 60.9766 83.0583 60.9766C83.8057 60.9766 84.5608 61.1801 85.4364 61.6016C97.1941 67.2869 109.035 72.8642 120.843 78.4843C121.526 78.8082 122.178 79.1718 123.044 79.6251ZM83.103 58.3104C83.3207 59.163 83.7988 59.8381 84.5957 60.4209C84.0686 60.2703 83.5638 60.1982 83.0581 60.1982C82.6477 60.1982 82.2349 60.2467 81.8074 60.347C82.6137 59.7694 82.9677 59.0935 83.103 58.3104ZM82.698 22.5039C82.5554 34.1346 82.3782 45.7686 82.2495 57.3979C82.2403 58.5979 81.9747 59.4359 80.5878 60.1187C68.4106 66.0947 56.2805 72.1435 44.1341 78.165C43.6926 78.3825 43.2132 78.5483 42.32 78.9148C42.2893 77.8121 42.244 77.0881 42.2513 76.3672C42.405 65.0285 42.602 53.6956 42.6708 42.3568C42.6836 40.6823 43.2441 39.6998 45.0328 38.8221C56.926 33.0273 68.7396 27.117 80.5857 21.2474C81.1051 20.9904 81.6655 20.8033 82.5064 20.4687C82.5875 21.2703 82.7054 21.8879 82.698 22.5039ZM3.98546 18.5751C16.0379 12.8807 28.1064 7.20297 40.1405 1.48573C40.8405 1.15397 41.4636 0.949244 42.1181 0.949244C42.634 0.949244 43.1693 1.07628 43.7776 1.36863C56.0054 7.23956 68.2877 13.045 80.5425 18.8779C80.9872 19.0908 81.3835 19.36 82.0488 19.7464C81.3181 20.1753 80.801 20.5282 80.2333 20.8005C68.1103 26.5331 55.9712 32.258 43.8574 38.0086C43.1603 38.3376 42.5393 38.5387 41.8889 38.5387C41.3694 38.5387 40.8311 38.4104 40.2201 38.1167C27.9887 32.2443 15.7142 26.4402 3.45721 20.6119C3.0086 20.3961 2.61102 20.1238 1.7824 19.6431C2.77537 19.1577 3.37598 18.8596 3.98546 18.5751ZM40.9345 117.374C40.9237 118.686 40.5275 119.528 39.0915 120.235C27.0698 126.147 15.0953 132.123 3.10461 138.073C2.58537 138.336 2.02101 138.54 1.29042 138.848C1.14218 138.351 0.917797 137.96 0.925182 137.565C1.06631 125.558 1.26181 113.558 1.36843 101.554C1.37756 100.176 2.25075 99.615 3.44473 99.0295C13.0317 94.313 22.6028 89.5736 32.1829 84.8527C35.0586 83.4321 37.9613 82.0465 41.2346 80.4647C41.3018 81.3302 41.39 81.9081 41.3829 82.4754C41.2311 94.1078 41.0468 105.74 40.9345 117.374ZM31.9368 74.3519C22.536 69.6643 13.1475 64.9538 3.71422 60.3242C2.16763 59.5742 1.52016 58.7438 1.5168 57.1986C1.47142 45.7836 1.3123 34.372 1.19306 22.9602C1.1893 22.2438 1.26342 21.5306 1.32317 20.3639C14.7625 27.0698 27.8277 33.5841 40.996 40.1426C41.1337 52.9918 41.2711 65.7769 41.4137 79.0792C37.8328 77.2935 34.8867 75.8212 31.9368 74.3519ZM41.9304 40.9199L41.922 40.1354L41.9172 39.6962L41.4678 39.4724C41.2935 39.3856 41.12 39.2993 40.946 39.2125C41.2622 39.2826 41.5755 39.3173 41.8889 39.3173C42.2873 39.3173 42.6642 39.2598 43.0128 39.1716C42.4761 39.668 42.1243 40.2374 41.9304 40.9199ZM42.6384 119.184C42.4971 106.277 42.3599 93.5464 42.2207 80.8996C42.4667 80.781 42.5407 80.7355 42.615 80.7172C42.6716 80.6966 42.7453 80.6755 42.8032 80.6755C42.8228 80.6755 42.8406 80.6779 42.8554 80.6836C43.3313 80.8754 43.8177 81.0532 44.2715 81.2708C56.8394 87.5357 69.4089 93.8036 82.0475 100.106C82.1867 112.965 82.3222 125.741 82.4668 139.031C68.9331 132.29 55.8718 125.782 42.6384 119.184ZM82.9733 100.099L82.9683 99.6604L82.5196 99.4365L82.1762 99.2653C82.4648 99.3308 82.7515 99.3631 83.0393 99.3631C83.2788 99.363 83.5167 99.3413 83.758 99.297C83.3396 99.689 83.1062 100.117 82.9779 100.549L82.9733 100.099ZM83.2933 137.2C83.4435 125.351 83.6169 113.514 83.7562 101.667C83.7708 100.62 84.051 99.8813 85.2157 99.2988C97.6808 93.1678 110.111 86.9821 122.554 80.8191C122.775 80.7111 123.04 80.6609 123.63 80.4738C123.686 81.2951 123.762 81.8685 123.755 82.4419C123.601 94.0622 123.415 105.687 123.312 117.307C123.299 118.659 122.793 119.45 121.402 120.134C109.311 126.075 97.2629 132.072 85.1977 138.042C84.7455 138.266 84.2645 138.441 83.5918 138.716C83.4743 138.144 83.2898 137.671 83.2933 137.2ZM124.019 158.427C123.439 158.427 122.846 158.278 122.17 157.955C110.019 152.12 97.8128 146.35 85.6299 140.556C85.1851 140.345 84.771 140.079 84.0923 139.702C84.76 139.28 85.2341 138.903 85.7892 138.64C97.9932 132.868 110.208 127.119 122.397 121.327C123.043 121.021 123.618 120.848 124.206 120.848C124.711 120.848 125.225 120.975 125.804 121.252C138.118 127.149 150.467 133 162.801 138.87C163.172 139.046 163.502 139.28 164.198 139.696C163.335 140.167 162.776 140.512 162.178 140.792C150.127 146.488 138.064 152.172 126.037 157.892C125.315 158.237 124.675 158.427 124.019 158.427ZM124.784 161.637C124.797 160.212 125.572 159.541 126.893 158.892C137.625 153.629 148.33 148.325 159.049 143.034C160.782 142.178 162.531 141.344 164.724 140.281C164.761 141.39 164.808 142.115 164.797 142.836C164.645 154.318 164.462 165.8 164.367 177.286C164.352 178.612 163.905 179.433 162.491 180.133C150.466 186.034 138.487 192.006 126.493 197.951C125.974 198.213 125.419 198.417 124.659 198.736C124.538 198.141 124.335 197.667 124.343 197.197C124.489 185.343 124.682 173.49 124.784 161.637ZM124.744 239.103C124.601 226.322 124.462 213.529 124.321 200.703C126.319 201.03 159.482 217.295 164.155 220.203C164.287 232.886 164.426 245.667 164.567 258.959C150.947 252.168 137.927 245.67 124.744 239.103ZM165.08 220.196L165.076 219.808L164.705 219.577C164.425 219.402 164.01 219.164 163.481 218.871C164.05 219.054 164.593 219.141 165.143 219.141C165.453 219.141 165.761 219.113 166.075 219.057C165.515 219.526 165.23 220.047 165.084 220.575L165.08 220.196ZM165.529 258.641C165.477 257.789 165.397 257.149 165.408 256.507C165.557 244.952 165.732 233.405 165.862 221.859C165.876 220.676 166.088 219.814 167.492 219.125C179.806 213.082 192.075 206.958 204.368 200.864C204.667 200.716 204.994 200.613 205.531 200.403C205.658 200.942 205.869 201.404 205.86 201.86C205.718 213.774 205.533 225.692 205.408 237.607C205.397 238.716 204.886 239.356 203.777 239.906C191.549 245.93 179.343 251.999 167.124 258.041C166.692 258.254 166.218 258.387 165.529 258.641ZM243.991 260.849C232.09 266.472 220.172 272.069 208.307 277.741C207.521 278.116 206.835 278.306 206.145 278.306C205.459 278.306 204.77 278.118 203.976 277.735C192.139 272.028 180.236 266.416 168.359 260.766C167.69 260.445 167.056 260.072 166.139 259.581C166.951 259.115 167.54 258.723 168.179 258.414C180.231 252.717 192.296 247.036 204.336 241.324C205.041 240.992 205.668 240.782 206.329 240.782C206.837 240.782 207.366 240.906 207.967 241.192C220.199 247.071 232.475 252.875 244.734 258.711C245.179 258.919 245.578 259.187 246.423 259.68C245.351 260.195 244.678 260.531 243.991 260.849ZM246.834 258.855C245.669 258.312 244.895 257.967 244.141 257.588C232.55 251.821 220.977 246.009 209.342 240.291C207.704 239.486 207.038 238.62 207.033 236.993C207 225.581 206.832 214.182 206.718 202.768C206.711 202.06 206.779 201.346 206.826 200.371C207.702 200.717 208.328 200.922 208.899 201.208C220.872 207.169 232.839 213.146 244.819 219.093C245.95 219.653 246.666 220.2 246.671 221.47C246.738 233.402 246.897 245.323 247.02 257.246C247.024 257.666 246.926 258.086 246.834 258.855ZM247.511 220.711C247.299 219.821 246.72 219.263 246.061 218.846C246.545 218.975 247.012 219.037 247.478 219.037C247.975 219.037 248.473 218.966 248.994 218.819C248.063 219.361 247.67 220.021 247.511 220.711ZM247.877 257.009C248.026 245.24 248.199 233.469 248.337 221.7C248.346 220.658 248.592 219.906 249.773 219.324C262.23 213.184 274.662 207 287.104 200.834C287.326 200.723 287.588 200.672 288.207 200.473C288.261 201.276 288.339 201.848 288.328 202.418C288.172 214.04 287.995 225.665 287.871 237.283C287.856 238.483 287.605 239.326 286.221 240.009C273.975 246.017 261.78 252.097 249.568 258.152C249.194 258.337 248.785 258.478 248.123 258.755C248.024 258.083 247.872 257.544 247.877 257.009ZM326.214 260.91C314.382 266.504 302.541 272.078 290.726 277.695C289.948 278.069 289.253 278.335 288.501 278.335C287.994 278.335 287.461 278.215 286.857 277.925C274.621 272.037 262.331 266.229 250.064 260.391C249.613 260.177 249.203 259.903 248.532 259.526C249.198 259.1 249.686 258.705 250.254 258.439C262.308 252.73 274.386 247.051 286.422 241.31C287.203 240.938 287.892 240.727 288.601 240.727C289.206 240.727 289.828 240.881 290.536 241.221C302.619 247.033 314.758 252.765 326.869 258.533C327.391 258.779 327.872 259.091 328.847 259.637C327.699 260.192 326.963 260.563 326.214 260.91ZM329.137 258.702C322.369 255.62 315.932 252.213 309.381 248.98C302.78 245.722 296.206 242.407 289.583 239.105C289.444 226.253 289.304 213.526 289.167 200.535C289.963 200.78 290.538 200.875 291.014 201.112C303.158 207.149 315.272 213.208 327.413 219.242C328.384 219.722 329.032 220.191 329.039 221.274C329.113 233.507 329.25 245.731 329.366 257.961C329.37 258.102 329.285 258.241 329.137 258.702Z" fill="url(#paint0_linear_4183_3860)"/>
<defs>
<linearGradient id="paint0_linear_4183_3860" x1="50.3696" y1="122.453" x2="271.78" y2="42.7535" gradientUnits="userSpaceOnUse">
<stop stop-color="#335FFF" stop-opacity="0"/>
<stop offset="1" stop-color="#335FFF"/>
</linearGradient>
</defs>
</svg>
