<svg width="88" height="33" viewBox="0 0 88 33" fill="none" xmlns="http://www.w3.org/2000/svg">
<rect x="0.5" y="1.30078" width="87" height="31" rx="15.5" stroke="#27AAE0"/>
<g clip-path="url(#clip0_4763_3582)">
<path d="M12.0423 16.6527C12.1645 16.2249 12.4711 15.9986 12.8556 16.0569C13.0429 16.0799 13.2137 16.1762 13.3313 16.3249C13.4489 16.4736 13.5039 16.6629 13.4845 16.8521C13.4845 19.1682 13.4845 21.4866 13.4845 23.7961C13.4845 24.2441 13.2378 24.4905 12.8512 24.6338H12.5845C12.3378 24.477 12.0867 24.3247 12.04 23.9954C12.04 22.6216 12.04 21.2492 12.04 19.8783C12.0534 18.8076 12.0467 17.7302 12.0423 16.6527Z" fill="#27AAE0"/>
<path d="M76.0015 14.5143C75.9377 14.5594 75.8795 14.6121 75.8281 14.6711C74.9022 16.0151 73.98 17.3591 73.0615 18.7031C72.9834 18.8288 72.9411 18.9737 72.9392 19.122C72.9392 20.0046 72.9392 20.8849 72.9392 21.7831H72.0792V21.5143C72.0792 20.7303 72.0792 19.9463 72.0792 19.1601C72.0752 18.9859 72.0237 18.8162 71.9303 18.6695C71.0415 17.3412 70.1237 16.0241 69.2192 14.7025C69.1681 14.6286 69.1215 14.5547 69.0459 14.4427C69.377 14.4427 69.677 14.4292 69.9726 14.4427C70.0459 14.4427 70.1303 14.5412 70.1815 14.6151C70.9 15.6769 71.6155 16.7402 72.3281 17.8049L72.5281 18.0939L73.617 16.49C74.0415 15.8651 74.4703 15.2401 74.8881 14.6084C74.9228 14.5482 74.9739 14.4992 75.0353 14.4675C75.0968 14.4357 75.166 14.4224 75.2348 14.4292C75.4948 14.4292 75.7526 14.4113 76.0126 14.4023L76.0015 14.5143Z" fill="#353E48"/>
<path d="M12.0422 16.6527C12.0422 17.7301 12.0422 18.8076 12.0422 19.885C12.0422 21.2574 12.0422 22.6298 12.0422 24.0021C12.0283 24.0055 12.0139 24.0055 12 24.0021V16.6572C12.0129 16.6501 12.0281 16.6485 12.0422 16.6527Z" fill="#ACDEF3"/>
<path d="M52.4894 20.2971V14.4574H53.2806V21.7956C53.1023 21.8103 52.9232 21.8103 52.745 21.7956C52.6395 21.7636 52.5473 21.6975 52.4828 21.6075C51.0413 19.7692 49.6035 17.9309 48.1694 16.0926C48.1094 16.0164 48.0494 15.9448 47.9472 15.8171V21.78H47.125V14.435C47.3589 14.4227 47.5933 14.4227 47.8272 14.435C47.9028 14.435 47.9806 14.5425 48.0494 14.6164C49.4628 16.4084 50.8754 18.2102 52.2872 20.0216L52.4894 20.2971Z" fill="#363F4A"/>
<path d="M37.2024 18.8083L39.438 21.7942C39.0891 21.7942 38.7891 21.8076 38.4913 21.7942C38.4113 21.7942 38.3202 21.6867 38.2691 21.6083C37.6528 20.7884 37.0417 19.9671 36.4358 19.1443C36.3958 19.0819 36.3397 19.0316 36.2735 18.9989C36.2074 18.9661 36.1337 18.9521 36.0602 18.9583C35.458 18.9695 34.8536 18.9583 34.2202 18.9583V21.7852H33.3936V14.4761C33.4113 14.4649 33.4269 14.4492 33.4402 14.4492C34.5869 14.4492 35.7313 14.4492 36.878 14.4649C37.1524 14.4777 37.4235 14.5313 37.6824 14.6239C38.6602 14.9465 39.178 15.6655 39.1758 16.6623C39.1736 17.6591 38.6402 18.3468 37.678 18.6783C37.5291 18.7209 37.3824 18.7567 37.2024 18.8083ZM34.2113 18.2259C35.1891 18.1855 36.1536 18.19 37.1002 18.0937C37.3647 18.0687 37.6154 17.9635 37.8193 17.792C38.0233 17.6204 38.1708 17.3906 38.2424 17.1327C38.5358 16.2188 38.0202 15.399 36.9958 15.278C36.3305 15.2247 35.663 15.2053 34.9958 15.2198C34.7336 15.2198 34.4691 15.2198 34.1958 15.2198L34.2113 18.2259Z" fill="#333C47"/>
<path d="M15.1578 16.7042C15.1578 15.1407 15.1578 13.578 15.1578 12.0159C15.1484 11.8926 15.1656 11.7687 15.2082 11.6527C15.2507 11.5367 15.3177 11.4314 15.4044 11.3439C15.496 11.2586 15.6079 11.1986 15.7292 11.1698C15.8506 11.141 15.9773 11.1443 16.097 11.1795C16.2167 11.2147 16.3253 11.2805 16.4123 11.3705C16.4993 11.4606 16.5616 11.5718 16.5933 11.6934C16.6187 11.8065 16.6306 11.9223 16.6289 12.0383V21.4127C16.6289 21.9548 16.3778 22.2751 15.9422 22.2953C15.4711 22.3177 15.16 21.9884 15.16 21.4531C15.16 20.1494 15.16 18.8479 15.16 17.5443L15.1578 16.7042Z" fill="#5876B4"/>
<path d="M18.304 13.2553C18.304 12.0771 18.304 10.8989 18.304 9.72061C18.2975 9.55348 18.3483 9.3892 18.4479 9.2554C18.5474 9.12159 18.6897 9.02642 18.8506 8.98589C18.9972 8.94368 19.1534 8.9513 19.2952 9.00758C19.437 9.06386 19.5565 9.16567 19.6351 9.29725C19.7099 9.43495 19.7517 9.58836 19.7573 9.74525C19.7573 12.0659 19.7573 14.3873 19.7573 16.7094C19.7573 17.2022 19.4618 17.5181 19.0262 17.5181C18.5906 17.5181 18.3018 17.1977 18.3018 16.7049C18.3032 15.5581 18.304 14.4082 18.304 13.2553Z" fill="#5D5FA9"/>
<path d="M27.0577 15.2266H24.6133V14.4561H30.3422V15.2154H27.9222V21.7831H27.0577V15.2266Z" fill="#343D48"/>
<path d="M66.5594 14.458V15.2106H64.1283V21.7761H63.2794V15.2263H60.835V14.458H66.5594Z" fill="#353E48"/>
<path d="M57.9331 21.7828H57.1309V14.458H57.9331V21.7828Z" fill="#38404B"/>
<path d="M43.2918 21.7848H42.4785V14.46H43.2918V21.7848Z" fill="#363F4A"/>
</g>
<defs>
<clipPath id="clip0_4763_3582">
<rect width="64" height="15.68" fill="white" transform="translate(12 8.96094)"/>
</clipPath>
</defs>
</svg>
