<svg width="48" height="48" viewBox="0 0 48 48" fill="none" xmlns="http://www.w3.org/2000/svg">
<g clip-path="url(#clip0_5252_304)">
<path d="M7.037 0H1.41359C0.63725 0 0.0078125 0.629438 0.0078125 1.40587V7.12303C0.0078125 7.89947 0.637156 8.52891 1.41369 8.52891C2.19012 8.52891 2.81956 7.89947 2.81956 7.12303V2.81175H7.03709C7.81353 2.81175 8.44297 2.18231 8.44297 1.40587C8.44287 0.629438 7.81344 0 7.037 0Z" fill="#335FFF"/>
<path d="M46.5879 0H40.9645C40.188 0 39.5586 0.629438 39.5586 1.40587C39.5586 2.18231 40.1879 2.81175 40.9645 2.81175H45.182V7.12303C45.182 7.89947 45.8114 8.52891 46.5879 8.52891C47.3643 8.52891 47.9938 7.89947 47.9938 7.12303V1.40587C47.9938 0.629438 47.3643 0 46.5879 0Z" fill="#335FFF"/>
<path d="M7.03709 45.1752H2.81956V40.8639C2.81956 40.0874 2.19012 39.458 1.41369 39.458C0.63725 39.458 0.0078125 40.0874 0.0078125 40.8639V46.581C0.0078125 47.3575 0.637156 47.9869 1.41369 47.9869H7.03709C7.81353 47.9869 8.44297 47.3575 8.44297 46.581C8.44297 45.8046 7.81353 45.1752 7.03709 45.1752Z" fill="#335FFF"/>
<path d="M46.5879 39.458C45.8114 39.458 45.182 40.0874 45.182 40.8639V45.1752H40.9645C40.188 45.1752 39.5586 45.8046 39.5586 46.581C39.5586 47.3575 40.188 47.9869 40.9645 47.9869H46.5879C47.3643 47.9869 47.9938 47.3575 47.9938 46.581V40.8639C47.9938 40.0874 47.3643 39.458 46.5879 39.458Z" fill="#335FFF"/>
<path d="M44.2866 11.5334L24.7066 0.189422C24.2708 -0.0631406 23.7329 -0.0631406 23.2971 0.189422L3.70916 11.5333C3.27734 11.7835 3.00781 12.2493 3.00781 12.7488C3.00781 12.7516 3.00809 12.7545 3.00809 12.7572V35.25C3.00809 35.7543 3.28212 36.2263 3.72341 36.4747L23.2972 47.8106C23.508 47.9327 23.7589 48 24.002 48C24.2558 48 24.5038 47.9281 24.7068 47.8106L44.2726 36.4746C44.2759 36.4727 44.2791 36.4709 44.2824 36.469C44.7358 36.1418 44.9803 35.8668 44.9871 35.267C44.9872 35.2614 44.9877 35.2559 44.9877 35.2502V12.7574C44.9877 12.7545 44.9879 12.7517 44.9879 12.749C44.9879 12.249 44.7182 11.7831 44.2866 11.5334ZM22.596 44.1549L7.23734 35.2564L19.0779 28.4662C19.7515 28.08 19.9843 27.2208 19.598 26.5473C19.2118 25.8737 18.3527 25.641 17.6791 26.0272L5.81956 32.8233V15.1789L22.596 24.8136V44.1549ZM24.0019 22.3786L7.23528 12.7448L24.0019 3.03061L40.7685 12.7448L24.0019 22.3786ZM42.1851 32.8233L30.3247 26.0271C29.6512 25.641 28.7921 25.8736 28.4058 26.5472C28.0195 27.2208 28.2523 28.0799 28.9259 28.4661L40.7665 35.2562L25.4077 44.1547V24.8136L42.185 15.1789V32.8233H42.1851Z" fill="#335FFF"/>
</g>
<defs>
<clipPath id="clip0_5252_304">
<rect width="48" height="48" fill="white"/>
</clipPath>
</defs>
</svg>
