<svg width="14" height="14" viewBox="0 0 14 14" fill="none" xmlns="http://www.w3.org/2000/svg">
<path d="M12.6718 1.39344C12.684 1.40613 12.6962 1.41879 12.7077 1.43211C12.7398 1.46924 12.7683 1.50843 12.794 1.54881C12.8002 1.55839 12.8062 1.56801 12.812 1.57781C12.8473 1.63764 12.8751 1.70045 12.8969 1.76495C12.931 1.86562 12.9508 1.97314 12.9508 2.08536V11.9849C12.9508 12.5371 12.5031 12.9847 11.9509 12.9847C11.3986 12.9847 10.951 12.5371 10.951 11.9849V4.49946L2.75851 12.692C2.36801 13.0825 1.73483 13.0824 1.3443 12.692C0.953777 12.3014 0.953777 11.6683 1.3443 11.2777L9.5368 3.08525L2.05141 3.08525C1.49914 3.08525 1.05154 2.63762 1.05151 2.08536C1.05151 1.53307 1.49912 1.08546 2.05141 1.08546L11.9509 1.08546C12.0317 1.08547 12.1123 1.09635 12.1912 1.11585C12.2138 1.12143 12.2362 1.1274 12.2582 1.13449C12.3249 1.15598 12.3897 1.18428 12.4515 1.22012C12.4664 1.22871 12.4814 1.23703 12.4957 1.24636C12.5051 1.25247 12.5141 1.25923 12.5234 1.26569C12.5379 1.27588 12.5522 1.28652 12.5662 1.29746C12.5803 1.30849 12.594 1.32009 12.6076 1.33198C12.6196 1.34248 12.6313 1.35338 12.6428 1.36444C12.6477 1.36915 12.6532 1.37342 12.658 1.37825C12.6629 1.3831 12.6671 1.38852 12.6718 1.39344Z" fill="#335FFF" stroke="white" stroke-width="0.5" stroke-linecap="round" stroke-linejoin="round"/>
</svg>
