<svg width="36" height="35" viewBox="0 0 36 35" fill="none" xmlns="http://www.w3.org/2000/svg">
<path d="M17.7969 0.0283203C8.12812 0.0283203 0.296875 7.85957 0.296875 17.5283C0.296875 25.2721 5.30625 31.8127 12.2625 34.1314C13.1375 34.2846 13.4656 33.7596 13.4656 33.3002C13.4656 32.8846 13.4438 31.5064 13.4438 30.0408C9.04688 30.8502 7.90937 28.9689 7.55937 27.9846C7.3625 27.4814 6.50938 25.9283 5.76562 25.5127C5.15312 25.1846 4.27813 24.3752 5.74375 24.3533C7.12187 24.3314 8.10625 25.6221 8.43437 26.1471C10.0094 28.7939 12.525 28.0502 13.5312 27.5908C13.6844 26.4533 14.1438 25.6877 14.6469 25.2502C10.7531 24.8127 6.68438 23.3033 6.68438 16.6096C6.68438 14.7064 7.3625 13.1314 8.47812 11.9064C8.30313 11.4689 7.69062 9.6752 8.65312 7.26895C8.65312 7.26895 10.1187 6.80957 13.4656 9.0627C14.8656 8.66895 16.3531 8.47207 17.8406 8.47207C19.3281 8.47207 20.8156 8.66895 22.2156 9.0627C25.5625 6.7877 27.0281 7.26895 27.0281 7.26895C27.9906 9.6752 27.3781 11.4689 27.2031 11.9064C28.3188 13.1314 28.9969 14.6846 28.9969 16.6096C28.9969 23.3252 24.9062 24.8127 21.0125 25.2502C21.6469 25.7971 22.1938 26.8471 22.1938 28.4877C22.1938 30.8283 22.1719 32.7096 22.1719 33.3002C22.1719 33.7596 22.5 34.3064 23.375 34.1314C26.8491 32.9586 29.8679 30.7259 32.0065 27.7475C34.1452 24.7691 35.2959 21.195 35.2969 17.5283C35.2969 7.85957 27.4656 0.0283203 17.7969 0.0283203Z" fill="black"/>
</svg>
