<svg width="49" height="49" viewBox="0 0 49 49" fill="none" xmlns="http://www.w3.org/2000/svg">
<mask id="mask0_4382_822" style="mask-type:luminance" maskUnits="userSpaceOnUse" x="2" y="2" width="45" height="44">
<path d="M46.3121 2.87891H2.67578V45.736H46.3121V2.87891Z" fill="white"/>
</mask>
<g mask="url(#mask0_4382_822)">
<path d="M43.4711 28.7523C43.1922 28.4235 42.8015 28.2051 42.3712 28.1374C41.941 28.0699 41.5003 28.1577 41.131 28.3846L24.75 40.1981V40.7037C24.9863 40.6763 25.2259 40.6983 25.453 40.7683C25.6801 40.8383 25.8894 40.9548 26.0673 41.11C26.2452 41.2653 26.3877 41.4558 26.4852 41.6691C26.5826 41.8822 26.6331 42.1134 26.6331 42.3471C26.6331 42.5809 26.5826 42.812 26.4852 43.0251C26.3877 43.2384 26.2452 43.4289 26.0673 43.5842C25.8894 43.7394 25.6801 43.8559 25.453 43.9259C25.2259 43.9959 24.9863 44.018 24.75 43.9905C25.13 43.9921 25.5 43.871 25.803 43.6457L43.1435 31.0737C43.4813 30.7954 43.702 30.4039 43.7625 29.975C43.823 29.5461 43.7192 29.1103 43.4711 28.7523Z" fill="#669DF6"/>
<path d="M24.7492 43.9899C24.3395 43.9423 23.9618 43.7486 23.6879 43.4457C23.4138 43.1429 23.2625 42.7518 23.2625 42.3466C23.2625 41.9414 23.4138 41.5503 23.6879 41.2474C23.9618 40.9446 24.3395 40.7509 24.7492 40.7033V40.1977L8.36816 28.3841C8.00026 28.1522 7.55829 28.0615 7.12664 28.1293C6.69499 28.1971 6.30389 28.4188 6.02802 28.7518C5.78129 29.1099 5.68267 29.5468 5.75223 29.9737C5.82177 30.4007 6.05427 30.7855 6.40244 31.0501L23.7429 43.6222C24.0387 43.8442 24.4003 43.9653 24.7726 43.9669L24.7492 43.9899Z" fill="#AECBFA"/>
<path d="M24.7525 38.9785C24.0722 38.9785 23.4071 39.1767 22.8414 39.5479C22.2757 39.9191 21.8347 40.4468 21.5744 41.0642C21.314 41.6815 21.2459 42.3609 21.3786 43.0163C21.5113 43.6716 21.839 44.2736 22.3201 44.7461C22.8011 45.2187 23.4141 45.5405 24.0814 45.6708C24.7487 45.8011 25.4404 45.7343 26.069 45.4785C26.6975 45.2228 27.2348 44.7898 27.6128 44.2342C27.9907 43.6786 28.1925 43.0253 28.1925 42.3571C28.1925 41.4611 27.8301 40.6017 27.1849 39.9681C26.5398 39.3345 25.6648 38.9785 24.7525 38.9785ZM24.7525 43.9889C24.4183 43.9889 24.0916 43.8912 23.814 43.7084C23.5365 43.5255 23.3206 43.2657 23.1938 42.962C23.067 42.6582 23.0349 42.3244 23.1019 42.0028C23.1688 41.6812 23.3317 41.3863 23.5697 41.1558C23.8076 40.9253 24.1101 40.7696 24.4384 40.7084C24.7668 40.6471 25.1063 40.6832 25.4137 40.8119C25.7211 40.9408 25.9826 41.1564 26.1649 41.4316C26.3472 41.7067 26.4421 42.0289 26.4374 42.3571C26.4374 42.5734 26.3937 42.7875 26.3087 42.9869C26.2238 43.1865 26.0993 43.3673 25.9425 43.5192C25.7858 43.671 25.5998 43.7908 25.3955 43.8714C25.1913 43.952 24.9727 43.992 24.7525 43.9889Z" fill="#4285F4"/>
<path d="M10.7083 10.8704C10.2446 10.8644 9.80175 10.6809 9.47387 10.3589C9.14603 10.0369 8.95917 9.60189 8.95311 9.14658V4.82569C8.92439 4.58105 8.94867 4.3332 9.02436 4.09842C9.10005 3.86364 9.2254 3.64723 9.39227 3.46339C9.55914 3.27955 9.76362 3.13244 9.99245 3.03171C10.2213 2.93098 10.4692 2.87891 10.72 2.87891C10.9707 2.87891 11.2185 2.93098 11.4474 3.03171C11.6762 3.13244 11.8808 3.27955 12.0475 3.46339C12.2144 3.64723 12.3398 3.86364 12.4155 4.09842C12.4912 4.3332 12.5154 4.58105 12.4867 4.82569V9.14658C12.4806 9.60583 12.2905 10.0443 11.9577 10.3669C11.6247 10.6895 11.1759 10.8704 10.7083 10.8704Z" fill="#AECBFA"/>
<path d="M10.6614 26.1537C11.6435 26.1537 12.4398 25.3716 12.4398 24.4069C12.4398 23.4422 11.6435 22.6602 10.6614 22.6602C9.67911 22.6602 8.88281 23.4422 8.88281 24.4069C8.88281 25.3716 9.67911 26.1537 10.6614 26.1537Z" fill="#AECBFA"/>
<path d="M10.6614 21.0756C11.6435 21.0756 12.4398 20.2935 12.4398 19.3288C12.4398 18.3641 11.6435 17.582 10.6614 17.582C9.67911 17.582 8.88281 18.3641 8.88281 19.3288C8.88281 20.2935 9.67911 21.0756 10.6614 21.0756Z" fill="#AECBFA"/>
<path d="M10.6614 15.974C11.6435 15.974 12.4398 15.192 12.4398 14.2272C12.4398 13.2625 11.6435 12.4805 10.6614 12.4805C9.67911 12.4805 8.88281 13.2625 8.88281 14.2272C8.88281 15.192 9.67911 15.974 10.6614 15.974Z" fill="#AECBFA"/>
<path d="M38.7903 15.9281C38.3227 15.9221 37.8763 15.7354 37.5478 15.4084C37.2193 15.0815 37.0352 14.6407 37.0352 14.1814V9.86049C37.0352 9.40329 37.2201 8.96486 37.5493 8.6416C37.8784 8.31833 38.3248 8.13672 38.7903 8.13672C39.2558 8.13672 39.7022 8.31833 40.0313 8.6416C40.3605 8.96486 40.5454 9.40329 40.5454 9.86049V14.1814C40.5485 14.4097 40.5054 14.6363 40.4185 14.8481C40.3318 15.0599 40.203 15.2527 40.0397 15.4152C39.8764 15.5776 39.6819 15.7067 39.4674 15.7947C39.2529 15.8829 39.0228 15.9282 38.7903 15.9281Z" fill="#4285F4"/>
<path d="M38.8371 26.177C39.8193 26.177 40.6156 25.3951 40.6156 24.4304C40.6156 23.4657 39.8193 22.6836 38.8371 22.6836C37.8549 22.6836 37.0586 23.4657 37.0586 24.4304C37.0586 25.3951 37.8549 26.177 38.8371 26.177Z" fill="#4285F4"/>
<path d="M38.8371 21.0052C39.8193 21.0052 40.6156 20.2231 40.6156 19.2585C40.6156 18.2938 39.8193 17.5117 38.8371 17.5117C37.8549 17.5117 37.0586 18.2938 37.0586 19.2585C37.0586 20.2231 37.8549 21.0052 38.8371 21.0052Z" fill="#4285F4"/>
<path d="M38.8371 6.57162C39.8193 6.57162 40.6156 5.78958 40.6156 4.82487C40.6156 3.86016 39.8193 3.07812 38.8371 3.07812C37.8549 3.07812 37.0586 3.86016 37.0586 4.82487C37.0586 5.78958 37.8549 6.57162 38.8371 6.57162Z" fill="#4285F4"/>
<path d="M24.7473 31.303C24.2837 31.297 23.8408 31.1134 23.513 30.7915C23.1851 30.4695 22.9983 30.0345 22.9922 29.5792V25.1893C23.0422 24.7636 23.2498 24.3706 23.5756 24.0854C23.9014 23.8002 24.3227 23.6426 24.759 23.6426C25.1955 23.6426 25.6167 23.8002 25.9424 24.0854C26.2682 24.3706 26.4759 24.7636 26.5259 25.1893V29.5332C26.5289 29.7645 26.4852 29.9942 26.3972 30.2087C26.3092 30.4234 26.1788 30.6186 26.0133 30.7833C25.8478 30.9478 25.6507 31.0786 25.4334 31.1678C25.2161 31.257 24.9829 31.303 24.7473 31.303Z" fill="#669DF6"/>
<path d="M24.7473 36.3822C25.7295 36.3822 26.5258 35.6002 26.5258 34.6354C26.5258 33.6707 25.7295 32.8887 24.7473 32.8887C23.765 32.8887 22.9688 33.6707 22.9688 34.6354C22.9688 35.6002 23.765 36.3822 24.7473 36.3822Z" fill="#669DF6"/>
<path d="M24.7473 21.8803C25.7295 21.8803 26.5258 21.0982 26.5258 20.1335C26.5258 19.1688 25.7295 18.3867 24.7473 18.3867C23.765 18.3867 22.9688 19.1688 22.9688 20.1335C22.9688 21.0982 23.765 21.8803 24.7473 21.8803Z" fill="#669DF6"/>
<path d="M24.7473 16.7786C25.7295 16.7786 26.5258 15.9966 26.5258 15.0318C26.5258 14.0672 25.7295 13.2852 24.7473 13.2852C23.765 13.2852 22.9688 14.0672 22.9688 15.0318C22.9688 15.9966 23.765 16.7786 24.7473 16.7786Z" fill="#669DF6"/>
<path d="M31.7708 21.052C31.3072 21.0461 30.8642 20.8625 30.5364 20.5406C30.2086 20.2185 30.0217 19.7835 30.0156 19.3282V15.0074C29.9869 14.7627 30.0112 14.5149 30.0868 14.2801C30.1626 14.0453 30.2879 13.8289 30.4548 13.645C30.6216 13.4612 30.8261 13.3141 31.0549 13.2134C31.2838 13.1127 31.5317 13.0605 31.7824 13.0605C32.0332 13.0605 32.2811 13.1127 32.5099 13.2134C32.7387 13.3141 32.9433 13.4612 33.11 13.645C33.2769 13.8289 33.4023 14.0453 33.478 14.2801C33.5536 14.5149 33.5779 14.7627 33.5492 15.0074V19.3282C33.5431 19.7876 33.353 20.2259 33.0201 20.5485C32.6873 20.8712 32.2384 21.052 31.7708 21.052Z" fill="#4285F4"/>
<path d="M31.7941 11.6517C32.7763 11.6517 33.5726 10.8697 33.5726 9.90497C33.5726 8.94025 32.7763 8.1582 31.7941 8.1582C30.8119 8.1582 30.0156 8.94025 30.0156 9.90497C30.0156 10.8697 30.8119 11.6517 31.7941 11.6517Z" fill="#4285F4"/>
<path d="M31.7941 31.1888C32.7763 31.1888 33.5726 30.4067 33.5726 29.442C33.5726 28.4774 32.7763 27.6953 31.7941 27.6953C30.8119 27.6953 30.0156 28.4774 30.0156 29.442C30.0156 30.4067 30.8119 31.1888 31.7941 31.1888Z" fill="#4285F4"/>
<path d="M31.7941 26.0873C32.7763 26.0873 33.5726 25.3052 33.5726 24.3405C33.5726 23.3758 32.7763 22.5938 31.7941 22.5938C30.8119 22.5938 30.0156 23.3758 30.0156 24.3405C30.0156 25.3052 30.8119 26.0873 31.7941 26.0873Z" fill="#4285F4"/>
<path d="M17.7082 31.1888C18.6905 31.1888 19.4867 30.4067 19.4867 29.442C19.4867 28.4774 18.6905 27.6953 17.7082 27.6953C16.726 27.6953 15.9297 28.4774 15.9297 29.442C15.9297 30.4067 16.726 31.1888 17.7082 31.1888Z" fill="#AECBFA"/>
<path d="M17.7082 16.7786C18.6905 16.7786 19.4867 15.9966 19.4867 15.0318C19.4867 14.0672 18.6905 13.2852 17.7082 13.2852C16.726 13.2852 15.9297 14.0672 15.9297 15.0318C15.9297 15.9966 16.726 16.7786 17.7082 16.7786Z" fill="#AECBFA"/>
<path d="M17.7082 11.6517C18.6905 11.6517 19.4867 10.8697 19.4867 9.90497C19.4867 8.94025 18.6905 8.1582 17.7082 8.1582C16.726 8.1582 15.9297 8.94025 15.9297 9.90497C15.9297 10.8697 16.726 11.6517 17.7082 11.6517Z" fill="#AECBFA"/>
<path d="M17.7278 26.0868C17.2679 26.0872 16.8259 25.9126 16.4943 25.5999C16.1627 25.287 15.9674 24.8602 15.9492 24.409V20.0422C15.9492 19.585 16.1342 19.1465 16.4633 18.8233C16.7924 18.5 17.2388 18.3184 17.7043 18.3184C18.1698 18.3184 18.6162 18.5 18.9454 18.8233C19.2745 19.1465 19.4594 19.585 19.4594 20.0422V24.409C19.4474 24.8542 19.2603 25.2776 18.9375 25.5904C18.6147 25.9031 18.1811 26.0811 17.7278 26.0868Z" fill="#AECBFA"/>
</g>
</svg>
