<svg width="48" height="49" viewBox="0 0 48 49" fill="none" xmlns="http://www.w3.org/2000/svg">
<path fill-rule="evenodd" clip-rule="evenodd" d="M23.9954 13.2109C22.993 13.2109 21.9819 13.4329 21.0719 13.8522C20.3666 14.1774 20.0582 15.0127 20.3834 15.718C20.6207 16.2329 21.1294 16.5361 21.6615 16.5361C21.8585 16.5361 22.0585 16.4944 22.2493 16.4065C22.7927 16.156 23.3966 16.0234 23.9954 16.0234C24.5974 16.0234 25.1804 16.1505 25.7279 16.4003C26.434 16.7229 27.2689 16.412 27.5912 15.7052C27.9138 14.9988 27.6025 14.1646 26.8961 13.8419C25.9791 13.4233 25.0032 13.2109 23.9954 13.2109Z" fill="#335FFF"/>
<path fill-rule="evenodd" clip-rule="evenodd" d="M18.6264 11.9999C20.226 10.9521 22.0824 10.3984 23.9943 10.3984C25.9107 10.3984 27.7703 10.9543 29.3718 12.0065C29.6098 12.1628 29.8775 12.2375 30.1427 12.2375C30.6004 12.2375 31.0494 12.0142 31.3193 11.6029C31.7456 10.954 31.565 10.082 30.9157 9.65576C28.8543 8.30151 26.4611 7.58594 23.9943 7.58594C21.5334 7.58594 19.1442 8.29858 17.085 9.64734C16.4354 10.0729 16.2537 10.9445 16.6793 11.5941C17.1048 12.2438 17.9768 12.4254 18.6264 11.9999Z" fill="#335FFF"/>
<path fill-rule="evenodd" clip-rule="evenodd" d="M46.5938 26.4297H42.375C42.375 22.5526 39.2208 19.3984 35.3438 19.3984H12.6562C8.77917 19.3984 5.625 22.5526 5.625 26.4297H1.40625C0.629517 26.4297 0 27.0592 0 27.8359V33.4609C0 34.2377 0.629517 34.8672 1.40625 34.8672H5.625C5.625 38.7443 8.77917 41.8984 12.6562 41.8984H16.0221C18.3384 41.8984 20.3617 40.865 21.7192 38.9882C22.2477 38.2576 23.1002 37.8214 24 37.8214C24.8998 37.8214 25.7523 38.2576 26.2808 38.9882C27.6383 40.865 29.6616 41.8984 31.9779 41.8984H35.3438C39.2208 41.8984 42.375 38.7443 42.375 34.8672H46.5938C47.3705 34.8672 48 34.2377 48 33.4609V27.8359C48 27.0592 47.3705 26.4297 46.5938 26.4297ZM2.8125 32.0547V29.2422H5.625V32.0547H2.8125ZM39.5625 34.8672C39.5625 37.1934 37.6699 39.0859 35.3438 39.0859H31.9779C30.568 39.0859 29.3859 38.4821 28.5597 37.3398C27.5039 35.8801 25.7996 35.0089 24 35.0089C22.2004 35.0089 20.4961 35.8801 19.4403 37.3398C18.6141 38.4821 17.432 39.0859 16.0221 39.0859H12.6562C10.3301 39.0859 8.4375 37.1934 8.4375 34.8672V26.4297C8.4375 24.1035 10.3301 22.2109 12.6562 22.2109H35.3438C37.6699 22.2109 39.5625 24.1035 39.5625 26.4297V34.8672ZM45.1875 32.0547H42.375V29.2422H45.1875V32.0547Z" fill="#335FFF"/>
<path fill-rule="evenodd" clip-rule="evenodd" d="M12.6562 25.0234C11.8817 25.0234 11.25 25.6552 11.25 26.4297C11.25 27.2042 11.8817 27.8359 12.6562 27.8359C13.4308 27.8359 14.0625 27.2042 14.0625 26.4297C14.0625 25.6552 13.4308 25.0234 12.6562 25.0234Z" fill="#335FFF"/>
<path fill-rule="evenodd" clip-rule="evenodd" d="M18.2812 25.0234C17.5067 25.0234 16.875 25.6552 16.875 26.4297C16.875 27.2042 17.5067 27.8359 18.2812 27.8359C19.0558 27.8359 19.6875 27.2042 19.6875 26.4297C19.6875 25.6552 19.0558 25.0234 18.2812 25.0234Z" fill="#335FFF"/>
<path fill-rule="evenodd" clip-rule="evenodd" d="M23.9062 25.0234C23.1317 25.0234 22.5 25.6552 22.5 26.4297C22.5 27.2042 23.1317 27.8359 23.9062 27.8359C24.6808 27.8359 25.3125 27.2042 25.3125 26.4297C25.3125 25.6552 24.6808 25.0234 23.9062 25.0234Z" fill="#335FFF"/>
</svg>
