<svg width="48" height="48" viewBox="0 0 48 48" fill="none" xmlns="http://www.w3.org/2000/svg">
<g clip-path="url(#clip0_5252_235)">
<path d="M1.40625 48H18.375C19.1517 48 19.7812 47.3705 19.7812 46.5938V39.4688H28.2188V46.5938C28.2188 47.3705 28.8483 48 29.625 48H46.5938C47.3705 48 48 47.3705 48 46.5938V29.625C48 28.8483 47.3705 28.2188 46.5938 28.2188H39.4688V19.7812H46.5938C47.3705 19.7812 48 19.1517 48 18.375V1.40625C48 0.629517 47.3705 0 46.5938 0H29.625C28.8483 0 28.2188 0.629517 28.2188 1.40625V8.53125H19.7812V1.40625C19.7812 0.629517 19.1517 0 18.375 0H1.40625C0.629517 0 0 0.629517 0 1.40625V18.375C0 19.1517 0.629517 19.7812 1.40625 19.7812H8.53125V28.2188H1.40625C0.629517 28.2188 0 28.8483 0 29.625V46.5938C0 47.3705 0.629517 48 1.40625 48ZM45.1875 31.0312V45.1875H31.0312V39.4688H34.0854C34.6663 41.1057 36.2292 42.2812 38.0625 42.2812C40.3887 42.2812 42.2812 40.3887 42.2812 38.0625C42.2812 36.2292 41.1057 34.6663 39.4688 34.0854V31.0312H45.1875ZM38.0625 36.6562C38.8378 36.6562 39.4688 37.2872 39.4688 38.0625C39.4688 38.8378 38.8378 39.4688 38.0625 39.4688C37.2872 39.4688 36.6562 38.8378 36.6562 38.0625C36.6562 37.2872 37.2872 36.6562 38.0625 36.6562ZM36.6562 34.0854C35.4595 34.5099 34.5099 35.4595 34.0854 36.6562H31.0312V31.0312H36.6562V34.0854ZM31.0312 2.8125H45.1875V16.9688H39.4688V13.9146C41.1057 13.3337 42.2812 11.7708 42.2812 9.9375C42.2812 7.61133 40.3887 5.71875 38.0625 5.71875C36.2292 5.71875 34.6663 6.89429 34.0854 8.53125H31.0312V2.8125ZM31.0312 11.3438H34.0854C34.5099 12.5405 35.4595 13.4901 36.6562 13.9146V16.9688H31.0312V11.3438ZM38.0629 11.3438C38.0625 11.3438 38.0625 11.3438 38.0625 11.3438H38.0621C37.2869 11.3438 36.6562 10.7128 36.6562 9.9375C36.6562 9.16223 37.2872 8.53125 38.0625 8.53125C38.8378 8.53125 39.4688 9.16223 39.4688 9.9375C39.4688 10.7128 38.8381 11.3438 38.0629 11.3438ZM2.8125 16.9688V2.8125H16.9688V8.53125H13.9146C13.3337 6.89429 11.7708 5.71875 9.9375 5.71875C7.61133 5.71875 5.71875 7.61133 5.71875 9.9375C5.71875 11.7708 6.89429 13.3337 8.53125 13.9146V16.9688H2.8125ZM9.9375 11.3438C9.16223 11.3438 8.53125 10.7128 8.53125 9.9375C8.53125 9.16223 9.16223 8.53125 9.9375 8.53125C10.7128 8.53125 11.3438 9.16223 11.3438 9.9375C11.3438 10.7128 10.7128 11.3438 9.9375 11.3438ZM11.3438 13.9146C12.5405 13.4901 13.4901 12.5405 13.9146 11.3438H16.9688V16.9688H11.3438V13.9146ZM11.3438 19.7812H18.375C19.1517 19.7812 19.7812 19.1517 19.7812 18.375V11.3438H28.2188V18.375C28.2188 19.1517 28.8483 19.7812 29.625 19.7812H36.6562V28.2188H29.625C28.8483 28.2188 28.2188 28.8483 28.2188 29.625V36.6562H19.7812V29.625C19.7812 28.8483 19.1517 28.2188 18.375 28.2188H11.3438V19.7812ZM13.9146 36.6562C13.4901 35.4595 12.5405 34.5099 11.3438 34.0854V31.0312H16.9688V36.6562H13.9146ZM9.9375 36.6562C10.7128 36.6562 11.3438 37.2872 11.3438 38.0625C11.3438 38.8378 10.7128 39.4688 9.9375 39.4688C9.16223 39.4688 8.53125 38.8378 8.53125 38.0625C8.53125 37.2872 9.16223 36.6562 9.9375 36.6562ZM2.8125 31.0312H8.53125V34.0854C6.89429 34.6663 5.71875 36.2292 5.71875 38.0625C5.71875 40.3887 7.61133 42.2812 9.9375 42.2812C11.7708 42.2812 13.3337 41.1057 13.9146 39.4688H16.9688V45.1875H2.8125V31.0312Z" fill="#335FFF"/>
</g>
<defs>
<clipPath id="clip0_5252_235">
<rect width="48" height="48" fill="white"/>
</clipPath>
</defs>
</svg>
