<svg width="1920" height="1081" viewBox="0 0 1920 1081" fill="none" xmlns="http://www.w3.org/2000/svg">
<g opacity="0.2">
<mask id="mask0_4990_340" style="mask-type:alpha" maskUnits="userSpaceOnUse" x="54" y="10" width="1956" height="1440">
<path d="M921.838 551.828C921.838 699.088 1019.2 818.465 1139.31 818.465C1259.41 818.465 2009.82 301.968 2009.82 154.708C2009.82 7.44817 931.633 210.179 811.527 210.179C691.422 210.179 921.838 404.568 921.838 551.828Z" fill="url(#paint0_linear_4990_340)"/>
<path d="M837.372 1182.85C837.372 1330.11 934.737 1449.49 1054.84 1449.49C1174.95 1449.49 1844.04 1415.17 1844.04 1267.91C1844.04 1120.65 1794.58 771.821 1674.48 771.821C1554.37 771.821 837.372 1035.59 837.372 1182.85Z" fill="url(#paint1_radial_4990_340)"/>
<path d="M590.681 552.232C266.615 844.92 416.314 697.832 137.97 690.422C94.305 698.833 20.1783 699.233 72.991 633.541C139.007 551.427 117.731 493.429 200.233 403.965C282.735 314.501 332.98 223.607 457.535 81.317C582.091 -60.9731 591.673 56.3208 732.094 45.2017C872.514 34.0826 808.468 51.74 1002.21 258.197C1195.96 464.654 914.747 259.543 590.681 552.232Z" fill="#D9D9D9"/>
<path d="M896.627 1012.61C1330.31 1063.67 1121.03 1047.91 1298.79 1262.23C1333.88 1289.55 1383 1345.06 1298.79 1348.59C1193.52 1353 1163.9 1407.21 1042.24 1404.06C920.581 1400.91 819.094 1422.97 629.99 1422.97C440.885 1422.97 522.83 1338.5 421.975 1240.17C321.119 1141.83 376.589 1178.4 404.325 896.629C432.06 614.863 462.947 961.555 896.627 1012.61Z" fill="#D9D9D9"/>
</mask>
<g mask="url(#mask0_4990_340)">
<line y1="-0.630349" x2="1511.58" y2="-0.630349" transform="matrix(-1 0 0 1 1712.3 858.178)" stroke="white" stroke-opacity="0.16" stroke-width="1.2607"/>
<line y1="-0.630349" x2="1511.58" y2="-0.630349" transform="matrix(-1 0 0 1 1712.3 535.44)" stroke="white" stroke-opacity="0.16" stroke-width="1.2607"/>
<line y1="-0.630349" x2="1511.58" y2="-0.630349" transform="matrix(-1 0 0 1 1712.3 212.7)" stroke="white" stroke-opacity="0.16" stroke-width="1.2607"/>
<line y1="-0.630349" x2="1511.58" y2="-0.630349" transform="matrix(-1 0 0 1 1712.3 696.808)" stroke="white" stroke-opacity="0.16" stroke-width="1.2607"/>
<line y1="-0.630349" x2="1511.58" y2="-0.630349" transform="matrix(-1 0 0 1 1712.3 1019.55)" stroke="white" stroke-opacity="0.16" stroke-width="1.2607"/>
<line y1="-0.630349" x2="1511.58" y2="-0.630349" transform="matrix(-1 0 0 1 1712.3 374.07)" stroke="white" stroke-opacity="0.16" stroke-width="1.2607"/>
<line y1="-0.630349" x2="1511.58" y2="-0.630349" transform="matrix(-1 0 0 1 1712.3 51.3315)" stroke="white" stroke-opacity="0.16" stroke-width="1.2607"/>
<line y1="-0.630349" x2="1511.58" y2="-0.630349" transform="matrix(-1 0 0 1 1712.3 777.493)" stroke="white" stroke-opacity="0.16" stroke-width="1.2607"/>
<line y1="-0.630349" x2="1511.58" y2="-0.630349" transform="matrix(-1 0 0 1 1712.3 454.755)" stroke="white" stroke-opacity="0.16" stroke-width="1.2607"/>
<line y1="-0.630349" x2="1511.58" y2="-0.630349" transform="matrix(-1 0 0 1 1712.3 132.017)" stroke="white" stroke-opacity="0.16" stroke-width="1.2607"/>
<line y1="-0.630349" x2="1511.58" y2="-0.630349" transform="matrix(-1 0 0 1 1712.3 616.123)" stroke="white" stroke-opacity="0.16" stroke-width="1.2607"/>
<line y1="-0.630349" x2="1511.58" y2="-0.630349" transform="matrix(-1 0 0 1 1712.3 938.863)" stroke="white" stroke-opacity="0.16" stroke-width="1.2607"/>
<line y1="-0.630349" x2="1511.58" y2="-0.630349" transform="matrix(-1 0 0 1 1712.3 293.385)" stroke="white" stroke-opacity="0.16" stroke-width="1.2607"/>
<line y1="-0.630349" x2="1167.41" y2="-0.630349" transform="matrix(4.37114e-08 1 1 -4.37114e-08 1665.65 183.705)" stroke="white" stroke-opacity="0.16" stroke-width="1.2607"/>
<line y1="-0.630349" x2="1167.41" y2="-0.630349" transform="matrix(4.37114e-08 1 1 -4.37114e-08 1020.17 183.705)" stroke="white" stroke-opacity="0.16" stroke-width="1.2607"/>
<line y1="-0.630349" x2="1167.41" y2="-0.630349" transform="matrix(4.37114e-08 1 1 -4.37114e-08 1342.91 183.705)" stroke="white" stroke-opacity="0.16" stroke-width="1.2607"/>
<line y1="-0.630349" x2="1167.41" y2="-0.630349" transform="matrix(4.37114e-08 1 1 -4.37114e-08 697.438 183.705)" stroke="white" stroke-opacity="0.16" stroke-width="1.2607"/>
<line y1="-0.630349" x2="1167.41" y2="-0.630349" transform="matrix(4.37114e-08 1 1 -4.37114e-08 374.688 183.705)" stroke="white" stroke-opacity="0.16" stroke-width="1.2607"/>
<line y1="-0.630349" x2="1167.41" y2="-0.630349" transform="matrix(4.37114e-08 1 1 -4.37114e-08 1504.28 183.705)" stroke="white" stroke-opacity="0.16" stroke-width="1.2607"/>
<line y1="-0.630349" x2="1167.41" y2="-0.630349" transform="matrix(4.37114e-08 1 1 -4.37114e-08 858.805 183.705)" stroke="white" stroke-opacity="0.16" stroke-width="1.2607"/>
<line y1="-0.630349" x2="1167.41" y2="-0.630349" transform="matrix(4.37114e-08 1 1 -4.37114e-08 1181.54 183.705)" stroke="white" stroke-opacity="0.16" stroke-width="1.2607"/>
<line y1="-0.630349" x2="1167.41" y2="-0.630349" transform="matrix(4.37114e-08 1 1 -4.37114e-08 536.062 183.705)" stroke="white" stroke-opacity="0.16" stroke-width="1.2607"/>
<line y1="-0.630349" x2="1167.41" y2="-0.630349" transform="matrix(4.37114e-08 1 1 -4.37114e-08 213.32 183.705)" stroke="white" stroke-opacity="0.16" stroke-width="1.2607"/>
<line y1="-0.630349" x2="1167.41" y2="-0.630349" transform="matrix(4.37114e-08 1 1 -4.37114e-08 1584.96 183.705)" stroke="white" stroke-opacity="0.16" stroke-width="1.2607"/>
<line y1="-0.630349" x2="1167.41" y2="-0.630349" transform="matrix(4.37114e-08 1 1 -4.37114e-08 939.484 183.705)" stroke="white" stroke-opacity="0.16" stroke-width="1.2607"/>
<line y1="-0.630349" x2="1167.41" y2="-0.630349" transform="matrix(4.37114e-08 1 1 -4.37114e-08 1262.23 183.705)" stroke="white" stroke-opacity="0.16" stroke-width="1.2607"/>
<line y1="-0.630349" x2="1167.41" y2="-0.630349" transform="matrix(4.37114e-08 1 1 -4.37114e-08 616.75 183.705)" stroke="white" stroke-opacity="0.16" stroke-width="1.2607"/>
<line y1="-0.630349" x2="1167.41" y2="-0.630349" transform="matrix(4.37114e-08 1 1 -4.37114e-08 294.008 183.705)" stroke="white" stroke-opacity="0.16" stroke-width="1.2607"/>
<line y1="-0.630349" x2="1167.41" y2="-0.630349" transform="matrix(4.37114e-08 1 1 -4.37114e-08 1423.59 183.705)" stroke="white" stroke-opacity="0.16" stroke-width="1.2607"/>
<line y1="-0.630349" x2="1167.41" y2="-0.630349" transform="matrix(4.37114e-08 1 1 -4.37114e-08 778.117 183.705)" stroke="white" stroke-opacity="0.16" stroke-width="1.2607"/>
<line y1="-0.630349" x2="1167.41" y2="-0.630349" transform="matrix(4.37114e-08 1 1 -4.37114e-08 1100.86 183.705)" stroke="white" stroke-opacity="0.16" stroke-width="1.2607"/>
<line y1="-0.630349" x2="1167.41" y2="-0.630349" transform="matrix(4.37114e-08 1 1 -4.37114e-08 455.375 183.705)" stroke="white" stroke-opacity="0.16" stroke-width="1.2607"/>
<line y1="-0.630349" x2="1167.41" y2="-0.630349" transform="matrix(4.37114e-08 1 1 -4.37114e-08 132.641 183.705)" stroke="white" stroke-opacity="0.16" stroke-width="1.2607"/>
<g opacity="0.7">
<rect width="80.2262" height="80.2262" transform="matrix(-1 0 0 1 1261.53 1018.86)" fill="#335FFF" fill-opacity="0.25"/>
<rect width="80.2262" height="79.0801" transform="matrix(-1 0 0 1 534.906 454.983)" fill="#335FFF" fill-opacity="0.11"/>
<rect width="80.2262" height="79.0801" transform="matrix(-1 0 0 1 1181.31 374.757)" fill="#335FFF" fill-opacity="0.31"/>
<rect width="80.2262" height="79.0801" transform="matrix(-1 0 0 1 616.281 535.209)" fill="#335FFF" fill-opacity="0.11"/>
<rect width="80.2262" height="79.0801" transform="matrix(-1 0 0 1 1262.67 454.983)" fill="#335FFF" fill-opacity="0.31"/>
<rect width="80.2262" height="79.0801" transform="matrix(-1 0 0 1 616.281 454.983)" fill="#335FFF" fill-opacity="0.11"/>
<rect width="80.2262" height="79.0801" transform="matrix(-1 0 0 1 1262.67 374.757)" fill="#335FFF" fill-opacity="0.31"/>
<rect width="80.2262" height="80.2262" transform="matrix(-1 0 0 1 1341.76 1018.86)" fill="#335FFF" fill-opacity="0.25"/>
<rect width="80.2262" height="80.2262" transform="matrix(-1 0 0 1 1503.36 938.632)" fill="#335FFF" fill-opacity="0.25"/>
<rect width="80.2262" height="80.2262" transform="matrix(-1 0 0 1 776.734 201.697)" fill="#335FFF" fill-opacity="0.61"/>
<rect width="81.3723" height="82.5184" transform="matrix(-1 0 0 1 1503.35 372.464)" fill="#335FFF" fill-opacity="0.24"/>
<rect width="81.3723" height="80.2262" transform="matrix(-1 0 0 1 1584.73 292.238)" fill="#335FFF" fill-opacity="0.24"/>
<rect width="81.3723" height="80.2262" transform="matrix(-1 0 0 1 1664.95 293.384)" fill="#335FFF" fill-opacity="0.24"/>
<rect width="81.3723" height="82.5184" transform="matrix(-1 0 0 1 1584.73 372.464)" fill="#335FFF" fill-opacity="0.24"/>
<rect width="81.3723" height="80.2262" transform="matrix(-1 0 0 1 1261.52 212.012)" fill="#335FFF"/>
<rect width="80.2262" height="81.3723" transform="matrix(-1 0 0 1 1503.35 534.063)" fill="#335FFF" fill-opacity="0.24"/>
</g>
</g>
</g>
<g filter="url(#filter0_f_4990_340)">
<circle cx="940.625" cy="274.5" r="225" fill="#335FFF"/>
</g>
<defs>
<filter id="filter0_f_4990_340" x="275.825" y="-390.3" width="1329.6" height="1329.6" filterUnits="userSpaceOnUse" color-interpolation-filters="sRGB">
<feFlood flood-opacity="0" result="BackgroundImageFix"/>
<feBlend mode="normal" in="SourceGraphic" in2="BackgroundImageFix" result="shape"/>
<feGaussianBlur stdDeviation="219.9" result="effect1_foregroundBlur_4990_340"/>
</filter>
<linearGradient id="paint0_linear_4990_340" x1="1490.41" y1="228.459" x2="1035.93" y2="470.513" gradientUnits="userSpaceOnUse">
<stop stop-color="white"/>
<stop offset="1" stop-color="white" stop-opacity="0"/>
</linearGradient>
<radialGradient id="paint1_radial_4990_340" cx="0" cy="0" r="1" gradientUnits="userSpaceOnUse" gradientTransform="translate(1525.08 1189.11) rotate(-150.607) scale(777.019 1335.47)">
<stop stop-color="white"/>
<stop offset="1" stop-color="white" stop-opacity="0"/>
</radialGradient>
</defs>
</svg>
