<svg width="205" height="48" viewBox="0 0 205 48" fill="none" xmlns="http://www.w3.org/2000/svg">
<path d="M81.7891 6.58325H85.0704L88.2651 18.674H88.4265L91.6238 6.58325H94.9058L98.0768 18.6204H98.2382L101.409 6.58325H104.691L99.9028 23.0471H96.6634L93.3521 11.159H93.1066L89.7952 23.0471H86.5664L81.7891 6.58325Z" fill="#24262B"/>
<path d="M106.844 14.9215C106.844 9.85511 109.84 6.36948 114.385 6.36948C118.084 6.36948 121.606 8.69501 121.606 14.6361V15.775H110.009C110.094 18.9455 111.92 20.7242 114.638 20.7242C116.446 20.7242 117.825 19.9242 118.398 18.3774L121.405 18.9243C120.681 21.6042 118.166 23.3722 114.606 23.3722C109.795 23.377 106.844 20.0335 106.844 14.9215ZM118.494 13.3773C118.494 10.8598 116.868 9.01487 114.406 9.01487C111.825 9.01487 110.148 11.0417 110.02 13.3773H118.494Z" fill="#24262B"/>
<path d="M125.751 1.09515H128.921V9.25252H129.114C129.52 8.35535 130.183 7.60141 131.018 7.08771C131.852 6.57401 132.82 6.32406 133.796 6.37002C137.738 6.37002 140.647 9.50873 140.647 14.8472C140.647 20.1858 137.781 23.3669 133.828 23.3669C132.848 23.4084 131.878 23.157 131.039 22.6442C130.201 22.1314 129.531 21.38 129.114 20.4844H128.851V23.0471H125.75L125.751 1.09515ZM133.12 20.6282C135.955 20.6282 137.443 18.1106 137.443 14.8096C137.443 11.5086 135.997 9.08437 133.12 9.08437C130.349 9.08437 128.863 11.3696 128.863 14.8096C128.863 18.2496 130.39 20.6282 133.12 20.6282Z" fill="#24262B"/>
<path d="M144.562 6.58326H147.611V9.26313H147.812C148.491 7.45268 150.095 6.37001 152.251 6.37001C153.192 6.31856 154.124 6.57136 154.913 7.09167C155.702 7.61198 156.306 8.37267 156.637 9.26313H156.809C157.601 7.50573 159.356 6.37001 161.705 6.37001C164.656 6.37001 166.739 8.2367 166.739 12.0045V23.0471H163.568V12.3058C163.568 10.0779 162.186 9.13529 160.509 9.13529C158.44 9.13529 157.237 10.5675 157.237 12.5541V23.0471H154.067V12.0952C154.086 11.6962 154.022 11.2976 153.878 10.9254C153.735 10.5531 153.515 10.2158 153.233 9.93532C152.951 9.65487 152.613 9.4377 152.242 9.298C151.872 9.1583 151.476 9.09923 151.081 9.12467C149.276 9.12467 147.736 10.6662 147.736 12.8846V23.0364H144.565L144.562 6.58326Z" fill="#24262B"/>
<path d="M170.602 14.8898C170.602 9.76456 173.606 6.35638 178.206 6.35638C182.806 6.35638 185.811 9.7513 185.811 14.8898C185.811 20.0284 182.804 23.3771 178.206 23.3771C173.609 23.3771 170.602 19.9801 170.602 14.8898ZM182.603 14.8898C182.603 11.7379 181.2 9.058 178.217 9.058C175.233 9.058 173.809 11.7379 173.809 14.8898C173.809 18.0418 175.21 20.6978 178.217 20.6978C181.224 20.6978 182.603 18.0392 182.603 14.8792V14.8898Z" fill="#24262B"/>
<path d="M189.961 1.09515H193.132V9.25252H193.325C193.731 8.35531 194.394 7.60132 195.229 7.08761C196.063 6.5739 197.031 6.32399 198.007 6.37002C201.949 6.37002 204.858 9.50873 204.858 14.8472C204.858 20.1858 201.989 23.3669 198.039 23.3669C197.059 23.4084 196.089 23.157 195.25 22.6442C194.412 22.1314 193.742 21.38 193.325 20.4844H193.062V23.0471H189.961L189.961 1.09515ZM197.331 20.6282C200.166 20.6282 201.654 18.1106 201.654 14.8096C201.654 11.5086 200.208 9.08437 197.331 9.08437C194.56 9.08437 193.074 11.3696 193.074 14.8096C193.074 18.2496 194.602 20.6282 197.331 20.6282Z" fill="#24262B"/>
<path d="M87.8595 38.2284H86.4351V42.0886C86.4351 42.8885 86.8262 43.0248 87.2672 43.0248C87.4265 43.0215 87.5849 43.0018 87.7402 42.966L87.9862 44.0937C87.7042 44.1929 87.4076 44.2426 87.109 44.2406C86.052 44.2619 85.0769 43.646 85.0795 42.374V38.2274H84.0625V37.1315H85.0795V35.4526H86.4351V37.1325H87.8595V38.2284Z" fill="#335FFF"/>
<path d="M92.6797 40.6804C92.6797 38.523 93.9559 37.0351 95.8928 37.0351C97.4781 37.0351 98.9708 38.027 98.9708 40.5605V41.0459H94.03C94.0641 42.398 94.8436 43.155 96.001 43.155C96.3394 43.1848 96.6783 43.1036 96.9673 42.9235C97.2562 42.7433 97.4798 42.4738 97.6047 42.1551L98.8861 42.3869C98.5771 43.5311 97.5043 44.2827 95.9795 44.2827C93.9411 44.2838 92.6797 42.86 92.6797 40.6804ZM97.6447 40.0216C97.6621 39.7812 97.6298 39.5397 97.5499 39.3126C97.47 39.0854 97.3442 38.8775 97.1805 38.702C97.0167 38.5265 96.8187 38.3872 96.5988 38.2931C96.379 38.1989 96.1421 38.1518 95.9033 38.1549C95.4108 38.1548 94.9382 38.3508 94.5879 38.7003C94.2377 39.0498 94.0381 39.5246 94.0326 40.0216H97.6447Z" fill="#335FFF"/>
<path d="M103.891 40.6681C103.891 38.5346 105.156 37.0361 107.117 37.0361C108.702 37.0361 109.841 37.9776 109.986 39.3934H108.665C108.594 39.0409 108.402 38.7255 108.121 38.504C107.84 38.2824 107.491 38.1695 107.135 38.1856C106.001 38.1856 105.251 39.1324 105.251 40.6363C105.251 42.1401 105.987 43.1294 107.135 43.1294C107.491 43.1472 107.841 43.0353 108.122 42.8141C108.403 42.5928 108.595 42.277 108.665 41.9242H109.986C109.838 43.2896 108.773 44.2842 107.129 44.2842C105.112 44.2837 103.891 42.7825 103.891 40.6681Z" fill="#335FFF"/>
<path d="M116.512 44.1426H115.156V34.788H116.493V38.2705H116.578C116.748 37.8713 117.038 37.5367 117.408 37.3148C117.778 37.0929 118.208 36.9951 118.636 37.0356C120.069 37.0356 121.014 37.9315 121.014 39.681V44.1421H119.661V39.8454C119.661 38.819 119.106 38.2217 118.174 38.2217C117.946 38.2132 117.72 38.2534 117.509 38.3398C117.298 38.4262 117.107 38.5567 116.95 38.7228C116.793 38.8889 116.672 39.0867 116.596 39.3032C116.52 39.5198 116.491 39.7501 116.509 39.9791L116.512 44.1426Z" fill="#335FFF"/>
<path d="M127.9 44.1429H126.547V37.1265H127.847V38.2707H127.931C128.105 37.8765 128.395 37.5462 128.762 37.3251C129.129 37.104 129.555 37.0029 129.981 37.0358C131.4 37.0358 132.359 37.945 132.359 39.6812V44.1424H130.992V39.8456C130.992 38.8298 130.435 38.2219 129.516 38.2219C129.291 38.2157 129.067 38.2578 128.859 38.3456C128.652 38.4334 128.465 38.5649 128.312 38.7311C128.159 38.8974 128.042 39.0947 127.971 39.3099C127.899 39.5252 127.873 39.7534 127.896 39.9793L127.9 44.1429Z" fill="#335FFF"/>
<path d="M137.57 40.6681C137.57 38.4842 138.849 37.0361 140.81 37.0361C142.77 37.0361 144.049 38.4842 144.049 40.6681C144.049 42.852 142.77 44.2842 140.81 44.2842C138.849 44.2842 137.57 42.8361 137.57 40.6681ZM142.683 40.6681C142.683 39.3351 142.086 38.1829 140.815 38.1829C139.544 38.1829 138.936 39.3271 138.936 40.6681C138.936 42.0091 139.533 43.1427 140.815 43.1427C142.096 43.1427 142.683 42.0091 142.683 40.6628V40.6681Z" fill="#335FFF"/>
<path d="M150.629 44.1426H149.273V34.788H150.629V44.1426Z" fill="#335FFF"/>
<path d="M155.852 40.6681C155.852 38.4842 157.133 37.0361 159.091 37.0361C161.049 37.0361 162.333 38.4842 162.333 40.6681C162.333 42.852 161.052 44.2842 159.091 44.2842C157.13 44.2842 155.852 42.8361 155.852 40.6681ZM160.964 40.6681C160.964 39.3351 160.367 38.1829 159.096 38.1829C157.825 38.1829 157.218 39.3271 157.218 40.6681C157.218 42.0091 157.815 43.1427 159.096 43.1427C160.378 43.1427 160.964 42.0091 160.964 40.6628V40.6681Z" fill="#335FFF"/>
<path d="M167.516 45.3294L168.679 44.8467C168.855 45.1672 169.12 45.4295 169.44 45.6022C169.761 45.7748 170.124 45.8505 170.486 45.8201C171.514 45.8201 172.259 45.3453 172.259 44.2441V42.8649H172.174C171.992 43.2402 171.703 43.5524 171.344 43.7618C170.986 43.9712 170.574 44.0684 170.161 44.0409C168.517 44.0409 167.254 42.849 167.254 40.6115C167.254 38.374 168.488 37.0384 170.161 37.0384C170.579 37.0188 170.994 37.1251 171.352 37.344C171.711 37.5628 171.997 37.8842 172.174 38.2674H172.275V37.1285H173.596V44.3019C173.596 46.1055 172.229 46.9234 170.46 46.9234C168.811 46.9213 167.884 46.1882 167.516 45.3294ZM172.272 40.5882C172.272 39.1697 171.642 38.1884 170.46 38.1884C169.236 38.1884 168.61 39.2339 168.61 40.5882C168.61 41.9424 169.241 42.9057 170.46 42.9057C171.625 42.9052 172.272 42.0384 172.272 40.5882Z" fill="#335FFF"/>
<path d="M178.971 35.2304C178.958 35.0566 178.997 34.8829 179.083 34.7317C179.169 34.5806 179.298 34.4592 179.454 34.3833C179.609 34.3074 179.784 34.2806 179.954 34.3063C180.125 34.332 180.284 34.4091 180.411 34.5275C180.538 34.6459 180.626 34.8001 180.665 34.97C180.703 35.1399 180.69 35.3175 180.627 35.4798C180.564 35.6421 180.454 35.7814 180.312 35.8796C180.169 35.9778 180 36.0303 179.828 36.0303C179.61 36.0356 179.398 35.955 179.239 35.8057C179.079 35.6563 178.983 35.4499 178.971 35.2304ZM179.143 37.1263H180.496V44.1426H179.142L179.143 37.1263Z" fill="#335FFF"/>
<path d="M185.719 40.6804C185.719 38.523 186.995 37.0351 188.932 37.0351C190.517 37.0351 192.01 38.027 192.01 40.5605V41.0459H187.066C187.103 42.398 187.879 43.155 189.04 43.155C189.378 43.1851 189.716 43.104 190.005 42.9238C190.293 42.7435 190.516 42.4738 190.64 42.1551L191.922 42.3869C191.616 43.5311 190.543 44.2827 189.015 44.2827C186.977 44.2838 185.719 42.86 185.719 40.6804ZM190.684 40.0216C190.701 39.781 190.669 39.5393 190.589 39.312C190.508 39.0847 190.382 38.8767 190.218 38.7012C190.054 38.5256 189.856 38.3864 189.636 38.2924C189.416 38.1984 189.179 38.1515 188.94 38.1549C188.447 38.1542 187.974 38.35 187.624 38.6997C187.275 39.0494 187.076 39.5246 187.072 40.0216H190.684Z" fill="#335FFF"/>
<path d="M201.22 39.0601C201.128 38.7675 200.941 38.515 200.688 38.344C200.436 38.1729 200.133 38.0934 199.83 38.1186C199.061 38.1186 198.48 38.5026 198.485 39.041C198.485 39.5158 198.81 39.7768 199.576 39.9582L200.68 40.2234C201.956 40.5194 202.58 41.1326 202.58 42.1246C202.58 43.394 201.417 44.2925 199.741 44.2925C198.18 44.2925 197.157 43.5939 196.93 42.3511L198.238 42.1511C198.315 42.4805 198.51 42.7693 198.786 42.9615C199.062 43.1538 199.398 43.2357 199.731 43.1913C200.618 43.1913 201.192 42.7669 201.192 42.2232C201.192 41.7861 200.88 41.4843 200.212 41.3326L199.033 41.0673C197.731 40.774 197.134 40.1125 197.134 39.1153C197.134 37.8724 198.246 37.038 199.818 37.038C201.322 37.038 202.167 37.7499 202.461 38.8416L201.22 39.0601Z" fill="#335FFF"/>
<path d="M38.59 33.6787V46.9852C38.5904 47.1859 38.5317 47.3822 38.4214 47.5493C38.311 47.7163 38.154 47.8464 37.9703 47.9233C37.7866 48.0001 37.5844 48.0201 37.3894 47.9808C37.1943 47.9415 37.0152 47.8446 36.8749 47.7024L19.6998 30.3692C19.5864 30.2553 19.433 30.1913 19.2731 30.1913C19.1131 30.1913 18.9596 30.2553 18.8463 30.3692L1.71115 47.7024C1.57093 47.8444 1.39212 47.9412 1.19734 47.9807C1.00255 48.0201 0.800557 48.0003 0.616928 47.9238C0.433299 47.8473 0.276323 47.7175 0.165804 47.5509C0.0552863 47.3843 -0.00378529 47.1884 -0.0039042 46.9879V1.01474C-0.00430617 0.814025 0.0543957 0.617702 0.164714 0.450694C0.275032 0.283685 0.431972 0.153511 0.615709 0.0766799C0.799446 -0.000151395 1.00167 -0.0201774 1.1967 0.0191468C1.39173 0.0584711 1.57077 0.155369 1.71115 0.297553L11.0671 9.7397C11.2551 9.93018 11.3605 10.1881 11.3604 10.4569V21.7609L18.5687 14.4968C18.7573 14.3077 19.0124 14.2015 19.2783 14.2015C19.5442 14.2015 19.7993 14.3077 19.9879 14.4968L38.2956 32.9711C38.4809 33.159 38.5862 33.4125 38.5889 33.6776L38.59 33.6787Z" fill="#335FFF"/>
<path d="M11.3617 10.452V21.7587L1.12202e-06 33.2251V1.01469C-0.000296079 0.814084 0.0584549 0.617894 0.168747 0.451C0.27904 0.284106 0.435922 0.154022 0.61955 0.0772125C0.803179 0.000403031 1.00528 -0.0196691 1.20022 0.0195499C1.39516 0.058769 1.57413 0.155502 1.71454 0.297502L11.0695 9.73699C11.2563 9.92729 11.3612 10.1842 11.3617 10.452Z" fill="url(#paint0_linear_4183_2159)"/>
<path d="M29.3516 14.3211V1.01461C29.3519 0.813913 29.4111 0.617817 29.5218 0.451062C29.6324 0.284308 29.7896 0.154371 29.9734 0.0776476C30.1571 0.000924795 30.3593 -0.0191469 30.5543 0.0199689C30.7494 0.0590846 30.9286 0.155639 31.0693 0.297436L48.2443 17.6306C48.3573 17.7444 48.5103 17.8083 48.6698 17.8083C48.8293 17.8083 48.9824 17.7444 49.0953 17.6306L66.2304 0.297436C66.3711 0.155639 66.5503 0.0590846 66.7453 0.0199689C66.9404 -0.0191469 67.1426 0.000924795 67.3263 0.0776476C67.5101 0.154371 67.6672 0.284308 67.7778 0.451062C67.8885 0.617817 67.9477 0.813913 67.9481 1.01461V46.9846C67.9472 47.185 67.8876 47.3808 67.7768 47.5471C67.6659 47.7135 67.5088 47.843 67.3251 47.9194C67.1415 47.9958 66.9395 48.0156 66.7447 47.9764C66.5499 47.9372 66.371 47.8407 66.2304 47.6991L56.8791 38.2617C56.7854 38.1678 56.7109 38.0561 56.6602 37.933C56.6094 37.8099 56.5832 37.6779 56.5832 37.5445V26.2405L49.3776 33.5152C49.189 33.7044 48.9338 33.8105 48.6679 33.8105C48.402 33.8105 48.147 33.7044 47.9584 33.5152L29.6522 15.0272C29.4655 14.84 29.3592 14.5862 29.3563 14.3206L29.3516 14.3211Z" fill="#335FFF"/>
<path d="M56.5836 37.5461V26.2373L67.9453 14.7709V46.9814C67.9457 47.1821 67.887 47.3784 67.7767 47.5454C67.6664 47.7124 67.5094 47.8426 67.3257 47.9194C67.1419 47.9962 66.9397 48.0163 66.7447 47.9769C66.5497 47.9376 66.3706 47.8407 66.2302 47.6985L56.8743 38.2612C56.688 38.0706 56.5836 37.8138 56.5836 37.5461Z" fill="url(#paint1_linear_4183_2159)"/>
<defs>
<linearGradient id="paint0_linear_4183_2159" x1="-5.11276" y1="10.2333" x2="9.24638" y2="12.0071" gradientUnits="userSpaceOnUse">
<stop stop-color="white" stop-opacity="0"/>
<stop offset="1" stop-opacity="0.2"/>
</linearGradient>
<linearGradient id="paint1_linear_4183_2159" x1="73.0581" y1="37.7631" x2="58.6989" y2="35.9894" gradientUnits="userSpaceOnUse">
<stop stop-color="white" stop-opacity="0"/>
<stop offset="1" stop-opacity="0.2"/>
</linearGradient>
</defs>
</svg>
